999
"DXF R12 Output" (www.mydxf.blogspot.com)
 0 
SECTION
 2 
HEADER
 9 
$ACADVER
 1 
AC1009
 9 
$EXTMIN
 10 
 0 
 20 
 0 
 9 
$EXTMAX
 10 
 8.5 
 20 
 11 
 0 
ENDSEC
 0 
SECTION
 2 
ENTITIES
0
POLYLINE
8
Layer 1
62
7
70
0
10
0.000000
20
0.000000
66
1
0
VERTEX
8
Layer 1
10
216.130836
20
155.836000
70
0
0
VERTEX
8
Layer 1
10
216.130836
20
168.002691
70
0
0
SEQEND
8
Layer 1
0
POLYLINE
8
Layer 1
62
7
70
0
10
0.000000
20
0.000000
66
1
0
VERTEX
8
Layer 1
10
216.130836
20
168.002691
70
0
0
VERTEX
8
Layer 1
10
220.131331
20
168.002691
70
0
0
SEQEND
8
Layer 1
0
POLYLINE
8
Layer 1
62
7
70
0
10
0.000000
20
0.000000
66
1
0
VERTEX
8
Layer 1
10
220.131331
20
168.002691
70
0
0
VERTEX
8
Layer 1
10
220.131331
20
180.169275
70
0
0
SEQEND
8
Layer 1
0
POLYLINE
8
Layer 1
62
7
70
0
10
0.000000
20
0.000000
66
1
0
VERTEX
8
Layer 1
10
220.131331
20
180.169275
70
0
0
VERTEX
8
Layer 1
10
216.130836
20
180.169275
70
0
0
SEQEND
8
Layer 1
0
POLYLINE
8
Layer 1
62
7
70
0
10
0.000000
20
0.000000
66
1
0
VERTEX
8
Layer 1
10
216.130836
20
180.169275
70
0
0
VERTEX
8
Layer 1
10
216.130836
20
192.336019
70
0
0
SEQEND
8
Layer 1
0
POLYLINE
8
Layer 1
62
7
70
0
10
0.000000
20
0.000000
66
1
0
VERTEX
8
Layer 1
10
216.130836
20
192.336019
70
0
0
VERTEX
8
Layer 1
10
220.131331
20
192.336019
70
0
0
SEQEND
8
Layer 1
0
POLYLINE
8
Layer 1
62
7
70
0
10
0.000000
20
0.000000
66
1
0
VERTEX
8
Layer 1
10
220.131331
20
192.336019
70
0
0
VERTEX
8
Layer 1
10
220.131331
20
204.502603
70
0
0
SEQEND
8
Layer 1
0
POLYLINE
8
Layer 1
62
7
70
0
10
0.000000
20
0.000000
66
1
0
VERTEX
8
Layer 1
10
220.131331
20
204.502603
70
0
0
VERTEX
8
Layer 1
10
216.130836
20
204.502603
70
0
0
SEQEND
8
Layer 1
0
POLYLINE
8
Layer 1
62
7
70
0
10
0.000000
20
0.000000
66
1
0
VERTEX
8
Layer 1
10
216.130836
20
204.502603
70
0
0
VERTEX
8
Layer 1
10
216.130836
20
216.669188
70
0
0
SEQEND
8
Layer 1
0
POLYLINE
8
Layer 1
62
7
70
0
10
0.000000
20
0.000000
66
1
0
VERTEX
8
Layer 1
10
216.130836
20
216.669188
70
0
0
VERTEX
8
Layer 1
10
220.131331
20
216.669188
70
0
0
SEQEND
8
Layer 1
0
POLYLINE
8
Layer 1
62
7
70
0
10
0.000000
20
0.000000
66
1
0
VERTEX
8
Layer 1
10
220.131331
20
216.669188
70
0
0
VERTEX
8
Layer 1
10
220.131331
20
228.836037
70
0
0
SEQEND
8
Layer 1
0
POLYLINE
8
Layer 1
62
7
70
0
10
0.000000
20
0.000000
66
1
0
VERTEX
8
Layer 1
10
220.131331
20
228.836037
70
0
0
VERTEX
8
Layer 1
10
216.130836
20
228.836037
70
0
0
SEQEND
8
Layer 1
0
POLYLINE
8
Layer 1
62
7
70
0
10
0.000000
20
0.000000
66
1
0
VERTEX
8
Layer 1
10
216.130836
20
228.836037
70
0
0
VERTEX
8
Layer 1
10
216.130836
20
241.002622
70
0
0
SEQEND
8
Layer 1
0
POLYLINE
8
Layer 1
62
7
70
0
10
0.000000
20
0.000000
66
1
0
VERTEX
8
Layer 1
10
216.130836
20
241.002622
70
0
0
VERTEX
8
Layer 1
10
220.131331
20
241.002622
70
0
0
SEQEND
8
Layer 1
0
POLYLINE
8
Layer 1
62
7
70
0
10
0.000000
20
0.000000
66
1
0
VERTEX
8
Layer 1
10
220.131331
20
241.002622
70
0
0
VERTEX
8
Layer 1
10
220.131331
20
253.169207
70
0
0
SEQEND
8
Layer 1
0
POLYLINE
8
Layer 1
62
7
70
0
10
0.000000
20
0.000000
66
1
0
VERTEX
8
Layer 1
10
220.131331
20
253.169207
70
0
0
VERTEX
8
Layer 1
10
216.130836
20
253.169207
70
0
0
SEQEND
8
Layer 1
0
POLYLINE
8
Layer 1
62
7
70
0
10
0.000000
20
0.000000
66
1
0
VERTEX
8
Layer 1
10
216.130836
20
253.169207
70
0
0
VERTEX
8
Layer 1
10
216.130836
20
265.335791
70
0
0
SEQEND
8
Layer 1
0
POLYLINE
8
Layer 1
62
7
70
0
10
0.000000
20
0.000000
66
1
0
VERTEX
8
Layer 1
10
216.130836
20
265.335791
70
0
0
VERTEX
8
Layer 1
10
220.131331
20
265.335791
70
0
0
SEQEND
8
Layer 1
0
POLYLINE
8
Layer 1
62
7
70
0
10
0.000000
20
0.000000
66
1
0
VERTEX
8
Layer 1
10
220.131331
20
265.335791
70
0
0
VERTEX
8
Layer 1
10
220.131331
20
277.502905
70
0
0
SEQEND
8
Layer 1
0
POLYLINE
8
Layer 1
62
7
70
0
10
0.000000
20
0.000000
66
1
0
VERTEX
8
Layer 1
10
220.131331
20
277.502905
70
0
0
VERTEX
8
Layer 1
10
216.130836
20
277.502905
70
0
0
SEQEND
8
Layer 1
0
POLYLINE
8
Layer 1
62
7
70
0
10
0.000000
20
0.000000
66
1
0
VERTEX
8
Layer 1
10
216.130836
20
277.502905
70
0
0
VERTEX
8
Layer 1
10
216.130836
20
289.668961
70
0
0
SEQEND
8
Layer 1
0
POLYLINE
8
Layer 1
62
7
70
0
10
0.000000
20
0.000000
66
1
0
VERTEX
8
Layer 1
10
216.130836
20
289.668961
70
0
0
VERTEX
8
Layer 1
10
220.131331
20
289.668961
70
0
0
SEQEND
8
Layer 1
0
POLYLINE
8
Layer 1
62
7
70
0
10
0.000000
20
0.000000
66
1
0
VERTEX
8
Layer 1
10
220.131331
20
289.668961
70
0
0
VERTEX
8
Layer 1
10
220.131331
20
301.835810
70
0
0
SEQEND
8
Layer 1
0
POLYLINE
8
Layer 1
62
7
70
0
10
0.000000
20
0.000000
66
1
0
VERTEX
8
Layer 1
10
220.131331
20
301.835810
70
0
0
VERTEX
8
Layer 1
10
4.131062
20
301.835810
70
0
0
SEQEND
8
Layer 1
0
POLYLINE
8
Layer 1
62
7
70
0
10
0.000000
20
0.000000
66
1
0
VERTEX
8
Layer 1
10
4.131062
20
301.835810
70
0
0
VERTEX
8
Layer 1
10
4.131062
20
289.668961
70
0
0
SEQEND
8
Layer 1
0
POLYLINE
8
Layer 1
62
7
70
0
10
0.000000
20
0.000000
66
1
0
VERTEX
8
Layer 1
10
4.131062
20
289.668961
70
0
0
VERTEX
8
Layer 1
10
0.130567
20
289.668961
70
0
0
SEQEND
8
Layer 1
0
POLYLINE
8
Layer 1
62
7
70
0
10
0.000000
20
0.000000
66
1
0
VERTEX
8
Layer 1
10
0.130567
20
289.668961
70
0
0
VERTEX
8
Layer 1
10
0.130567
20
277.502905
70
0
0
SEQEND
8
Layer 1
0
POLYLINE
8
Layer 1
62
7
70
0
10
0.000000
20
0.000000
66
1
0
VERTEX
8
Layer 1
10
0.130567
20
277.502905
70
0
0
VERTEX
8
Layer 1
10
4.131062
20
277.502905
70
0
0
SEQEND
8
Layer 1
0
POLYLINE
8
Layer 1
62
7
70
0
10
0.000000
20
0.000000
66
1
0
VERTEX
8
Layer 1
10
4.131062
20
277.502905
70
0
0
VERTEX
8
Layer 1
10
4.131062
20
265.335791
70
0
0
SEQEND
8
Layer 1
0
POLYLINE
8
Layer 1
62
7
70
0
10
0.000000
20
0.000000
66
1
0
VERTEX
8
Layer 1
10
4.131062
20
265.335791
70
0
0
VERTEX
8
Layer 1
10
0.130567
20
265.335791
70
0
0
SEQEND
8
Layer 1
0
POLYLINE
8
Layer 1
62
7
70
0
10
0.000000
20
0.000000
66
1
0
VERTEX
8
Layer 1
10
0.130567
20
265.335791
70
0
0
VERTEX
8
Layer 1
10
0.130567
20
253.169207
70
0
0
SEQEND
8
Layer 1
0
POLYLINE
8
Layer 1
62
7
70
0
10
0.000000
20
0.000000
66
1
0
VERTEX
8
Layer 1
10
0.130567
20
253.169207
70
0
0
VERTEX
8
Layer 1
10
4.131062
20
253.169207
70
0
0
SEQEND
8
Layer 1
0
POLYLINE
8
Layer 1
62
7
70
0
10
0.000000
20
0.000000
66
1
0
VERTEX
8
Layer 1
10
4.131062
20
253.169207
70
0
0
VERTEX
8
Layer 1
10
4.131062
20
241.002622
70
0
0
SEQEND
8
Layer 1
0
POLYLINE
8
Layer 1
62
7
70
0
10
0.000000
20
0.000000
66
1
0
VERTEX
8
Layer 1
10
4.131062
20
241.002622
70
0
0
VERTEX
8
Layer 1
10
0.130567
20
241.002622
70
0
0
SEQEND
8
Layer 1
0
POLYLINE
8
Layer 1
62
7
70
0
10
0.000000
20
0.000000
66
1
0
VERTEX
8
Layer 1
10
0.130567
20
241.002622
70
0
0
VERTEX
8
Layer 1
10
0.130567
20
228.836037
70
0
0
SEQEND
8
Layer 1
0
POLYLINE
8
Layer 1
62
7
70
0
10
0.000000
20
0.000000
66
1
0
VERTEX
8
Layer 1
10
0.130567
20
228.836037
70
0
0
VERTEX
8
Layer 1
10
4.131062
20
228.836037
70
0
0
SEQEND
8
Layer 1
0
POLYLINE
8
Layer 1
62
7
70
0
10
0.000000
20
0.000000
66
1
0
VERTEX
8
Layer 1
10
4.131062
20
228.836037
70
0
0
VERTEX
8
Layer 1
10
4.131062
20
216.669188
70
0
0
SEQEND
8
Layer 1
0
POLYLINE
8
Layer 1
62
7
70
0
10
0.000000
20
0.000000
66
1
0
VERTEX
8
Layer 1
10
4.131062
20
216.669188
70
0
0
VERTEX
8
Layer 1
10
0.130567
20
216.669188
70
0
0
SEQEND
8
Layer 1
0
POLYLINE
8
Layer 1
62
7
70
0
10
0.000000
20
0.000000
66
1
0
VERTEX
8
Layer 1
10
0.130567
20
216.669188
70
0
0
VERTEX
8
Layer 1
10
0.130567
20
204.502603
70
0
0
SEQEND
8
Layer 1
0
POLYLINE
8
Layer 1
62
7
70
0
10
0.000000
20
0.000000
66
1
0
VERTEX
8
Layer 1
10
0.130567
20
204.502603
70
0
0
VERTEX
8
Layer 1
10
4.131062
20
204.502603
70
0
0
SEQEND
8
Layer 1
0
POLYLINE
8
Layer 1
62
7
70
0
10
0.000000
20
0.000000
66
1
0
VERTEX
8
Layer 1
10
4.131062
20
204.502603
70
0
0
VERTEX
8
Layer 1
10
4.131062
20
192.336019
70
0
0
SEQEND
8
Layer 1
0
POLYLINE
8
Layer 1
62
7
70
0
10
0.000000
20
0.000000
66
1
0
VERTEX
8
Layer 1
10
4.131062
20
192.336019
70
0
0
VERTEX
8
Layer 1
10
0.130567
20
192.336019
70
0
0
SEQEND
8
Layer 1
0
POLYLINE
8
Layer 1
62
7
70
0
10
0.000000
20
0.000000
66
1
0
VERTEX
8
Layer 1
10
0.130567
20
192.336019
70
0
0
VERTEX
8
Layer 1
10
0.130567
20
180.169275
70
0
0
SEQEND
8
Layer 1
0
POLYLINE
8
Layer 1
62
7
70
0
10
0.000000
20
0.000000
66
1
0
VERTEX
8
Layer 1
10
0.130567
20
180.169275
70
0
0
VERTEX
8
Layer 1
10
4.131062
20
180.169275
70
0
0
SEQEND
8
Layer 1
0
POLYLINE
8
Layer 1
62
7
70
0
10
0.000000
20
0.000000
66
1
0
VERTEX
8
Layer 1
10
4.131062
20
180.169275
70
0
0
VERTEX
8
Layer 1
10
4.131062
20
168.002691
70
0
0
SEQEND
8
Layer 1
0
POLYLINE
8
Layer 1
62
7
70
0
10
0.000000
20
0.000000
66
1
0
VERTEX
8
Layer 1
10
4.131062
20
168.002691
70
0
0
VERTEX
8
Layer 1
10
0.130567
20
168.002691
70
0
0
SEQEND
8
Layer 1
0
POLYLINE
8
Layer 1
62
7
70
0
10
0.000000
20
0.000000
66
1
0
VERTEX
8
Layer 1
10
0.130567
20
168.002691
70
0
0
VERTEX
8
Layer 1
10
0.130567
20
151.836008
70
0
0
SEQEND
8
Layer 1
0
POLYLINE
8
Layer 1
62
7
70
0
10
0.000000
20
0.000000
66
1
0
VERTEX
8
Layer 1
10
0.130567
20
151.836008
70
0
0
VERTEX
8
Layer 1
10
4.131062
20
151.836008
70
0
0
SEQEND
8
Layer 1
0
POLYLINE
8
Layer 1
62
7
70
0
10
0.000000
20
0.000000
66
1
0
VERTEX
8
Layer 1
10
4.131062
20
151.836008
70
0
0
VERTEX
8
Layer 1
10
4.131062
20
155.836000
70
0
0
SEQEND
8
Layer 1
0
POLYLINE
8
Layer 1
62
7
70
0
10
0.000000
20
0.000000
66
1
0
VERTEX
8
Layer 1
10
4.131062
20
155.836000
70
0
0
VERTEX
8
Layer 1
10
21.799914
20
155.836000
70
0
0
SEQEND
8
Layer 1
0
POLYLINE
8
Layer 1
62
7
70
0
10
0.000000
20
0.000000
66
1
0
VERTEX
8
Layer 1
10
21.799914
20
155.836000
70
0
0
VERTEX
8
Layer 1
10
21.799914
20
151.836008
70
0
0
SEQEND
8
Layer 1
0
POLYLINE
8
Layer 1
62
7
70
0
10
0.000000
20
0.000000
66
1
0
VERTEX
8
Layer 1
10
21.799914
20
151.836008
70
0
0
VERTEX
8
Layer 1
10
39.460830
20
151.836008
70
0
0
SEQEND
8
Layer 1
0
POLYLINE
8
Layer 1
62
7
70
0
10
0.000000
20
0.000000
66
1
0
VERTEX
8
Layer 1
10
39.460830
20
151.836008
70
0
0
VERTEX
8
Layer 1
10
39.460830
20
155.836000
70
0
0
SEQEND
8
Layer 1
0
POLYLINE
8
Layer 1
62
7
70
0
10
0.000000
20
0.000000
66
1
0
VERTEX
8
Layer 1
10
39.460830
20
155.836000
70
0
0
VERTEX
8
Layer 1
10
57.132328
20
155.836000
70
0
0
SEQEND
8
Layer 1
0
POLYLINE
8
Layer 1
62
7
70
0
10
0.000000
20
0.000000
66
1
0
VERTEX
8
Layer 1
10
57.132328
20
155.836000
70
0
0
VERTEX
8
Layer 1
10
57.132328
20
151.836008
70
0
0
SEQEND
8
Layer 1
0
POLYLINE
8
Layer 1
62
7
70
0
10
0.000000
20
0.000000
66
1
0
VERTEX
8
Layer 1
10
57.132328
20
151.836008
70
0
0
VERTEX
8
Layer 1
10
74.801181
20
151.836008
70
0
0
SEQEND
8
Layer 1
0
POLYLINE
8
Layer 1
62
7
70
0
10
0.000000
20
0.000000
66
1
0
VERTEX
8
Layer 1
10
74.801181
20
151.836008
70
0
0
VERTEX
8
Layer 1
10
74.801181
20
155.836000
70
0
0
SEQEND
8
Layer 1
0
POLYLINE
8
Layer 1
62
7
70
0
10
0.000000
20
0.000000
66
1
0
VERTEX
8
Layer 1
10
74.801181
20
155.836000
70
0
0
VERTEX
8
Layer 1
10
92.462096
20
155.836000
70
0
0
SEQEND
8
Layer 1
0
POLYLINE
8
Layer 1
62
7
70
0
10
0.000000
20
0.000000
66
1
0
VERTEX
8
Layer 1
10
92.462096
20
155.836000
70
0
0
VERTEX
8
Layer 1
10
92.462096
20
151.836008
70
0
0
SEQEND
8
Layer 1
0
POLYLINE
8
Layer 1
62
7
70
0
10
0.000000
20
0.000000
66
1
0
VERTEX
8
Layer 1
10
92.462096
20
151.836008
70
0
0
VERTEX
8
Layer 1
10
110.130949
20
151.836008
70
0
0
SEQEND
8
Layer 1
0
POLYLINE
8
Layer 1
62
7
70
0
10
0.000000
20
0.000000
66
1
0
VERTEX
8
Layer 1
10
110.130949
20
151.836008
70
0
0
VERTEX
8
Layer 1
10
110.130949
20
155.836000
70
0
0
SEQEND
8
Layer 1
0
POLYLINE
8
Layer 1
62
7
70
0
10
0.000000
20
0.000000
66
1
0
VERTEX
8
Layer 1
10
110.130949
20
155.836000
70
0
0
VERTEX
8
Layer 1
10
127.799802
20
155.836000
70
0
0
SEQEND
8
Layer 1
0
POLYLINE
8
Layer 1
62
7
70
0
10
0.000000
20
0.000000
66
1
0
VERTEX
8
Layer 1
10
127.799802
20
155.836000
70
0
0
VERTEX
8
Layer 1
10
127.799802
20
151.836008
70
0
0
SEQEND
8
Layer 1
0
POLYLINE
8
Layer 1
62
7
70
0
10
0.000000
20
0.000000
66
1
0
VERTEX
8
Layer 1
10
127.799802
20
151.836008
70
0
0
VERTEX
8
Layer 1
10
145.460717
20
151.836008
70
0
0
SEQEND
8
Layer 1
0
POLYLINE
8
Layer 1
62
7
70
0
10
0.000000
20
0.000000
66
1
0
VERTEX
8
Layer 1
10
145.460717
20
151.836008
70
0
0
VERTEX
8
Layer 1
10
145.460717
20
155.836000
70
0
0
SEQEND
8
Layer 1
0
POLYLINE
8
Layer 1
62
7
70
0
10
0.000000
20
0.000000
66
1
0
VERTEX
8
Layer 1
10
145.460717
20
155.836000
70
0
0
VERTEX
8
Layer 1
10
163.132216
20
155.836000
70
0
0
SEQEND
8
Layer 1
0
POLYLINE
8
Layer 1
62
7
70
0
10
0.000000
20
0.000000
66
1
0
VERTEX
8
Layer 1
10
163.132216
20
155.836000
70
0
0
VERTEX
8
Layer 1
10
163.132216
20
151.836008
70
0
0
SEQEND
8
Layer 1
0
POLYLINE
8
Layer 1
62
7
70
0
10
0.000000
20
0.000000
66
1
0
VERTEX
8
Layer 1
10
163.132216
20
151.836008
70
0
0
VERTEX
8
Layer 1
10
180.801068
20
151.836008
70
0
0
SEQEND
8
Layer 1
0
POLYLINE
8
Layer 1
62
7
70
0
10
0.000000
20
0.000000
66
1
0
VERTEX
8
Layer 1
10
180.801068
20
151.836008
70
0
0
VERTEX
8
Layer 1
10
180.801068
20
155.836000
70
0
0
SEQEND
8
Layer 1
0
POLYLINE
8
Layer 1
62
7
70
0
10
0.000000
20
0.000000
66
1
0
VERTEX
8
Layer 1
10
180.801068
20
155.836000
70
0
0
VERTEX
8
Layer 1
10
198.461984
20
155.836000
70
0
0
SEQEND
8
Layer 1
0
POLYLINE
8
Layer 1
62
7
70
0
10
0.000000
20
0.000000
66
1
0
VERTEX
8
Layer 1
10
198.461984
20
155.836000
70
0
0
VERTEX
8
Layer 1
10
198.461984
20
151.836008
70
0
0
SEQEND
8
Layer 1
0
POLYLINE
8
Layer 1
62
7
70
0
10
0.000000
20
0.000000
66
1
0
VERTEX
8
Layer 1
10
198.461984
20
151.836008
70
0
0
VERTEX
8
Layer 1
10
220.131331
20
151.836008
70
0
0
SEQEND
8
Layer 1
0
POLYLINE
8
Layer 1
62
7
70
0
10
0.000000
20
0.000000
66
1
0
VERTEX
8
Layer 1
10
220.131331
20
151.836008
70
0
0
VERTEX
8
Layer 1
10
220.131331
20
155.836000
70
0
0
SEQEND
8
Layer 1
0
POLYLINE
8
Layer 1
62
7
70
0
10
0.000000
20
0.000000
66
1
0
VERTEX
8
Layer 1
10
220.131331
20
155.836000
70
0
0
VERTEX
8
Layer 1
10
216.130836
20
155.836000
70
0
0
SEQEND
8
Layer 1
0
POLYLINE
8
Layer 1
62
7
70
0
10
0.000000
20
0.000000
66
1
0
VERTEX
8
Layer 1
10
64.702048
20
293.835878
70
0
0
VERTEX
8
Layer 1
10
34.420524
20
293.835878
70
0
0
SEQEND
8
Layer 1
0
POLYLINE
8
Layer 1
62
7
70
0
10
0.000000
20
0.000000
66
1
0
VERTEX
8
Layer 1
10
34.420524
20
293.835878
70
0
0
VERTEX
8
Layer 1
10
34.420524
20
297.835844
70
0
0
SEQEND
8
Layer 1
0
POLYLINE
8
Layer 1
62
7
70
0
10
0.000000
20
0.000000
66
1
0
VERTEX
8
Layer 1
10
34.420524
20
297.835844
70
0
0
VERTEX
8
Layer 1
10
64.702048
20
297.835844
70
0
0
SEQEND
8
Layer 1
0
POLYLINE
8
Layer 1
62
7
70
0
10
0.000000
20
0.000000
66
1
0
VERTEX
8
Layer 1
10
64.702048
20
297.835844
70
0
0
VERTEX
8
Layer 1
10
64.702048
20
293.835878
70
0
0
SEQEND
8
Layer 1
0
POLYLINE
8
Layer 1
62
7
70
0
10
0.000000
20
0.000000
66
1
0
VERTEX
8
Layer 1
10
125.270388
20
293.835878
70
0
0
VERTEX
8
Layer 1
10
94.991510
20
293.835878
70
0
0
SEQEND
8
Layer 1
0
POLYLINE
8
Layer 1
62
7
70
0
10
0.000000
20
0.000000
66
1
0
VERTEX
8
Layer 1
10
94.991510
20
293.835878
70
0
0
VERTEX
8
Layer 1
10
94.991510
20
297.835844
70
0
0
SEQEND
8
Layer 1
0
POLYLINE
8
Layer 1
62
7
70
0
10
0.000000
20
0.000000
66
1
0
VERTEX
8
Layer 1
10
94.991510
20
297.835844
70
0
0
VERTEX
8
Layer 1
10
125.270388
20
297.835844
70
0
0
SEQEND
8
Layer 1
0
POLYLINE
8
Layer 1
62
7
70
0
10
0.000000
20
0.000000
66
1
0
VERTEX
8
Layer 1
10
125.270388
20
297.835844
70
0
0
VERTEX
8
Layer 1
10
125.270388
20
293.835878
70
0
0
SEQEND
8
Layer 1
0
POLYLINE
8
Layer 1
62
7
70
0
10
0.000000
20
0.000000
66
1
0
VERTEX
8
Layer 1
10
185.841374
20
293.835878
70
0
0
VERTEX
8
Layer 1
10
155.559850
20
293.835878
70
0
0
SEQEND
8
Layer 1
0
POLYLINE
8
Layer 1
62
7
70
0
10
0.000000
20
0.000000
66
1
0
VERTEX
8
Layer 1
10
155.559850
20
293.835878
70
0
0
VERTEX
8
Layer 1
10
155.559850
20
297.835844
70
0
0
SEQEND
8
Layer 1
0
POLYLINE
8
Layer 1
62
7
70
0
10
0.000000
20
0.000000
66
1
0
VERTEX
8
Layer 1
10
155.559850
20
297.835844
70
0
0
VERTEX
8
Layer 1
10
185.841374
20
297.835844
70
0
0
SEQEND
8
Layer 1
0
POLYLINE
8
Layer 1
62
7
70
0
10
0.000000
20
0.000000
66
1
0
VERTEX
8
Layer 1
10
185.841374
20
297.835844
70
0
0
VERTEX
8
Layer 1
10
185.841374
20
293.835878
70
0
0
SEQEND
8
Layer 1
0
POLYLINE
8
Layer 1
62
7
70
0
10
0.000000
20
0.000000
66
1
0
VERTEX
8
Layer 1
10
216.133848
20
146.131000
70
0
0
VERTEX
8
Layer 1
10
216.133848
20
133.964309
70
0
0
SEQEND
8
Layer 1
0
POLYLINE
8
Layer 1
62
7
70
0
10
0.000000
20
0.000000
66
1
0
VERTEX
8
Layer 1
10
216.133848
20
133.964309
70
0
0
VERTEX
8
Layer 1
10
220.131697
20
133.964309
70
0
0
SEQEND
8
Layer 1
0
POLYLINE
8
Layer 1
62
7
70
0
10
0.000000
20
0.000000
66
1
0
VERTEX
8
Layer 1
10
220.131697
20
133.964309
70
0
0
VERTEX
8
Layer 1
10
220.131697
20
121.797725
70
0
0
SEQEND
8
Layer 1
0
POLYLINE
8
Layer 1
62
7
70
0
10
0.000000
20
0.000000
66
1
0
VERTEX
8
Layer 1
10
220.131697
20
121.797725
70
0
0
VERTEX
8
Layer 1
10
216.133848
20
121.797725
70
0
0
SEQEND
8
Layer 1
0
POLYLINE
8
Layer 1
62
7
70
0
10
0.000000
20
0.000000
66
1
0
VERTEX
8
Layer 1
10
216.133848
20
121.797725
70
0
0
VERTEX
8
Layer 1
10
216.133848
20
109.630981
70
0
0
SEQEND
8
Layer 1
0
POLYLINE
8
Layer 1
62
7
70
0
10
0.000000
20
0.000000
66
1
0
VERTEX
8
Layer 1
10
216.133848
20
109.630981
70
0
0
VERTEX
8
Layer 1
10
220.131697
20
109.630981
70
0
0
SEQEND
8
Layer 1
0
POLYLINE
8
Layer 1
62
7
70
0
10
0.000000
20
0.000000
66
1
0
VERTEX
8
Layer 1
10
220.131697
20
109.630981
70
0
0
VERTEX
8
Layer 1
10
220.131697
20
97.464397
70
0
0
SEQEND
8
Layer 1
0
POLYLINE
8
Layer 1
62
7
70
0
10
0.000000
20
0.000000
66
1
0
VERTEX
8
Layer 1
10
220.131697
20
97.464397
70
0
0
VERTEX
8
Layer 1
10
216.133848
20
97.464397
70
0
0
SEQEND
8
Layer 1
0
POLYLINE
8
Layer 1
62
7
70
0
10
0.000000
20
0.000000
66
1
0
VERTEX
8
Layer 1
10
216.133848
20
97.464397
70
0
0
VERTEX
8
Layer 1
10
216.133848
20
85.297812
70
0
0
SEQEND
8
Layer 1
0
POLYLINE
8
Layer 1
62
7
70
0
10
0.000000
20
0.000000
66
1
0
VERTEX
8
Layer 1
10
216.133848
20
85.297812
70
0
0
VERTEX
8
Layer 1
10
220.131697
20
85.297812
70
0
0
SEQEND
8
Layer 1
0
POLYLINE
8
Layer 1
62
7
70
0
10
0.000000
20
0.000000
66
1
0
VERTEX
8
Layer 1
10
220.131697
20
85.297812
70
0
0
VERTEX
8
Layer 1
10
220.131697
20
73.130963
70
0
0
SEQEND
8
Layer 1
0
POLYLINE
8
Layer 1
62
7
70
0
10
0.000000
20
0.000000
66
1
0
VERTEX
8
Layer 1
10
220.131697
20
73.130963
70
0
0
VERTEX
8
Layer 1
10
216.133848
20
73.130963
70
0
0
SEQEND
8
Layer 1
0
POLYLINE
8
Layer 1
62
7
70
0
10
0.000000
20
0.000000
66
1
0
VERTEX
8
Layer 1
10
216.133848
20
73.130963
70
0
0
VERTEX
8
Layer 1
10
216.133848
20
60.964378
70
0
0
SEQEND
8
Layer 1
0
POLYLINE
8
Layer 1
62
7
70
0
10
0.000000
20
0.000000
66
1
0
VERTEX
8
Layer 1
10
216.133848
20
60.964378
70
0
0
VERTEX
8
Layer 1
10
220.131697
20
60.964378
70
0
0
SEQEND
8
Layer 1
0
POLYLINE
8
Layer 1
62
7
70
0
10
0.000000
20
0.000000
66
1
0
VERTEX
8
Layer 1
10
220.131697
20
60.964378
70
0
0
VERTEX
8
Layer 1
10
220.131697
20
48.797793
70
0
0
SEQEND
8
Layer 1
0
POLYLINE
8
Layer 1
62
7
70
0
10
0.000000
20
0.000000
66
1
0
VERTEX
8
Layer 1
10
220.131697
20
48.797793
70
0
0
VERTEX
8
Layer 1
10
216.133848
20
48.797793
70
0
0
SEQEND
8
Layer 1
0
POLYLINE
8
Layer 1
62
7
70
0
10
0.000000
20
0.000000
66
1
0
VERTEX
8
Layer 1
10
216.133848
20
48.797793
70
0
0
VERTEX
8
Layer 1
10
216.133848
20
36.631209
70
0
0
SEQEND
8
Layer 1
0
POLYLINE
8
Layer 1
62
7
70
0
10
0.000000
20
0.000000
66
1
0
VERTEX
8
Layer 1
10
216.133848
20
36.631209
70
0
0
VERTEX
8
Layer 1
10
220.131697
20
36.631209
70
0
0
SEQEND
8
Layer 1
0
POLYLINE
8
Layer 1
62
7
70
0
10
0.000000
20
0.000000
66
1
0
VERTEX
8
Layer 1
10
220.131697
20
36.631209
70
0
0
VERTEX
8
Layer 1
10
220.131697
20
24.464095
70
0
0
SEQEND
8
Layer 1
0
POLYLINE
8
Layer 1
62
7
70
0
10
0.000000
20
0.000000
66
1
0
VERTEX
8
Layer 1
10
220.131697
20
24.464095
70
0
0
VERTEX
8
Layer 1
10
216.133848
20
24.464095
70
0
0
SEQEND
8
Layer 1
0
POLYLINE
8
Layer 1
62
7
70
0
10
0.000000
20
0.000000
66
1
0
VERTEX
8
Layer 1
10
216.133848
20
24.464095
70
0
0
VERTEX
8
Layer 1
10
216.133848
20
12.298039
70
0
0
SEQEND
8
Layer 1
0
POLYLINE
8
Layer 1
62
7
70
0
10
0.000000
20
0.000000
66
1
0
VERTEX
8
Layer 1
10
216.133848
20
12.298039
70
0
0
VERTEX
8
Layer 1
10
220.131697
20
12.298039
70
0
0
SEQEND
8
Layer 1
0
POLYLINE
8
Layer 1
62
7
70
0
10
0.000000
20
0.000000
66
1
0
VERTEX
8
Layer 1
10
220.131697
20
12.298039
70
0
0
VERTEX
8
Layer 1
10
220.131697
20
0.131190
70
0
0
SEQEND
8
Layer 1
0
POLYLINE
8
Layer 1
62
7
70
0
10
0.000000
20
0.000000
66
1
0
VERTEX
8
Layer 1
10
220.131697
20
0.131190
70
0
0
VERTEX
8
Layer 1
10
0.133579
20
0.131190
70
0
0
SEQEND
8
Layer 1
0
POLYLINE
8
Layer 1
62
7
70
0
10
0.000000
20
0.000000
66
1
0
VERTEX
8
Layer 1
10
0.133579
20
0.131190
70
0
0
VERTEX
8
Layer 1
10
0.133579
20
12.298039
70
0
0
SEQEND
8
Layer 1
0
POLYLINE
8
Layer 1
62
7
70
0
10
0.000000
20
0.000000
66
1
0
VERTEX
8
Layer 1
10
0.133579
20
12.298039
70
0
0
VERTEX
8
Layer 1
10
4.134074
20
12.298039
70
0
0
SEQEND
8
Layer 1
0
POLYLINE
8
Layer 1
62
7
70
0
10
0.000000
20
0.000000
66
1
0
VERTEX
8
Layer 1
10
4.134074
20
12.298039
70
0
0
VERTEX
8
Layer 1
10
4.134074
20
24.464095
70
0
0
SEQEND
8
Layer 1
0
POLYLINE
8
Layer 1
62
7
70
0
10
0.000000
20
0.000000
66
1
0
VERTEX
8
Layer 1
10
4.134074
20
24.464095
70
0
0
VERTEX
8
Layer 1
10
0.133579
20
24.464095
70
0
0
SEQEND
8
Layer 1
0
POLYLINE
8
Layer 1
62
7
70
0
10
0.000000
20
0.000000
66
1
0
VERTEX
8
Layer 1
10
0.133579
20
24.464095
70
0
0
VERTEX
8
Layer 1
10
0.133579
20
36.631209
70
0
0
SEQEND
8
Layer 1
0
POLYLINE
8
Layer 1
62
7
70
0
10
0.000000
20
0.000000
66
1
0
VERTEX
8
Layer 1
10
0.133579
20
36.631209
70
0
0
VERTEX
8
Layer 1
10
4.134074
20
36.631209
70
0
0
SEQEND
8
Layer 1
0
POLYLINE
8
Layer 1
62
7
70
0
10
0.000000
20
0.000000
66
1
0
VERTEX
8
Layer 1
10
4.134074
20
36.631209
70
0
0
VERTEX
8
Layer 1
10
4.134074
20
48.797793
70
0
0
SEQEND
8
Layer 1
0
POLYLINE
8
Layer 1
62
7
70
0
10
0.000000
20
0.000000
66
1
0
VERTEX
8
Layer 1
10
4.134074
20
48.797793
70
0
0
VERTEX
8
Layer 1
10
0.133579
20
48.797793
70
0
0
SEQEND
8
Layer 1
0
POLYLINE
8
Layer 1
62
7
70
0
10
0.000000
20
0.000000
66
1
0
VERTEX
8
Layer 1
10
0.133579
20
48.797793
70
0
0
VERTEX
8
Layer 1
10
0.133579
20
60.964378
70
0
0
SEQEND
8
Layer 1
0
POLYLINE
8
Layer 1
62
7
70
0
10
0.000000
20
0.000000
66
1
0
VERTEX
8
Layer 1
10
0.133579
20
60.964378
70
0
0
VERTEX
8
Layer 1
10
4.134074
20
60.964378
70
0
0
SEQEND
8
Layer 1
0
POLYLINE
8
Layer 1
62
7
70
0
10
0.000000
20
0.000000
66
1
0
VERTEX
8
Layer 1
10
4.134074
20
60.964378
70
0
0
VERTEX
8
Layer 1
10
4.134074
20
73.130963
70
0
0
SEQEND
8
Layer 1
0
POLYLINE
8
Layer 1
62
7
70
0
10
0.000000
20
0.000000
66
1
0
VERTEX
8
Layer 1
10
4.134074
20
73.130963
70
0
0
VERTEX
8
Layer 1
10
0.133579
20
73.130963
70
0
0
SEQEND
8
Layer 1
0
POLYLINE
8
Layer 1
62
7
70
0
10
0.000000
20
0.000000
66
1
0
VERTEX
8
Layer 1
10
0.133579
20
73.130963
70
0
0
VERTEX
8
Layer 1
10
0.133579
20
85.297812
70
0
0
SEQEND
8
Layer 1
0
POLYLINE
8
Layer 1
62
7
70
0
10
0.000000
20
0.000000
66
1
0
VERTEX
8
Layer 1
10
0.133579
20
85.297812
70
0
0
VERTEX
8
Layer 1
10
4.134074
20
85.297812
70
0
0
SEQEND
8
Layer 1
0
POLYLINE
8
Layer 1
62
7
70
0
10
0.000000
20
0.000000
66
1
0
VERTEX
8
Layer 1
10
4.134074
20
85.297812
70
0
0
VERTEX
8
Layer 1
10
4.134074
20
97.464397
70
0
0
SEQEND
8
Layer 1
0
POLYLINE
8
Layer 1
62
7
70
0
10
0.000000
20
0.000000
66
1
0
VERTEX
8
Layer 1
10
4.134074
20
97.464397
70
0
0
VERTEX
8
Layer 1
10
0.133579
20
97.464397
70
0
0
SEQEND
8
Layer 1
0
POLYLINE
8
Layer 1
62
7
70
0
10
0.000000
20
0.000000
66
1
0
VERTEX
8
Layer 1
10
0.133579
20
97.464397
70
0
0
VERTEX
8
Layer 1
10
0.133579
20
109.630981
70
0
0
SEQEND
8
Layer 1
0
POLYLINE
8
Layer 1
62
7
70
0
10
0.000000
20
0.000000
66
1
0
VERTEX
8
Layer 1
10
0.133579
20
109.630981
70
0
0
VERTEX
8
Layer 1
10
4.134074
20
109.630981
70
0
0
SEQEND
8
Layer 1
0
POLYLINE
8
Layer 1
62
7
70
0
10
0.000000
20
0.000000
66
1
0
VERTEX
8
Layer 1
10
4.134074
20
109.630981
70
0
0
VERTEX
8
Layer 1
10
4.134074
20
121.797725
70
0
0
SEQEND
8
Layer 1
0
POLYLINE
8
Layer 1
62
7
70
0
10
0.000000
20
0.000000
66
1
0
VERTEX
8
Layer 1
10
4.134074
20
121.797725
70
0
0
VERTEX
8
Layer 1
10
0.133579
20
121.797725
70
0
0
SEQEND
8
Layer 1
0
POLYLINE
8
Layer 1
62
7
70
0
10
0.000000
20
0.000000
66
1
0
VERTEX
8
Layer 1
10
0.133579
20
121.797725
70
0
0
VERTEX
8
Layer 1
10
0.133579
20
133.964309
70
0
0
SEQEND
8
Layer 1
0
POLYLINE
8
Layer 1
62
7
70
0
10
0.000000
20
0.000000
66
1
0
VERTEX
8
Layer 1
10
0.133579
20
133.964309
70
0
0
VERTEX
8
Layer 1
10
4.134074
20
133.964309
70
0
0
SEQEND
8
Layer 1
0
POLYLINE
8
Layer 1
62
7
70
0
10
0.000000
20
0.000000
66
1
0
VERTEX
8
Layer 1
10
4.134074
20
133.964309
70
0
0
VERTEX
8
Layer 1
10
4.134074
20
146.131000
70
0
0
SEQEND
8
Layer 1
0
POLYLINE
8
Layer 1
62
7
70
0
10
0.000000
20
0.000000
66
1
0
VERTEX
8
Layer 1
10
4.134074
20
146.131000
70
0
0
VERTEX
8
Layer 1
10
21.802926
20
146.131000
70
0
0
SEQEND
8
Layer 1
0
POLYLINE
8
Layer 1
62
7
70
0
10
0.000000
20
0.000000
66
1
0
VERTEX
8
Layer 1
10
21.802926
20
146.131000
70
0
0
VERTEX
8
Layer 1
10
21.802926
20
150.130992
70
0
0
SEQEND
8
Layer 1
0
POLYLINE
8
Layer 1
62
7
70
0
10
0.000000
20
0.000000
66
1
0
VERTEX
8
Layer 1
10
21.802926
20
150.130992
70
0
0
VERTEX
8
Layer 1
10
39.463842
20
150.130992
70
0
0
SEQEND
8
Layer 1
0
POLYLINE
8
Layer 1
62
7
70
0
10
0.000000
20
0.000000
66
1
0
VERTEX
8
Layer 1
10
39.463842
20
150.130992
70
0
0
VERTEX
8
Layer 1
10
39.463842
20
146.131000
70
0
0
SEQEND
8
Layer 1
0
POLYLINE
8
Layer 1
62
7
70
0
10
0.000000
20
0.000000
66
1
0
VERTEX
8
Layer 1
10
39.463842
20
146.131000
70
0
0
VERTEX
8
Layer 1
10
57.132694
20
146.131000
70
0
0
SEQEND
8
Layer 1
0
POLYLINE
8
Layer 1
62
7
70
0
10
0.000000
20
0.000000
66
1
0
VERTEX
8
Layer 1
10
57.132694
20
146.131000
70
0
0
VERTEX
8
Layer 1
10
57.132694
20
150.130992
70
0
0
SEQEND
8
Layer 1
0
POLYLINE
8
Layer 1
62
7
70
0
10
0.000000
20
0.000000
66
1
0
VERTEX
8
Layer 1
10
57.132694
20
150.130992
70
0
0
VERTEX
8
Layer 1
10
74.798901
20
150.130992
70
0
0
SEQEND
8
Layer 1
0
POLYLINE
8
Layer 1
62
7
70
0
10
0.000000
20
0.000000
66
1
0
VERTEX
8
Layer 1
10
74.798901
20
150.130992
70
0
0
VERTEX
8
Layer 1
10
74.798901
20
146.131000
70
0
0
SEQEND
8
Layer 1
0
POLYLINE
8
Layer 1
62
7
70
0
10
0.000000
20
0.000000
66
1
0
VERTEX
8
Layer 1
10
74.798901
20
146.131000
70
0
0
VERTEX
8
Layer 1
10
92.465108
20
146.131000
70
0
0
SEQEND
8
Layer 1
0
POLYLINE
8
Layer 1
62
7
70
0
10
0.000000
20
0.000000
66
1
0
VERTEX
8
Layer 1
10
92.465108
20
146.131000
70
0
0
VERTEX
8
Layer 1
10
92.465108
20
150.130992
70
0
0
SEQEND
8
Layer 1
0
POLYLINE
8
Layer 1
62
7
70
0
10
0.000000
20
0.000000
66
1
0
VERTEX
8
Layer 1
10
92.465108
20
150.130992
70
0
0
VERTEX
8
Layer 1
10
110.133961
20
150.130992
70
0
0
SEQEND
8
Layer 1
0
POLYLINE
8
Layer 1
62
7
70
0
10
0.000000
20
0.000000
66
1
0
VERTEX
8
Layer 1
10
110.133961
20
150.130992
70
0
0
VERTEX
8
Layer 1
10
110.133961
20
146.131000
70
0
0
SEQEND
8
Layer 1
0
POLYLINE
8
Layer 1
62
7
70
0
10
0.000000
20
0.000000
66
1
0
VERTEX
8
Layer 1
10
110.133961
20
146.131000
70
0
0
VERTEX
8
Layer 1
10
127.800168
20
146.131000
70
0
0
SEQEND
8
Layer 1
0
POLYLINE
8
Layer 1
62
7
70
0
10
0.000000
20
0.000000
66
1
0
VERTEX
8
Layer 1
10
127.800168
20
146.131000
70
0
0
VERTEX
8
Layer 1
10
127.800168
20
150.130992
70
0
0
SEQEND
8
Layer 1
0
POLYLINE
8
Layer 1
62
7
70
0
10
0.000000
20
0.000000
66
1
0
VERTEX
8
Layer 1
10
127.800168
20
150.130992
70
0
0
VERTEX
8
Layer 1
10
145.466375
20
150.130992
70
0
0
SEQEND
8
Layer 1
0
POLYLINE
8
Layer 1
62
7
70
0
10
0.000000
20
0.000000
66
1
0
VERTEX
8
Layer 1
10
145.466375
20
150.130992
70
0
0
VERTEX
8
Layer 1
10
145.466375
20
146.131000
70
0
0
SEQEND
8
Layer 1
0
POLYLINE
8
Layer 1
62
7
70
0
10
0.000000
20
0.000000
66
1
0
VERTEX
8
Layer 1
10
145.466375
20
146.131000
70
0
0
VERTEX
8
Layer 1
10
163.132582
20
146.131000
70
0
0
SEQEND
8
Layer 1
0
POLYLINE
8
Layer 1
62
7
70
0
10
0.000000
20
0.000000
66
1
0
VERTEX
8
Layer 1
10
163.132582
20
146.131000
70
0
0
VERTEX
8
Layer 1
10
163.132582
20
150.130992
70
0
0
SEQEND
8
Layer 1
0
POLYLINE
8
Layer 1
62
7
70
0
10
0.000000
20
0.000000
66
1
0
VERTEX
8
Layer 1
10
163.132582
20
150.130992
70
0
0
VERTEX
8
Layer 1
10
180.798789
20
150.130992
70
0
0
SEQEND
8
Layer 1
0
POLYLINE
8
Layer 1
62
7
70
0
10
0.000000
20
0.000000
66
1
0
VERTEX
8
Layer 1
10
180.798789
20
150.130992
70
0
0
VERTEX
8
Layer 1
10
180.798789
20
146.131000
70
0
0
SEQEND
8
Layer 1
0
POLYLINE
8
Layer 1
62
7
70
0
10
0.000000
20
0.000000
66
1
0
VERTEX
8
Layer 1
10
180.798789
20
146.131000
70
0
0
VERTEX
8
Layer 1
10
198.464995
20
146.131000
70
0
0
SEQEND
8
Layer 1
0
POLYLINE
8
Layer 1
62
7
70
0
10
0.000000
20
0.000000
66
1
0
VERTEX
8
Layer 1
10
198.464995
20
146.131000
70
0
0
VERTEX
8
Layer 1
10
198.464995
20
150.130992
70
0
0
SEQEND
8
Layer 1
0
POLYLINE
8
Layer 1
62
7
70
0
10
0.000000
20
0.000000
66
1
0
VERTEX
8
Layer 1
10
198.464995
20
150.130992
70
0
0
VERTEX
8
Layer 1
10
220.131697
20
150.130992
70
0
0
SEQEND
8
Layer 1
0
POLYLINE
8
Layer 1
62
7
70
0
10
0.000000
20
0.000000
66
1
0
VERTEX
8
Layer 1
10
220.131697
20
150.130992
70
0
0
VERTEX
8
Layer 1
10
220.131697
20
146.131000
70
0
0
SEQEND
8
Layer 1
0
POLYLINE
8
Layer 1
62
7
70
0
10
0.000000
20
0.000000
66
1
0
VERTEX
8
Layer 1
10
220.131697
20
146.131000
70
0
0
VERTEX
8
Layer 1
10
216.133848
20
146.131000
70
0
0
SEQEND
8
Layer 1
0
POLYLINE
8
Layer 1
62
7
70
0
10
0.000000
20
0.000000
66
1
0
VERTEX
8
Layer 1
10
64.705060
20
8.131122
70
0
0
VERTEX
8
Layer 1
10
34.423535
20
8.131122
70
0
0
SEQEND
8
Layer 1
0
POLYLINE
8
Layer 1
62
7
70
0
10
0.000000
20
0.000000
66
1
0
VERTEX
8
Layer 1
10
34.423535
20
8.131122
70
0
0
VERTEX
8
Layer 1
10
34.423535
20
4.131156
70
0
0
SEQEND
8
Layer 1
0
POLYLINE
8
Layer 1
62
7
70
0
10
0.000000
20
0.000000
66
1
0
VERTEX
8
Layer 1
10
34.423535
20
4.131156
70
0
0
VERTEX
8
Layer 1
10
64.705060
20
4.131156
70
0
0
SEQEND
8
Layer 1
0
POLYLINE
8
Layer 1
62
7
70
0
10
0.000000
20
0.000000
66
1
0
VERTEX
8
Layer 1
10
64.705060
20
4.131156
70
0
0
VERTEX
8
Layer 1
10
64.705060
20
8.131122
70
0
0
SEQEND
8
Layer 1
0
POLYLINE
8
Layer 1
62
7
70
0
10
0.000000
20
0.000000
66
1
0
VERTEX
8
Layer 1
10
56.286029
20
76.003805
70
0
0
VERTEX
8
Layer 1
10
56.151091
20
76.867139
70
0
0
SEQEND
8
Layer 1
0
POLYLINE
8
Layer 1
62
7
70
0
10
0.000000
20
0.000000
66
1
0
VERTEX
8
Layer 1
10
56.151091
20
76.867139
70
0
0
VERTEX
8
Layer 1
10
55.923550
20
77.711424
70
0
0
SEQEND
8
Layer 1
0
POLYLINE
8
Layer 1
62
7
70
0
10
0.000000
20
0.000000
66
1
0
VERTEX
8
Layer 1
10
55.923550
20
77.711424
70
0
0
VERTEX
8
Layer 1
10
55.611342
20
78.527398
70
0
0
SEQEND
8
Layer 1
0
POLYLINE
8
Layer 1
62
7
70
0
10
0.000000
20
0.000000
66
1
0
VERTEX
8
Layer 1
10
55.611342
20
78.527398
70
0
0
VERTEX
8
Layer 1
10
55.214468
20
79.306065
70
0
0
SEQEND
8
Layer 1
0
POLYLINE
8
Layer 1
62
7
70
0
10
0.000000
20
0.000000
66
1
0
VERTEX
8
Layer 1
10
55.214468
20
79.306065
70
0
0
VERTEX
8
Layer 1
10
54.738218
20
80.038960
70
0
0
SEQEND
8
Layer 1
0
POLYLINE
8
Layer 1
62
7
70
0
10
0.000000
20
0.000000
66
1
0
VERTEX
8
Layer 1
10
54.738218
20
80.038960
70
0
0
VERTEX
8
Layer 1
10
54.187886
20
80.718409
70
0
0
SEQEND
8
Layer 1
0
POLYLINE
8
Layer 1
62
7
70
0
10
0.000000
20
0.000000
66
1
0
VERTEX
8
Layer 1
10
54.187886
20
80.718409
70
0
0
VERTEX
8
Layer 1
10
53.574053
20
81.336475
70
0
0
SEQEND
8
Layer 1
0
POLYLINE
8
Layer 1
62
7
70
0
10
0.000000
20
0.000000
66
1
0
VERTEX
8
Layer 1
10
53.574053
20
81.336475
70
0
0
VERTEX
8
Layer 1
10
52.894075
20
81.886279
70
0
0
SEQEND
8
Layer 1
0
POLYLINE
8
Layer 1
62
7
70
0
10
0.000000
20
0.000000
66
1
0
VERTEX
8
Layer 1
10
52.894075
20
81.886279
70
0
0
VERTEX
8
Layer 1
10
52.163826
20
82.362264
70
0
0
SEQEND
8
Layer 1
0
POLYLINE
8
Layer 1
62
7
70
0
10
0.000000
20
0.000000
66
1
0
VERTEX
8
Layer 1
10
52.163826
20
82.362264
70
0
0
VERTEX
8
Layer 1
10
51.383306
20
82.759138
70
0
0
SEQEND
8
Layer 1
0
POLYLINE
8
Layer 1
62
7
70
0
10
0.000000
20
0.000000
66
1
0
VERTEX
8
Layer 1
10
51.383306
20
82.759138
70
0
0
VERTEX
8
Layer 1
10
50.563098
20
83.072404
70
0
0
SEQEND
8
Layer 1
0
POLYLINE
8
Layer 1
62
7
70
0
10
0.000000
20
0.000000
66
1
0
VERTEX
8
Layer 1
10
50.563098
20
83.072404
70
0
0
VERTEX
8
Layer 1
10
49.721725
20
83.298623
70
0
0
SEQEND
8
Layer 1
0
POLYLINE
8
Layer 1
62
7
70
0
10
0.000000
20
0.000000
66
1
0
VERTEX
8
Layer 1
10
49.721725
20
83.298623
70
0
0
VERTEX
8
Layer 1
10
48.853892
20
83.435412
70
0
0
SEQEND
8
Layer 1
0
POLYLINE
8
Layer 1
62
7
70
0
10
0.000000
20
0.000000
66
1
0
VERTEX
8
Layer 1
10
48.853892
20
83.435412
70
0
0
VERTEX
8
Layer 1
10
47.983414
20
83.481185
70
0
0
SEQEND
8
Layer 1
0
POLYLINE
8
Layer 1
62
7
70
0
10
0.000000
20
0.000000
66
1
0
VERTEX
8
Layer 1
10
47.983414
20
83.481185
70
0
0
VERTEX
8
Layer 1
10
47.112936
20
83.435412
70
0
0
SEQEND
8
Layer 1
0
POLYLINE
8
Layer 1
62
7
70
0
10
0.000000
20
0.000000
66
1
0
VERTEX
8
Layer 1
10
47.112936
20
83.435412
70
0
0
VERTEX
8
Layer 1
10
46.242458
20
83.298623
70
0
0
SEQEND
8
Layer 1
0
POLYLINE
8
Layer 1
62
7
70
0
10
0.000000
20
0.000000
66
1
0
VERTEX
8
Layer 1
10
46.242458
20
83.298623
70
0
0
VERTEX
8
Layer 1
10
45.403730
20
83.072404
70
0
0
SEQEND
8
Layer 1
0
POLYLINE
8
Layer 1
62
7
70
0
10
0.000000
20
0.000000
66
1
0
VERTEX
8
Layer 1
10
45.403730
20
83.072404
70
0
0
VERTEX
8
Layer 1
10
44.583523
20
82.759138
70
0
0
SEQEND
8
Layer 1
0
POLYLINE
8
Layer 1
62
7
70
0
10
0.000000
20
0.000000
66
1
0
VERTEX
8
Layer 1
10
44.583523
20
82.759138
70
0
0
VERTEX
8
Layer 1
10
43.803003
20
82.362264
70
0
0
SEQEND
8
Layer 1
0
POLYLINE
8
Layer 1
62
7
70
0
10
0.000000
20
0.000000
66
1
0
VERTEX
8
Layer 1
10
43.803003
20
82.362264
70
0
0
VERTEX
8
Layer 1
10
43.072754
20
81.886279
70
0
0
SEQEND
8
Layer 1
0
POLYLINE
8
Layer 1
62
7
70
0
10
0.000000
20
0.000000
66
1
0
VERTEX
8
Layer 1
10
43.072754
20
81.886279
70
0
0
VERTEX
8
Layer 1
10
42.392775
20
81.336475
70
0
0
SEQEND
8
Layer 1
0
POLYLINE
8
Layer 1
62
7
70
0
10
0.000000
20
0.000000
66
1
0
VERTEX
8
Layer 1
10
42.392775
20
81.336475
70
0
0
VERTEX
8
Layer 1
10
41.773651
20
80.718409
70
0
0
SEQEND
8
Layer 1
0
POLYLINE
8
Layer 1
62
7
70
0
10
0.000000
20
0.000000
66
1
0
VERTEX
8
Layer 1
10
41.773651
20
80.718409
70
0
0
VERTEX
8
Layer 1
10
41.223319
20
80.038960
70
0
0
SEQEND
8
Layer 1
0
POLYLINE
8
Layer 1
62
7
70
0
10
0.000000
20
0.000000
66
1
0
VERTEX
8
Layer 1
10
41.223319
20
80.038960
70
0
0
VERTEX
8
Layer 1
10
40.752361
20
79.306065
70
0
0
SEQEND
8
Layer 1
0
POLYLINE
8
Layer 1
62
7
70
0
10
0.000000
20
0.000000
66
1
0
VERTEX
8
Layer 1
10
40.752361
20
79.306065
70
0
0
VERTEX
8
Layer 1
10
40.352841
20
78.527398
70
0
0
SEQEND
8
Layer 1
0
POLYLINE
8
Layer 1
62
7
70
0
10
0.000000
20
0.000000
66
1
0
VERTEX
8
Layer 1
10
40.352841
20
78.527398
70
0
0
VERTEX
8
Layer 1
10
40.043278
20
77.711424
70
0
0
SEQEND
8
Layer 1
0
POLYLINE
8
Layer 1
62
7
70
0
10
0.000000
20
0.000000
66
1
0
VERTEX
8
Layer 1
10
40.043278
20
77.711424
70
0
0
VERTEX
8
Layer 1
10
39.813091
20
76.867139
70
0
0
SEQEND
8
Layer 1
0
POLYLINE
8
Layer 1
62
7
70
0
10
0.000000
20
0.000000
66
1
0
VERTEX
8
Layer 1
10
39.813091
20
76.867139
70
0
0
VERTEX
8
Layer 1
10
39.683446
20
76.003805
70
0
0
SEQEND
8
Layer 1
0
POLYLINE
8
Layer 1
62
7
70
0
10
0.000000
20
0.000000
66
1
0
VERTEX
8
Layer 1
10
39.683446
20
76.003805
70
0
0
VERTEX
8
Layer 1
10
39.633175
20
75.131210
70
0
0
SEQEND
8
Layer 1
0
POLYLINE
8
Layer 1
62
7
70
0
10
0.000000
20
0.000000
66
1
0
VERTEX
8
Layer 1
10
39.633175
20
75.131210
70
0
0
VERTEX
8
Layer 1
10
39.683446
20
74.258351
70
0
0
SEQEND
8
Layer 1
0
POLYLINE
8
Layer 1
62
7
70
0
10
0.000000
20
0.000000
66
1
0
VERTEX
8
Layer 1
10
39.683446
20
74.258351
70
0
0
VERTEX
8
Layer 1
10
39.813091
20
73.395017
70
0
0
SEQEND
8
Layer 1
0
POLYLINE
8
Layer 1
62
7
70
0
10
0.000000
20
0.000000
66
1
0
VERTEX
8
Layer 1
10
39.813091
20
73.395017
70
0
0
VERTEX
8
Layer 1
10
40.043278
20
72.550732
70
0
0
SEQEND
8
Layer 1
0
POLYLINE
8
Layer 1
62
7
70
0
10
0.000000
20
0.000000
66
1
0
VERTEX
8
Layer 1
10
40.043278
20
72.550732
70
0
0
VERTEX
8
Layer 1
10
40.352841
20
71.735023
70
0
0
SEQEND
8
Layer 1
0
POLYLINE
8
Layer 1
62
7
70
0
10
0.000000
20
0.000000
66
1
0
VERTEX
8
Layer 1
10
40.352841
20
71.735023
70
0
0
VERTEX
8
Layer 1
10
40.752361
20
70.956091
70
0
0
SEQEND
8
Layer 1
0
POLYLINE
8
Layer 1
62
7
70
0
10
0.000000
20
0.000000
66
1
0
VERTEX
8
Layer 1
10
40.752361
20
70.956091
70
0
0
VERTEX
8
Layer 1
10
41.223319
20
70.223196
70
0
0
SEQEND
8
Layer 1
0
POLYLINE
8
Layer 1
62
7
70
0
10
0.000000
20
0.000000
66
1
0
VERTEX
8
Layer 1
10
41.223319
20
70.223196
70
0
0
VERTEX
8
Layer 1
10
41.773651
20
69.544011
70
0
0
SEQEND
8
Layer 1
0
POLYLINE
8
Layer 1
62
7
70
0
10
0.000000
20
0.000000
66
1
0
VERTEX
8
Layer 1
10
41.773651
20
69.544011
70
0
0
VERTEX
8
Layer 1
10
42.392775
20
68.925681
70
0
0
SEQEND
8
Layer 1
0
POLYLINE
8
Layer 1
62
7
70
0
10
0.000000
20
0.000000
66
1
0
VERTEX
8
Layer 1
10
42.392775
20
68.925681
70
0
0
VERTEX
8
Layer 1
10
43.072754
20
68.375877
70
0
0
SEQEND
8
Layer 1
0
POLYLINE
8
Layer 1
62
7
70
0
10
0.000000
20
0.000000
66
1
0
VERTEX
8
Layer 1
10
43.072754
20
68.375877
70
0
0
VERTEX
8
Layer 1
10
43.803003
20
67.899892
70
0
0
SEQEND
8
Layer 1
0
POLYLINE
8
Layer 1
62
7
70
0
10
0.000000
20
0.000000
66
1
0
VERTEX
8
Layer 1
10
43.803003
20
67.899892
70
0
0
VERTEX
8
Layer 1
10
44.583523
20
67.503018
70
0
0
SEQEND
8
Layer 1
0
POLYLINE
8
Layer 1
62
7
70
0
10
0.000000
20
0.000000
66
1
0
VERTEX
8
Layer 1
10
44.583523
20
67.503018
70
0
0
VERTEX
8
Layer 1
10
45.403730
20
67.189752
70
0
0
SEQEND
8
Layer 1
0
POLYLINE
8
Layer 1
62
7
70
0
10
0.000000
20
0.000000
66
1
0
VERTEX
8
Layer 1
10
45.403730
20
67.189752
70
0
0
VERTEX
8
Layer 1
10
46.242458
20
66.963533
70
0
0
SEQEND
8
Layer 1
0
POLYLINE
8
Layer 1
62
7
70
0
10
0.000000
20
0.000000
66
1
0
VERTEX
8
Layer 1
10
46.242458
20
66.963533
70
0
0
VERTEX
8
Layer 1
10
47.112936
20
66.826744
70
0
0
SEQEND
8
Layer 1
0
POLYLINE
8
Layer 1
62
7
70
0
10
0.000000
20
0.000000
66
1
0
VERTEX
8
Layer 1
10
47.112936
20
66.826744
70
0
0
VERTEX
8
Layer 1
10
47.983414
20
66.780971
70
0
0
SEQEND
8
Layer 1
0
POLYLINE
8
Layer 1
62
7
70
0
10
0.000000
20
0.000000
66
1
0
VERTEX
8
Layer 1
10
47.983414
20
66.780971
70
0
0
VERTEX
8
Layer 1
10
48.853892
20
66.826744
70
0
0
SEQEND
8
Layer 1
0
POLYLINE
8
Layer 1
62
7
70
0
10
0.000000
20
0.000000
66
1
0
VERTEX
8
Layer 1
10
48.853892
20
66.826744
70
0
0
VERTEX
8
Layer 1
10
49.721725
20
66.963533
70
0
0
SEQEND
8
Layer 1
0
POLYLINE
8
Layer 1
62
7
70
0
10
0.000000
20
0.000000
66
1
0
VERTEX
8
Layer 1
10
49.721725
20
66.963533
70
0
0
VERTEX
8
Layer 1
10
50.563098
20
67.189752
70
0
0
SEQEND
8
Layer 1
0
POLYLINE
8
Layer 1
62
7
70
0
10
0.000000
20
0.000000
66
1
0
VERTEX
8
Layer 1
10
50.563098
20
67.189752
70
0
0
VERTEX
8
Layer 1
10
51.383306
20
67.503018
70
0
0
SEQEND
8
Layer 1
0
POLYLINE
8
Layer 1
62
7
70
0
10
0.000000
20
0.000000
66
1
0
VERTEX
8
Layer 1
10
51.383306
20
67.503018
70
0
0
VERTEX
8
Layer 1
10
52.163826
20
67.899892
70
0
0
SEQEND
8
Layer 1
0
POLYLINE
8
Layer 1
62
7
70
0
10
0.000000
20
0.000000
66
1
0
VERTEX
8
Layer 1
10
52.163826
20
67.899892
70
0
0
VERTEX
8
Layer 1
10
52.894075
20
68.375877
70
0
0
SEQEND
8
Layer 1
0
POLYLINE
8
Layer 1
62
7
70
0
10
0.000000
20
0.000000
66
1
0
VERTEX
8
Layer 1
10
52.894075
20
68.375877
70
0
0
VERTEX
8
Layer 1
10
53.574053
20
68.925681
70
0
0
SEQEND
8
Layer 1
0
POLYLINE
8
Layer 1
62
7
70
0
10
0.000000
20
0.000000
66
1
0
VERTEX
8
Layer 1
10
53.574053
20
68.925681
70
0
0
VERTEX
8
Layer 1
10
54.187886
20
69.544011
70
0
0
SEQEND
8
Layer 1
0
POLYLINE
8
Layer 1
62
7
70
0
10
0.000000
20
0.000000
66
1
0
VERTEX
8
Layer 1
10
54.187886
20
69.544011
70
0
0
VERTEX
8
Layer 1
10
54.738218
20
70.223196
70
0
0
SEQEND
8
Layer 1
0
POLYLINE
8
Layer 1
62
7
70
0
10
0.000000
20
0.000000
66
1
0
VERTEX
8
Layer 1
10
54.738218
20
70.223196
70
0
0
VERTEX
8
Layer 1
10
55.214468
20
70.956091
70
0
0
SEQEND
8
Layer 1
0
POLYLINE
8
Layer 1
62
7
70
0
10
0.000000
20
0.000000
66
1
0
VERTEX
8
Layer 1
10
55.214468
20
70.956091
70
0
0
VERTEX
8
Layer 1
10
55.611342
20
71.735023
70
0
0
SEQEND
8
Layer 1
0
POLYLINE
8
Layer 1
62
7
70
0
10
0.000000
20
0.000000
66
1
0
VERTEX
8
Layer 1
10
55.611342
20
71.735023
70
0
0
VERTEX
8
Layer 1
10
55.923550
20
72.550732
70
0
0
SEQEND
8
Layer 1
0
POLYLINE
8
Layer 1
62
7
70
0
10
0.000000
20
0.000000
66
1
0
VERTEX
8
Layer 1
10
55.923550
20
72.550732
70
0
0
VERTEX
8
Layer 1
10
56.151091
20
73.395017
70
0
0
SEQEND
8
Layer 1
0
POLYLINE
8
Layer 1
62
7
70
0
10
0.000000
20
0.000000
66
1
0
VERTEX
8
Layer 1
10
56.151091
20
73.395017
70
0
0
VERTEX
8
Layer 1
10
56.286029
20
74.258351
70
0
0
SEQEND
8
Layer 1
0
POLYLINE
8
Layer 1
62
7
70
0
10
0.000000
20
0.000000
66
1
0
VERTEX
8
Layer 1
10
56.286029
20
74.258351
70
0
0
VERTEX
8
Layer 1
10
56.333654
20
75.131210
70
0
0
SEQEND
8
Layer 1
0
POLYLINE
8
Layer 1
62
7
70
0
10
0.000000
20
0.000000
66
1
0
VERTEX
8
Layer 1
10
56.333654
20
75.131210
70
0
0
VERTEX
8
Layer 1
10
56.286029
20
76.003805
70
0
0
SEQEND
8
Layer 1
0
POLYLINE
8
Layer 1
62
7
70
0
10
0.000000
20
0.000000
66
1
0
VERTEX
8
Layer 1
10
97.886414
20
76.003805
70
0
0
VERTEX
8
Layer 1
10
97.751477
20
76.867139
70
0
0
SEQEND
8
Layer 1
0
POLYLINE
8
Layer 1
62
7
70
0
10
0.000000
20
0.000000
66
1
0
VERTEX
8
Layer 1
10
97.751477
20
76.867139
70
0
0
VERTEX
8
Layer 1
10
97.523935
20
77.711424
70
0
0
SEQEND
8
Layer 1
0
POLYLINE
8
Layer 1
62
7
70
0
10
0.000000
20
0.000000
66
1
0
VERTEX
8
Layer 1
10
97.523935
20
77.711424
70
0
0
VERTEX
8
Layer 1
10
97.211727
20
78.527398
70
0
0
SEQEND
8
Layer 1
0
POLYLINE
8
Layer 1
62
7
70
0
10
0.000000
20
0.000000
66
1
0
VERTEX
8
Layer 1
10
97.211727
20
78.527398
70
0
0
VERTEX
8
Layer 1
10
96.814853
20
79.306065
70
0
0
SEQEND
8
Layer 1
0
POLYLINE
8
Layer 1
62
7
70
0
10
0.000000
20
0.000000
66
1
0
VERTEX
8
Layer 1
10
96.814853
20
79.306065
70
0
0
VERTEX
8
Layer 1
10
96.338603
20
80.038960
70
0
0
SEQEND
8
Layer 1
0
POLYLINE
8
Layer 1
62
7
70
0
10
0.000000
20
0.000000
66
1
0
VERTEX
8
Layer 1
10
96.338603
20
80.038960
70
0
0
VERTEX
8
Layer 1
10
95.788271
20
80.718409
70
0
0
SEQEND
8
Layer 1
0
POLYLINE
8
Layer 1
62
7
70
0
10
0.000000
20
0.000000
66
1
0
VERTEX
8
Layer 1
10
95.788271
20
80.718409
70
0
0
VERTEX
8
Layer 1
10
95.169146
20
81.336475
70
0
0
SEQEND
8
Layer 1
0
POLYLINE
8
Layer 1
62
7
70
0
10
0.000000
20
0.000000
66
1
0
VERTEX
8
Layer 1
10
95.169146
20
81.336475
70
0
0
VERTEX
8
Layer 1
10
94.491814
20
81.886279
70
0
0
SEQEND
8
Layer 1
0
POLYLINE
8
Layer 1
62
7
70
0
10
0.000000
20
0.000000
66
1
0
VERTEX
8
Layer 1
10
94.491814
20
81.886279
70
0
0
VERTEX
8
Layer 1
10
93.758919
20
82.362264
70
0
0
SEQEND
8
Layer 1
0
POLYLINE
8
Layer 1
62
7
70
0
10
0.000000
20
0.000000
66
1
0
VERTEX
8
Layer 1
10
93.758919
20
82.362264
70
0
0
VERTEX
8
Layer 1
10
92.978399
20
82.759138
70
0
0
SEQEND
8
Layer 1
0
POLYLINE
8
Layer 1
62
7
70
0
10
0.000000
20
0.000000
66
1
0
VERTEX
8
Layer 1
10
92.978399
20
82.759138
70
0
0
VERTEX
8
Layer 1
10
92.163484
20
83.072404
70
0
0
SEQEND
8
Layer 1
0
POLYLINE
8
Layer 1
62
7
70
0
10
0.000000
20
0.000000
66
1
0
VERTEX
8
Layer 1
10
92.163484
20
83.072404
70
0
0
VERTEX
8
Layer 1
10
91.319464
20
83.298623
70
0
0
SEQEND
8
Layer 1
0
POLYLINE
8
Layer 1
62
7
70
0
10
0.000000
20
0.000000
66
1
0
VERTEX
8
Layer 1
10
91.319464
20
83.298623
70
0
0
VERTEX
8
Layer 1
10
90.456923
20
83.435412
70
0
0
SEQEND
8
Layer 1
0
POLYLINE
8
Layer 1
62
7
70
0
10
0.000000
20
0.000000
66
1
0
VERTEX
8
Layer 1
10
90.456923
20
83.435412
70
0
0
VERTEX
8
Layer 1
10
89.583799
20
83.481185
70
0
0
SEQEND
8
Layer 1
0
POLYLINE
8
Layer 1
62
7
70
0
10
0.000000
20
0.000000
66
1
0
VERTEX
8
Layer 1
10
89.583799
20
83.481185
70
0
0
VERTEX
8
Layer 1
10
88.710675
20
83.435412
70
0
0
SEQEND
8
Layer 1
0
POLYLINE
8
Layer 1
62
7
70
0
10
0.000000
20
0.000000
66
1
0
VERTEX
8
Layer 1
10
88.710675
20
83.435412
70
0
0
VERTEX
8
Layer 1
10
87.848135
20
83.298623
70
0
0
SEQEND
8
Layer 1
0
POLYLINE
8
Layer 1
62
7
70
0
10
0.000000
20
0.000000
66
1
0
VERTEX
8
Layer 1
10
87.848135
20
83.298623
70
0
0
VERTEX
8
Layer 1
10
87.004115
20
83.072404
70
0
0
SEQEND
8
Layer 1
0
POLYLINE
8
Layer 1
62
7
70
0
10
0.000000
20
0.000000
66
1
0
VERTEX
8
Layer 1
10
87.004115
20
83.072404
70
0
0
VERTEX
8
Layer 1
10
86.186554
20
82.759138
70
0
0
SEQEND
8
Layer 1
0
POLYLINE
8
Layer 1
62
7
70
0
10
0.000000
20
0.000000
66
1
0
VERTEX
8
Layer 1
10
86.186554
20
82.759138
70
0
0
VERTEX
8
Layer 1
10
85.408680
20
82.362264
70
0
0
SEQEND
8
Layer 1
0
POLYLINE
8
Layer 1
62
7
70
0
10
0.000000
20
0.000000
66
1
0
VERTEX
8
Layer 1
10
85.408680
20
82.362264
70
0
0
VERTEX
8
Layer 1
10
84.675785
20
81.886279
70
0
0
SEQEND
8
Layer 1
0
POLYLINE
8
Layer 1
62
7
70
0
10
0.000000
20
0.000000
66
1
0
VERTEX
8
Layer 1
10
84.675785
20
81.886279
70
0
0
VERTEX
8
Layer 1
10
83.995806
20
81.336475
70
0
0
SEQEND
8
Layer 1
0
POLYLINE
8
Layer 1
62
7
70
0
10
0.000000
20
0.000000
66
1
0
VERTEX
8
Layer 1
10
83.995806
20
81.336475
70
0
0
VERTEX
8
Layer 1
10
83.376682
20
80.718409
70
0
0
SEQEND
8
Layer 1
0
POLYLINE
8
Layer 1
62
7
70
0
10
0.000000
20
0.000000
66
1
0
VERTEX
8
Layer 1
10
83.376682
20
80.718409
70
0
0
VERTEX
8
Layer 1
10
82.828995
20
80.038960
70
0
0
SEQEND
8
Layer 1
0
POLYLINE
8
Layer 1
62
7
70
0
10
0.000000
20
0.000000
66
1
0
VERTEX
8
Layer 1
10
82.828995
20
80.038960
70
0
0
VERTEX
8
Layer 1
10
82.352746
20
79.306065
70
0
0
SEQEND
8
Layer 1
0
POLYLINE
8
Layer 1
62
7
70
0
10
0.000000
20
0.000000
66
1
0
VERTEX
8
Layer 1
10
82.352746
20
79.306065
70
0
0
VERTEX
8
Layer 1
10
81.955871
20
78.527398
70
0
0
SEQEND
8
Layer 1
0
POLYLINE
8
Layer 1
62
7
70
0
10
0.000000
20
0.000000
66
1
0
VERTEX
8
Layer 1
10
81.955871
20
78.527398
70
0
0
VERTEX
8
Layer 1
10
81.641018
20
77.711424
70
0
0
SEQEND
8
Layer 1
0
POLYLINE
8
Layer 1
62
7
70
0
10
0.000000
20
0.000000
66
1
0
VERTEX
8
Layer 1
10
81.641018
20
77.711424
70
0
0
VERTEX
8
Layer 1
10
81.416122
20
76.867139
70
0
0
SEQEND
8
Layer 1
0
POLYLINE
8
Layer 1
62
7
70
0
10
0.000000
20
0.000000
66
1
0
VERTEX
8
Layer 1
10
81.416122
20
76.867139
70
0
0
VERTEX
8
Layer 1
10
81.278539
20
76.003805
70
0
0
SEQEND
8
Layer 1
0
POLYLINE
8
Layer 1
62
7
70
0
10
0.000000
20
0.000000
66
1
0
VERTEX
8
Layer 1
10
81.278539
20
76.003805
70
0
0
VERTEX
8
Layer 1
10
81.233560
20
75.131210
70
0
0
SEQEND
8
Layer 1
0
POLYLINE
8
Layer 1
62
7
70
0
10
0.000000
20
0.000000
66
1
0
VERTEX
8
Layer 1
10
81.233560
20
75.131210
70
0
0
VERTEX
8
Layer 1
10
81.278539
20
74.258351
70
0
0
SEQEND
8
Layer 1
0
POLYLINE
8
Layer 1
62
7
70
0
10
0.000000
20
0.000000
66
1
0
VERTEX
8
Layer 1
10
81.278539
20
74.258351
70
0
0
VERTEX
8
Layer 1
10
81.416122
20
73.395017
70
0
0
SEQEND
8
Layer 1
0
POLYLINE
8
Layer 1
62
7
70
0
10
0.000000
20
0.000000
66
1
0
VERTEX
8
Layer 1
10
81.416122
20
73.395017
70
0
0
VERTEX
8
Layer 1
10
81.641018
20
72.550732
70
0
0
SEQEND
8
Layer 1
0
POLYLINE
8
Layer 1
62
7
70
0
10
0.000000
20
0.000000
66
1
0
VERTEX
8
Layer 1
10
81.641018
20
72.550732
70
0
0
VERTEX
8
Layer 1
10
81.955871
20
71.735023
70
0
0
SEQEND
8
Layer 1
0
POLYLINE
8
Layer 1
62
7
70
0
10
0.000000
20
0.000000
66
1
0
VERTEX
8
Layer 1
10
81.955871
20
71.735023
70
0
0
VERTEX
8
Layer 1
10
82.352746
20
70.956091
70
0
0
SEQEND
8
Layer 1
0
POLYLINE
8
Layer 1
62
7
70
0
10
0.000000
20
0.000000
66
1
0
VERTEX
8
Layer 1
10
82.352746
20
70.956091
70
0
0
VERTEX
8
Layer 1
10
82.828995
20
70.223196
70
0
0
SEQEND
8
Layer 1
0
POLYLINE
8
Layer 1
62
7
70
0
10
0.000000
20
0.000000
66
1
0
VERTEX
8
Layer 1
10
82.828995
20
70.223196
70
0
0
VERTEX
8
Layer 1
10
83.376682
20
69.544011
70
0
0
SEQEND
8
Layer 1
0
POLYLINE
8
Layer 1
62
7
70
0
10
0.000000
20
0.000000
66
1
0
VERTEX
8
Layer 1
10
83.376682
20
69.544011
70
0
0
VERTEX
8
Layer 1
10
83.995806
20
68.925681
70
0
0
SEQEND
8
Layer 1
0
POLYLINE
8
Layer 1
62
7
70
0
10
0.000000
20
0.000000
66
1
0
VERTEX
8
Layer 1
10
83.995806
20
68.925681
70
0
0
VERTEX
8
Layer 1
10
84.675785
20
68.375877
70
0
0
SEQEND
8
Layer 1
0
POLYLINE
8
Layer 1
62
7
70
0
10
0.000000
20
0.000000
66
1
0
VERTEX
8
Layer 1
10
84.675785
20
68.375877
70
0
0
VERTEX
8
Layer 1
10
85.408680
20
67.899892
70
0
0
SEQEND
8
Layer 1
0
POLYLINE
8
Layer 1
62
7
70
0
10
0.000000
20
0.000000
66
1
0
VERTEX
8
Layer 1
10
85.408680
20
67.899892
70
0
0
VERTEX
8
Layer 1
10
86.186554
20
67.503018
70
0
0
SEQEND
8
Layer 1
0
POLYLINE
8
Layer 1
62
7
70
0
10
0.000000
20
0.000000
66
1
0
VERTEX
8
Layer 1
10
86.186554
20
67.503018
70
0
0
VERTEX
8
Layer 1
10
87.004115
20
67.189752
70
0
0
SEQEND
8
Layer 1
0
POLYLINE
8
Layer 1
62
7
70
0
10
0.000000
20
0.000000
66
1
0
VERTEX
8
Layer 1
10
87.004115
20
67.189752
70
0
0
VERTEX
8
Layer 1
10
87.848135
20
66.963533
70
0
0
SEQEND
8
Layer 1
0
POLYLINE
8
Layer 1
62
7
70
0
10
0.000000
20
0.000000
66
1
0
VERTEX
8
Layer 1
10
87.848135
20
66.963533
70
0
0
VERTEX
8
Layer 1
10
88.710675
20
66.826744
70
0
0
SEQEND
8
Layer 1
0
POLYLINE
8
Layer 1
62
7
70
0
10
0.000000
20
0.000000
66
1
0
VERTEX
8
Layer 1
10
88.710675
20
66.826744
70
0
0
VERTEX
8
Layer 1
10
89.583799
20
66.780971
70
0
0
SEQEND
8
Layer 1
0
POLYLINE
8
Layer 1
62
7
70
0
10
0.000000
20
0.000000
66
1
0
VERTEX
8
Layer 1
10
89.583799
20
66.780971
70
0
0
VERTEX
8
Layer 1
10
90.456923
20
66.826744
70
0
0
SEQEND
8
Layer 1
0
POLYLINE
8
Layer 1
62
7
70
0
10
0.000000
20
0.000000
66
1
0
VERTEX
8
Layer 1
10
90.456923
20
66.826744
70
0
0
VERTEX
8
Layer 1
10
91.319464
20
66.963533
70
0
0
SEQEND
8
Layer 1
0
POLYLINE
8
Layer 1
62
7
70
0
10
0.000000
20
0.000000
66
1
0
VERTEX
8
Layer 1
10
91.319464
20
66.963533
70
0
0
VERTEX
8
Layer 1
10
92.163484
20
67.189752
70
0
0
SEQEND
8
Layer 1
0
POLYLINE
8
Layer 1
62
7
70
0
10
0.000000
20
0.000000
66
1
0
VERTEX
8
Layer 1
10
92.163484
20
67.189752
70
0
0
VERTEX
8
Layer 1
10
92.978399
20
67.503018
70
0
0
SEQEND
8
Layer 1
0
POLYLINE
8
Layer 1
62
7
70
0
10
0.000000
20
0.000000
66
1
0
VERTEX
8
Layer 1
10
92.978399
20
67.503018
70
0
0
VERTEX
8
Layer 1
10
93.758919
20
67.899892
70
0
0
SEQEND
8
Layer 1
0
POLYLINE
8
Layer 1
62
7
70
0
10
0.000000
20
0.000000
66
1
0
VERTEX
8
Layer 1
10
93.758919
20
67.899892
70
0
0
VERTEX
8
Layer 1
10
94.491814
20
68.375877
70
0
0
SEQEND
8
Layer 1
0
POLYLINE
8
Layer 1
62
7
70
0
10
0.000000
20
0.000000
66
1
0
VERTEX
8
Layer 1
10
94.491814
20
68.375877
70
0
0
VERTEX
8
Layer 1
10
95.169146
20
68.925681
70
0
0
SEQEND
8
Layer 1
0
POLYLINE
8
Layer 1
62
7
70
0
10
0.000000
20
0.000000
66
1
0
VERTEX
8
Layer 1
10
95.169146
20
68.925681
70
0
0
VERTEX
8
Layer 1
10
95.788271
20
69.544011
70
0
0
SEQEND
8
Layer 1
0
POLYLINE
8
Layer 1
62
7
70
0
10
0.000000
20
0.000000
66
1
0
VERTEX
8
Layer 1
10
95.788271
20
69.544011
70
0
0
VERTEX
8
Layer 1
10
96.338603
20
70.223196
70
0
0
SEQEND
8
Layer 1
0
POLYLINE
8
Layer 1
62
7
70
0
10
0.000000
20
0.000000
66
1
0
VERTEX
8
Layer 1
10
96.338603
20
70.223196
70
0
0
VERTEX
8
Layer 1
10
96.814853
20
70.956091
70
0
0
SEQEND
8
Layer 1
0
POLYLINE
8
Layer 1
62
7
70
0
10
0.000000
20
0.000000
66
1
0
VERTEX
8
Layer 1
10
96.814853
20
70.956091
70
0
0
VERTEX
8
Layer 1
10
97.211727
20
71.735023
70
0
0
SEQEND
8
Layer 1
0
POLYLINE
8
Layer 1
62
7
70
0
10
0.000000
20
0.000000
66
1
0
VERTEX
8
Layer 1
10
97.211727
20
71.735023
70
0
0
VERTEX
8
Layer 1
10
97.523935
20
72.550732
70
0
0
SEQEND
8
Layer 1
0
POLYLINE
8
Layer 1
62
7
70
0
10
0.000000
20
0.000000
66
1
0
VERTEX
8
Layer 1
10
97.523935
20
72.550732
70
0
0
VERTEX
8
Layer 1
10
97.751477
20
73.395017
70
0
0
SEQEND
8
Layer 1
0
POLYLINE
8
Layer 1
62
7
70
0
10
0.000000
20
0.000000
66
1
0
VERTEX
8
Layer 1
10
97.751477
20
73.395017
70
0
0
VERTEX
8
Layer 1
10
97.886414
20
74.258351
70
0
0
SEQEND
8
Layer 1
0
POLYLINE
8
Layer 1
62
7
70
0
10
0.000000
20
0.000000
66
1
0
VERTEX
8
Layer 1
10
97.886414
20
74.258351
70
0
0
VERTEX
8
Layer 1
10
97.934039
20
75.131210
70
0
0
SEQEND
8
Layer 1
0
POLYLINE
8
Layer 1
62
7
70
0
10
0.000000
20
0.000000
66
1
0
VERTEX
8
Layer 1
10
97.934039
20
75.131210
70
0
0
VERTEX
8
Layer 1
10
97.886414
20
76.003805
70
0
0
SEQEND
8
Layer 1
0
POLYLINE
8
Layer 1
62
7
70
0
10
0.000000
20
0.000000
66
1
0
VERTEX
8
Layer 1
10
125.276046
20
8.131122
70
0
0
VERTEX
8
Layer 1
10
94.989230
20
8.131122
70
0
0
SEQEND
8
Layer 1
0
POLYLINE
8
Layer 1
62
7
70
0
10
0.000000
20
0.000000
66
1
0
VERTEX
8
Layer 1
10
94.989230
20
8.131122
70
0
0
VERTEX
8
Layer 1
10
94.989230
20
4.131156
70
0
0
SEQEND
8
Layer 1
0
POLYLINE
8
Layer 1
62
7
70
0
10
0.000000
20
0.000000
66
1
0
VERTEX
8
Layer 1
10
94.989230
20
4.131156
70
0
0
VERTEX
8
Layer 1
10
125.276046
20
4.131156
70
0
0
SEQEND
8
Layer 1
0
POLYLINE
8
Layer 1
62
7
70
0
10
0.000000
20
0.000000
66
1
0
VERTEX
8
Layer 1
10
125.276046
20
4.131156
70
0
0
VERTEX
8
Layer 1
10
125.276046
20
8.131122
70
0
0
SEQEND
8
Layer 1
0
POLYLINE
8
Layer 1
62
7
70
0
10
0.000000
20
0.000000
66
1
0
VERTEX
8
Layer 1
10
139.486799
20
76.003805
70
0
0
VERTEX
8
Layer 1
10
139.351862
20
76.867139
70
0
0
SEQEND
8
Layer 1
0
POLYLINE
8
Layer 1
62
7
70
0
10
0.000000
20
0.000000
66
1
0
VERTEX
8
Layer 1
10
139.351862
20
76.867139
70
0
0
VERTEX
8
Layer 1
10
139.124320
20
77.711424
70
0
0
SEQEND
8
Layer 1
0
POLYLINE
8
Layer 1
62
7
70
0
10
0.000000
20
0.000000
66
1
0
VERTEX
8
Layer 1
10
139.124320
20
77.711424
70
0
0
VERTEX
8
Layer 1
10
138.809466
20
78.527398
70
0
0
SEQEND
8
Layer 1
0
POLYLINE
8
Layer 1
62
7
70
0
10
0.000000
20
0.000000
66
1
0
VERTEX
8
Layer 1
10
138.809466
20
78.527398
70
0
0
VERTEX
8
Layer 1
10
138.412592
20
79.306065
70
0
0
SEQEND
8
Layer 1
0
POLYLINE
8
Layer 1
62
7
70
0
10
0.000000
20
0.000000
66
1
0
VERTEX
8
Layer 1
10
138.412592
20
79.306065
70
0
0
VERTEX
8
Layer 1
10
137.938988
20
80.038960
70
0
0
SEQEND
8
Layer 1
0
POLYLINE
8
Layer 1
62
7
70
0
10
0.000000
20
0.000000
66
1
0
VERTEX
8
Layer 1
10
137.938988
20
80.038960
70
0
0
VERTEX
8
Layer 1
10
137.388656
20
80.718409
70
0
0
SEQEND
8
Layer 1
0
POLYLINE
8
Layer 1
62
7
70
0
10
0.000000
20
0.000000
66
1
0
VERTEX
8
Layer 1
10
137.388656
20
80.718409
70
0
0
VERTEX
8
Layer 1
10
136.769532
20
81.336475
70
0
0
SEQEND
8
Layer 1
0
POLYLINE
8
Layer 1
62
7
70
0
10
0.000000
20
0.000000
66
1
0
VERTEX
8
Layer 1
10
136.769532
20
81.336475
70
0
0
VERTEX
8
Layer 1
10
136.089553
20
81.886279
70
0
0
SEQEND
8
Layer 1
0
POLYLINE
8
Layer 1
62
7
70
0
10
0.000000
20
0.000000
66
1
0
VERTEX
8
Layer 1
10
136.089553
20
81.886279
70
0
0
VERTEX
8
Layer 1
10
135.356658
20
82.362264
70
0
0
SEQEND
8
Layer 1
0
POLYLINE
8
Layer 1
62
7
70
0
10
0.000000
20
0.000000
66
1
0
VERTEX
8
Layer 1
10
135.356658
20
82.362264
70
0
0
VERTEX
8
Layer 1
10
134.578784
20
82.759138
70
0
0
SEQEND
8
Layer 1
0
POLYLINE
8
Layer 1
62
7
70
0
10
0.000000
20
0.000000
66
1
0
VERTEX
8
Layer 1
10
134.578784
20
82.759138
70
0
0
VERTEX
8
Layer 1
10
133.763869
20
83.072404
70
0
0
SEQEND
8
Layer 1
0
POLYLINE
8
Layer 1
62
7
70
0
10
0.000000
20
0.000000
66
1
0
VERTEX
8
Layer 1
10
133.763869
20
83.072404
70
0
0
VERTEX
8
Layer 1
10
132.919849
20
83.298623
70
0
0
SEQEND
8
Layer 1
0
POLYLINE
8
Layer 1
62
7
70
0
10
0.000000
20
0.000000
66
1
0
VERTEX
8
Layer 1
10
132.919849
20
83.298623
70
0
0
VERTEX
8
Layer 1
10
132.054662
20
83.435412
70
0
0
SEQEND
8
Layer 1
0
POLYLINE
8
Layer 1
62
7
70
0
10
0.000000
20
0.000000
66
1
0
VERTEX
8
Layer 1
10
132.054662
20
83.435412
70
0
0
VERTEX
8
Layer 1
10
131.181539
20
83.481185
70
0
0
SEQEND
8
Layer 1
0
POLYLINE
8
Layer 1
62
7
70
0
10
0.000000
20
0.000000
66
1
0
VERTEX
8
Layer 1
10
131.181539
20
83.481185
70
0
0
VERTEX
8
Layer 1
10
130.311061
20
83.435412
70
0
0
SEQEND
8
Layer 1
0
POLYLINE
8
Layer 1
62
7
70
0
10
0.000000
20
0.000000
66
1
0
VERTEX
8
Layer 1
10
130.311061
20
83.435412
70
0
0
VERTEX
8
Layer 1
10
129.445874
20
83.298623
70
0
0
SEQEND
8
Layer 1
0
POLYLINE
8
Layer 1
62
7
70
0
10
0.000000
20
0.000000
66
1
0
VERTEX
8
Layer 1
10
129.445874
20
83.298623
70
0
0
VERTEX
8
Layer 1
10
128.601854
20
83.072404
70
0
0
SEQEND
8
Layer 1
0
POLYLINE
8
Layer 1
62
7
70
0
10
0.000000
20
0.000000
66
1
0
VERTEX
8
Layer 1
10
128.601854
20
83.072404
70
0
0
VERTEX
8
Layer 1
10
127.786939
20
82.759138
70
0
0
SEQEND
8
Layer 1
0
POLYLINE
8
Layer 1
62
7
70
0
10
0.000000
20
0.000000
66
1
0
VERTEX
8
Layer 1
10
127.786939
20
82.759138
70
0
0
VERTEX
8
Layer 1
10
127.009065
20
82.362264
70
0
0
SEQEND
8
Layer 1
0
POLYLINE
8
Layer 1
62
7
70
0
10
0.000000
20
0.000000
66
1
0
VERTEX
8
Layer 1
10
127.009065
20
82.362264
70
0
0
VERTEX
8
Layer 1
10
126.273524
20
81.886279
70
0
0
SEQEND
8
Layer 1
0
POLYLINE
8
Layer 1
62
7
70
0
10
0.000000
20
0.000000
66
1
0
VERTEX
8
Layer 1
10
126.273524
20
81.886279
70
0
0
VERTEX
8
Layer 1
10
125.596191
20
81.336475
70
0
0
SEQEND
8
Layer 1
0
POLYLINE
8
Layer 1
62
7
70
0
10
0.000000
20
0.000000
66
1
0
VERTEX
8
Layer 1
10
125.596191
20
81.336475
70
0
0
VERTEX
8
Layer 1
10
124.977067
20
80.718409
70
0
0
SEQEND
8
Layer 1
0
POLYLINE
8
Layer 1
62
7
70
0
10
0.000000
20
0.000000
66
1
0
VERTEX
8
Layer 1
10
124.977067
20
80.718409
70
0
0
VERTEX
8
Layer 1
10
124.426735
20
80.038960
70
0
0
SEQEND
8
Layer 1
0
POLYLINE
8
Layer 1
62
7
70
0
10
0.000000
20
0.000000
66
1
0
VERTEX
8
Layer 1
10
124.426735
20
80.038960
70
0
0
VERTEX
8
Layer 1
10
123.950485
20
79.306065
70
0
0
SEQEND
8
Layer 1
0
POLYLINE
8
Layer 1
62
7
70
0
10
0.000000
20
0.000000
66
1
0
VERTEX
8
Layer 1
10
123.950485
20
79.306065
70
0
0
VERTEX
8
Layer 1
10
123.553611
20
78.527398
70
0
0
SEQEND
8
Layer 1
0
POLYLINE
8
Layer 1
62
7
70
0
10
0.000000
20
0.000000
66
1
0
VERTEX
8
Layer 1
10
123.553611
20
78.527398
70
0
0
VERTEX
8
Layer 1
10
123.241403
20
77.711424
70
0
0
SEQEND
8
Layer 1
0
POLYLINE
8
Layer 1
62
7
70
0
10
0.000000
20
0.000000
66
1
0
VERTEX
8
Layer 1
10
123.241403
20
77.711424
70
0
0
VERTEX
8
Layer 1
10
123.013861
20
76.867139
70
0
0
SEQEND
8
Layer 1
0
POLYLINE
8
Layer 1
62
7
70
0
10
0.000000
20
0.000000
66
1
0
VERTEX
8
Layer 1
10
123.013861
20
76.867139
70
0
0
VERTEX
8
Layer 1
10
122.878924
20
76.003805
70
0
0
SEQEND
8
Layer 1
0
POLYLINE
8
Layer 1
62
7
70
0
10
0.000000
20
0.000000
66
1
0
VERTEX
8
Layer 1
10
122.878924
20
76.003805
70
0
0
VERTEX
8
Layer 1
10
122.833945
20
75.131210
70
0
0
SEQEND
8
Layer 1
0
POLYLINE
8
Layer 1
62
7
70
0
10
0.000000
20
0.000000
66
1
0
VERTEX
8
Layer 1
10
122.833945
20
75.131210
70
0
0
VERTEX
8
Layer 1
10
122.878924
20
74.258351
70
0
0
SEQEND
8
Layer 1
0
POLYLINE
8
Layer 1
62
7
70
0
10
0.000000
20
0.000000
66
1
0
VERTEX
8
Layer 1
10
122.878924
20
74.258351
70
0
0
VERTEX
8
Layer 1
10
123.013861
20
73.395017
70
0
0
SEQEND
8
Layer 1
0
POLYLINE
8
Layer 1
62
7
70
0
10
0.000000
20
0.000000
66
1
0
VERTEX
8
Layer 1
10
123.013861
20
73.395017
70
0
0
VERTEX
8
Layer 1
10
123.241403
20
72.550732
70
0
0
SEQEND
8
Layer 1
0
POLYLINE
8
Layer 1
62
7
70
0
10
0.000000
20
0.000000
66
1
0
VERTEX
8
Layer 1
10
123.241403
20
72.550732
70
0
0
VERTEX
8
Layer 1
10
123.553611
20
71.735023
70
0
0
SEQEND
8
Layer 1
0
POLYLINE
8
Layer 1
62
7
70
0
10
0.000000
20
0.000000
66
1
0
VERTEX
8
Layer 1
10
123.553611
20
71.735023
70
0
0
VERTEX
8
Layer 1
10
123.950485
20
70.956091
70
0
0
SEQEND
8
Layer 1
0
POLYLINE
8
Layer 1
62
7
70
0
10
0.000000
20
0.000000
66
1
0
VERTEX
8
Layer 1
10
123.950485
20
70.956091
70
0
0
VERTEX
8
Layer 1
10
124.426735
20
70.223196
70
0
0
SEQEND
8
Layer 1
0
POLYLINE
8
Layer 1
62
7
70
0
10
0.000000
20
0.000000
66
1
0
VERTEX
8
Layer 1
10
124.426735
20
70.223196
70
0
0
VERTEX
8
Layer 1
10
124.977067
20
69.544011
70
0
0
SEQEND
8
Layer 1
0
POLYLINE
8
Layer 1
62
7
70
0
10
0.000000
20
0.000000
66
1
0
VERTEX
8
Layer 1
10
124.977067
20
69.544011
70
0
0
VERTEX
8
Layer 1
10
125.596191
20
68.925681
70
0
0
SEQEND
8
Layer 1
0
POLYLINE
8
Layer 1
62
7
70
0
10
0.000000
20
0.000000
66
1
0
VERTEX
8
Layer 1
10
125.596191
20
68.925681
70
0
0
VERTEX
8
Layer 1
10
126.273524
20
68.375877
70
0
0
SEQEND
8
Layer 1
0
POLYLINE
8
Layer 1
62
7
70
0
10
0.000000
20
0.000000
66
1
0
VERTEX
8
Layer 1
10
126.273524
20
68.375877
70
0
0
VERTEX
8
Layer 1
10
127.009065
20
67.899892
70
0
0
SEQEND
8
Layer 1
0
POLYLINE
8
Layer 1
62
7
70
0
10
0.000000
20
0.000000
66
1
0
VERTEX
8
Layer 1
10
127.009065
20
67.899892
70
0
0
VERTEX
8
Layer 1
10
127.786939
20
67.503018
70
0
0
SEQEND
8
Layer 1
0
POLYLINE
8
Layer 1
62
7
70
0
10
0.000000
20
0.000000
66
1
0
VERTEX
8
Layer 1
10
127.786939
20
67.503018
70
0
0
VERTEX
8
Layer 1
10
128.601854
20
67.189752
70
0
0
SEQEND
8
Layer 1
0
POLYLINE
8
Layer 1
62
7
70
0
10
0.000000
20
0.000000
66
1
0
VERTEX
8
Layer 1
10
128.601854
20
67.189752
70
0
0
VERTEX
8
Layer 1
10
129.445874
20
66.963533
70
0
0
SEQEND
8
Layer 1
0
POLYLINE
8
Layer 1
62
7
70
0
10
0.000000
20
0.000000
66
1
0
VERTEX
8
Layer 1
10
129.445874
20
66.963533
70
0
0
VERTEX
8
Layer 1
10
130.311061
20
66.826744
70
0
0
SEQEND
8
Layer 1
0
POLYLINE
8
Layer 1
62
7
70
0
10
0.000000
20
0.000000
66
1
0
VERTEX
8
Layer 1
10
130.311061
20
66.826744
70
0
0
VERTEX
8
Layer 1
10
131.181539
20
66.780971
70
0
0
SEQEND
8
Layer 1
0
POLYLINE
8
Layer 1
62
7
70
0
10
0.000000
20
0.000000
66
1
0
VERTEX
8
Layer 1
10
131.181539
20
66.780971
70
0
0
VERTEX
8
Layer 1
10
132.054662
20
66.826744
70
0
0
SEQEND
8
Layer 1
0
POLYLINE
8
Layer 1
62
7
70
0
10
0.000000
20
0.000000
66
1
0
VERTEX
8
Layer 1
10
132.054662
20
66.826744
70
0
0
VERTEX
8
Layer 1
10
132.919849
20
66.963533
70
0
0
SEQEND
8
Layer 1
0
POLYLINE
8
Layer 1
62
7
70
0
10
0.000000
20
0.000000
66
1
0
VERTEX
8
Layer 1
10
132.919849
20
66.963533
70
0
0
VERTEX
8
Layer 1
10
133.763869
20
67.189752
70
0
0
SEQEND
8
Layer 1
0
POLYLINE
8
Layer 1
62
7
70
0
10
0.000000
20
0.000000
66
1
0
VERTEX
8
Layer 1
10
133.763869
20
67.189752
70
0
0
VERTEX
8
Layer 1
10
134.578784
20
67.503018
70
0
0
SEQEND
8
Layer 1
0
POLYLINE
8
Layer 1
62
7
70
0
10
0.000000
20
0.000000
66
1
0
VERTEX
8
Layer 1
10
134.578784
20
67.503018
70
0
0
VERTEX
8
Layer 1
10
135.356658
20
67.899892
70
0
0
SEQEND
8
Layer 1
0
POLYLINE
8
Layer 1
62
7
70
0
10
0.000000
20
0.000000
66
1
0
VERTEX
8
Layer 1
10
135.356658
20
67.899892
70
0
0
VERTEX
8
Layer 1
10
136.089553
20
68.375877
70
0
0
SEQEND
8
Layer 1
0
POLYLINE
8
Layer 1
62
7
70
0
10
0.000000
20
0.000000
66
1
0
VERTEX
8
Layer 1
10
136.089553
20
68.375877
70
0
0
VERTEX
8
Layer 1
10
136.769532
20
68.925681
70
0
0
SEQEND
8
Layer 1
0
POLYLINE
8
Layer 1
62
7
70
0
10
0.000000
20
0.000000
66
1
0
VERTEX
8
Layer 1
10
136.769532
20
68.925681
70
0
0
VERTEX
8
Layer 1
10
137.388656
20
69.544011
70
0
0
SEQEND
8
Layer 1
0
POLYLINE
8
Layer 1
62
7
70
0
10
0.000000
20
0.000000
66
1
0
VERTEX
8
Layer 1
10
137.388656
20
69.544011
70
0
0
VERTEX
8
Layer 1
10
137.938988
20
70.223196
70
0
0
SEQEND
8
Layer 1
0
POLYLINE
8
Layer 1
62
7
70
0
10
0.000000
20
0.000000
66
1
0
VERTEX
8
Layer 1
10
137.938988
20
70.223196
70
0
0
VERTEX
8
Layer 1
10
138.412592
20
70.956091
70
0
0
SEQEND
8
Layer 1
0
POLYLINE
8
Layer 1
62
7
70
0
10
0.000000
20
0.000000
66
1
0
VERTEX
8
Layer 1
10
138.412592
20
70.956091
70
0
0
VERTEX
8
Layer 1
10
138.809466
20
71.735023
70
0
0
SEQEND
8
Layer 1
0
POLYLINE
8
Layer 1
62
7
70
0
10
0.000000
20
0.000000
66
1
0
VERTEX
8
Layer 1
10
138.809466
20
71.735023
70
0
0
VERTEX
8
Layer 1
10
139.124320
20
72.550732
70
0
0
SEQEND
8
Layer 1
0
POLYLINE
8
Layer 1
62
7
70
0
10
0.000000
20
0.000000
66
1
0
VERTEX
8
Layer 1
10
139.124320
20
72.550732
70
0
0
VERTEX
8
Layer 1
10
139.351862
20
73.395017
70
0
0
SEQEND
8
Layer 1
0
POLYLINE
8
Layer 1
62
7
70
0
10
0.000000
20
0.000000
66
1
0
VERTEX
8
Layer 1
10
139.351862
20
73.395017
70
0
0
VERTEX
8
Layer 1
10
139.486799
20
74.258351
70
0
0
SEQEND
8
Layer 1
0
POLYLINE
8
Layer 1
62
7
70
0
10
0.000000
20
0.000000
66
1
0
VERTEX
8
Layer 1
10
139.486799
20
74.258351
70
0
0
VERTEX
8
Layer 1
10
139.531778
20
75.131210
70
0
0
SEQEND
8
Layer 1
0
POLYLINE
8
Layer 1
62
7
70
0
10
0.000000
20
0.000000
66
1
0
VERTEX
8
Layer 1
10
139.531778
20
75.131210
70
0
0
VERTEX
8
Layer 1
10
139.486799
20
76.003805
70
0
0
SEQEND
8
Layer 1
0
POLYLINE
8
Layer 1
62
7
70
0
10
0.000000
20
0.000000
66
1
0
VERTEX
8
Layer 1
10
185.847032
20
8.131122
70
0
0
VERTEX
8
Layer 1
10
155.562862
20
8.131122
70
0
0
SEQEND
8
Layer 1
0
POLYLINE
8
Layer 1
62
7
70
0
10
0.000000
20
0.000000
66
1
0
VERTEX
8
Layer 1
10
155.562862
20
8.131122
70
0
0
VERTEX
8
Layer 1
10
155.562862
20
4.131156
70
0
0
SEQEND
8
Layer 1
0
POLYLINE
8
Layer 1
62
7
70
0
10
0.000000
20
0.000000
66
1
0
VERTEX
8
Layer 1
10
155.562862
20
4.131156
70
0
0
VERTEX
8
Layer 1
10
185.847032
20
4.131156
70
0
0
SEQEND
8
Layer 1
0
POLYLINE
8
Layer 1
62
7
70
0
10
0.000000
20
0.000000
66
1
0
VERTEX
8
Layer 1
10
185.847032
20
4.131156
70
0
0
VERTEX
8
Layer 1
10
185.847032
20
8.131122
70
0
0
SEQEND
8
Layer 1
0
POLYLINE
8
Layer 1
62
7
70
0
10
0.000000
20
0.000000
66
1
0
VERTEX
8
Layer 1
10
181.087184
20
76.003805
70
0
0
VERTEX
8
Layer 1
10
180.949601
20
76.867139
70
0
0
SEQEND
8
Layer 1
0
POLYLINE
8
Layer 1
62
7
70
0
10
0.000000
20
0.000000
66
1
0
VERTEX
8
Layer 1
10
180.949601
20
76.867139
70
0
0
VERTEX
8
Layer 1
10
180.724705
20
77.711424
70
0
0
SEQEND
8
Layer 1
0
POLYLINE
8
Layer 1
62
7
70
0
10
0.000000
20
0.000000
66
1
0
VERTEX
8
Layer 1
10
180.724705
20
77.711424
70
0
0
VERTEX
8
Layer 1
10
180.409852
20
78.527398
70
0
0
SEQEND
8
Layer 1
0
POLYLINE
8
Layer 1
62
7
70
0
10
0.000000
20
0.000000
66
1
0
VERTEX
8
Layer 1
10
180.409852
20
78.527398
70
0
0
VERTEX
8
Layer 1
10
180.012977
20
79.306065
70
0
0
SEQEND
8
Layer 1
0
POLYLINE
8
Layer 1
62
7
70
0
10
0.000000
20
0.000000
66
1
0
VERTEX
8
Layer 1
10
180.012977
20
79.306065
70
0
0
VERTEX
8
Layer 1
10
179.536728
20
80.038960
70
0
0
SEQEND
8
Layer 1
0
POLYLINE
8
Layer 1
62
7
70
0
10
0.000000
20
0.000000
66
1
0
VERTEX
8
Layer 1
10
179.536728
20
80.038960
70
0
0
VERTEX
8
Layer 1
10
178.989041
20
80.718409
70
0
0
SEQEND
8
Layer 1
0
POLYLINE
8
Layer 1
62
7
70
0
10
0.000000
20
0.000000
66
1
0
VERTEX
8
Layer 1
10
178.989041
20
80.718409
70
0
0
VERTEX
8
Layer 1
10
178.369917
20
81.336475
70
0
0
SEQEND
8
Layer 1
0
POLYLINE
8
Layer 1
62
7
70
0
10
0.000000
20
0.000000
66
1
0
VERTEX
8
Layer 1
10
178.369917
20
81.336475
70
0
0
VERTEX
8
Layer 1
10
177.689938
20
81.886279
70
0
0
SEQEND
8
Layer 1
0
POLYLINE
8
Layer 1
62
7
70
0
10
0.000000
20
0.000000
66
1
0
VERTEX
8
Layer 1
10
177.689938
20
81.886279
70
0
0
VERTEX
8
Layer 1
10
176.957043
20
82.362264
70
0
0
SEQEND
8
Layer 1
0
POLYLINE
8
Layer 1
62
7
70
0
10
0.000000
20
0.000000
66
1
0
VERTEX
8
Layer 1
10
176.957043
20
82.362264
70
0
0
VERTEX
8
Layer 1
10
176.179169
20
82.759138
70
0
0
SEQEND
8
Layer 1
0
POLYLINE
8
Layer 1
62
7
70
0
10
0.000000
20
0.000000
66
1
0
VERTEX
8
Layer 1
10
176.179169
20
82.759138
70
0
0
VERTEX
8
Layer 1
10
175.361608
20
83.072404
70
0
0
SEQEND
8
Layer 1
0
POLYLINE
8
Layer 1
62
7
70
0
10
0.000000
20
0.000000
66
1
0
VERTEX
8
Layer 1
10
175.361608
20
83.072404
70
0
0
VERTEX
8
Layer 1
10
174.517588
20
83.298623
70
0
0
SEQEND
8
Layer 1
0
POLYLINE
8
Layer 1
62
7
70
0
10
0.000000
20
0.000000
66
1
0
VERTEX
8
Layer 1
10
174.517588
20
83.298623
70
0
0
VERTEX
8
Layer 1
10
173.655048
20
83.435412
70
0
0
SEQEND
8
Layer 1
0
POLYLINE
8
Layer 1
62
7
70
0
10
0.000000
20
0.000000
66
1
0
VERTEX
8
Layer 1
10
173.655048
20
83.435412
70
0
0
VERTEX
8
Layer 1
10
172.781924
20
83.481185
70
0
0
SEQEND
8
Layer 1
0
POLYLINE
8
Layer 1
62
7
70
0
10
0.000000
20
0.000000
66
1
0
VERTEX
8
Layer 1
10
172.781924
20
83.481185
70
0
0
VERTEX
8
Layer 1
10
171.908800
20
83.435412
70
0
0
SEQEND
8
Layer 1
0
POLYLINE
8
Layer 1
62
7
70
0
10
0.000000
20
0.000000
66
1
0
VERTEX
8
Layer 1
10
171.908800
20
83.435412
70
0
0
VERTEX
8
Layer 1
10
171.046259
20
83.298623
70
0
0
SEQEND
8
Layer 1
0
POLYLINE
8
Layer 1
62
7
70
0
10
0.000000
20
0.000000
66
1
0
VERTEX
8
Layer 1
10
171.046259
20
83.298623
70
0
0
VERTEX
8
Layer 1
10
170.202239
20
83.072404
70
0
0
SEQEND
8
Layer 1
0
POLYLINE
8
Layer 1
62
7
70
0
10
0.000000
20
0.000000
66
1
0
VERTEX
8
Layer 1
10
170.202239
20
83.072404
70
0
0
VERTEX
8
Layer 1
10
169.387324
20
82.759138
70
0
0
SEQEND
8
Layer 1
0
POLYLINE
8
Layer 1
62
7
70
0
10
0.000000
20
0.000000
66
1
0
VERTEX
8
Layer 1
10
169.387324
20
82.759138
70
0
0
VERTEX
8
Layer 1
10
168.606804
20
82.362264
70
0
0
SEQEND
8
Layer 1
0
POLYLINE
8
Layer 1
62
7
70
0
10
0.000000
20
0.000000
66
1
0
VERTEX
8
Layer 1
10
168.606804
20
82.362264
70
0
0
VERTEX
8
Layer 1
10
167.873909
20
81.886279
70
0
0
SEQEND
8
Layer 1
0
POLYLINE
8
Layer 1
62
7
70
0
10
0.000000
20
0.000000
66
1
0
VERTEX
8
Layer 1
10
167.873909
20
81.886279
70
0
0
VERTEX
8
Layer 1
10
167.196577
20
81.336475
70
0
0
SEQEND
8
Layer 1
0
POLYLINE
8
Layer 1
62
7
70
0
10
0.000000
20
0.000000
66
1
0
VERTEX
8
Layer 1
10
167.196577
20
81.336475
70
0
0
VERTEX
8
Layer 1
10
166.577452
20
80.718409
70
0
0
SEQEND
8
Layer 1
0
POLYLINE
8
Layer 1
62
7
70
0
10
0.000000
20
0.000000
66
1
0
VERTEX
8
Layer 1
10
166.577452
20
80.718409
70
0
0
VERTEX
8
Layer 1
10
166.027120
20
80.038960
70
0
0
SEQEND
8
Layer 1
0
POLYLINE
8
Layer 1
62
7
70
0
10
0.000000
20
0.000000
66
1
0
VERTEX
8
Layer 1
10
166.027120
20
80.038960
70
0
0
VERTEX
8
Layer 1
10
165.550870
20
79.306065
70
0
0
SEQEND
8
Layer 1
0
POLYLINE
8
Layer 1
62
7
70
0
10
0.000000
20
0.000000
66
1
0
VERTEX
8
Layer 1
10
165.550870
20
79.306065
70
0
0
VERTEX
8
Layer 1
10
165.153996
20
78.527398
70
0
0
SEQEND
8
Layer 1
0
POLYLINE
8
Layer 1
62
7
70
0
10
0.000000
20
0.000000
66
1
0
VERTEX
8
Layer 1
10
165.153996
20
78.527398
70
0
0
VERTEX
8
Layer 1
10
164.841788
20
77.711424
70
0
0
SEQEND
8
Layer 1
0
POLYLINE
8
Layer 1
62
7
70
0
10
0.000000
20
0.000000
66
1
0
VERTEX
8
Layer 1
10
164.841788
20
77.711424
70
0
0
VERTEX
8
Layer 1
10
164.614246
20
76.867139
70
0
0
SEQEND
8
Layer 1
0
POLYLINE
8
Layer 1
62
7
70
0
10
0.000000
20
0.000000
66
1
0
VERTEX
8
Layer 1
10
164.614246
20
76.867139
70
0
0
VERTEX
8
Layer 1
10
164.479309
20
76.003805
70
0
0
SEQEND
8
Layer 1
0
POLYLINE
8
Layer 1
62
7
70
0
10
0.000000
20
0.000000
66
1
0
VERTEX
8
Layer 1
10
164.479309
20
76.003805
70
0
0
VERTEX
8
Layer 1
10
164.431684
20
75.131210
70
0
0
SEQEND
8
Layer 1
0
POLYLINE
8
Layer 1
62
7
70
0
10
0.000000
20
0.000000
66
1
0
VERTEX
8
Layer 1
10
164.431684
20
75.131210
70
0
0
VERTEX
8
Layer 1
10
164.479309
20
74.258351
70
0
0
SEQEND
8
Layer 1
0
POLYLINE
8
Layer 1
62
7
70
0
10
0.000000
20
0.000000
66
1
0
VERTEX
8
Layer 1
10
164.479309
20
74.258351
70
0
0
VERTEX
8
Layer 1
10
164.614246
20
73.395017
70
0
0
SEQEND
8
Layer 1
0
POLYLINE
8
Layer 1
62
7
70
0
10
0.000000
20
0.000000
66
1
0
VERTEX
8
Layer 1
10
164.614246
20
73.395017
70
0
0
VERTEX
8
Layer 1
10
164.841788
20
72.550732
70
0
0
SEQEND
8
Layer 1
0
POLYLINE
8
Layer 1
62
7
70
0
10
0.000000
20
0.000000
66
1
0
VERTEX
8
Layer 1
10
164.841788
20
72.550732
70
0
0
VERTEX
8
Layer 1
10
165.153996
20
71.735023
70
0
0
SEQEND
8
Layer 1
0
POLYLINE
8
Layer 1
62
7
70
0
10
0.000000
20
0.000000
66
1
0
VERTEX
8
Layer 1
10
165.153996
20
71.735023
70
0
0
VERTEX
8
Layer 1
10
165.550870
20
70.956091
70
0
0
SEQEND
8
Layer 1
0
POLYLINE
8
Layer 1
62
7
70
0
10
0.000000
20
0.000000
66
1
0
VERTEX
8
Layer 1
10
165.550870
20
70.956091
70
0
0
VERTEX
8
Layer 1
10
166.027120
20
70.223196
70
0
0
SEQEND
8
Layer 1
0
POLYLINE
8
Layer 1
62
7
70
0
10
0.000000
20
0.000000
66
1
0
VERTEX
8
Layer 1
10
166.027120
20
70.223196
70
0
0
VERTEX
8
Layer 1
10
166.577452
20
69.544011
70
0
0
SEQEND
8
Layer 1
0
POLYLINE
8
Layer 1
62
7
70
0
10
0.000000
20
0.000000
66
1
0
VERTEX
8
Layer 1
10
166.577452
20
69.544011
70
0
0
VERTEX
8
Layer 1
10
167.196577
20
68.925681
70
0
0
SEQEND
8
Layer 1
0
POLYLINE
8
Layer 1
62
7
70
0
10
0.000000
20
0.000000
66
1
0
VERTEX
8
Layer 1
10
167.196577
20
68.925681
70
0
0
VERTEX
8
Layer 1
10
167.873909
20
68.375877
70
0
0
SEQEND
8
Layer 1
0
POLYLINE
8
Layer 1
62
7
70
0
10
0.000000
20
0.000000
66
1
0
VERTEX
8
Layer 1
10
167.873909
20
68.375877
70
0
0
VERTEX
8
Layer 1
10
168.606804
20
67.899892
70
0
0
SEQEND
8
Layer 1
0
POLYLINE
8
Layer 1
62
7
70
0
10
0.000000
20
0.000000
66
1
0
VERTEX
8
Layer 1
10
168.606804
20
67.899892
70
0
0
VERTEX
8
Layer 1
10
169.387324
20
67.503018
70
0
0
SEQEND
8
Layer 1
0
POLYLINE
8
Layer 1
62
7
70
0
10
0.000000
20
0.000000
66
1
0
VERTEX
8
Layer 1
10
169.387324
20
67.503018
70
0
0
VERTEX
8
Layer 1
10
170.202239
20
67.189752
70
0
0
SEQEND
8
Layer 1
0
POLYLINE
8
Layer 1
62
7
70
0
10
0.000000
20
0.000000
66
1
0
VERTEX
8
Layer 1
10
170.202239
20
67.189752
70
0
0
VERTEX
8
Layer 1
10
171.046259
20
66.963533
70
0
0
SEQEND
8
Layer 1
0
POLYLINE
8
Layer 1
62
7
70
0
10
0.000000
20
0.000000
66
1
0
VERTEX
8
Layer 1
10
171.046259
20
66.963533
70
0
0
VERTEX
8
Layer 1
10
171.908800
20
66.826744
70
0
0
SEQEND
8
Layer 1
0
POLYLINE
8
Layer 1
62
7
70
0
10
0.000000
20
0.000000
66
1
0
VERTEX
8
Layer 1
10
171.908800
20
66.826744
70
0
0
VERTEX
8
Layer 1
10
172.781924
20
66.780971
70
0
0
SEQEND
8
Layer 1
0
POLYLINE
8
Layer 1
62
7
70
0
10
0.000000
20
0.000000
66
1
0
VERTEX
8
Layer 1
10
172.781924
20
66.780971
70
0
0
VERTEX
8
Layer 1
10
173.655048
20
66.826744
70
0
0
SEQEND
8
Layer 1
0
POLYLINE
8
Layer 1
62
7
70
0
10
0.000000
20
0.000000
66
1
0
VERTEX
8
Layer 1
10
173.655048
20
66.826744
70
0
0
VERTEX
8
Layer 1
10
174.517588
20
66.963533
70
0
0
SEQEND
8
Layer 1
0
POLYLINE
8
Layer 1
62
7
70
0
10
0.000000
20
0.000000
66
1
0
VERTEX
8
Layer 1
10
174.517588
20
66.963533
70
0
0
VERTEX
8
Layer 1
10
175.361608
20
67.189752
70
0
0
SEQEND
8
Layer 1
0
POLYLINE
8
Layer 1
62
7
70
0
10
0.000000
20
0.000000
66
1
0
VERTEX
8
Layer 1
10
175.361608
20
67.189752
70
0
0
VERTEX
8
Layer 1
10
176.179169
20
67.503018
70
0
0
SEQEND
8
Layer 1
0
POLYLINE
8
Layer 1
62
7
70
0
10
0.000000
20
0.000000
66
1
0
VERTEX
8
Layer 1
10
176.179169
20
67.503018
70
0
0
VERTEX
8
Layer 1
10
176.957043
20
67.899892
70
0
0
SEQEND
8
Layer 1
0
POLYLINE
8
Layer 1
62
7
70
0
10
0.000000
20
0.000000
66
1
0
VERTEX
8
Layer 1
10
176.957043
20
67.899892
70
0
0
VERTEX
8
Layer 1
10
177.689938
20
68.375877
70
0
0
SEQEND
8
Layer 1
0
POLYLINE
8
Layer 1
62
7
70
0
10
0.000000
20
0.000000
66
1
0
VERTEX
8
Layer 1
10
177.689938
20
68.375877
70
0
0
VERTEX
8
Layer 1
10
178.369917
20
68.925681
70
0
0
SEQEND
8
Layer 1
0
POLYLINE
8
Layer 1
62
7
70
0
10
0.000000
20
0.000000
66
1
0
VERTEX
8
Layer 1
10
178.369917
20
68.925681
70
0
0
VERTEX
8
Layer 1
10
178.989041
20
69.544011
70
0
0
SEQEND
8
Layer 1
0
POLYLINE
8
Layer 1
62
7
70
0
10
0.000000
20
0.000000
66
1
0
VERTEX
8
Layer 1
10
178.989041
20
69.544011
70
0
0
VERTEX
8
Layer 1
10
179.536728
20
70.223196
70
0
0
SEQEND
8
Layer 1
0
POLYLINE
8
Layer 1
62
7
70
0
10
0.000000
20
0.000000
66
1
0
VERTEX
8
Layer 1
10
179.536728
20
70.223196
70
0
0
VERTEX
8
Layer 1
10
180.012977
20
70.956091
70
0
0
SEQEND
8
Layer 1
0
POLYLINE
8
Layer 1
62
7
70
0
10
0.000000
20
0.000000
66
1
0
VERTEX
8
Layer 1
10
180.012977
20
70.956091
70
0
0
VERTEX
8
Layer 1
10
180.409852
20
71.735023
70
0
0
SEQEND
8
Layer 1
0
POLYLINE
8
Layer 1
62
7
70
0
10
0.000000
20
0.000000
66
1
0
VERTEX
8
Layer 1
10
180.409852
20
71.735023
70
0
0
VERTEX
8
Layer 1
10
180.724705
20
72.550732
70
0
0
SEQEND
8
Layer 1
0
POLYLINE
8
Layer 1
62
7
70
0
10
0.000000
20
0.000000
66
1
0
VERTEX
8
Layer 1
10
180.724705
20
72.550732
70
0
0
VERTEX
8
Layer 1
10
180.949601
20
73.395017
70
0
0
SEQEND
8
Layer 1
0
POLYLINE
8
Layer 1
62
7
70
0
10
0.000000
20
0.000000
66
1
0
VERTEX
8
Layer 1
10
180.949601
20
73.395017
70
0
0
VERTEX
8
Layer 1
10
181.087184
20
74.258351
70
0
0
SEQEND
8
Layer 1
0
POLYLINE
8
Layer 1
62
7
70
0
10
0.000000
20
0.000000
66
1
0
VERTEX
8
Layer 1
10
181.087184
20
74.258351
70
0
0
VERTEX
8
Layer 1
10
181.132163
20
75.131210
70
0
0
SEQEND
8
Layer 1
0
POLYLINE
8
Layer 1
62
7
70
0
10
0.000000
20
0.000000
66
1
0
VERTEX
8
Layer 1
10
181.132163
20
75.131210
70
0
0
VERTEX
8
Layer 1
10
181.087184
20
76.003805
70
0
0
SEQEND
8
Layer 1
0
POLYLINE
8
Layer 1
62
7
70
0
10
0.000000
20
0.000000
66
1
0
VERTEX
8
Layer 1
10
160.070412
20
438.020309
70
0
0
VERTEX
8
Layer 1
10
160.070412
20
425.853725
70
0
0
SEQEND
8
Layer 1
0
POLYLINE
8
Layer 1
62
7
70
0
10
0.000000
20
0.000000
66
1
0
VERTEX
8
Layer 1
10
160.070412
20
425.853725
70
0
0
VERTEX
8
Layer 1
10
164.068261
20
425.853725
70
0
0
SEQEND
8
Layer 1
0
POLYLINE
8
Layer 1
62
7
70
0
10
0.000000
20
0.000000
66
1
0
VERTEX
8
Layer 1
10
164.068261
20
425.853725
70
0
0
VERTEX
8
Layer 1
10
164.068261
20
413.686981
70
0
0
SEQEND
8
Layer 1
0
POLYLINE
8
Layer 1
62
7
70
0
10
0.000000
20
0.000000
66
1
0
VERTEX
8
Layer 1
10
164.068261
20
413.686981
70
0
0
VERTEX
8
Layer 1
10
160.070412
20
413.686981
70
0
0
SEQEND
8
Layer 1
0
POLYLINE
8
Layer 1
62
7
70
0
10
0.000000
20
0.000000
66
1
0
VERTEX
8
Layer 1
10
160.070412
20
413.686981
70
0
0
VERTEX
8
Layer 1
10
160.070412
20
401.520397
70
0
0
SEQEND
8
Layer 1
0
POLYLINE
8
Layer 1
62
7
70
0
10
0.000000
20
0.000000
66
1
0
VERTEX
8
Layer 1
10
160.070412
20
401.520397
70
0
0
VERTEX
8
Layer 1
10
164.068261
20
401.520397
70
0
0
SEQEND
8
Layer 1
0
POLYLINE
8
Layer 1
62
7
70
0
10
0.000000
20
0.000000
66
1
0
VERTEX
8
Layer 1
10
164.068261
20
401.520397
70
0
0
VERTEX
8
Layer 1
10
164.068261
20
389.353812
70
0
0
SEQEND
8
Layer 1
0
POLYLINE
8
Layer 1
62
7
70
0
10
0.000000
20
0.000000
66
1
0
VERTEX
8
Layer 1
10
164.068261
20
389.353812
70
0
0
VERTEX
8
Layer 1
10
160.070412
20
389.353812
70
0
0
SEQEND
8
Layer 1
0
POLYLINE
8
Layer 1
62
7
70
0
10
0.000000
20
0.000000
66
1
0
VERTEX
8
Layer 1
10
160.070412
20
389.353812
70
0
0
VERTEX
8
Layer 1
10
160.070412
20
377.186963
70
0
0
SEQEND
8
Layer 1
0
POLYLINE
8
Layer 1
62
7
70
0
10
0.000000
20
0.000000
66
1
0
VERTEX
8
Layer 1
10
160.070412
20
377.186963
70
0
0
VERTEX
8
Layer 1
10
164.068261
20
377.186963
70
0
0
SEQEND
8
Layer 1
0
POLYLINE
8
Layer 1
62
7
70
0
10
0.000000
20
0.000000
66
1
0
VERTEX
8
Layer 1
10
164.068261
20
377.186963
70
0
0
VERTEX
8
Layer 1
10
164.068261
20
365.020378
70
0
0
SEQEND
8
Layer 1
0
POLYLINE
8
Layer 1
62
7
70
0
10
0.000000
20
0.000000
66
1
0
VERTEX
8
Layer 1
10
164.068261
20
365.020378
70
0
0
VERTEX
8
Layer 1
10
160.070412
20
365.020378
70
0
0
SEQEND
8
Layer 1
0
POLYLINE
8
Layer 1
62
7
70
0
10
0.000000
20
0.000000
66
1
0
VERTEX
8
Layer 1
10
160.070412
20
365.020378
70
0
0
VERTEX
8
Layer 1
10
160.070412
20
352.853793
70
0
0
SEQEND
8
Layer 1
0
POLYLINE
8
Layer 1
62
7
70
0
10
0.000000
20
0.000000
66
1
0
VERTEX
8
Layer 1
10
160.070412
20
352.853793
70
0
0
VERTEX
8
Layer 1
10
164.068261
20
352.853793
70
0
0
SEQEND
8
Layer 1
0
POLYLINE
8
Layer 1
62
7
70
0
10
0.000000
20
0.000000
66
1
0
VERTEX
8
Layer 1
10
164.068261
20
352.853793
70
0
0
VERTEX
8
Layer 1
10
164.068261
20
340.687209
70
0
0
SEQEND
8
Layer 1
0
POLYLINE
8
Layer 1
62
7
70
0
10
0.000000
20
0.000000
66
1
0
VERTEX
8
Layer 1
10
164.068261
20
340.687209
70
0
0
VERTEX
8
Layer 1
10
160.070412
20
340.687209
70
0
0
SEQEND
8
Layer 1
0
POLYLINE
8
Layer 1
62
7
70
0
10
0.000000
20
0.000000
66
1
0
VERTEX
8
Layer 1
10
160.070412
20
340.687209
70
0
0
VERTEX
8
Layer 1
10
160.070412
20
328.520095
70
0
0
SEQEND
8
Layer 1
0
POLYLINE
8
Layer 1
62
7
70
0
10
0.000000
20
0.000000
66
1
0
VERTEX
8
Layer 1
10
160.070412
20
328.520095
70
0
0
VERTEX
8
Layer 1
10
164.068261
20
328.520095
70
0
0
SEQEND
8
Layer 1
0
POLYLINE
8
Layer 1
62
7
70
0
10
0.000000
20
0.000000
66
1
0
VERTEX
8
Layer 1
10
164.068261
20
328.520095
70
0
0
VERTEX
8
Layer 1
10
164.068261
20
316.354039
70
0
0
SEQEND
8
Layer 1
0
POLYLINE
8
Layer 1
62
7
70
0
10
0.000000
20
0.000000
66
1
0
VERTEX
8
Layer 1
10
164.068261
20
316.354039
70
0
0
VERTEX
8
Layer 1
10
160.070412
20
316.354039
70
0
0
SEQEND
8
Layer 1
0
POLYLINE
8
Layer 1
62
7
70
0
10
0.000000
20
0.000000
66
1
0
VERTEX
8
Layer 1
10
160.070412
20
316.354039
70
0
0
VERTEX
8
Layer 1
10
160.070412
20
304.187190
70
0
0
SEQEND
8
Layer 1
0
POLYLINE
8
Layer 1
62
7
70
0
10
0.000000
20
0.000000
66
1
0
VERTEX
8
Layer 1
10
160.070412
20
304.187190
70
0
0
VERTEX
8
Layer 1
10
88.069440
20
304.187190
70
0
0
SEQEND
8
Layer 1
0
POLYLINE
8
Layer 1
62
7
70
0
10
0.000000
20
0.000000
66
1
0
VERTEX
8
Layer 1
10
88.069440
20
304.187190
70
0
0
VERTEX
8
Layer 1
10
88.069440
20
316.354039
70
0
0
SEQEND
8
Layer 1
0
POLYLINE
8
Layer 1
62
7
70
0
10
0.000000
20
0.000000
66
1
0
VERTEX
8
Layer 1
10
88.069440
20
316.354039
70
0
0
VERTEX
8
Layer 1
10
84.068945
20
316.354039
70
0
0
SEQEND
8
Layer 1
0
POLYLINE
8
Layer 1
62
7
70
0
10
0.000000
20
0.000000
66
1
0
VERTEX
8
Layer 1
10
84.068945
20
316.354039
70
0
0
VERTEX
8
Layer 1
10
84.068945
20
328.520095
70
0
0
SEQEND
8
Layer 1
0
POLYLINE
8
Layer 1
62
7
70
0
10
0.000000
20
0.000000
66
1
0
VERTEX
8
Layer 1
10
84.068945
20
328.520095
70
0
0
VERTEX
8
Layer 1
10
88.069440
20
328.520095
70
0
0
SEQEND
8
Layer 1
0
POLYLINE
8
Layer 1
62
7
70
0
10
0.000000
20
0.000000
66
1
0
VERTEX
8
Layer 1
10
88.069440
20
328.520095
70
0
0
VERTEX
8
Layer 1
10
88.069440
20
340.687209
70
0
0
SEQEND
8
Layer 1
0
POLYLINE
8
Layer 1
62
7
70
0
10
0.000000
20
0.000000
66
1
0
VERTEX
8
Layer 1
10
88.069440
20
340.687209
70
0
0
VERTEX
8
Layer 1
10
84.068945
20
340.687209
70
0
0
SEQEND
8
Layer 1
0
POLYLINE
8
Layer 1
62
7
70
0
10
0.000000
20
0.000000
66
1
0
VERTEX
8
Layer 1
10
84.068945
20
340.687209
70
0
0
VERTEX
8
Layer 1
10
84.068945
20
352.853793
70
0
0
SEQEND
8
Layer 1
0
POLYLINE
8
Layer 1
62
7
70
0
10
0.000000
20
0.000000
66
1
0
VERTEX
8
Layer 1
10
84.068945
20
352.853793
70
0
0
VERTEX
8
Layer 1
10
88.069440
20
352.853793
70
0
0
SEQEND
8
Layer 1
0
POLYLINE
8
Layer 1
62
7
70
0
10
0.000000
20
0.000000
66
1
0
VERTEX
8
Layer 1
10
88.069440
20
352.853793
70
0
0
VERTEX
8
Layer 1
10
88.069440
20
365.020378
70
0
0
SEQEND
8
Layer 1
0
POLYLINE
8
Layer 1
62
7
70
0
10
0.000000
20
0.000000
66
1
0
VERTEX
8
Layer 1
10
88.069440
20
365.020378
70
0
0
VERTEX
8
Layer 1
10
84.068945
20
365.020378
70
0
0
SEQEND
8
Layer 1
0
POLYLINE
8
Layer 1
62
7
70
0
10
0.000000
20
0.000000
66
1
0
VERTEX
8
Layer 1
10
84.068945
20
365.020378
70
0
0
VERTEX
8
Layer 1
10
84.068945
20
377.186963
70
0
0
SEQEND
8
Layer 1
0
POLYLINE
8
Layer 1
62
7
70
0
10
0.000000
20
0.000000
66
1
0
VERTEX
8
Layer 1
10
84.068945
20
377.186963
70
0
0
VERTEX
8
Layer 1
10
88.069440
20
377.186963
70
0
0
SEQEND
8
Layer 1
0
POLYLINE
8
Layer 1
62
7
70
0
10
0.000000
20
0.000000
66
1
0
VERTEX
8
Layer 1
10
88.069440
20
377.186963
70
0
0
VERTEX
8
Layer 1
10
88.069440
20
389.353812
70
0
0
SEQEND
8
Layer 1
0
POLYLINE
8
Layer 1
62
7
70
0
10
0.000000
20
0.000000
66
1
0
VERTEX
8
Layer 1
10
88.069440
20
389.353812
70
0
0
VERTEX
8
Layer 1
10
84.068945
20
389.353812
70
0
0
SEQEND
8
Layer 1
0
POLYLINE
8
Layer 1
62
7
70
0
10
0.000000
20
0.000000
66
1
0
VERTEX
8
Layer 1
10
84.068945
20
389.353812
70
0
0
VERTEX
8
Layer 1
10
84.068945
20
401.520397
70
0
0
SEQEND
8
Layer 1
0
POLYLINE
8
Layer 1
62
7
70
0
10
0.000000
20
0.000000
66
1
0
VERTEX
8
Layer 1
10
84.068945
20
401.520397
70
0
0
VERTEX
8
Layer 1
10
88.069440
20
401.520397
70
0
0
SEQEND
8
Layer 1
0
POLYLINE
8
Layer 1
62
7
70
0
10
0.000000
20
0.000000
66
1
0
VERTEX
8
Layer 1
10
88.069440
20
401.520397
70
0
0
VERTEX
8
Layer 1
10
88.069440
20
413.686981
70
0
0
SEQEND
8
Layer 1
0
POLYLINE
8
Layer 1
62
7
70
0
10
0.000000
20
0.000000
66
1
0
VERTEX
8
Layer 1
10
88.069440
20
413.686981
70
0
0
VERTEX
8
Layer 1
10
84.068945
20
413.686981
70
0
0
SEQEND
8
Layer 1
0
POLYLINE
8
Layer 1
62
7
70
0
10
0.000000
20
0.000000
66
1
0
VERTEX
8
Layer 1
10
84.068945
20
413.686981
70
0
0
VERTEX
8
Layer 1
10
84.068945
20
425.853725
70
0
0
SEQEND
8
Layer 1
0
POLYLINE
8
Layer 1
62
7
70
0
10
0.000000
20
0.000000
66
1
0
VERTEX
8
Layer 1
10
84.068945
20
425.853725
70
0
0
VERTEX
8
Layer 1
10
88.069440
20
425.853725
70
0
0
SEQEND
8
Layer 1
0
POLYLINE
8
Layer 1
62
7
70
0
10
0.000000
20
0.000000
66
1
0
VERTEX
8
Layer 1
10
88.069440
20
425.853725
70
0
0
VERTEX
8
Layer 1
10
88.069440
20
438.020309
70
0
0
SEQEND
8
Layer 1
0
POLYLINE
8
Layer 1
62
7
70
0
10
0.000000
20
0.000000
66
1
0
VERTEX
8
Layer 1
10
88.069440
20
438.020309
70
0
0
VERTEX
8
Layer 1
10
84.068945
20
438.020309
70
0
0
SEQEND
8
Layer 1
0
POLYLINE
8
Layer 1
62
7
70
0
10
0.000000
20
0.000000
66
1
0
VERTEX
8
Layer 1
10
84.068945
20
438.020309
70
0
0
VERTEX
8
Layer 1
10
84.068945
20
450.187000
70
0
0
SEQEND
8
Layer 1
0
POLYLINE
8
Layer 1
62
7
70
0
10
0.000000
20
0.000000
66
1
0
VERTEX
8
Layer 1
10
84.068945
20
450.187000
70
0
0
VERTEX
8
Layer 1
10
94.070182
20
450.187000
70
0
0
SEQEND
8
Layer 1
0
POLYLINE
8
Layer 1
62
7
70
0
10
0.000000
20
0.000000
66
1
0
VERTEX
8
Layer 1
10
94.070182
20
450.187000
70
0
0
VERTEX
8
Layer 1
10
94.070182
20
454.186992
70
0
0
SEQEND
8
Layer 1
0
POLYLINE
8
Layer 1
62
7
70
0
10
0.000000
20
0.000000
66
1
0
VERTEX
8
Layer 1
10
94.070182
20
454.186992
70
0
0
VERTEX
8
Layer 1
10
100.070925
20
454.186992
70
0
0
SEQEND
8
Layer 1
0
POLYLINE
8
Layer 1
62
7
70
0
10
0.000000
20
0.000000
66
1
0
VERTEX
8
Layer 1
10
100.070925
20
454.186992
70
0
0
VERTEX
8
Layer 1
10
100.070925
20
450.187000
70
0
0
SEQEND
8
Layer 1
0
POLYLINE
8
Layer 1
62
7
70
0
10
0.000000
20
0.000000
66
1
0
VERTEX
8
Layer 1
10
100.070925
20
450.187000
70
0
0
VERTEX
8
Layer 1
10
106.069021
20
450.187000
70
0
0
SEQEND
8
Layer 1
0
POLYLINE
8
Layer 1
62
7
70
0
10
0.000000
20
0.000000
66
1
0
VERTEX
8
Layer 1
10
106.069021
20
450.187000
70
0
0
VERTEX
8
Layer 1
10
106.069021
20
454.186992
70
0
0
SEQEND
8
Layer 1
0
POLYLINE
8
Layer 1
62
7
70
0
10
0.000000
20
0.000000
66
1
0
VERTEX
8
Layer 1
10
106.069021
20
454.186992
70
0
0
VERTEX
8
Layer 1
10
112.069764
20
454.186992
70
0
0
SEQEND
8
Layer 1
0
POLYLINE
8
Layer 1
62
7
70
0
10
0.000000
20
0.000000
66
1
0
VERTEX
8
Layer 1
10
112.069764
20
454.186992
70
0
0
VERTEX
8
Layer 1
10
112.069764
20
450.187000
70
0
0
SEQEND
8
Layer 1
0
POLYLINE
8
Layer 1
62
7
70
0
10
0.000000
20
0.000000
66
1
0
VERTEX
8
Layer 1
10
112.069764
20
450.187000
70
0
0
VERTEX
8
Layer 1
10
118.070506
20
450.187000
70
0
0
SEQEND
8
Layer 1
0
POLYLINE
8
Layer 1
62
7
70
0
10
0.000000
20
0.000000
66
1
0
VERTEX
8
Layer 1
10
118.070506
20
450.187000
70
0
0
VERTEX
8
Layer 1
10
118.070506
20
454.186992
70
0
0
SEQEND
8
Layer 1
0
POLYLINE
8
Layer 1
62
7
70
0
10
0.000000
20
0.000000
66
1
0
VERTEX
8
Layer 1
10
118.070506
20
454.186992
70
0
0
VERTEX
8
Layer 1
10
124.068603
20
454.186992
70
0
0
SEQEND
8
Layer 1
0
POLYLINE
8
Layer 1
62
7
70
0
10
0.000000
20
0.000000
66
1
0
VERTEX
8
Layer 1
10
124.068603
20
454.186992
70
0
0
VERTEX
8
Layer 1
10
124.068603
20
450.187000
70
0
0
SEQEND
8
Layer 1
0
POLYLINE
8
Layer 1
62
7
70
0
10
0.000000
20
0.000000
66
1
0
VERTEX
8
Layer 1
10
124.068603
20
450.187000
70
0
0
VERTEX
8
Layer 1
10
130.069345
20
450.187000
70
0
0
SEQEND
8
Layer 1
0
POLYLINE
8
Layer 1
62
7
70
0
10
0.000000
20
0.000000
66
1
0
VERTEX
8
Layer 1
10
130.069345
20
450.187000
70
0
0
VERTEX
8
Layer 1
10
130.069345
20
454.186992
70
0
0
SEQEND
8
Layer 1
0
POLYLINE
8
Layer 1
62
7
70
0
10
0.000000
20
0.000000
66
1
0
VERTEX
8
Layer 1
10
130.069345
20
454.186992
70
0
0
VERTEX
8
Layer 1
10
136.070088
20
454.186992
70
0
0
SEQEND
8
Layer 1
0
POLYLINE
8
Layer 1
62
7
70
0
10
0.000000
20
0.000000
66
1
0
VERTEX
8
Layer 1
10
136.070088
20
454.186992
70
0
0
VERTEX
8
Layer 1
10
136.070088
20
450.187000
70
0
0
SEQEND
8
Layer 1
0
POLYLINE
8
Layer 1
62
7
70
0
10
0.000000
20
0.000000
66
1
0
VERTEX
8
Layer 1
10
136.070088
20
450.187000
70
0
0
VERTEX
8
Layer 1
10
142.070830
20
450.187000
70
0
0
SEQEND
8
Layer 1
0
POLYLINE
8
Layer 1
62
7
70
0
10
0.000000
20
0.000000
66
1
0
VERTEX
8
Layer 1
10
142.070830
20
450.187000
70
0
0
VERTEX
8
Layer 1
10
142.070830
20
454.186992
70
0
0
SEQEND
8
Layer 1
0
POLYLINE
8
Layer 1
62
7
70
0
10
0.000000
20
0.000000
66
1
0
VERTEX
8
Layer 1
10
142.070830
20
454.186992
70
0
0
VERTEX
8
Layer 1
10
148.068927
20
454.186992
70
0
0
SEQEND
8
Layer 1
0
POLYLINE
8
Layer 1
62
7
70
0
10
0.000000
20
0.000000
66
1
0
VERTEX
8
Layer 1
10
148.068927
20
454.186992
70
0
0
VERTEX
8
Layer 1
10
148.068927
20
450.187000
70
0
0
SEQEND
8
Layer 1
0
POLYLINE
8
Layer 1
62
7
70
0
10
0.000000
20
0.000000
66
1
0
VERTEX
8
Layer 1
10
148.068927
20
450.187000
70
0
0
VERTEX
8
Layer 1
10
154.069669
20
450.187000
70
0
0
SEQEND
8
Layer 1
0
POLYLINE
8
Layer 1
62
7
70
0
10
0.000000
20
0.000000
66
1
0
VERTEX
8
Layer 1
10
154.069669
20
450.187000
70
0
0
VERTEX
8
Layer 1
10
154.069669
20
454.186992
70
0
0
SEQEND
8
Layer 1
0
POLYLINE
8
Layer 1
62
7
70
0
10
0.000000
20
0.000000
66
1
0
VERTEX
8
Layer 1
10
154.069669
20
454.186992
70
0
0
VERTEX
8
Layer 1
10
160.070412
20
454.186992
70
0
0
SEQEND
8
Layer 1
0
POLYLINE
8
Layer 1
62
7
70
0
10
0.000000
20
0.000000
66
1
0
VERTEX
8
Layer 1
10
160.070412
20
454.186992
70
0
0
VERTEX
8
Layer 1
10
160.070412
20
450.187000
70
0
0
SEQEND
8
Layer 1
0
POLYLINE
8
Layer 1
62
7
70
0
10
0.000000
20
0.000000
66
1
0
VERTEX
8
Layer 1
10
160.070412
20
450.187000
70
0
0
VERTEX
8
Layer 1
10
164.068261
20
450.187000
70
0
0
SEQEND
8
Layer 1
0
POLYLINE
8
Layer 1
62
7
70
0
10
0.000000
20
0.000000
66
1
0
VERTEX
8
Layer 1
10
164.068261
20
450.187000
70
0
0
VERTEX
8
Layer 1
10
164.068261
20
438.020309
70
0
0
SEQEND
8
Layer 1
0
POLYLINE
8
Layer 1
62
7
70
0
10
0.000000
20
0.000000
66
1
0
VERTEX
8
Layer 1
10
164.068261
20
438.020309
70
0
0
VERTEX
8
Layer 1
10
160.070412
20
438.020309
70
0
0
SEQEND
8
Layer 1
0
POLYLINE
8
Layer 1
62
7
70
0
10
0.000000
20
0.000000
66
1
0
VERTEX
8
Layer 1
10
104.068774
20
312.187122
70
0
0
VERTEX
8
Layer 1
10
96.070430
20
312.187122
70
0
0
SEQEND
8
Layer 1
0
POLYLINE
8
Layer 1
62
7
70
0
10
0.000000
20
0.000000
66
1
0
VERTEX
8
Layer 1
10
96.070430
20
312.187122
70
0
0
VERTEX
8
Layer 1
10
96.070430
20
308.187156
70
0
0
SEQEND
8
Layer 1
0
POLYLINE
8
Layer 1
62
7
70
0
10
0.000000
20
0.000000
66
1
0
VERTEX
8
Layer 1
10
96.070430
20
308.187156
70
0
0
VERTEX
8
Layer 1
10
104.068774
20
308.187156
70
0
0
SEQEND
8
Layer 1
0
POLYLINE
8
Layer 1
62
7
70
0
10
0.000000
20
0.000000
66
1
0
VERTEX
8
Layer 1
10
104.068774
20
308.187156
70
0
0
VERTEX
8
Layer 1
10
104.068774
20
312.187122
70
0
0
SEQEND
8
Layer 1
0
POLYLINE
8
Layer 1
62
7
70
0
10
0.000000
20
0.000000
66
1
0
VERTEX
8
Layer 1
10
120.070754
20
312.187122
70
0
0
VERTEX
8
Layer 1
10
112.069764
20
312.187122
70
0
0
SEQEND
8
Layer 1
0
POLYLINE
8
Layer 1
62
7
70
0
10
0.000000
20
0.000000
66
1
0
VERTEX
8
Layer 1
10
112.069764
20
312.187122
70
0
0
VERTEX
8
Layer 1
10
112.069764
20
308.187156
70
0
0
SEQEND
8
Layer 1
0
POLYLINE
8
Layer 1
62
7
70
0
10
0.000000
20
0.000000
66
1
0
VERTEX
8
Layer 1
10
112.069764
20
308.187156
70
0
0
VERTEX
8
Layer 1
10
120.070754
20
308.187156
70
0
0
SEQEND
8
Layer 1
0
POLYLINE
8
Layer 1
62
7
70
0
10
0.000000
20
0.000000
66
1
0
VERTEX
8
Layer 1
10
120.070754
20
308.187156
70
0
0
VERTEX
8
Layer 1
10
120.070754
20
312.187122
70
0
0
SEQEND
8
Layer 1
0
POLYLINE
8
Layer 1
62
7
70
0
10
0.000000
20
0.000000
66
1
0
VERTEX
8
Layer 1
10
136.070088
20
312.187122
70
0
0
VERTEX
8
Layer 1
10
128.069098
20
312.187122
70
0
0
SEQEND
8
Layer 1
0
POLYLINE
8
Layer 1
62
7
70
0
10
0.000000
20
0.000000
66
1
0
VERTEX
8
Layer 1
10
128.069098
20
312.187122
70
0
0
VERTEX
8
Layer 1
10
128.069098
20
308.187156
70
0
0
SEQEND
8
Layer 1
0
POLYLINE
8
Layer 1
62
7
70
0
10
0.000000
20
0.000000
66
1
0
VERTEX
8
Layer 1
10
128.069098
20
308.187156
70
0
0
VERTEX
8
Layer 1
10
136.070088
20
308.187156
70
0
0
SEQEND
8
Layer 1
0
POLYLINE
8
Layer 1
62
7
70
0
10
0.000000
20
0.000000
66
1
0
VERTEX
8
Layer 1
10
136.070088
20
308.187156
70
0
0
VERTEX
8
Layer 1
10
136.070088
20
312.187122
70
0
0
SEQEND
8
Layer 1
0
POLYLINE
8
Layer 1
62
7
70
0
10
0.000000
20
0.000000
66
1
0
VERTEX
8
Layer 1
10
152.069422
20
312.187122
70
0
0
VERTEX
8
Layer 1
10
144.068432
20
312.187122
70
0
0
SEQEND
8
Layer 1
0
POLYLINE
8
Layer 1
62
7
70
0
10
0.000000
20
0.000000
66
1
0
VERTEX
8
Layer 1
10
144.068432
20
312.187122
70
0
0
VERTEX
8
Layer 1
10
144.068432
20
308.187156
70
0
0
SEQEND
8
Layer 1
0
POLYLINE
8
Layer 1
62
7
70
0
10
0.000000
20
0.000000
66
1
0
VERTEX
8
Layer 1
10
144.068432
20
308.187156
70
0
0
VERTEX
8
Layer 1
10
152.069422
20
308.187156
70
0
0
SEQEND
8
Layer 1
0
POLYLINE
8
Layer 1
62
7
70
0
10
0.000000
20
0.000000
66
1
0
VERTEX
8
Layer 1
10
152.069422
20
308.187156
70
0
0
VERTEX
8
Layer 1
10
152.069422
20
312.187122
70
0
0
SEQEND
8
Layer 1
0
POLYLINE
8
Layer 1
62
7
70
0
10
0.000000
20
0.000000
66
1
0
VERTEX
8
Layer 1
10
77.485975
20
332.519275
70
0
0
VERTEX
8
Layer 1
10
77.485975
20
344.686019
70
0
0
SEQEND
8
Layer 1
0
POLYLINE
8
Layer 1
62
7
70
0
10
0.000000
20
0.000000
66
1
0
VERTEX
8
Layer 1
10
77.485975
20
344.686019
70
0
0
VERTEX
8
Layer 1
10
81.486470
20
344.686019
70
0
0
SEQEND
8
Layer 1
0
POLYLINE
8
Layer 1
62
7
70
0
10
0.000000
20
0.000000
66
1
0
VERTEX
8
Layer 1
10
81.486470
20
344.686019
70
0
0
VERTEX
8
Layer 1
10
81.486470
20
356.852603
70
0
0
SEQEND
8
Layer 1
0
POLYLINE
8
Layer 1
62
7
70
0
10
0.000000
20
0.000000
66
1
0
VERTEX
8
Layer 1
10
81.486470
20
356.852603
70
0
0
VERTEX
8
Layer 1
10
77.485975
20
356.852603
70
0
0
SEQEND
8
Layer 1
0
POLYLINE
8
Layer 1
62
7
70
0
10
0.000000
20
0.000000
66
1
0
VERTEX
8
Layer 1
10
77.485975
20
356.852603
70
0
0
VERTEX
8
Layer 1
10
77.485975
20
369.019188
70
0
0
SEQEND
8
Layer 1
0
POLYLINE
8
Layer 1
62
7
70
0
10
0.000000
20
0.000000
66
1
0
VERTEX
8
Layer 1
10
77.485975
20
369.019188
70
0
0
VERTEX
8
Layer 1
10
81.486470
20
369.019188
70
0
0
SEQEND
8
Layer 1
0
POLYLINE
8
Layer 1
62
7
70
0
10
0.000000
20
0.000000
66
1
0
VERTEX
8
Layer 1
10
81.486470
20
369.019188
70
0
0
VERTEX
8
Layer 1
10
81.486470
20
381.186037
70
0
0
SEQEND
8
Layer 1
0
POLYLINE
8
Layer 1
62
7
70
0
10
0.000000
20
0.000000
66
1
0
VERTEX
8
Layer 1
10
81.486470
20
381.186037
70
0
0
VERTEX
8
Layer 1
10
77.485975
20
381.186037
70
0
0
SEQEND
8
Layer 1
0
POLYLINE
8
Layer 1
62
7
70
0
10
0.000000
20
0.000000
66
1
0
VERTEX
8
Layer 1
10
77.485975
20
381.186037
70
0
0
VERTEX
8
Layer 1
10
77.485975
20
393.352622
70
0
0
SEQEND
8
Layer 1
0
POLYLINE
8
Layer 1
62
7
70
0
10
0.000000
20
0.000000
66
1
0
VERTEX
8
Layer 1
10
77.485975
20
393.352622
70
0
0
VERTEX
8
Layer 1
10
81.486470
20
393.352622
70
0
0
SEQEND
8
Layer 1
0
POLYLINE
8
Layer 1
62
7
70
0
10
0.000000
20
0.000000
66
1
0
VERTEX
8
Layer 1
10
81.486470
20
393.352622
70
0
0
VERTEX
8
Layer 1
10
81.486470
20
405.519207
70
0
0
SEQEND
8
Layer 1
0
POLYLINE
8
Layer 1
62
7
70
0
10
0.000000
20
0.000000
66
1
0
VERTEX
8
Layer 1
10
81.486470
20
405.519207
70
0
0
VERTEX
8
Layer 1
10
77.485975
20
405.519207
70
0
0
SEQEND
8
Layer 1
0
POLYLINE
8
Layer 1
62
7
70
0
10
0.000000
20
0.000000
66
1
0
VERTEX
8
Layer 1
10
77.485975
20
405.519207
70
0
0
VERTEX
8
Layer 1
10
77.485975
20
417.685791
70
0
0
SEQEND
8
Layer 1
0
POLYLINE
8
Layer 1
62
7
70
0
10
0.000000
20
0.000000
66
1
0
VERTEX
8
Layer 1
10
77.485975
20
417.685791
70
0
0
VERTEX
8
Layer 1
10
81.486470
20
417.685791
70
0
0
SEQEND
8
Layer 1
0
POLYLINE
8
Layer 1
62
7
70
0
10
0.000000
20
0.000000
66
1
0
VERTEX
8
Layer 1
10
81.486470
20
417.685791
70
0
0
VERTEX
8
Layer 1
10
81.486470
20
429.852905
70
0
0
SEQEND
8
Layer 1
0
POLYLINE
8
Layer 1
62
7
70
0
10
0.000000
20
0.000000
66
1
0
VERTEX
8
Layer 1
10
81.486470
20
429.852905
70
0
0
VERTEX
8
Layer 1
10
77.485975
20
429.852905
70
0
0
SEQEND
8
Layer 1
0
POLYLINE
8
Layer 1
62
7
70
0
10
0.000000
20
0.000000
66
1
0
VERTEX
8
Layer 1
10
77.485975
20
429.852905
70
0
0
VERTEX
8
Layer 1
10
77.485975
20
442.018961
70
0
0
SEQEND
8
Layer 1
0
POLYLINE
8
Layer 1
62
7
70
0
10
0.000000
20
0.000000
66
1
0
VERTEX
8
Layer 1
10
77.485975
20
442.018961
70
0
0
VERTEX
8
Layer 1
10
81.486470
20
442.018961
70
0
0
SEQEND
8
Layer 1
0
POLYLINE
8
Layer 1
62
7
70
0
10
0.000000
20
0.000000
66
1
0
VERTEX
8
Layer 1
10
81.486470
20
442.018961
70
0
0
VERTEX
8
Layer 1
10
81.486470
20
454.185810
70
0
0
SEQEND
8
Layer 1
0
POLYLINE
8
Layer 1
62
7
70
0
10
0.000000
20
0.000000
66
1
0
VERTEX
8
Layer 1
10
81.486470
20
454.185810
70
0
0
VERTEX
8
Layer 1
10
5.485003
20
454.185810
70
0
0
SEQEND
8
Layer 1
0
POLYLINE
8
Layer 1
62
7
70
0
10
0.000000
20
0.000000
66
1
0
VERTEX
8
Layer 1
10
5.485003
20
454.185810
70
0
0
VERTEX
8
Layer 1
10
5.485003
20
442.018961
70
0
0
SEQEND
8
Layer 1
0
POLYLINE
8
Layer 1
62
7
70
0
10
0.000000
20
0.000000
66
1
0
VERTEX
8
Layer 1
10
5.485003
20
442.018961
70
0
0
VERTEX
8
Layer 1
10
1.484508
20
442.018961
70
0
0
SEQEND
8
Layer 1
0
POLYLINE
8
Layer 1
62
7
70
0
10
0.000000
20
0.000000
66
1
0
VERTEX
8
Layer 1
10
1.484508
20
442.018961
70
0
0
VERTEX
8
Layer 1
10
1.484508
20
429.852905
70
0
0
SEQEND
8
Layer 1
0
POLYLINE
8
Layer 1
62
7
70
0
10
0.000000
20
0.000000
66
1
0
VERTEX
8
Layer 1
10
1.484508
20
429.852905
70
0
0
VERTEX
8
Layer 1
10
5.485003
20
429.852905
70
0
0
SEQEND
8
Layer 1
0
POLYLINE
8
Layer 1
62
7
70
0
10
0.000000
20
0.000000
66
1
0
VERTEX
8
Layer 1
10
5.485003
20
429.852905
70
0
0
VERTEX
8
Layer 1
10
5.485003
20
417.685791
70
0
0
SEQEND
8
Layer 1
0
POLYLINE
8
Layer 1
62
7
70
0
10
0.000000
20
0.000000
66
1
0
VERTEX
8
Layer 1
10
5.485003
20
417.685791
70
0
0
VERTEX
8
Layer 1
10
1.484508
20
417.685791
70
0
0
SEQEND
8
Layer 1
0
POLYLINE
8
Layer 1
62
7
70
0
10
0.000000
20
0.000000
66
1
0
VERTEX
8
Layer 1
10
1.484508
20
417.685791
70
0
0
VERTEX
8
Layer 1
10
1.484508
20
405.519207
70
0
0
SEQEND
8
Layer 1
0
POLYLINE
8
Layer 1
62
7
70
0
10
0.000000
20
0.000000
66
1
0
VERTEX
8
Layer 1
10
1.484508
20
405.519207
70
0
0
VERTEX
8
Layer 1
10
5.485003
20
405.519207
70
0
0
SEQEND
8
Layer 1
0
POLYLINE
8
Layer 1
62
7
70
0
10
0.000000
20
0.000000
66
1
0
VERTEX
8
Layer 1
10
5.485003
20
405.519207
70
0
0
VERTEX
8
Layer 1
10
5.485003
20
393.352622
70
0
0
SEQEND
8
Layer 1
0
POLYLINE
8
Layer 1
62
7
70
0
10
0.000000
20
0.000000
66
1
0
VERTEX
8
Layer 1
10
5.485003
20
393.352622
70
0
0
VERTEX
8
Layer 1
10
1.484508
20
393.352622
70
0
0
SEQEND
8
Layer 1
0
POLYLINE
8
Layer 1
62
7
70
0
10
0.000000
20
0.000000
66
1
0
VERTEX
8
Layer 1
10
1.484508
20
393.352622
70
0
0
VERTEX
8
Layer 1
10
1.484508
20
381.186037
70
0
0
SEQEND
8
Layer 1
0
POLYLINE
8
Layer 1
62
7
70
0
10
0.000000
20
0.000000
66
1
0
VERTEX
8
Layer 1
10
1.484508
20
381.186037
70
0
0
VERTEX
8
Layer 1
10
5.485003
20
381.186037
70
0
0
SEQEND
8
Layer 1
0
POLYLINE
8
Layer 1
62
7
70
0
10
0.000000
20
0.000000
66
1
0
VERTEX
8
Layer 1
10
5.485003
20
381.186037
70
0
0
VERTEX
8
Layer 1
10
5.485003
20
369.019188
70
0
0
SEQEND
8
Layer 1
0
POLYLINE
8
Layer 1
62
7
70
0
10
0.000000
20
0.000000
66
1
0
VERTEX
8
Layer 1
10
5.485003
20
369.019188
70
0
0
VERTEX
8
Layer 1
10
1.484508
20
369.019188
70
0
0
SEQEND
8
Layer 1
0
POLYLINE
8
Layer 1
62
7
70
0
10
0.000000
20
0.000000
66
1
0
VERTEX
8
Layer 1
10
1.484508
20
369.019188
70
0
0
VERTEX
8
Layer 1
10
1.484508
20
356.852603
70
0
0
SEQEND
8
Layer 1
0
POLYLINE
8
Layer 1
62
7
70
0
10
0.000000
20
0.000000
66
1
0
VERTEX
8
Layer 1
10
1.484508
20
356.852603
70
0
0
VERTEX
8
Layer 1
10
5.485003
20
356.852603
70
0
0
SEQEND
8
Layer 1
0
POLYLINE
8
Layer 1
62
7
70
0
10
0.000000
20
0.000000
66
1
0
VERTEX
8
Layer 1
10
5.485003
20
356.852603
70
0
0
VERTEX
8
Layer 1
10
5.485003
20
344.686019
70
0
0
SEQEND
8
Layer 1
0
POLYLINE
8
Layer 1
62
7
70
0
10
0.000000
20
0.000000
66
1
0
VERTEX
8
Layer 1
10
5.485003
20
344.686019
70
0
0
VERTEX
8
Layer 1
10
1.484508
20
344.686019
70
0
0
SEQEND
8
Layer 1
0
POLYLINE
8
Layer 1
62
7
70
0
10
0.000000
20
0.000000
66
1
0
VERTEX
8
Layer 1
10
1.484508
20
344.686019
70
0
0
VERTEX
8
Layer 1
10
1.484508
20
332.519275
70
0
0
SEQEND
8
Layer 1
0
POLYLINE
8
Layer 1
62
7
70
0
10
0.000000
20
0.000000
66
1
0
VERTEX
8
Layer 1
10
1.484508
20
332.519275
70
0
0
VERTEX
8
Layer 1
10
5.485003
20
332.519275
70
0
0
SEQEND
8
Layer 1
0
POLYLINE
8
Layer 1
62
7
70
0
10
0.000000
20
0.000000
66
1
0
VERTEX
8
Layer 1
10
5.485003
20
332.519275
70
0
0
VERTEX
8
Layer 1
10
5.485003
20
320.352691
70
0
0
SEQEND
8
Layer 1
0
POLYLINE
8
Layer 1
62
7
70
0
10
0.000000
20
0.000000
66
1
0
VERTEX
8
Layer 1
10
5.485003
20
320.352691
70
0
0
VERTEX
8
Layer 1
10
1.484508
20
320.352691
70
0
0
SEQEND
8
Layer 1
0
POLYLINE
8
Layer 1
62
7
70
0
10
0.000000
20
0.000000
66
1
0
VERTEX
8
Layer 1
10
1.484508
20
320.352691
70
0
0
VERTEX
8
Layer 1
10
1.484508
20
304.186008
70
0
0
SEQEND
8
Layer 1
0
POLYLINE
8
Layer 1
62
7
70
0
10
0.000000
20
0.000000
66
1
0
VERTEX
8
Layer 1
10
1.484508
20
304.186008
70
0
0
VERTEX
8
Layer 1
10
5.485003
20
304.186008
70
0
0
SEQEND
8
Layer 1
0
POLYLINE
8
Layer 1
62
7
70
0
10
0.000000
20
0.000000
66
1
0
VERTEX
8
Layer 1
10
5.485003
20
304.186008
70
0
0
VERTEX
8
Layer 1
10
5.485003
20
308.186000
70
0
0
SEQEND
8
Layer 1
0
POLYLINE
8
Layer 1
62
7
70
0
10
0.000000
20
0.000000
66
1
0
VERTEX
8
Layer 1
10
5.485003
20
308.186000
70
0
0
VERTEX
8
Layer 1
10
11.485746
20
308.186000
70
0
0
SEQEND
8
Layer 1
0
POLYLINE
8
Layer 1
62
7
70
0
10
0.000000
20
0.000000
66
1
0
VERTEX
8
Layer 1
10
11.485746
20
308.186000
70
0
0
VERTEX
8
Layer 1
10
11.485746
20
304.186008
70
0
0
SEQEND
8
Layer 1
0
POLYLINE
8
Layer 1
62
7
70
0
10
0.000000
20
0.000000
66
1
0
VERTEX
8
Layer 1
10
11.485746
20
304.186008
70
0
0
VERTEX
8
Layer 1
10
17.486488
20
304.186008
70
0
0
SEQEND
8
Layer 1
0
POLYLINE
8
Layer 1
62
7
70
0
10
0.000000
20
0.000000
66
1
0
VERTEX
8
Layer 1
10
17.486488
20
304.186008
70
0
0
VERTEX
8
Layer 1
10
17.486488
20
308.186000
70
0
0
SEQEND
8
Layer 1
0
POLYLINE
8
Layer 1
62
7
70
0
10
0.000000
20
0.000000
66
1
0
VERTEX
8
Layer 1
10
17.486488
20
308.186000
70
0
0
VERTEX
8
Layer 1
10
23.484585
20
308.186000
70
0
0
SEQEND
8
Layer 1
0
POLYLINE
8
Layer 1
62
7
70
0
10
0.000000
20
0.000000
66
1
0
VERTEX
8
Layer 1
10
23.484585
20
308.186000
70
0
0
VERTEX
8
Layer 1
10
23.484585
20
304.186008
70
0
0
SEQEND
8
Layer 1
0
POLYLINE
8
Layer 1
62
7
70
0
10
0.000000
20
0.000000
66
1
0
VERTEX
8
Layer 1
10
23.484585
20
304.186008
70
0
0
VERTEX
8
Layer 1
10
29.485327
20
304.186008
70
0
0
SEQEND
8
Layer 1
0
POLYLINE
8
Layer 1
62
7
70
0
10
0.000000
20
0.000000
66
1
0
VERTEX
8
Layer 1
10
29.485327
20
304.186008
70
0
0
VERTEX
8
Layer 1
10
29.485327
20
308.186000
70
0
0
SEQEND
8
Layer 1
0
POLYLINE
8
Layer 1
62
7
70
0
10
0.000000
20
0.000000
66
1
0
VERTEX
8
Layer 1
10
29.485327
20
308.186000
70
0
0
VERTEX
8
Layer 1
10
35.486070
20
308.186000
70
0
0
SEQEND
8
Layer 1
0
POLYLINE
8
Layer 1
62
7
70
0
10
0.000000
20
0.000000
66
1
0
VERTEX
8
Layer 1
10
35.486070
20
308.186000
70
0
0
VERTEX
8
Layer 1
10
35.486070
20
304.186008
70
0
0
SEQEND
8
Layer 1
0
POLYLINE
8
Layer 1
62
7
70
0
10
0.000000
20
0.000000
66
1
0
VERTEX
8
Layer 1
10
35.486070
20
304.186008
70
0
0
VERTEX
8
Layer 1
10
41.486812
20
304.186008
70
0
0
SEQEND
8
Layer 1
0
POLYLINE
8
Layer 1
62
7
70
0
10
0.000000
20
0.000000
66
1
0
VERTEX
8
Layer 1
10
41.486812
20
304.186008
70
0
0
VERTEX
8
Layer 1
10
41.486812
20
308.186000
70
0
0
SEQEND
8
Layer 1
0
POLYLINE
8
Layer 1
62
7
70
0
10
0.000000
20
0.000000
66
1
0
VERTEX
8
Layer 1
10
41.486812
20
308.186000
70
0
0
VERTEX
8
Layer 1
10
47.484909
20
308.186000
70
0
0
SEQEND
8
Layer 1
0
POLYLINE
8
Layer 1
62
7
70
0
10
0.000000
20
0.000000
66
1
0
VERTEX
8
Layer 1
10
47.484909
20
308.186000
70
0
0
VERTEX
8
Layer 1
10
47.484909
20
304.186008
70
0
0
SEQEND
8
Layer 1
0
POLYLINE
8
Layer 1
62
7
70
0
10
0.000000
20
0.000000
66
1
0
VERTEX
8
Layer 1
10
47.484909
20
304.186008
70
0
0
VERTEX
8
Layer 1
10
53.485651
20
304.186008
70
0
0
SEQEND
8
Layer 1
0
POLYLINE
8
Layer 1
62
7
70
0
10
0.000000
20
0.000000
66
1
0
VERTEX
8
Layer 1
10
53.485651
20
304.186008
70
0
0
VERTEX
8
Layer 1
10
53.485651
20
308.186000
70
0
0
SEQEND
8
Layer 1
0
POLYLINE
8
Layer 1
62
7
70
0
10
0.000000
20
0.000000
66
1
0
VERTEX
8
Layer 1
10
53.485651
20
308.186000
70
0
0
VERTEX
8
Layer 1
10
59.486393
20
308.186000
70
0
0
SEQEND
8
Layer 1
0
POLYLINE
8
Layer 1
62
7
70
0
10
0.000000
20
0.000000
66
1
0
VERTEX
8
Layer 1
10
59.486393
20
308.186000
70
0
0
VERTEX
8
Layer 1
10
59.486393
20
304.186008
70
0
0
SEQEND
8
Layer 1
0
POLYLINE
8
Layer 1
62
7
70
0
10
0.000000
20
0.000000
66
1
0
VERTEX
8
Layer 1
10
59.486393
20
304.186008
70
0
0
VERTEX
8
Layer 1
10
65.484490
20
304.186008
70
0
0
SEQEND
8
Layer 1
0
POLYLINE
8
Layer 1
62
7
70
0
10
0.000000
20
0.000000
66
1
0
VERTEX
8
Layer 1
10
65.484490
20
304.186008
70
0
0
VERTEX
8
Layer 1
10
65.484490
20
308.186000
70
0
0
SEQEND
8
Layer 1
0
POLYLINE
8
Layer 1
62
7
70
0
10
0.000000
20
0.000000
66
1
0
VERTEX
8
Layer 1
10
65.484490
20
308.186000
70
0
0
VERTEX
8
Layer 1
10
71.485233
20
308.186000
70
0
0
SEQEND
8
Layer 1
0
POLYLINE
8
Layer 1
62
7
70
0
10
0.000000
20
0.000000
66
1
0
VERTEX
8
Layer 1
10
71.485233
20
308.186000
70
0
0
VERTEX
8
Layer 1
10
71.485233
20
304.186008
70
0
0
SEQEND
8
Layer 1
0
POLYLINE
8
Layer 1
62
7
70
0
10
0.000000
20
0.000000
66
1
0
VERTEX
8
Layer 1
10
71.485233
20
304.186008
70
0
0
VERTEX
8
Layer 1
10
77.485975
20
304.186008
70
0
0
SEQEND
8
Layer 1
0
POLYLINE
8
Layer 1
62
7
70
0
10
0.000000
20
0.000000
66
1
0
VERTEX
8
Layer 1
10
77.485975
20
304.186008
70
0
0
VERTEX
8
Layer 1
10
77.485975
20
320.352691
70
0
0
SEQEND
8
Layer 1
0
POLYLINE
8
Layer 1
62
7
70
0
10
0.000000
20
0.000000
66
1
0
VERTEX
8
Layer 1
10
77.485975
20
320.352691
70
0
0
VERTEX
8
Layer 1
10
81.486470
20
320.352691
70
0
0
SEQEND
8
Layer 1
0
POLYLINE
8
Layer 1
62
7
70
0
10
0.000000
20
0.000000
66
1
0
VERTEX
8
Layer 1
10
81.486470
20
320.352691
70
0
0
VERTEX
8
Layer 1
10
81.486470
20
332.519275
70
0
0
SEQEND
8
Layer 1
0
POLYLINE
8
Layer 1
62
7
70
0
10
0.000000
20
0.000000
66
1
0
VERTEX
8
Layer 1
10
81.486470
20
332.519275
70
0
0
VERTEX
8
Layer 1
10
77.485975
20
332.519275
70
0
0
SEQEND
8
Layer 1
0
POLYLINE
8
Layer 1
62
7
70
0
10
0.000000
20
0.000000
66
1
0
VERTEX
8
Layer 1
10
21.484337
20
446.185878
70
0
0
VERTEX
8
Layer 1
10
13.485993
20
446.185878
70
0
0
SEQEND
8
Layer 1
0
POLYLINE
8
Layer 1
62
7
70
0
10
0.000000
20
0.000000
66
1
0
VERTEX
8
Layer 1
10
13.485993
20
446.185878
70
0
0
VERTEX
8
Layer 1
10
13.485993
20
450.185844
70
0
0
SEQEND
8
Layer 1
0
POLYLINE
8
Layer 1
62
7
70
0
10
0.000000
20
0.000000
66
1
0
VERTEX
8
Layer 1
10
13.485993
20
450.185844
70
0
0
VERTEX
8
Layer 1
10
21.484337
20
450.185844
70
0
0
SEQEND
8
Layer 1
0
POLYLINE
8
Layer 1
62
7
70
0
10
0.000000
20
0.000000
66
1
0
VERTEX
8
Layer 1
10
21.484337
20
450.185844
70
0
0
VERTEX
8
Layer 1
10
21.484337
20
446.185878
70
0
0
SEQEND
8
Layer 1
0
POLYLINE
8
Layer 1
62
7
70
0
10
0.000000
20
0.000000
66
1
0
VERTEX
8
Layer 1
10
37.486317
20
446.185878
70
0
0
VERTEX
8
Layer 1
10
29.485327
20
446.185878
70
0
0
SEQEND
8
Layer 1
0
POLYLINE
8
Layer 1
62
7
70
0
10
0.000000
20
0.000000
66
1
0
VERTEX
8
Layer 1
10
29.485327
20
446.185878
70
0
0
VERTEX
8
Layer 1
10
29.485327
20
450.185844
70
0
0
SEQEND
8
Layer 1
0
POLYLINE
8
Layer 1
62
7
70
0
10
0.000000
20
0.000000
66
1
0
VERTEX
8
Layer 1
10
29.485327
20
450.185844
70
0
0
VERTEX
8
Layer 1
10
37.486317
20
450.185844
70
0
0
SEQEND
8
Layer 1
0
POLYLINE
8
Layer 1
62
7
70
0
10
0.000000
20
0.000000
66
1
0
VERTEX
8
Layer 1
10
37.486317
20
450.185844
70
0
0
VERTEX
8
Layer 1
10
37.486317
20
446.185878
70
0
0
SEQEND
8
Layer 1
0
POLYLINE
8
Layer 1
62
7
70
0
10
0.000000
20
0.000000
66
1
0
VERTEX
8
Layer 1
10
53.485651
20
446.185878
70
0
0
VERTEX
8
Layer 1
10
45.484661
20
446.185878
70
0
0
SEQEND
8
Layer 1
0
POLYLINE
8
Layer 1
62
7
70
0
10
0.000000
20
0.000000
66
1
0
VERTEX
8
Layer 1
10
45.484661
20
446.185878
70
0
0
VERTEX
8
Layer 1
10
45.484661
20
450.185844
70
0
0
SEQEND
8
Layer 1
0
POLYLINE
8
Layer 1
62
7
70
0
10
0.000000
20
0.000000
66
1
0
VERTEX
8
Layer 1
10
45.484661
20
450.185844
70
0
0
VERTEX
8
Layer 1
10
53.485651
20
450.185844
70
0
0
SEQEND
8
Layer 1
0
POLYLINE
8
Layer 1
62
7
70
0
10
0.000000
20
0.000000
66
1
0
VERTEX
8
Layer 1
10
53.485651
20
450.185844
70
0
0
VERTEX
8
Layer 1
10
53.485651
20
446.185878
70
0
0
SEQEND
8
Layer 1
0
POLYLINE
8
Layer 1
62
7
70
0
10
0.000000
20
0.000000
66
1
0
VERTEX
8
Layer 1
10
69.484985
20
446.185878
70
0
0
VERTEX
8
Layer 1
10
61.486641
20
446.185878
70
0
0
SEQEND
8
Layer 1
0
POLYLINE
8
Layer 1
62
7
70
0
10
0.000000
20
0.000000
66
1
0
VERTEX
8
Layer 1
10
61.486641
20
446.185878
70
0
0
VERTEX
8
Layer 1
10
61.486641
20
450.185844
70
0
0
SEQEND
8
Layer 1
0
POLYLINE
8
Layer 1
62
7
70
0
10
0.000000
20
0.000000
66
1
0
VERTEX
8
Layer 1
10
61.486641
20
450.185844
70
0
0
VERTEX
8
Layer 1
10
69.484985
20
450.185844
70
0
0
SEQEND
8
Layer 1
0
POLYLINE
8
Layer 1
62
7
70
0
10
0.000000
20
0.000000
66
1
0
VERTEX
8
Layer 1
10
69.484985
20
450.185844
70
0
0
VERTEX
8
Layer 1
10
69.484985
20
446.185878
70
0
0
SEQEND
8
Layer 1
0
POLYLINE
8
Layer 1
62
7
70
0
10
0.000000
20
0.000000
66
1
0
VERTEX
8
Layer 1
10
69.921547
20
420.429782
70
0
0
VERTEX
8
Layer 1
10
69.881860
20
420.176840
70
0
0
SEQEND
8
Layer 1
0
POLYLINE
8
Layer 1
62
7
70
0
10
0.000000
20
0.000000
66
1
0
VERTEX
8
Layer 1
10
69.881860
20
420.176840
70
0
0
VERTEX
8
Layer 1
10
69.815714
20
419.928926
70
0
0
SEQEND
8
Layer 1
0
POLYLINE
8
Layer 1
62
7
70
0
10
0.000000
20
0.000000
66
1
0
VERTEX
8
Layer 1
10
69.815714
20
419.928926
70
0
0
VERTEX
8
Layer 1
10
69.723110
20
419.688949
70
0
0
SEQEND
8
Layer 1
0
POLYLINE
8
Layer 1
62
7
70
0
10
0.000000
20
0.000000
66
1
0
VERTEX
8
Layer 1
10
69.723110
20
419.688949
70
0
0
VERTEX
8
Layer 1
10
69.606693
20
419.460879
70
0
0
SEQEND
8
Layer 1
0
POLYLINE
8
Layer 1
62
7
70
0
10
0.000000
20
0.000000
66
1
0
VERTEX
8
Layer 1
10
69.606693
20
419.460879
70
0
0
VERTEX
8
Layer 1
10
69.466464
20
419.245773
70
0
0
SEQEND
8
Layer 1
0
POLYLINE
8
Layer 1
62
7
70
0
10
0.000000
20
0.000000
66
1
0
VERTEX
8
Layer 1
10
69.466464
20
419.245773
70
0
0
VERTEX
8
Layer 1
10
69.307714
20
419.046806
70
0
0
SEQEND
8
Layer 1
0
POLYLINE
8
Layer 1
62
7
70
0
10
0.000000
20
0.000000
66
1
0
VERTEX
8
Layer 1
10
69.307714
20
419.046806
70
0
0
VERTEX
8
Layer 1
10
69.125152
20
418.864773
70
0
0
SEQEND
8
Layer 1
0
POLYLINE
8
Layer 1
62
7
70
0
10
0.000000
20
0.000000
66
1
0
VERTEX
8
Layer 1
10
69.125152
20
418.864773
70
0
0
VERTEX
8
Layer 1
10
68.926715
20
418.703907
70
0
0
SEQEND
8
Layer 1
0
POLYLINE
8
Layer 1
62
7
70
0
10
0.000000
20
0.000000
66
1
0
VERTEX
8
Layer 1
10
68.926715
20
418.703907
70
0
0
VERTEX
8
Layer 1
10
68.709757
20
418.563942
70
0
0
SEQEND
8
Layer 1
0
POLYLINE
8
Layer 1
62
7
70
0
10
0.000000
20
0.000000
66
1
0
VERTEX
8
Layer 1
10
68.709757
20
418.563942
70
0
0
VERTEX
8
Layer 1
10
68.482215
20
418.447790
70
0
0
SEQEND
8
Layer 1
0
POLYLINE
8
Layer 1
62
7
70
0
10
0.000000
20
0.000000
66
1
0
VERTEX
8
Layer 1
10
68.482215
20
418.447790
70
0
0
VERTEX
8
Layer 1
10
68.241445
20
418.355980
70
0
0
SEQEND
8
Layer 1
0
POLYLINE
8
Layer 1
62
7
70
0
10
0.000000
20
0.000000
66
1
0
VERTEX
8
Layer 1
10
68.241445
20
418.355980
70
0
0
VERTEX
8
Layer 1
10
67.995383
20
418.289834
70
0
0
SEQEND
8
Layer 1
0
POLYLINE
8
Layer 1
62
7
70
0
10
0.000000
20
0.000000
66
1
0
VERTEX
8
Layer 1
10
67.995383
20
418.289834
70
0
0
VERTEX
8
Layer 1
10
67.741383
20
418.248824
70
0
0
SEQEND
8
Layer 1
0
POLYLINE
8
Layer 1
62
7
70
0
10
0.000000
20
0.000000
66
1
0
VERTEX
8
Layer 1
10
67.741383
20
418.248824
70
0
0
VERTEX
8
Layer 1
10
67.484738
20
418.235859
70
0
0
SEQEND
8
Layer 1
0
POLYLINE
8
Layer 1
62
7
70
0
10
0.000000
20
0.000000
66
1
0
VERTEX
8
Layer 1
10
67.484738
20
418.235859
70
0
0
VERTEX
8
Layer 1
10
67.230738
20
418.248824
70
0
0
SEQEND
8
Layer 1
0
POLYLINE
8
Layer 1
62
7
70
0
10
0.000000
20
0.000000
66
1
0
VERTEX
8
Layer 1
10
67.230738
20
418.248824
70
0
0
VERTEX
8
Layer 1
10
66.976738
20
418.289834
70
0
0
SEQEND
8
Layer 1
0
POLYLINE
8
Layer 1
62
7
70
0
10
0.000000
20
0.000000
66
1
0
VERTEX
8
Layer 1
10
66.976738
20
418.289834
70
0
0
VERTEX
8
Layer 1
10
66.728030
20
418.355980
70
0
0
SEQEND
8
Layer 1
0
POLYLINE
8
Layer 1
62
7
70
0
10
0.000000
20
0.000000
66
1
0
VERTEX
8
Layer 1
10
66.728030
20
418.355980
70
0
0
VERTEX
8
Layer 1
10
66.487260
20
418.447790
70
0
0
SEQEND
8
Layer 1
0
POLYLINE
8
Layer 1
62
7
70
0
10
0.000000
20
0.000000
66
1
0
VERTEX
8
Layer 1
10
66.487260
20
418.447790
70
0
0
VERTEX
8
Layer 1
10
66.259718
20
418.563942
70
0
0
SEQEND
8
Layer 1
0
POLYLINE
8
Layer 1
62
7
70
0
10
0.000000
20
0.000000
66
1
0
VERTEX
8
Layer 1
10
66.259718
20
418.563942
70
0
0
VERTEX
8
Layer 1
10
66.045406
20
418.703907
70
0
0
SEQEND
8
Layer 1
0
POLYLINE
8
Layer 1
62
7
70
0
10
0.000000
20
0.000000
66
1
0
VERTEX
8
Layer 1
10
66.045406
20
418.703907
70
0
0
VERTEX
8
Layer 1
10
65.846969
20
418.864773
70
0
0
SEQEND
8
Layer 1
0
POLYLINE
8
Layer 1
62
7
70
0
10
0.000000
20
0.000000
66
1
0
VERTEX
8
Layer 1
10
65.846969
20
418.864773
70
0
0
VERTEX
8
Layer 1
10
65.664407
20
419.046806
70
0
0
SEQEND
8
Layer 1
0
POLYLINE
8
Layer 1
62
7
70
0
10
0.000000
20
0.000000
66
1
0
VERTEX
8
Layer 1
10
65.664407
20
419.046806
70
0
0
VERTEX
8
Layer 1
10
65.503011
20
419.245773
70
0
0
SEQEND
8
Layer 1
0
POLYLINE
8
Layer 1
62
7
70
0
10
0.000000
20
0.000000
66
1
0
VERTEX
8
Layer 1
10
65.503011
20
419.245773
70
0
0
VERTEX
8
Layer 1
10
65.362782
20
419.460879
70
0
0
SEQEND
8
Layer 1
0
POLYLINE
8
Layer 1
62
7
70
0
10
0.000000
20
0.000000
66
1
0
VERTEX
8
Layer 1
10
65.362782
20
419.460879
70
0
0
VERTEX
8
Layer 1
10
65.246365
20
419.688949
70
0
0
SEQEND
8
Layer 1
0
POLYLINE
8
Layer 1
62
7
70
0
10
0.000000
20
0.000000
66
1
0
VERTEX
8
Layer 1
10
65.246365
20
419.688949
70
0
0
VERTEX
8
Layer 1
10
65.156407
20
419.928926
70
0
0
SEQEND
8
Layer 1
0
POLYLINE
8
Layer 1
62
7
70
0
10
0.000000
20
0.000000
66
1
0
VERTEX
8
Layer 1
10
65.156407
20
419.928926
70
0
0
VERTEX
8
Layer 1
10
65.090261
20
420.176840
70
0
0
SEQEND
8
Layer 1
0
POLYLINE
8
Layer 1
62
7
70
0
10
0.000000
20
0.000000
66
1
0
VERTEX
8
Layer 1
10
65.090261
20
420.176840
70
0
0
VERTEX
8
Layer 1
10
65.047928
20
420.429782
70
0
0
SEQEND
8
Layer 1
0
POLYLINE
8
Layer 1
62
7
70
0
10
0.000000
20
0.000000
66
1
0
VERTEX
8
Layer 1
10
65.047928
20
420.429782
70
0
0
VERTEX
8
Layer 1
10
65.034699
20
420.685898
70
0
0
SEQEND
8
Layer 1
0
POLYLINE
8
Layer 1
62
7
70
0
10
0.000000
20
0.000000
66
1
0
VERTEX
8
Layer 1
10
65.034699
20
420.685898
70
0
0
VERTEX
8
Layer 1
10
65.047928
20
420.941750
70
0
0
SEQEND
8
Layer 1
0
POLYLINE
8
Layer 1
62
7
70
0
10
0.000000
20
0.000000
66
1
0
VERTEX
8
Layer 1
10
65.047928
20
420.941750
70
0
0
VERTEX
8
Layer 1
10
65.090261
20
421.194956
70
0
0
SEQEND
8
Layer 1
0
POLYLINE
8
Layer 1
62
7
70
0
10
0.000000
20
0.000000
66
1
0
VERTEX
8
Layer 1
10
65.090261
20
421.194956
70
0
0
VERTEX
8
Layer 1
10
65.156407
20
421.442870
70
0
0
SEQEND
8
Layer 1
0
POLYLINE
8
Layer 1
62
7
70
0
10
0.000000
20
0.000000
66
1
0
VERTEX
8
Layer 1
10
65.156407
20
421.442870
70
0
0
VERTEX
8
Layer 1
10
65.246365
20
421.682847
70
0
0
SEQEND
8
Layer 1
0
POLYLINE
8
Layer 1
62
7
70
0
10
0.000000
20
0.000000
66
1
0
VERTEX
8
Layer 1
10
65.246365
20
421.682847
70
0
0
VERTEX
8
Layer 1
10
65.362782
20
421.910917
70
0
0
SEQEND
8
Layer 1
0
POLYLINE
8
Layer 1
62
7
70
0
10
0.000000
20
0.000000
66
1
0
VERTEX
8
Layer 1
10
65.362782
20
421.910917
70
0
0
VERTEX
8
Layer 1
10
65.503011
20
422.125759
70
0
0
SEQEND
8
Layer 1
0
POLYLINE
8
Layer 1
62
7
70
0
10
0.000000
20
0.000000
66
1
0
VERTEX
8
Layer 1
10
65.503011
20
422.125759
70
0
0
VERTEX
8
Layer 1
10
65.664407
20
422.324725
70
0
0
SEQEND
8
Layer 1
0
POLYLINE
8
Layer 1
62
7
70
0
10
0.000000
20
0.000000
66
1
0
VERTEX
8
Layer 1
10
65.664407
20
422.324725
70
0
0
VERTEX
8
Layer 1
10
65.846969
20
422.506758
70
0
0
SEQEND
8
Layer 1
0
POLYLINE
8
Layer 1
62
7
70
0
10
0.000000
20
0.000000
66
1
0
VERTEX
8
Layer 1
10
65.846969
20
422.506758
70
0
0
VERTEX
8
Layer 1
10
66.045406
20
422.667889
70
0
0
SEQEND
8
Layer 1
0
POLYLINE
8
Layer 1
62
7
70
0
10
0.000000
20
0.000000
66
1
0
VERTEX
8
Layer 1
10
66.045406
20
422.667889
70
0
0
VERTEX
8
Layer 1
10
66.259718
20
422.807854
70
0
0
SEQEND
8
Layer 1
0
POLYLINE
8
Layer 1
62
7
70
0
10
0.000000
20
0.000000
66
1
0
VERTEX
8
Layer 1
10
66.259718
20
422.807854
70
0
0
VERTEX
8
Layer 1
10
66.487260
20
422.923741
70
0
0
SEQEND
8
Layer 1
0
POLYLINE
8
Layer 1
62
7
70
0
10
0.000000
20
0.000000
66
1
0
VERTEX
8
Layer 1
10
66.487260
20
422.923741
70
0
0
VERTEX
8
Layer 1
10
66.728030
20
423.015816
70
0
0
SEQEND
8
Layer 1
0
POLYLINE
8
Layer 1
62
7
70
0
10
0.000000
20
0.000000
66
1
0
VERTEX
8
Layer 1
10
66.728030
20
423.015816
70
0
0
VERTEX
8
Layer 1
10
66.976738
20
423.081961
70
0
0
SEQEND
8
Layer 1
0
POLYLINE
8
Layer 1
62
7
70
0
10
0.000000
20
0.000000
66
1
0
VERTEX
8
Layer 1
10
66.976738
20
423.081961
70
0
0
VERTEX
8
Layer 1
10
67.230738
20
423.122972
70
0
0
SEQEND
8
Layer 1
0
POLYLINE
8
Layer 1
62
7
70
0
10
0.000000
20
0.000000
66
1
0
VERTEX
8
Layer 1
10
67.230738
20
423.122972
70
0
0
VERTEX
8
Layer 1
10
67.484738
20
423.135936
70
0
0
SEQEND
8
Layer 1
0
POLYLINE
8
Layer 1
62
7
70
0
10
0.000000
20
0.000000
66
1
0
VERTEX
8
Layer 1
10
67.484738
20
423.135936
70
0
0
VERTEX
8
Layer 1
10
67.741383
20
423.122972
70
0
0
SEQEND
8
Layer 1
0
POLYLINE
8
Layer 1
62
7
70
0
10
0.000000
20
0.000000
66
1
0
VERTEX
8
Layer 1
10
67.741383
20
423.122972
70
0
0
VERTEX
8
Layer 1
10
67.995383
20
423.081961
70
0
0
SEQEND
8
Layer 1
0
POLYLINE
8
Layer 1
62
7
70
0
10
0.000000
20
0.000000
66
1
0
VERTEX
8
Layer 1
10
67.995383
20
423.081961
70
0
0
VERTEX
8
Layer 1
10
68.241445
20
423.015816
70
0
0
SEQEND
8
Layer 1
0
POLYLINE
8
Layer 1
62
7
70
0
10
0.000000
20
0.000000
66
1
0
VERTEX
8
Layer 1
10
68.241445
20
423.015816
70
0
0
VERTEX
8
Layer 1
10
68.482215
20
422.923741
70
0
0
SEQEND
8
Layer 1
0
POLYLINE
8
Layer 1
62
7
70
0
10
0.000000
20
0.000000
66
1
0
VERTEX
8
Layer 1
10
68.482215
20
422.923741
70
0
0
VERTEX
8
Layer 1
10
68.709757
20
422.807854
70
0
0
SEQEND
8
Layer 1
0
POLYLINE
8
Layer 1
62
7
70
0
10
0.000000
20
0.000000
66
1
0
VERTEX
8
Layer 1
10
68.709757
20
422.807854
70
0
0
VERTEX
8
Layer 1
10
68.926715
20
422.667889
70
0
0
SEQEND
8
Layer 1
0
POLYLINE
8
Layer 1
62
7
70
0
10
0.000000
20
0.000000
66
1
0
VERTEX
8
Layer 1
10
68.926715
20
422.667889
70
0
0
VERTEX
8
Layer 1
10
69.125152
20
422.506758
70
0
0
SEQEND
8
Layer 1
0
POLYLINE
8
Layer 1
62
7
70
0
10
0.000000
20
0.000000
66
1
0
VERTEX
8
Layer 1
10
69.125152
20
422.506758
70
0
0
VERTEX
8
Layer 1
10
69.307714
20
422.324725
70
0
0
SEQEND
8
Layer 1
0
POLYLINE
8
Layer 1
62
7
70
0
10
0.000000
20
0.000000
66
1
0
VERTEX
8
Layer 1
10
69.307714
20
422.324725
70
0
0
VERTEX
8
Layer 1
10
69.466464
20
422.125759
70
0
0
SEQEND
8
Layer 1
0
POLYLINE
8
Layer 1
62
7
70
0
10
0.000000
20
0.000000
66
1
0
VERTEX
8
Layer 1
10
69.466464
20
422.125759
70
0
0
VERTEX
8
Layer 1
10
69.606693
20
421.910917
70
0
0
SEQEND
8
Layer 1
0
POLYLINE
8
Layer 1
62
7
70
0
10
0.000000
20
0.000000
66
1
0
VERTEX
8
Layer 1
10
69.606693
20
421.910917
70
0
0
VERTEX
8
Layer 1
10
69.723110
20
421.682847
70
0
0
SEQEND
8
Layer 1
0
POLYLINE
8
Layer 1
62
7
70
0
10
0.000000
20
0.000000
66
1
0
VERTEX
8
Layer 1
10
69.723110
20
421.682847
70
0
0
VERTEX
8
Layer 1
10
69.815714
20
421.442870
70
0
0
SEQEND
8
Layer 1
0
POLYLINE
8
Layer 1
62
7
70
0
10
0.000000
20
0.000000
66
1
0
VERTEX
8
Layer 1
10
69.815714
20
421.442870
70
0
0
VERTEX
8
Layer 1
10
69.881860
20
421.194956
70
0
0
SEQEND
8
Layer 1
0
POLYLINE
8
Layer 1
62
7
70
0
10
0.000000
20
0.000000
66
1
0
VERTEX
8
Layer 1
10
69.881860
20
421.194956
70
0
0
VERTEX
8
Layer 1
10
69.921547
20
420.941750
70
0
0
SEQEND
8
Layer 1
0
POLYLINE
8
Layer 1
62
7
70
0
10
0.000000
20
0.000000
66
1
0
VERTEX
8
Layer 1
10
69.921547
20
420.941750
70
0
0
VERTEX
8
Layer 1
10
69.934776
20
420.685898
70
0
0
SEQEND
8
Layer 1
0
POLYLINE
8
Layer 1
62
7
70
0
10
0.000000
20
0.000000
66
1
0
VERTEX
8
Layer 1
10
69.934776
20
420.685898
70
0
0
VERTEX
8
Layer 1
10
69.921547
20
420.429782
70
0
0
SEQEND
8
Layer 1
0
POLYLINE
8
Layer 1
62
7
70
0
10
0.000000
20
0.000000
66
1
0
VERTEX
8
Layer 1
10
5.057865
20
472.486977
70
0
0
VERTEX
8
Layer 1
10
5.057865
20
478.486978
70
0
0
SEQEND
8
Layer 1
0
POLYLINE
8
Layer 1
62
7
70
0
10
0.000000
20
0.000000
66
1
0
VERTEX
8
Layer 1
10
5.057865
20
478.486978
70
0
0
VERTEX
8
Layer 1
10
1.057899
20
478.486978
70
0
0
SEQEND
8
Layer 1
0
POLYLINE
8
Layer 1
62
7
70
0
10
0.000000
20
0.000000
66
1
0
VERTEX
8
Layer 1
10
1.057899
20
478.486978
70
0
0
VERTEX
8
Layer 1
10
1.057899
20
484.486980
70
0
0
SEQEND
8
Layer 1
0
POLYLINE
8
Layer 1
62
7
70
0
10
0.000000
20
0.000000
66
1
0
VERTEX
8
Layer 1
10
1.057899
20
484.486980
70
0
0
VERTEX
8
Layer 1
10
5.057865
20
484.486980
70
0
0
SEQEND
8
Layer 1
0
POLYLINE
8
Layer 1
62
7
70
0
10
0.000000
20
0.000000
66
1
0
VERTEX
8
Layer 1
10
5.057865
20
484.486980
70
0
0
VERTEX
8
Layer 1
10
5.057865
20
490.487008
70
0
0
SEQEND
8
Layer 1
0
POLYLINE
8
Layer 1
62
7
70
0
10
0.000000
20
0.000000
66
1
0
VERTEX
8
Layer 1
10
5.057865
20
490.487008
70
0
0
VERTEX
8
Layer 1
10
1.057899
20
490.487008
70
0
0
SEQEND
8
Layer 1
0
POLYLINE
8
Layer 1
62
7
70
0
10
0.000000
20
0.000000
66
1
0
VERTEX
8
Layer 1
10
1.057899
20
490.487008
70
0
0
VERTEX
8
Layer 1
10
1.057899
20
496.486957
70
0
0
SEQEND
8
Layer 1
0
POLYLINE
8
Layer 1
62
7
70
0
10
0.000000
20
0.000000
66
1
0
VERTEX
8
Layer 1
10
1.057899
20
496.486957
70
0
0
VERTEX
8
Layer 1
10
5.057865
20
496.486957
70
0
0
SEQEND
8
Layer 1
0
POLYLINE
8
Layer 1
62
7
70
0
10
0.000000
20
0.000000
66
1
0
VERTEX
8
Layer 1
10
5.057865
20
496.486957
70
0
0
VERTEX
8
Layer 1
10
5.057865
20
502.486905
70
0
0
SEQEND
8
Layer 1
0
POLYLINE
8
Layer 1
62
7
70
0
10
0.000000
20
0.000000
66
1
0
VERTEX
8
Layer 1
10
5.057865
20
502.486905
70
0
0
VERTEX
8
Layer 1
10
1.057899
20
502.486905
70
0
0
SEQEND
8
Layer 1
0
POLYLINE
8
Layer 1
62
7
70
0
10
0.000000
20
0.000000
66
1
0
VERTEX
8
Layer 1
10
1.057899
20
502.486905
70
0
0
VERTEX
8
Layer 1
10
1.057899
20
508.486854
70
0
0
SEQEND
8
Layer 1
0
POLYLINE
8
Layer 1
62
7
70
0
10
0.000000
20
0.000000
66
1
0
VERTEX
8
Layer 1
10
1.057899
20
508.486854
70
0
0
VERTEX
8
Layer 1
10
5.057865
20
508.486854
70
0
0
SEQEND
8
Layer 1
0
POLYLINE
8
Layer 1
62
7
70
0
10
0.000000
20
0.000000
66
1
0
VERTEX
8
Layer 1
10
5.057865
20
508.486854
70
0
0
VERTEX
8
Layer 1
10
5.057865
20
514.486803
70
0
0
SEQEND
8
Layer 1
0
POLYLINE
8
Layer 1
62
7
70
0
10
0.000000
20
0.000000
66
1
0
VERTEX
8
Layer 1
10
5.057865
20
514.486803
70
0
0
VERTEX
8
Layer 1
10
1.057899
20
514.486803
70
0
0
SEQEND
8
Layer 1
0
POLYLINE
8
Layer 1
62
7
70
0
10
0.000000
20
0.000000
66
1
0
VERTEX
8
Layer 1
10
1.057899
20
514.486803
70
0
0
VERTEX
8
Layer 1
10
1.057899
20
520.487016
70
0
0
SEQEND
8
Layer 1
0
POLYLINE
8
Layer 1
62
7
70
0
10
0.000000
20
0.000000
66
1
0
VERTEX
8
Layer 1
10
1.057899
20
520.487016
70
0
0
VERTEX
8
Layer 1
10
5.057865
20
520.487016
70
0
0
SEQEND
8
Layer 1
0
POLYLINE
8
Layer 1
62
7
70
0
10
0.000000
20
0.000000
66
1
0
VERTEX
8
Layer 1
10
5.057865
20
520.487016
70
0
0
VERTEX
8
Layer 1
10
5.057865
20
526.486965
70
0
0
SEQEND
8
Layer 1
0
POLYLINE
8
Layer 1
62
7
70
0
10
0.000000
20
0.000000
66
1
0
VERTEX
8
Layer 1
10
5.057865
20
526.486965
70
0
0
VERTEX
8
Layer 1
10
1.057899
20
526.486965
70
0
0
SEQEND
8
Layer 1
0
POLYLINE
8
Layer 1
62
7
70
0
10
0.000000
20
0.000000
66
1
0
VERTEX
8
Layer 1
10
1.057899
20
526.486965
70
0
0
VERTEX
8
Layer 1
10
1.057899
20
532.486913
70
0
0
SEQEND
8
Layer 1
0
POLYLINE
8
Layer 1
62
7
70
0
10
0.000000
20
0.000000
66
1
0
VERTEX
8
Layer 1
10
1.057899
20
532.486913
70
0
0
VERTEX
8
Layer 1
10
22.724866
20
532.486913
70
0
0
SEQEND
8
Layer 1
0
POLYLINE
8
Layer 1
62
7
70
0
10
0.000000
20
0.000000
66
1
0
VERTEX
8
Layer 1
10
22.724866
20
532.486913
70
0
0
VERTEX
8
Layer 1
10
22.724866
20
536.486879
70
0
0
SEQEND
8
Layer 1
0
POLYLINE
8
Layer 1
62
7
70
0
10
0.000000
20
0.000000
66
1
0
VERTEX
8
Layer 1
10
22.724866
20
536.486879
70
0
0
VERTEX
8
Layer 1
10
40.390808
20
536.486879
70
0
0
SEQEND
8
Layer 1
0
POLYLINE
8
Layer 1
62
7
70
0
10
0.000000
20
0.000000
66
1
0
VERTEX
8
Layer 1
10
40.390808
20
536.486879
70
0
0
VERTEX
8
Layer 1
10
40.390808
20
532.486913
70
0
0
SEQEND
8
Layer 1
0
POLYLINE
8
Layer 1
62
7
70
0
10
0.000000
20
0.000000
66
1
0
VERTEX
8
Layer 1
10
40.390808
20
532.486913
70
0
0
VERTEX
8
Layer 1
10
58.057809
20
532.486913
70
0
0
SEQEND
8
Layer 1
0
POLYLINE
8
Layer 1
62
7
70
0
10
0.000000
20
0.000000
66
1
0
VERTEX
8
Layer 1
10
58.057809
20
532.486913
70
0
0
VERTEX
8
Layer 1
10
58.057809
20
536.486879
70
0
0
SEQEND
8
Layer 1
0
POLYLINE
8
Layer 1
62
7
70
0
10
0.000000
20
0.000000
66
1
0
VERTEX
8
Layer 1
10
58.057809
20
536.486879
70
0
0
VERTEX
8
Layer 1
10
75.724809
20
536.486879
70
0
0
SEQEND
8
Layer 1
0
POLYLINE
8
Layer 1
62
7
70
0
10
0.000000
20
0.000000
66
1
0
VERTEX
8
Layer 1
10
75.724809
20
536.486879
70
0
0
VERTEX
8
Layer 1
10
75.724809
20
532.486913
70
0
0
SEQEND
8
Layer 1
0
POLYLINE
8
Layer 1
62
7
70
0
10
0.000000
20
0.000000
66
1
0
VERTEX
8
Layer 1
10
75.724809
20
532.486913
70
0
0
VERTEX
8
Layer 1
10
93.390752
20
532.486913
70
0
0
SEQEND
8
Layer 1
0
POLYLINE
8
Layer 1
62
7
70
0
10
0.000000
20
0.000000
66
1
0
VERTEX
8
Layer 1
10
93.390752
20
532.486913
70
0
0
VERTEX
8
Layer 1
10
93.390752
20
536.486879
70
0
0
SEQEND
8
Layer 1
0
POLYLINE
8
Layer 1
62
7
70
0
10
0.000000
20
0.000000
66
1
0
VERTEX
8
Layer 1
10
93.390752
20
536.486879
70
0
0
VERTEX
8
Layer 1
10
111.057752
20
536.486879
70
0
0
SEQEND
8
Layer 1
0
POLYLINE
8
Layer 1
62
7
70
0
10
0.000000
20
0.000000
66
1
0
VERTEX
8
Layer 1
10
111.057752
20
536.486879
70
0
0
VERTEX
8
Layer 1
10
111.057752
20
532.486913
70
0
0
SEQEND
8
Layer 1
0
POLYLINE
8
Layer 1
62
7
70
0
10
0.000000
20
0.000000
66
1
0
VERTEX
8
Layer 1
10
111.057752
20
532.486913
70
0
0
VERTEX
8
Layer 1
10
128.724753
20
532.486913
70
0
0
SEQEND
8
Layer 1
0
POLYLINE
8
Layer 1
62
7
70
0
10
0.000000
20
0.000000
66
1
0
VERTEX
8
Layer 1
10
128.724753
20
532.486913
70
0
0
VERTEX
8
Layer 1
10
128.724753
20
536.486879
70
0
0
SEQEND
8
Layer 1
0
POLYLINE
8
Layer 1
62
7
70
0
10
0.000000
20
0.000000
66
1
0
VERTEX
8
Layer 1
10
128.724753
20
536.486879
70
0
0
VERTEX
8
Layer 1
10
146.390960
20
536.486879
70
0
0
SEQEND
8
Layer 1
0
POLYLINE
8
Layer 1
62
7
70
0
10
0.000000
20
0.000000
66
1
0
VERTEX
8
Layer 1
10
146.390960
20
536.486879
70
0
0
VERTEX
8
Layer 1
10
146.390960
20
532.486913
70
0
0
SEQEND
8
Layer 1
0
POLYLINE
8
Layer 1
62
7
70
0
10
0.000000
20
0.000000
66
1
0
VERTEX
8
Layer 1
10
146.390960
20
532.486913
70
0
0
VERTEX
8
Layer 1
10
164.057167
20
532.486913
70
0
0
SEQEND
8
Layer 1
0
POLYLINE
8
Layer 1
62
7
70
0
10
0.000000
20
0.000000
66
1
0
VERTEX
8
Layer 1
10
164.057167
20
532.486913
70
0
0
VERTEX
8
Layer 1
10
164.057167
20
536.486879
70
0
0
SEQEND
8
Layer 1
0
POLYLINE
8
Layer 1
62
7
70
0
10
0.000000
20
0.000000
66
1
0
VERTEX
8
Layer 1
10
164.057167
20
536.486879
70
0
0
VERTEX
8
Layer 1
10
181.723374
20
536.486879
70
0
0
SEQEND
8
Layer 1
0
POLYLINE
8
Layer 1
62
7
70
0
10
0.000000
20
0.000000
66
1
0
VERTEX
8
Layer 1
10
181.723374
20
536.486879
70
0
0
VERTEX
8
Layer 1
10
181.723374
20
532.486913
70
0
0
SEQEND
8
Layer 1
0
POLYLINE
8
Layer 1
62
7
70
0
10
0.000000
20
0.000000
66
1
0
VERTEX
8
Layer 1
10
181.723374
20
532.486913
70
0
0
VERTEX
8
Layer 1
10
199.389581
20
532.486913
70
0
0
SEQEND
8
Layer 1
0
POLYLINE
8
Layer 1
62
7
70
0
10
0.000000
20
0.000000
66
1
0
VERTEX
8
Layer 1
10
199.389581
20
532.486913
70
0
0
VERTEX
8
Layer 1
10
199.389581
20
536.486879
70
0
0
SEQEND
8
Layer 1
0
POLYLINE
8
Layer 1
62
7
70
0
10
0.000000
20
0.000000
66
1
0
VERTEX
8
Layer 1
10
199.389581
20
536.486879
70
0
0
VERTEX
8
Layer 1
10
217.058433
20
536.486879
70
0
0
SEQEND
8
Layer 1
0
POLYLINE
8
Layer 1
62
7
70
0
10
0.000000
20
0.000000
66
1
0
VERTEX
8
Layer 1
10
217.058433
20
536.486879
70
0
0
VERTEX
8
Layer 1
10
217.058433
20
532.486913
70
0
0
SEQEND
8
Layer 1
0
POLYLINE
8
Layer 1
62
7
70
0
10
0.000000
20
0.000000
66
1
0
VERTEX
8
Layer 1
10
217.058433
20
532.486913
70
0
0
VERTEX
8
Layer 1
10
221.056283
20
532.486913
70
0
0
SEQEND
8
Layer 1
0
POLYLINE
8
Layer 1
62
7
70
0
10
0.000000
20
0.000000
66
1
0
VERTEX
8
Layer 1
10
221.056283
20
532.486913
70
0
0
VERTEX
8
Layer 1
10
221.056283
20
526.486965
70
0
0
SEQEND
8
Layer 1
0
POLYLINE
8
Layer 1
62
7
70
0
10
0.000000
20
0.000000
66
1
0
VERTEX
8
Layer 1
10
221.056283
20
526.486965
70
0
0
VERTEX
8
Layer 1
10
217.058433
20
526.486965
70
0
0
SEQEND
8
Layer 1
0
POLYLINE
8
Layer 1
62
7
70
0
10
0.000000
20
0.000000
66
1
0
VERTEX
8
Layer 1
10
217.058433
20
526.486965
70
0
0
VERTEX
8
Layer 1
10
217.058433
20
520.487016
70
0
0
SEQEND
8
Layer 1
0
POLYLINE
8
Layer 1
62
7
70
0
10
0.000000
20
0.000000
66
1
0
VERTEX
8
Layer 1
10
217.058433
20
520.487016
70
0
0
VERTEX
8
Layer 1
10
221.056283
20
520.487016
70
0
0
SEQEND
8
Layer 1
0
POLYLINE
8
Layer 1
62
7
70
0
10
0.000000
20
0.000000
66
1
0
VERTEX
8
Layer 1
10
221.056283
20
520.487016
70
0
0
VERTEX
8
Layer 1
10
221.056283
20
514.486803
70
0
0
SEQEND
8
Layer 1
0
POLYLINE
8
Layer 1
62
7
70
0
10
0.000000
20
0.000000
66
1
0
VERTEX
8
Layer 1
10
221.056283
20
514.486803
70
0
0
VERTEX
8
Layer 1
10
217.058433
20
514.486803
70
0
0
SEQEND
8
Layer 1
0
POLYLINE
8
Layer 1
62
7
70
0
10
0.000000
20
0.000000
66
1
0
VERTEX
8
Layer 1
10
217.058433
20
514.486803
70
0
0
VERTEX
8
Layer 1
10
217.058433
20
508.486854
70
0
0
SEQEND
8
Layer 1
0
POLYLINE
8
Layer 1
62
7
70
0
10
0.000000
20
0.000000
66
1
0
VERTEX
8
Layer 1
10
217.058433
20
508.486854
70
0
0
VERTEX
8
Layer 1
10
221.056283
20
508.486854
70
0
0
SEQEND
8
Layer 1
0
POLYLINE
8
Layer 1
62
7
70
0
10
0.000000
20
0.000000
66
1
0
VERTEX
8
Layer 1
10
221.056283
20
508.486854
70
0
0
VERTEX
8
Layer 1
10
221.056283
20
502.486905
70
0
0
SEQEND
8
Layer 1
0
POLYLINE
8
Layer 1
62
7
70
0
10
0.000000
20
0.000000
66
1
0
VERTEX
8
Layer 1
10
221.056283
20
502.486905
70
0
0
VERTEX
8
Layer 1
10
217.058433
20
502.486905
70
0
0
SEQEND
8
Layer 1
0
POLYLINE
8
Layer 1
62
7
70
0
10
0.000000
20
0.000000
66
1
0
VERTEX
8
Layer 1
10
217.058433
20
502.486905
70
0
0
VERTEX
8
Layer 1
10
217.058433
20
496.486957
70
0
0
SEQEND
8
Layer 1
0
POLYLINE
8
Layer 1
62
7
70
0
10
0.000000
20
0.000000
66
1
0
VERTEX
8
Layer 1
10
217.058433
20
496.486957
70
0
0
VERTEX
8
Layer 1
10
221.056283
20
496.486957
70
0
0
SEQEND
8
Layer 1
0
POLYLINE
8
Layer 1
62
7
70
0
10
0.000000
20
0.000000
66
1
0
VERTEX
8
Layer 1
10
221.056283
20
496.486957
70
0
0
VERTEX
8
Layer 1
10
221.056283
20
490.487008
70
0
0
SEQEND
8
Layer 1
0
POLYLINE
8
Layer 1
62
7
70
0
10
0.000000
20
0.000000
66
1
0
VERTEX
8
Layer 1
10
221.056283
20
490.487008
70
0
0
VERTEX
8
Layer 1
10
217.058433
20
490.487008
70
0
0
SEQEND
8
Layer 1
0
POLYLINE
8
Layer 1
62
7
70
0
10
0.000000
20
0.000000
66
1
0
VERTEX
8
Layer 1
10
217.058433
20
490.487008
70
0
0
VERTEX
8
Layer 1
10
217.058433
20
484.486980
70
0
0
SEQEND
8
Layer 1
0
POLYLINE
8
Layer 1
62
7
70
0
10
0.000000
20
0.000000
66
1
0
VERTEX
8
Layer 1
10
217.058433
20
484.486980
70
0
0
VERTEX
8
Layer 1
10
221.056283
20
484.486980
70
0
0
SEQEND
8
Layer 1
0
POLYLINE
8
Layer 1
62
7
70
0
10
0.000000
20
0.000000
66
1
0
VERTEX
8
Layer 1
10
221.056283
20
484.486980
70
0
0
VERTEX
8
Layer 1
10
221.056283
20
478.486978
70
0
0
SEQEND
8
Layer 1
0
POLYLINE
8
Layer 1
62
7
70
0
10
0.000000
20
0.000000
66
1
0
VERTEX
8
Layer 1
10
221.056283
20
478.486978
70
0
0
VERTEX
8
Layer 1
10
217.058433
20
478.486978
70
0
0
SEQEND
8
Layer 1
0
POLYLINE
8
Layer 1
62
7
70
0
10
0.000000
20
0.000000
66
1
0
VERTEX
8
Layer 1
10
217.058433
20
478.486978
70
0
0
VERTEX
8
Layer 1
10
217.058433
20
472.486977
70
0
0
SEQEND
8
Layer 1
0
POLYLINE
8
Layer 1
62
7
70
0
10
0.000000
20
0.000000
66
1
0
VERTEX
8
Layer 1
10
217.058433
20
472.486977
70
0
0
VERTEX
8
Layer 1
10
221.056283
20
472.486977
70
0
0
SEQEND
8
Layer 1
0
POLYLINE
8
Layer 1
62
7
70
0
10
0.000000
20
0.000000
66
1
0
VERTEX
8
Layer 1
10
221.056283
20
472.486977
70
0
0
VERTEX
8
Layer 1
10
221.056283
20
466.487002
70
0
0
SEQEND
8
Layer 1
0
POLYLINE
8
Layer 1
62
7
70
0
10
0.000000
20
0.000000
66
1
0
VERTEX
8
Layer 1
10
221.056283
20
466.487002
70
0
0
VERTEX
8
Layer 1
10
217.058433
20
466.487002
70
0
0
SEQEND
8
Layer 1
0
POLYLINE
8
Layer 1
62
7
70
0
10
0.000000
20
0.000000
66
1
0
VERTEX
8
Layer 1
10
217.058433
20
466.487002
70
0
0
VERTEX
8
Layer 1
10
217.058433
20
456.487008
70
0
0
SEQEND
8
Layer 1
0
POLYLINE
8
Layer 1
62
7
70
0
10
0.000000
20
0.000000
66
1
0
VERTEX
8
Layer 1
10
217.058433
20
456.487008
70
0
0
VERTEX
8
Layer 1
10
199.389581
20
456.487008
70
0
0
SEQEND
8
Layer 1
0
POLYLINE
8
Layer 1
62
7
70
0
10
0.000000
20
0.000000
66
1
0
VERTEX
8
Layer 1
10
199.389581
20
456.487008
70
0
0
VERTEX
8
Layer 1
10
199.389581
20
460.487000
70
0
0
SEQEND
8
Layer 1
0
POLYLINE
8
Layer 1
62
7
70
0
10
0.000000
20
0.000000
66
1
0
VERTEX
8
Layer 1
10
199.389581
20
460.487000
70
0
0
VERTEX
8
Layer 1
10
181.723374
20
460.487000
70
0
0
SEQEND
8
Layer 1
0
POLYLINE
8
Layer 1
62
7
70
0
10
0.000000
20
0.000000
66
1
0
VERTEX
8
Layer 1
10
181.723374
20
460.487000
70
0
0
VERTEX
8
Layer 1
10
181.723374
20
456.487008
70
0
0
SEQEND
8
Layer 1
0
POLYLINE
8
Layer 1
62
7
70
0
10
0.000000
20
0.000000
66
1
0
VERTEX
8
Layer 1
10
181.723374
20
456.487008
70
0
0
VERTEX
8
Layer 1
10
164.057167
20
456.487008
70
0
0
SEQEND
8
Layer 1
0
POLYLINE
8
Layer 1
62
7
70
0
10
0.000000
20
0.000000
66
1
0
VERTEX
8
Layer 1
10
164.057167
20
456.487008
70
0
0
VERTEX
8
Layer 1
10
164.057167
20
460.487000
70
0
0
SEQEND
8
Layer 1
0
POLYLINE
8
Layer 1
62
7
70
0
10
0.000000
20
0.000000
66
1
0
VERTEX
8
Layer 1
10
164.057167
20
460.487000
70
0
0
VERTEX
8
Layer 1
10
146.390960
20
460.487000
70
0
0
SEQEND
8
Layer 1
0
POLYLINE
8
Layer 1
62
7
70
0
10
0.000000
20
0.000000
66
1
0
VERTEX
8
Layer 1
10
146.390960
20
460.487000
70
0
0
VERTEX
8
Layer 1
10
146.390960
20
456.487008
70
0
0
SEQEND
8
Layer 1
0
POLYLINE
8
Layer 1
62
7
70
0
10
0.000000
20
0.000000
66
1
0
VERTEX
8
Layer 1
10
146.390960
20
456.487008
70
0
0
VERTEX
8
Layer 1
10
128.724753
20
456.487008
70
0
0
SEQEND
8
Layer 1
0
POLYLINE
8
Layer 1
62
7
70
0
10
0.000000
20
0.000000
66
1
0
VERTEX
8
Layer 1
10
128.724753
20
456.487008
70
0
0
VERTEX
8
Layer 1
10
128.724753
20
460.487000
70
0
0
SEQEND
8
Layer 1
0
POLYLINE
8
Layer 1
62
7
70
0
10
0.000000
20
0.000000
66
1
0
VERTEX
8
Layer 1
10
128.724753
20
460.487000
70
0
0
VERTEX
8
Layer 1
10
111.057752
20
460.487000
70
0
0
SEQEND
8
Layer 1
0
POLYLINE
8
Layer 1
62
7
70
0
10
0.000000
20
0.000000
66
1
0
VERTEX
8
Layer 1
10
111.057752
20
460.487000
70
0
0
VERTEX
8
Layer 1
10
111.057752
20
456.487008
70
0
0
SEQEND
8
Layer 1
0
POLYLINE
8
Layer 1
62
7
70
0
10
0.000000
20
0.000000
66
1
0
VERTEX
8
Layer 1
10
111.057752
20
456.487008
70
0
0
VERTEX
8
Layer 1
10
93.390752
20
456.487008
70
0
0
SEQEND
8
Layer 1
0
POLYLINE
8
Layer 1
62
7
70
0
10
0.000000
20
0.000000
66
1
0
VERTEX
8
Layer 1
10
93.390752
20
456.487008
70
0
0
VERTEX
8
Layer 1
10
93.390752
20
460.487000
70
0
0
SEQEND
8
Layer 1
0
POLYLINE
8
Layer 1
62
7
70
0
10
0.000000
20
0.000000
66
1
0
VERTEX
8
Layer 1
10
93.390752
20
460.487000
70
0
0
VERTEX
8
Layer 1
10
75.724809
20
460.487000
70
0
0
SEQEND
8
Layer 1
0
POLYLINE
8
Layer 1
62
7
70
0
10
0.000000
20
0.000000
66
1
0
VERTEX
8
Layer 1
10
75.724809
20
460.487000
70
0
0
VERTEX
8
Layer 1
10
75.724809
20
456.487008
70
0
0
SEQEND
8
Layer 1
0
POLYLINE
8
Layer 1
62
7
70
0
10
0.000000
20
0.000000
66
1
0
VERTEX
8
Layer 1
10
75.724809
20
456.487008
70
0
0
VERTEX
8
Layer 1
10
58.057809
20
456.487008
70
0
0
SEQEND
8
Layer 1
0
POLYLINE
8
Layer 1
62
7
70
0
10
0.000000
20
0.000000
66
1
0
VERTEX
8
Layer 1
10
58.057809
20
456.487008
70
0
0
VERTEX
8
Layer 1
10
58.057809
20
460.487000
70
0
0
SEQEND
8
Layer 1
0
POLYLINE
8
Layer 1
62
7
70
0
10
0.000000
20
0.000000
66
1
0
VERTEX
8
Layer 1
10
58.057809
20
460.487000
70
0
0
VERTEX
8
Layer 1
10
40.390808
20
460.487000
70
0
0
SEQEND
8
Layer 1
0
POLYLINE
8
Layer 1
62
7
70
0
10
0.000000
20
0.000000
66
1
0
VERTEX
8
Layer 1
10
40.390808
20
460.487000
70
0
0
VERTEX
8
Layer 1
10
40.390808
20
456.487008
70
0
0
SEQEND
8
Layer 1
0
POLYLINE
8
Layer 1
62
7
70
0
10
0.000000
20
0.000000
66
1
0
VERTEX
8
Layer 1
10
40.390808
20
456.487008
70
0
0
VERTEX
8
Layer 1
10
22.724866
20
456.487008
70
0
0
SEQEND
8
Layer 1
0
POLYLINE
8
Layer 1
62
7
70
0
10
0.000000
20
0.000000
66
1
0
VERTEX
8
Layer 1
10
22.724866
20
456.487008
70
0
0
VERTEX
8
Layer 1
10
22.724866
20
460.487000
70
0
0
SEQEND
8
Layer 1
0
POLYLINE
8
Layer 1
62
7
70
0
10
0.000000
20
0.000000
66
1
0
VERTEX
8
Layer 1
10
22.724866
20
460.487000
70
0
0
VERTEX
8
Layer 1
10
5.057865
20
460.487000
70
0
0
SEQEND
8
Layer 1
0
POLYLINE
8
Layer 1
62
7
70
0
10
0.000000
20
0.000000
66
1
0
VERTEX
8
Layer 1
10
5.057865
20
460.487000
70
0
0
VERTEX
8
Layer 1
10
5.057865
20
466.487002
70
0
0
SEQEND
8
Layer 1
0
POLYLINE
8
Layer 1
62
7
70
0
10
0.000000
20
0.000000
66
1
0
VERTEX
8
Layer 1
10
5.057865
20
466.487002
70
0
0
VERTEX
8
Layer 1
10
1.057899
20
466.487002
70
0
0
SEQEND
8
Layer 1
0
POLYLINE
8
Layer 1
62
7
70
0
10
0.000000
20
0.000000
66
1
0
VERTEX
8
Layer 1
10
1.057899
20
466.487002
70
0
0
VERTEX
8
Layer 1
10
1.057899
20
472.486977
70
0
0
SEQEND
8
Layer 1
0
POLYLINE
8
Layer 1
62
7
70
0
10
0.000000
20
0.000000
66
1
0
VERTEX
8
Layer 1
10
1.057899
20
472.486977
70
0
0
VERTEX
8
Layer 1
10
5.057865
20
472.486977
70
0
0
SEQEND
8
Layer 1
0
POLYLINE
8
Layer 1
62
7
70
0
10
0.000000
20
0.000000
66
1
0
VERTEX
8
Layer 1
10
277.889012
20
485.566844
70
0
0
VERTEX
8
Layer 1
10
269.888975
20
485.566844
70
0
0
SEQEND
8
Layer 1
0
POLYLINE
8
Layer 1
62
7
70
0
10
0.000000
20
0.000000
66
1
0
VERTEX
8
Layer 1
10
269.888975
20
485.566844
70
0
0
VERTEX
8
Layer 1
10
269.888975
20
489.557020
70
0
0
SEQEND
8
Layer 1
0
POLYLINE
8
Layer 1
62
7
70
0
10
0.000000
20
0.000000
66
1
0
VERTEX
8
Layer 1
10
269.888975
20
489.557020
70
0
0
VERTEX
8
Layer 1
10
261.889043
20
489.557020
70
0
0
SEQEND
8
Layer 1
0
POLYLINE
8
Layer 1
62
7
70
0
10
0.000000
20
0.000000
66
1
0
VERTEX
8
Layer 1
10
261.889043
20
489.557020
70
0
0
VERTEX
8
Layer 1
10
261.889043
20
485.566844
70
0
0
SEQEND
8
Layer 1
0
POLYLINE
8
Layer 1
62
7
70
0
10
0.000000
20
0.000000
66
1
0
VERTEX
8
Layer 1
10
261.889043
20
485.566844
70
0
0
VERTEX
8
Layer 1
10
253.889112
20
485.566844
70
0
0
SEQEND
8
Layer 1
0
POLYLINE
8
Layer 1
62
7
70
0
10
0.000000
20
0.000000
66
1
0
VERTEX
8
Layer 1
10
253.889112
20
485.566844
70
0
0
VERTEX
8
Layer 1
10
253.889112
20
489.557020
70
0
0
SEQEND
8
Layer 1
0
POLYLINE
8
Layer 1
62
7
70
0
10
0.000000
20
0.000000
66
1
0
VERTEX
8
Layer 1
10
253.889112
20
489.557020
70
0
0
VERTEX
8
Layer 1
10
245.889180
20
489.557020
70
0
0
SEQEND
8
Layer 1
0
POLYLINE
8
Layer 1
62
7
70
0
10
0.000000
20
0.000000
66
1
0
VERTEX
8
Layer 1
10
245.889180
20
489.557020
70
0
0
VERTEX
8
Layer 1
10
245.889180
20
485.566844
70
0
0
SEQEND
8
Layer 1
0
POLYLINE
8
Layer 1
62
7
70
0
10
0.000000
20
0.000000
66
1
0
VERTEX
8
Layer 1
10
245.889180
20
485.566844
70
0
0
VERTEX
8
Layer 1
10
237.888984
20
485.566844
70
0
0
SEQEND
8
Layer 1
0
POLYLINE
8
Layer 1
62
7
70
0
10
0.000000
20
0.000000
66
1
0
VERTEX
8
Layer 1
10
237.888984
20
485.566844
70
0
0
VERTEX
8
Layer 1
10
237.888984
20
489.557020
70
0
0
SEQEND
8
Layer 1
0
POLYLINE
8
Layer 1
62
7
70
0
10
0.000000
20
0.000000
66
1
0
VERTEX
8
Layer 1
10
237.888984
20
489.557020
70
0
0
VERTEX
8
Layer 1
10
229.889052
20
489.557020
70
0
0
SEQEND
8
Layer 1
0
POLYLINE
8
Layer 1
62
7
70
0
10
0.000000
20
0.000000
66
1
0
VERTEX
8
Layer 1
10
229.889052
20
489.557020
70
0
0
VERTEX
8
Layer 1
10
229.889052
20
485.566844
70
0
0
SEQEND
8
Layer 1
0
POLYLINE
8
Layer 1
62
7
70
0
10
0.000000
20
0.000000
66
1
0
VERTEX
8
Layer 1
10
229.889052
20
485.566844
70
0
0
VERTEX
8
Layer 1
10
221.879067
20
485.566844
70
0
0
SEQEND
8
Layer 1
0
POLYLINE
8
Layer 1
62
7
70
0
10
0.000000
20
0.000000
66
1
0
VERTEX
8
Layer 1
10
221.879067
20
485.566844
70
0
0
VERTEX
8
Layer 1
10
221.879067
20
455.271032
70
0
0
SEQEND
8
Layer 1
0
POLYLINE
8
Layer 1
62
7
70
0
10
0.000000
20
0.000000
66
1
0
VERTEX
8
Layer 1
10
221.879067
20
455.271032
70
0
0
VERTEX
8
Layer 1
10
217.889155
20
455.271032
70
0
0
SEQEND
8
Layer 1
0
POLYLINE
8
Layer 1
62
7
70
0
10
0.000000
20
0.000000
66
1
0
VERTEX
8
Layer 1
10
217.889155
20
455.271032
70
0
0
VERTEX
8
Layer 1
10
217.889155
20
424.985989
70
0
0
SEQEND
8
Layer 1
0
POLYLINE
8
Layer 1
62
7
70
0
10
0.000000
20
0.000000
66
1
0
VERTEX
8
Layer 1
10
217.889155
20
424.985989
70
0
0
VERTEX
8
Layer 1
10
221.879067
20
424.985989
70
0
0
SEQEND
8
Layer 1
0
POLYLINE
8
Layer 1
62
7
70
0
10
0.000000
20
0.000000
66
1
0
VERTEX
8
Layer 1
10
221.879067
20
424.985989
70
0
0
VERTEX
8
Layer 1
10
221.879067
20
394.700019
70
0
0
SEQEND
8
Layer 1
0
POLYLINE
8
Layer 1
62
7
70
0
10
0.000000
20
0.000000
66
1
0
VERTEX
8
Layer 1
10
221.879067
20
394.700019
70
0
0
VERTEX
8
Layer 1
10
217.889155
20
394.700019
70
0
0
SEQEND
8
Layer 1
0
POLYLINE
8
Layer 1
62
7
70
0
10
0.000000
20
0.000000
66
1
0
VERTEX
8
Layer 1
10
217.889155
20
394.700019
70
0
0
VERTEX
8
Layer 1
10
217.889155
20
364.414024
70
0
0
SEQEND
8
Layer 1
0
POLYLINE
8
Layer 1
62
7
70
0
10
0.000000
20
0.000000
66
1
0
VERTEX
8
Layer 1
10
217.889155
20
364.414024
70
0
0
VERTEX
8
Layer 1
10
221.879067
20
364.414024
70
0
0
SEQEND
8
Layer 1
0
POLYLINE
8
Layer 1
62
7
70
0
10
0.000000
20
0.000000
66
1
0
VERTEX
8
Layer 1
10
221.879067
20
364.414024
70
0
0
VERTEX
8
Layer 1
10
221.879067
20
334.128001
70
0
0
SEQEND
8
Layer 1
0
POLYLINE
8
Layer 1
62
7
70
0
10
0.000000
20
0.000000
66
1
0
VERTEX
8
Layer 1
10
221.879067
20
334.128001
70
0
0
VERTEX
8
Layer 1
10
217.889155
20
334.128001
70
0
0
SEQEND
8
Layer 1
0
POLYLINE
8
Layer 1
62
7
70
0
10
0.000000
20
0.000000
66
1
0
VERTEX
8
Layer 1
10
217.889155
20
334.128001
70
0
0
VERTEX
8
Layer 1
10
217.889155
20
303.843037
70
0
0
SEQEND
8
Layer 1
0
POLYLINE
8
Layer 1
62
7
70
0
10
0.000000
20
0.000000
66
1
0
VERTEX
8
Layer 1
10
217.889155
20
303.843037
70
0
0
VERTEX
8
Layer 1
10
221.879067
20
303.843037
70
0
0
SEQEND
8
Layer 1
0
POLYLINE
8
Layer 1
62
7
70
0
10
0.000000
20
0.000000
66
1
0
VERTEX
8
Layer 1
10
221.879067
20
303.843037
70
0
0
VERTEX
8
Layer 1
10
221.879067
20
273.567069
70
0
0
SEQEND
8
Layer 1
0
POLYLINE
8
Layer 1
62
7
70
0
10
0.000000
20
0.000000
66
1
0
VERTEX
8
Layer 1
10
221.879067
20
273.567069
70
0
0
VERTEX
8
Layer 1
10
221.899175
20
273.567069
70
0
0
SEQEND
8
Layer 1
0
POLYLINE
8
Layer 1
62
7
70
0
10
0.000000
20
0.000000
66
1
0
VERTEX
8
Layer 1
10
221.899175
20
273.567069
70
0
0
VERTEX
8
Layer 1
10
221.899175
20
273.547226
70
0
0
SEQEND
8
Layer 1
0
POLYLINE
8
Layer 1
62
7
70
0
10
0.000000
20
0.000000
66
1
0
VERTEX
8
Layer 1
10
221.899175
20
273.547226
70
0
0
VERTEX
8
Layer 1
10
229.889052
20
273.547226
70
0
0
SEQEND
8
Layer 1
0
POLYLINE
8
Layer 1
62
7
70
0
10
0.000000
20
0.000000
66
1
0
VERTEX
8
Layer 1
10
229.889052
20
273.547226
70
0
0
VERTEX
8
Layer 1
10
229.889052
20
269.557314
70
0
0
SEQEND
8
Layer 1
0
POLYLINE
8
Layer 1
62
7
70
0
10
0.000000
20
0.000000
66
1
0
VERTEX
8
Layer 1
10
229.889052
20
269.557314
70
0
0
VERTEX
8
Layer 1
10
237.888984
20
269.557314
70
0
0
SEQEND
8
Layer 1
0
POLYLINE
8
Layer 1
62
7
70
0
10
0.000000
20
0.000000
66
1
0
VERTEX
8
Layer 1
10
237.888984
20
269.557314
70
0
0
VERTEX
8
Layer 1
10
237.888984
20
273.547226
70
0
0
SEQEND
8
Layer 1
0
POLYLINE
8
Layer 1
62
7
70
0
10
0.000000
20
0.000000
66
1
0
VERTEX
8
Layer 1
10
237.888984
20
273.547226
70
0
0
VERTEX
8
Layer 1
10
245.889180
20
273.547226
70
0
0
SEQEND
8
Layer 1
0
POLYLINE
8
Layer 1
62
7
70
0
10
0.000000
20
0.000000
66
1
0
VERTEX
8
Layer 1
10
245.889180
20
273.547226
70
0
0
VERTEX
8
Layer 1
10
245.889180
20
269.557314
70
0
0
SEQEND
8
Layer 1
0
POLYLINE
8
Layer 1
62
7
70
0
10
0.000000
20
0.000000
66
1
0
VERTEX
8
Layer 1
10
245.889180
20
269.557314
70
0
0
VERTEX
8
Layer 1
10
253.889112
20
269.557314
70
0
0
SEQEND
8
Layer 1
0
POLYLINE
8
Layer 1
62
7
70
0
10
0.000000
20
0.000000
66
1
0
VERTEX
8
Layer 1
10
253.889112
20
269.557314
70
0
0
VERTEX
8
Layer 1
10
253.889112
20
273.547226
70
0
0
SEQEND
8
Layer 1
0
POLYLINE
8
Layer 1
62
7
70
0
10
0.000000
20
0.000000
66
1
0
VERTEX
8
Layer 1
10
253.889112
20
273.547226
70
0
0
VERTEX
8
Layer 1
10
261.889043
20
273.547226
70
0
0
SEQEND
8
Layer 1
0
POLYLINE
8
Layer 1
62
7
70
0
10
0.000000
20
0.000000
66
1
0
VERTEX
8
Layer 1
10
261.889043
20
273.547226
70
0
0
VERTEX
8
Layer 1
10
261.889043
20
269.557314
70
0
0
SEQEND
8
Layer 1
0
POLYLINE
8
Layer 1
62
7
70
0
10
0.000000
20
0.000000
66
1
0
VERTEX
8
Layer 1
10
261.889043
20
269.557314
70
0
0
VERTEX
8
Layer 1
10
269.888975
20
269.557314
70
0
0
SEQEND
8
Layer 1
0
POLYLINE
8
Layer 1
62
7
70
0
10
0.000000
20
0.000000
66
1
0
VERTEX
8
Layer 1
10
269.888975
20
269.557314
70
0
0
VERTEX
8
Layer 1
10
269.888975
20
273.547226
70
0
0
SEQEND
8
Layer 1
0
POLYLINE
8
Layer 1
62
7
70
0
10
0.000000
20
0.000000
66
1
0
VERTEX
8
Layer 1
10
269.888975
20
273.547226
70
0
0
VERTEX
8
Layer 1
10
277.889012
20
273.547226
70
0
0
SEQEND
8
Layer 1
0
POLYLINE
8
Layer 1
62
7
70
0
10
0.000000
20
0.000000
66
1
0
VERTEX
8
Layer 1
10
277.889012
20
273.547226
70
0
0
VERTEX
8
Layer 1
10
277.889012
20
269.557314
70
0
0
SEQEND
8
Layer 1
0
POLYLINE
8
Layer 1
62
7
70
0
10
0.000000
20
0.000000
66
1
0
VERTEX
8
Layer 1
10
277.889012
20
269.557314
70
0
0
VERTEX
8
Layer 1
10
285.889023
20
269.557314
70
0
0
SEQEND
8
Layer 1
0
POLYLINE
8
Layer 1
62
7
70
0
10
0.000000
20
0.000000
66
1
0
VERTEX
8
Layer 1
10
285.889023
20
269.557314
70
0
0
VERTEX
8
Layer 1
10
285.889023
20
273.547226
70
0
0
SEQEND
8
Layer 1
0
POLYLINE
8
Layer 1
62
7
70
0
10
0.000000
20
0.000000
66
1
0
VERTEX
8
Layer 1
10
285.889023
20
273.547226
70
0
0
VERTEX
8
Layer 1
10
293.798997
20
273.547226
70
0
0
SEQEND
8
Layer 1
0
POLYLINE
8
Layer 1
62
7
70
0
10
0.000000
20
0.000000
66
1
0
VERTEX
8
Layer 1
10
293.798997
20
273.547226
70
0
0
VERTEX
8
Layer 1
10
293.798997
20
273.567069
70
0
0
SEQEND
8
Layer 1
0
POLYLINE
8
Layer 1
62
7
70
0
10
0.000000
20
0.000000
66
1
0
VERTEX
8
Layer 1
10
293.798997
20
273.567069
70
0
0
VERTEX
8
Layer 1
10
293.899009
20
273.567069
70
0
0
SEQEND
8
Layer 1
0
POLYLINE
8
Layer 1
62
7
70
0
10
0.000000
20
0.000000
66
1
0
VERTEX
8
Layer 1
10
293.899009
20
273.567069
70
0
0
VERTEX
8
Layer 1
10
293.899009
20
303.843037
70
0
0
SEQEND
8
Layer 1
0
POLYLINE
8
Layer 1
62
7
70
0
10
0.000000
20
0.000000
66
1
0
VERTEX
8
Layer 1
10
293.899009
20
303.843037
70
0
0
VERTEX
8
Layer 1
10
297.889000
20
303.843037
70
0
0
SEQEND
8
Layer 1
0
POLYLINE
8
Layer 1
62
7
70
0
10
0.000000
20
0.000000
66
1
0
VERTEX
8
Layer 1
10
297.889000
20
303.843037
70
0
0
VERTEX
8
Layer 1
10
297.889000
20
334.128001
70
0
0
SEQEND
8
Layer 1
0
POLYLINE
8
Layer 1
62
7
70
0
10
0.000000
20
0.000000
66
1
0
VERTEX
8
Layer 1
10
297.889000
20
334.128001
70
0
0
VERTEX
8
Layer 1
10
293.899009
20
334.128001
70
0
0
SEQEND
8
Layer 1
0
POLYLINE
8
Layer 1
62
7
70
0
10
0.000000
20
0.000000
66
1
0
VERTEX
8
Layer 1
10
293.899009
20
334.128001
70
0
0
VERTEX
8
Layer 1
10
293.899009
20
364.414024
70
0
0
SEQEND
8
Layer 1
0
POLYLINE
8
Layer 1
62
7
70
0
10
0.000000
20
0.000000
66
1
0
VERTEX
8
Layer 1
10
293.899009
20
364.414024
70
0
0
VERTEX
8
Layer 1
10
297.889000
20
364.414024
70
0
0
SEQEND
8
Layer 1
0
POLYLINE
8
Layer 1
62
7
70
0
10
0.000000
20
0.000000
66
1
0
VERTEX
8
Layer 1
10
297.889000
20
364.414024
70
0
0
VERTEX
8
Layer 1
10
297.889000
20
394.700019
70
0
0
SEQEND
8
Layer 1
0
POLYLINE
8
Layer 1
62
7
70
0
10
0.000000
20
0.000000
66
1
0
VERTEX
8
Layer 1
10
297.889000
20
394.700019
70
0
0
VERTEX
8
Layer 1
10
293.899009
20
394.700019
70
0
0
SEQEND
8
Layer 1
0
POLYLINE
8
Layer 1
62
7
70
0
10
0.000000
20
0.000000
66
1
0
VERTEX
8
Layer 1
10
293.899009
20
394.700019
70
0
0
VERTEX
8
Layer 1
10
293.899009
20
424.985989
70
0
0
SEQEND
8
Layer 1
0
POLYLINE
8
Layer 1
62
7
70
0
10
0.000000
20
0.000000
66
1
0
VERTEX
8
Layer 1
10
293.899009
20
424.985989
70
0
0
VERTEX
8
Layer 1
10
297.889000
20
424.985989
70
0
0
SEQEND
8
Layer 1
0
POLYLINE
8
Layer 1
62
7
70
0
10
0.000000
20
0.000000
66
1
0
VERTEX
8
Layer 1
10
297.889000
20
424.985989
70
0
0
VERTEX
8
Layer 1
10
297.889000
20
455.271032
70
0
0
SEQEND
8
Layer 1
0
POLYLINE
8
Layer 1
62
7
70
0
10
0.000000
20
0.000000
66
1
0
VERTEX
8
Layer 1
10
297.889000
20
455.271032
70
0
0
VERTEX
8
Layer 1
10
293.899009
20
455.271032
70
0
0
SEQEND
8
Layer 1
0
POLYLINE
8
Layer 1
62
7
70
0
10
0.000000
20
0.000000
66
1
0
VERTEX
8
Layer 1
10
293.899009
20
455.271032
70
0
0
VERTEX
8
Layer 1
10
293.899009
20
485.566844
70
0
0
SEQEND
8
Layer 1
0
POLYLINE
8
Layer 1
62
7
70
0
10
0.000000
20
0.000000
66
1
0
VERTEX
8
Layer 1
10
293.899009
20
485.566844
70
0
0
VERTEX
8
Layer 1
10
285.889023
20
485.566844
70
0
0
SEQEND
8
Layer 1
0
POLYLINE
8
Layer 1
62
7
70
0
10
0.000000
20
0.000000
66
1
0
VERTEX
8
Layer 1
10
285.889023
20
485.566844
70
0
0
VERTEX
8
Layer 1
10
285.889023
20
489.557020
70
0
0
SEQEND
8
Layer 1
0
POLYLINE
8
Layer 1
62
7
70
0
10
0.000000
20
0.000000
66
1
0
VERTEX
8
Layer 1
10
285.889023
20
489.557020
70
0
0
VERTEX
8
Layer 1
10
277.889012
20
489.557020
70
0
0
SEQEND
8
Layer 1
0
POLYLINE
8
Layer 1
62
7
70
0
10
0.000000
20
0.000000
66
1
0
VERTEX
8
Layer 1
10
277.889012
20
489.557020
70
0
0
VERTEX
8
Layer 1
10
277.889012
20
485.566844
70
0
0
SEQEND
8
Layer 1
0
POLYLINE
8
Layer 1
62
7
70
0
10
0.000000
20
0.000000
66
1
0
VERTEX
8
Layer 1
10
285.889023
20
477.556858
70
0
0
VERTEX
8
Layer 1
10
285.889023
20
281.557211
70
0
0
SEQEND
8
Layer 1
0
POLYLINE
8
Layer 1
62
7
70
0
10
0.000000
20
0.000000
66
1
0
VERTEX
8
Layer 1
10
285.889023
20
281.557211
70
0
0
VERTEX
8
Layer 1
10
229.889052
20
281.557211
70
0
0
SEQEND
8
Layer 1
0
POLYLINE
8
Layer 1
62
7
70
0
10
0.000000
20
0.000000
66
1
0
VERTEX
8
Layer 1
10
229.889052
20
281.557211
70
0
0
VERTEX
8
Layer 1
10
229.889052
20
477.556858
70
0
0
SEQEND
8
Layer 1
0
POLYLINE
8
Layer 1
62
7
70
0
10
0.000000
20
0.000000
66
1
0
VERTEX
8
Layer 1
10
229.889052
20
477.556858
70
0
0
VERTEX
8
Layer 1
10
285.889023
20
477.556858
70
0
0
SEQEND
8
Layer 1
0
POLYLINE
8
Layer 1
62
7
70
0
10
0.000000
20
0.000000
66
1
0
VERTEX
8
Layer 1
10
221.879067
20
269.557314
70
0
0
VERTEX
8
Layer 1
10
221.889121
20
269.557314
70
0
0
SEQEND
8
Layer 1
0
POLYLINE
8
Layer 1
62
7
70
0
10
0.000000
20
0.000000
66
1
0
VERTEX
8
Layer 1
10
221.889121
20
269.557314
70
0
0
VERTEX
8
Layer 1
10
221.889121
20
269.567103
70
0
0
SEQEND
8
Layer 1
0
POLYLINE
8
Layer 1
62
7
70
0
10
0.000000
20
0.000000
66
1
0
VERTEX
8
Layer 1
10
221.889121
20
269.567103
70
0
0
VERTEX
8
Layer 1
10
221.879067
20
269.567103
70
0
0
SEQEND
8
Layer 1
0
POLYLINE
8
Layer 1
62
7
70
0
10
0.000000
20
0.000000
66
1
0
VERTEX
8
Layer 1
10
221.879067
20
269.567103
70
0
0
VERTEX
8
Layer 1
10
221.879067
20
269.557314
70
0
0
SEQEND
8
Layer 1
0
POLYLINE
8
Layer 1
62
7
70
0
10
0.000000
20
0.000000
66
1
0
VERTEX
8
Layer 1
10
293.889008
20
269.557314
70
0
0
VERTEX
8
Layer 1
10
293.899009
20
269.557314
70
0
0
SEQEND
8
Layer 1
0
POLYLINE
8
Layer 1
62
7
70
0
10
0.000000
20
0.000000
66
1
0
VERTEX
8
Layer 1
10
293.899009
20
269.557314
70
0
0
VERTEX
8
Layer 1
10
293.899009
20
269.567103
70
0
0
SEQEND
8
Layer 1
0
POLYLINE
8
Layer 1
62
7
70
0
10
0.000000
20
0.000000
66
1
0
VERTEX
8
Layer 1
10
293.899009
20
269.567103
70
0
0
VERTEX
8
Layer 1
10
293.889008
20
269.567103
70
0
0
SEQEND
8
Layer 1
0
POLYLINE
8
Layer 1
62
7
70
0
10
0.000000
20
0.000000
66
1
0
VERTEX
8
Layer 1
10
293.889008
20
269.567103
70
0
0
VERTEX
8
Layer 1
10
293.889008
20
269.557314
70
0
0
SEQEND
8
Layer 1
0
POLYLINE
8
Layer 1
62
7
70
0
10
0.000000
20
0.000000
66
1
0
VERTEX
8
Layer 1
10
293.717913
20
212.454065
70
0
0
VERTEX
8
Layer 1
10
221.718000
20
212.454065
70
0
0
SEQEND
8
Layer 1
0
POLYLINE
8
Layer 1
62
7
70
0
10
0.000000
20
0.000000
66
1
0
VERTEX
8
Layer 1
10
221.718000
20
212.454065
70
0
0
VERTEX
8
Layer 1
10
221.718000
20
0.454291
70
0
0
SEQEND
8
Layer 1
0
POLYLINE
8
Layer 1
62
7
70
0
10
0.000000
20
0.000000
66
1
0
VERTEX
8
Layer 1
10
221.718000
20
0.454291
70
0
0
VERTEX
8
Layer 1
10
293.717913
20
0.454291
70
0
0
SEQEND
8
Layer 1
0
POLYLINE
8
Layer 1
62
7
70
0
10
0.000000
20
0.000000
66
1
0
VERTEX
8
Layer 1
10
293.717913
20
0.454291
70
0
0
VERTEX
8
Layer 1
10
293.717913
20
212.454065
70
0
0
SEQEND
8
Layer 1
0
POLYLINE
8
Layer 1
62
7
70
0
10
0.000000
20
0.000000
66
1
0
VERTEX
8
Layer 1
10
256.933997
20
98.995319
70
0
0
VERTEX
8
Layer 1
10
256.158769
20
99.118085
70
0
0
SEQEND
8
Layer 1
0
POLYLINE
8
Layer 1
62
7
70
0
10
0.000000
20
0.000000
66
1
0
VERTEX
8
Layer 1
10
256.158769
20
99.118085
70
0
0
VERTEX
8
Layer 1
10
255.400474
20
99.321285
70
0
0
SEQEND
8
Layer 1
0
POLYLINE
8
Layer 1
62
7
70
0
10
0.000000
20
0.000000
66
1
0
VERTEX
8
Layer 1
10
255.400474
20
99.321285
70
0
0
VERTEX
8
Layer 1
10
254.667579
20
99.602537
70
0
0
SEQEND
8
Layer 1
0
POLYLINE
8
Layer 1
62
7
70
0
10
0.000000
20
0.000000
66
1
0
VERTEX
8
Layer 1
10
254.667579
20
99.602537
70
0
0
VERTEX
8
Layer 1
10
253.968022
20
99.958930
70
0
0
SEQEND
8
Layer 1
0
POLYLINE
8
Layer 1
62
7
70
0
10
0.000000
20
0.000000
66
1
0
VERTEX
8
Layer 1
10
253.968022
20
99.958930
70
0
0
VERTEX
8
Layer 1
10
253.309475
20
100.386761
70
0
0
SEQEND
8
Layer 1
0
POLYLINE
8
Layer 1
62
7
70
0
10
0.000000
20
0.000000
66
1
0
VERTEX
8
Layer 1
10
253.309475
20
100.386761
70
0
0
VERTEX
8
Layer 1
10
252.699346
20
100.880208
70
0
0
SEQEND
8
Layer 1
0
POLYLINE
8
Layer 1
62
7
70
0
10
0.000000
20
0.000000
66
1
0
VERTEX
8
Layer 1
10
252.699346
20
100.880208
70
0
0
VERTEX
8
Layer 1
10
252.144251
20
101.436362
70
0
0
SEQEND
8
Layer 1
0
POLYLINE
8
Layer 1
62
7
70
0
10
0.000000
20
0.000000
66
1
0
VERTEX
8
Layer 1
10
252.144251
20
101.436362
70
0
0
VERTEX
8
Layer 1
10
251.650275
20
102.046225
70
0
0
SEQEND
8
Layer 1
0
POLYLINE
8
Layer 1
62
7
70
0
10
0.000000
20
0.000000
66
1
0
VERTEX
8
Layer 1
10
251.650275
20
102.046225
70
0
0
VERTEX
8
Layer 1
10
251.222709
20
102.704243
70
0
0
SEQEND
8
Layer 1
0
POLYLINE
8
Layer 1
62
7
70
0
10
0.000000
20
0.000000
66
1
0
VERTEX
8
Layer 1
10
251.222709
20
102.704243
70
0
0
VERTEX
8
Layer 1
10
250.866315
20
103.403272
70
0
0
SEQEND
8
Layer 1
0
POLYLINE
8
Layer 1
62
7
70
0
10
0.000000
20
0.000000
66
1
0
VERTEX
8
Layer 1
10
250.866315
20
103.403272
70
0
0
VERTEX
8
Layer 1
10
250.585064
20
104.136166
70
0
0
SEQEND
8
Layer 1
0
POLYLINE
8
Layer 1
62
7
70
0
10
0.000000
20
0.000000
66
1
0
VERTEX
8
Layer 1
10
250.585064
20
104.136166
70
0
0
VERTEX
8
Layer 1
10
250.381864
20
104.895255
70
0
0
SEQEND
8
Layer 1
0
POLYLINE
8
Layer 1
62
7
70
0
10
0.000000
20
0.000000
66
1
0
VERTEX
8
Layer 1
10
250.381864
20
104.895255
70
0
0
VERTEX
8
Layer 1
10
250.259097
20
105.670219
70
0
0
SEQEND
8
Layer 1
0
POLYLINE
8
Layer 1
62
7
70
0
10
0.000000
20
0.000000
66
1
0
VERTEX
8
Layer 1
10
250.259097
20
105.670219
70
0
0
VERTEX
8
Layer 1
10
250.218087
20
106.454178
70
0
0
SEQEND
8
Layer 1
0
POLYLINE
8
Layer 1
62
7
70
0
10
0.000000
20
0.000000
66
1
0
VERTEX
8
Layer 1
10
250.218087
20
106.454178
70
0
0
VERTEX
8
Layer 1
10
250.259097
20
107.238138
70
0
0
SEQEND
8
Layer 1
0
POLYLINE
8
Layer 1
62
7
70
0
10
0.000000
20
0.000000
66
1
0
VERTEX
8
Layer 1
10
250.259097
20
107.238138
70
0
0
VERTEX
8
Layer 1
10
250.381864
20
108.013366
70
0
0
SEQEND
8
Layer 1
0
POLYLINE
8
Layer 1
62
7
70
0
10
0.000000
20
0.000000
66
1
0
VERTEX
8
Layer 1
10
250.381864
20
108.013366
70
0
0
VERTEX
8
Layer 1
10
250.585064
20
108.772190
70
0
0
SEQEND
8
Layer 1
0
POLYLINE
8
Layer 1
62
7
70
0
10
0.000000
20
0.000000
66
1
0
VERTEX
8
Layer 1
10
250.585064
20
108.772190
70
0
0
VERTEX
8
Layer 1
10
250.866315
20
109.505349
70
0
0
SEQEND
8
Layer 1
0
POLYLINE
8
Layer 1
62
7
70
0
10
0.000000
20
0.000000
66
1
0
VERTEX
8
Layer 1
10
250.866315
20
109.505349
70
0
0
VERTEX
8
Layer 1
10
251.222709
20
110.204113
70
0
0
SEQEND
8
Layer 1
0
POLYLINE
8
Layer 1
62
7
70
0
10
0.000000
20
0.000000
66
1
0
VERTEX
8
Layer 1
10
251.222709
20
110.204113
70
0
0
VERTEX
8
Layer 1
10
251.650275
20
110.862131
70
0
0
SEQEND
8
Layer 1
0
POLYLINE
8
Layer 1
62
7
70
0
10
0.000000
20
0.000000
66
1
0
VERTEX
8
Layer 1
10
251.650275
20
110.862131
70
0
0
VERTEX
8
Layer 1
10
252.144251
20
111.472259
70
0
0
SEQEND
8
Layer 1
0
POLYLINE
8
Layer 1
62
7
70
0
10
0.000000
20
0.000000
66
1
0
VERTEX
8
Layer 1
10
252.144251
20
111.472259
70
0
0
VERTEX
8
Layer 1
10
252.699346
20
112.028148
70
0
0
SEQEND
8
Layer 1
0
POLYLINE
8
Layer 1
62
7
70
0
10
0.000000
20
0.000000
66
1
0
VERTEX
8
Layer 1
10
252.699346
20
112.028148
70
0
0
VERTEX
8
Layer 1
10
253.309475
20
112.522125
70
0
0
SEQEND
8
Layer 1
0
POLYLINE
8
Layer 1
62
7
70
0
10
0.000000
20
0.000000
66
1
0
VERTEX
8
Layer 1
10
253.309475
20
112.522125
70
0
0
VERTEX
8
Layer 1
10
253.968022
20
112.949162
70
0
0
SEQEND
8
Layer 1
0
POLYLINE
8
Layer 1
62
7
70
0
10
0.000000
20
0.000000
66
1
0
VERTEX
8
Layer 1
10
253.968022
20
112.949162
70
0
0
VERTEX
8
Layer 1
10
254.667579
20
113.306349
70
0
0
SEQEND
8
Layer 1
0
POLYLINE
8
Layer 1
62
7
70
0
10
0.000000
20
0.000000
66
1
0
VERTEX
8
Layer 1
10
254.667579
20
113.306349
70
0
0
VERTEX
8
Layer 1
10
255.400474
20
113.587336
70
0
0
SEQEND
8
Layer 1
0
POLYLINE
8
Layer 1
62
7
70
0
10
0.000000
20
0.000000
66
1
0
VERTEX
8
Layer 1
10
255.400474
20
113.587336
70
0
0
VERTEX
8
Layer 1
10
256.158769
20
113.790271
70
0
0
SEQEND
8
Layer 1
0
POLYLINE
8
Layer 1
62
7
70
0
10
0.000000
20
0.000000
66
1
0
VERTEX
8
Layer 1
10
256.158769
20
113.790271
70
0
0
VERTEX
8
Layer 1
10
256.933997
20
113.913302
70
0
0
SEQEND
8
Layer 1
0
POLYLINE
8
Layer 1
62
7
70
0
10
0.000000
20
0.000000
66
1
0
VERTEX
8
Layer 1
10
256.933997
20
113.913302
70
0
0
VERTEX
8
Layer 1
10
257.717957
20
113.954312
70
0
0
SEQEND
8
Layer 1
0
POLYLINE
8
Layer 1
62
7
70
0
10
0.000000
20
0.000000
66
1
0
VERTEX
8
Layer 1
10
257.717957
20
113.954312
70
0
0
VERTEX
8
Layer 1
10
258.501916
20
113.913302
70
0
0
SEQEND
8
Layer 1
0
POLYLINE
8
Layer 1
62
7
70
0
10
0.000000
20
0.000000
66
1
0
VERTEX
8
Layer 1
10
258.501916
20
113.913302
70
0
0
VERTEX
8
Layer 1
10
259.277144
20
113.790271
70
0
0
SEQEND
8
Layer 1
0
POLYLINE
8
Layer 1
62
7
70
0
10
0.000000
20
0.000000
66
1
0
VERTEX
8
Layer 1
10
259.277144
20
113.790271
70
0
0
VERTEX
8
Layer 1
10
260.035439
20
113.587336
70
0
0
SEQEND
8
Layer 1
0
POLYLINE
8
Layer 1
62
7
70
0
10
0.000000
20
0.000000
66
1
0
VERTEX
8
Layer 1
10
260.035439
20
113.587336
70
0
0
VERTEX
8
Layer 1
10
260.768334
20
113.306349
70
0
0
SEQEND
8
Layer 1
0
POLYLINE
8
Layer 1
62
7
70
0
10
0.000000
20
0.000000
66
1
0
VERTEX
8
Layer 1
10
260.768334
20
113.306349
70
0
0
VERTEX
8
Layer 1
10
261.467892
20
112.949162
70
0
0
SEQEND
8
Layer 1
0
POLYLINE
8
Layer 1
62
7
70
0
10
0.000000
20
0.000000
66
1
0
VERTEX
8
Layer 1
10
261.467892
20
112.949162
70
0
0
VERTEX
8
Layer 1
10
262.126439
20
112.522125
70
0
0
SEQEND
8
Layer 1
0
POLYLINE
8
Layer 1
62
7
70
0
10
0.000000
20
0.000000
66
1
0
VERTEX
8
Layer 1
10
262.126439
20
112.522125
70
0
0
VERTEX
8
Layer 1
10
262.736567
20
112.028148
70
0
0
SEQEND
8
Layer 1
0
POLYLINE
8
Layer 1
62
7
70
0
10
0.000000
20
0.000000
66
1
0
VERTEX
8
Layer 1
10
262.736567
20
112.028148
70
0
0
VERTEX
8
Layer 1
10
263.291662
20
111.472259
70
0
0
SEQEND
8
Layer 1
0
POLYLINE
8
Layer 1
62
7
70
0
10
0.000000
20
0.000000
66
1
0
VERTEX
8
Layer 1
10
263.291662
20
111.472259
70
0
0
VERTEX
8
Layer 1
10
263.785639
20
110.862131
70
0
0
SEQEND
8
Layer 1
0
POLYLINE
8
Layer 1
62
7
70
0
10
0.000000
20
0.000000
66
1
0
VERTEX
8
Layer 1
10
263.785639
20
110.862131
70
0
0
VERTEX
8
Layer 1
10
264.213205
20
110.204113
70
0
0
SEQEND
8
Layer 1
0
POLYLINE
8
Layer 1
62
7
70
0
10
0.000000
20
0.000000
66
1
0
VERTEX
8
Layer 1
10
264.213205
20
110.204113
70
0
0
VERTEX
8
Layer 1
10
264.569598
20
109.505349
70
0
0
SEQEND
8
Layer 1
0
POLYLINE
8
Layer 1
62
7
70
0
10
0.000000
20
0.000000
66
1
0
VERTEX
8
Layer 1
10
264.569598
20
109.505349
70
0
0
VERTEX
8
Layer 1
10
264.850850
20
108.772190
70
0
0
SEQEND
8
Layer 1
0
POLYLINE
8
Layer 1
62
7
70
0
10
0.000000
20
0.000000
66
1
0
VERTEX
8
Layer 1
10
264.850850
20
108.772190
70
0
0
VERTEX
8
Layer 1
10
265.054050
20
108.013366
70
0
0
SEQEND
8
Layer 1
0
POLYLINE
8
Layer 1
62
7
70
0
10
0.000000
20
0.000000
66
1
0
VERTEX
8
Layer 1
10
265.054050
20
108.013366
70
0
0
VERTEX
8
Layer 1
10
265.176816
20
107.238138
70
0
0
SEQEND
8
Layer 1
0
POLYLINE
8
Layer 1
62
7
70
0
10
0.000000
20
0.000000
66
1
0
VERTEX
8
Layer 1
10
265.176816
20
107.238138
70
0
0
VERTEX
8
Layer 1
10
265.217826
20
106.454178
70
0
0
SEQEND
8
Layer 1
0
POLYLINE
8
Layer 1
62
7
70
0
10
0.000000
20
0.000000
66
1
0
VERTEX
8
Layer 1
10
265.217826
20
106.454178
70
0
0
VERTEX
8
Layer 1
10
265.176816
20
105.670219
70
0
0
SEQEND
8
Layer 1
0
POLYLINE
8
Layer 1
62
7
70
0
10
0.000000
20
0.000000
66
1
0
VERTEX
8
Layer 1
10
265.176816
20
105.670219
70
0
0
VERTEX
8
Layer 1
10
265.054050
20
104.895255
70
0
0
SEQEND
8
Layer 1
0
POLYLINE
8
Layer 1
62
7
70
0
10
0.000000
20
0.000000
66
1
0
VERTEX
8
Layer 1
10
265.054050
20
104.895255
70
0
0
VERTEX
8
Layer 1
10
264.850850
20
104.136166
70
0
0
SEQEND
8
Layer 1
0
POLYLINE
8
Layer 1
62
7
70
0
10
0.000000
20
0.000000
66
1
0
VERTEX
8
Layer 1
10
264.850850
20
104.136166
70
0
0
VERTEX
8
Layer 1
10
264.569598
20
103.403272
70
0
0
SEQEND
8
Layer 1
0
POLYLINE
8
Layer 1
62
7
70
0
10
0.000000
20
0.000000
66
1
0
VERTEX
8
Layer 1
10
264.569598
20
103.403272
70
0
0
VERTEX
8
Layer 1
10
264.213205
20
102.704243
70
0
0
SEQEND
8
Layer 1
0
POLYLINE
8
Layer 1
62
7
70
0
10
0.000000
20
0.000000
66
1
0
VERTEX
8
Layer 1
10
264.213205
20
102.704243
70
0
0
VERTEX
8
Layer 1
10
263.785639
20
102.046225
70
0
0
SEQEND
8
Layer 1
0
POLYLINE
8
Layer 1
62
7
70
0
10
0.000000
20
0.000000
66
1
0
VERTEX
8
Layer 1
10
263.785639
20
102.046225
70
0
0
VERTEX
8
Layer 1
10
263.291662
20
101.436362
70
0
0
SEQEND
8
Layer 1
0
POLYLINE
8
Layer 1
62
7
70
0
10
0.000000
20
0.000000
66
1
0
VERTEX
8
Layer 1
10
263.291662
20
101.436362
70
0
0
VERTEX
8
Layer 1
10
262.736567
20
100.880208
70
0
0
SEQEND
8
Layer 1
0
POLYLINE
8
Layer 1
62
7
70
0
10
0.000000
20
0.000000
66
1
0
VERTEX
8
Layer 1
10
262.736567
20
100.880208
70
0
0
VERTEX
8
Layer 1
10
262.126439
20
100.386761
70
0
0
SEQEND
8
Layer 1
0
POLYLINE
8
Layer 1
62
7
70
0
10
0.000000
20
0.000000
66
1
0
VERTEX
8
Layer 1
10
262.126439
20
100.386761
70
0
0
VERTEX
8
Layer 1
10
261.467892
20
99.958930
70
0
0
SEQEND
8
Layer 1
0
POLYLINE
8
Layer 1
62
7
70
0
10
0.000000
20
0.000000
66
1
0
VERTEX
8
Layer 1
10
261.467892
20
99.958930
70
0
0
VERTEX
8
Layer 1
10
260.768334
20
99.602537
70
0
0
SEQEND
8
Layer 1
0
POLYLINE
8
Layer 1
62
7
70
0
10
0.000000
20
0.000000
66
1
0
VERTEX
8
Layer 1
10
260.768334
20
99.602537
70
0
0
VERTEX
8
Layer 1
10
260.035439
20
99.321285
70
0
0
SEQEND
8
Layer 1
0
POLYLINE
8
Layer 1
62
7
70
0
10
0.000000
20
0.000000
66
1
0
VERTEX
8
Layer 1
10
260.035439
20
99.321285
70
0
0
VERTEX
8
Layer 1
10
259.277144
20
99.118085
70
0
0
SEQEND
8
Layer 1
0
POLYLINE
8
Layer 1
62
7
70
0
10
0.000000
20
0.000000
66
1
0
VERTEX
8
Layer 1
10
259.277144
20
99.118085
70
0
0
VERTEX
8
Layer 1
10
258.501916
20
98.995319
70
0
0
SEQEND
8
Layer 1
0
POLYLINE
8
Layer 1
62
7
70
0
10
0.000000
20
0.000000
66
1
0
VERTEX
8
Layer 1
10
258.501916
20
98.995319
70
0
0
VERTEX
8
Layer 1
10
257.717957
20
98.954308
70
0
0
SEQEND
8
Layer 1
0
POLYLINE
8
Layer 1
62
7
70
0
10
0.000000
20
0.000000
66
1
0
VERTEX
8
Layer 1
10
257.717957
20
98.954308
70
0
0
VERTEX
8
Layer 1
10
256.933997
20
98.995319
70
0
0
SEQEND
8
Layer 1
 0 
ENDSEC
 0 
EOF