999
"DXF R12 Output" (www.mydxf.blogspot.com)
 0 
SECTION
 2 
HEADER
 9 
$ACADVER
 1 
AC1009
 9 
$EXTMIN
 10 
 0 
 20 
 0 
 9 
$EXTMAX
 10 
 8.5 
 20 
 11 
 0 
ENDSEC
 0 
SECTION
 2 
ENTITIES
0
POLYLINE
8
Layer 1
62
7
70
0
10
0.000000
20
0.000000
66
1
0
VERTEX
8
Layer 1
10
296.688164
20
472.272087
70
0
0
VERTEX
8
Layer 1
10
296.688164
20
544.272000
70
0
0
SEQEND
8
Layer 1
0
POLYLINE
8
Layer 1
62
7
70
0
10
0.000000
20
0.000000
66
1
0
VERTEX
8
Layer 1
10
296.688164
20
544.272000
70
0
0
VERTEX
8
Layer 1
10
4.689073
20
544.272000
70
0
0
SEQEND
8
Layer 1
0
POLYLINE
8
Layer 1
62
7
70
0
10
0.000000
20
0.000000
66
1
0
VERTEX
8
Layer 1
10
4.689073
20
544.272000
70
0
0
VERTEX
8
Layer 1
10
4.689073
20
472.272087
70
0
0
SEQEND
8
Layer 1
0
POLYLINE
8
Layer 1
62
7
70
0
10
0.000000
20
0.000000
66
1
0
VERTEX
8
Layer 1
10
4.689073
20
472.272087
70
0
0
VERTEX
8
Layer 1
10
296.688164
20
472.272087
70
0
0
SEQEND
8
Layer 1
0
POLYLINE
8
Layer 1
62
7
70
0
10
0.000000
20
0.000000
66
1
0
VERTEX
8
Layer 1
10
143.227378
20
509.056003
70
0
0
VERTEX
8
Layer 1
10
143.349086
20
509.831231
70
0
0
SEQEND
8
Layer 1
0
POLYLINE
8
Layer 1
62
7
70
0
10
0.000000
20
0.000000
66
1
0
VERTEX
8
Layer 1
10
143.349086
20
509.831231
70
0
0
VERTEX
8
Layer 1
10
143.558106
20
510.589526
70
0
0
SEQEND
8
Layer 1
0
POLYLINE
8
Layer 1
62
7
70
0
10
0.000000
20
0.000000
66
1
0
VERTEX
8
Layer 1
10
143.558106
20
510.589526
70
0
0
VERTEX
8
Layer 1
10
143.838564
20
511.322421
70
0
0
SEQEND
8
Layer 1
0
POLYLINE
8
Layer 1
62
7
70
0
10
0.000000
20
0.000000
66
1
0
VERTEX
8
Layer 1
10
143.838564
20
511.322421
70
0
0
VERTEX
8
Layer 1
10
144.187814
20
512.021978
70
0
0
SEQEND
8
Layer 1
0
POLYLINE
8
Layer 1
62
7
70
0
10
0.000000
20
0.000000
66
1
0
VERTEX
8
Layer 1
10
144.187814
20
512.021978
70
0
0
VERTEX
8
Layer 1
10
144.619084
20
512.680525
70
0
0
SEQEND
8
Layer 1
0
POLYLINE
8
Layer 1
62
7
70
0
10
0.000000
20
0.000000
66
1
0
VERTEX
8
Layer 1
10
144.619084
20
512.680525
70
0
0
VERTEX
8
Layer 1
10
145.119146
20
513.290654
70
0
0
SEQEND
8
Layer 1
0
POLYLINE
8
Layer 1
62
7
70
0
10
0.000000
20
0.000000
66
1
0
VERTEX
8
Layer 1
10
145.119146
20
513.290654
70
0
0
VERTEX
8
Layer 1
10
145.669479
20
513.845749
70
0
0
SEQEND
8
Layer 1
0
POLYLINE
8
Layer 1
62
7
70
0
10
0.000000
20
0.000000
66
1
0
VERTEX
8
Layer 1
10
145.669479
20
513.845749
70
0
0
VERTEX
8
Layer 1
10
146.278020
20
514.339725
70
0
0
SEQEND
8
Layer 1
0
POLYLINE
8
Layer 1
62
7
70
0
10
0.000000
20
0.000000
66
1
0
VERTEX
8
Layer 1
10
146.278020
20
514.339725
70
0
0
VERTEX
8
Layer 1
10
146.939477
20
514.767291
70
0
0
SEQEND
8
Layer 1
0
POLYLINE
8
Layer 1
62
7
70
0
10
0.000000
20
0.000000
66
1
0
VERTEX
8
Layer 1
10
146.939477
20
514.767291
70
0
0
VERTEX
8
Layer 1
10
147.637976
20
515.123685
70
0
0
SEQEND
8
Layer 1
0
POLYLINE
8
Layer 1
62
7
70
0
10
0.000000
20
0.000000
66
1
0
VERTEX
8
Layer 1
10
147.637976
20
515.123685
70
0
0
VERTEX
8
Layer 1
10
148.368225
20
515.404936
70
0
0
SEQEND
8
Layer 1
0
POLYLINE
8
Layer 1
62
7
70
0
10
0.000000
20
0.000000
66
1
0
VERTEX
8
Layer 1
10
148.368225
20
515.404936
70
0
0
VERTEX
8
Layer 1
10
149.127579
20
515.608136
70
0
0
SEQEND
8
Layer 1
0
POLYLINE
8
Layer 1
62
7
70
0
10
0.000000
20
0.000000
66
1
0
VERTEX
8
Layer 1
10
149.127579
20
515.608136
70
0
0
VERTEX
8
Layer 1
10
149.908098
20
515.730903
70
0
0
SEQEND
8
Layer 1
0
POLYLINE
8
Layer 1
62
7
70
0
10
0.000000
20
0.000000
66
1
0
VERTEX
8
Layer 1
10
149.908098
20
515.730903
70
0
0
VERTEX
8
Layer 1
10
150.688618
20
515.771913
70
0
0
SEQEND
8
Layer 1
0
POLYLINE
8
Layer 1
62
7
70
0
10
0.000000
20
0.000000
66
1
0
VERTEX
8
Layer 1
10
150.688618
20
515.771913
70
0
0
VERTEX
8
Layer 1
10
151.469138
20
515.730903
70
0
0
SEQEND
8
Layer 1
0
POLYLINE
8
Layer 1
62
7
70
0
10
0.000000
20
0.000000
66
1
0
VERTEX
8
Layer 1
10
151.469138
20
515.730903
70
0
0
VERTEX
8
Layer 1
10
152.249658
20
515.608136
70
0
0
SEQEND
8
Layer 1
0
POLYLINE
8
Layer 1
62
7
70
0
10
0.000000
20
0.000000
66
1
0
VERTEX
8
Layer 1
10
152.249658
20
515.608136
70
0
0
VERTEX
8
Layer 1
10
153.009011
20
515.404936
70
0
0
SEQEND
8
Layer 1
0
POLYLINE
8
Layer 1
62
7
70
0
10
0.000000
20
0.000000
66
1
0
VERTEX
8
Layer 1
10
153.009011
20
515.404936
70
0
0
VERTEX
8
Layer 1
10
153.739260
20
515.123685
70
0
0
SEQEND
8
Layer 1
0
POLYLINE
8
Layer 1
62
7
70
0
10
0.000000
20
0.000000
66
1
0
VERTEX
8
Layer 1
10
153.739260
20
515.123685
70
0
0
VERTEX
8
Layer 1
10
154.437759
20
514.767291
70
0
0
SEQEND
8
Layer 1
0
POLYLINE
8
Layer 1
62
7
70
0
10
0.000000
20
0.000000
66
1
0
VERTEX
8
Layer 1
10
154.437759
20
514.767291
70
0
0
VERTEX
8
Layer 1
10
155.099217
20
514.339725
70
0
0
SEQEND
8
Layer 1
0
POLYLINE
8
Layer 1
62
7
70
0
10
0.000000
20
0.000000
66
1
0
VERTEX
8
Layer 1
10
155.099217
20
514.339725
70
0
0
VERTEX
8
Layer 1
10
155.707758
20
513.845749
70
0
0
SEQEND
8
Layer 1
0
POLYLINE
8
Layer 1
62
7
70
0
10
0.000000
20
0.000000
66
1
0
VERTEX
8
Layer 1
10
155.707758
20
513.845749
70
0
0
VERTEX
8
Layer 1
10
156.258090
20
513.290654
70
0
0
SEQEND
8
Layer 1
0
POLYLINE
8
Layer 1
62
7
70
0
10
0.000000
20
0.000000
66
1
0
VERTEX
8
Layer 1
10
156.258090
20
513.290654
70
0
0
VERTEX
8
Layer 1
10
156.758152
20
512.680525
70
0
0
SEQEND
8
Layer 1
0
POLYLINE
8
Layer 1
62
7
70
0
10
0.000000
20
0.000000
66
1
0
VERTEX
8
Layer 1
10
156.758152
20
512.680525
70
0
0
VERTEX
8
Layer 1
10
157.189423
20
512.021978
70
0
0
SEQEND
8
Layer 1
0
POLYLINE
8
Layer 1
62
7
70
0
10
0.000000
20
0.000000
66
1
0
VERTEX
8
Layer 1
10
157.189423
20
512.021978
70
0
0
VERTEX
8
Layer 1
10
157.538672
20
511.322421
70
0
0
SEQEND
8
Layer 1
0
POLYLINE
8
Layer 1
62
7
70
0
10
0.000000
20
0.000000
66
1
0
VERTEX
8
Layer 1
10
157.538672
20
511.322421
70
0
0
VERTEX
8
Layer 1
10
157.819130
20
510.589526
70
0
0
SEQEND
8
Layer 1
0
POLYLINE
8
Layer 1
62
7
70
0
10
0.000000
20
0.000000
66
1
0
VERTEX
8
Layer 1
10
157.819130
20
510.589526
70
0
0
VERTEX
8
Layer 1
10
158.028151
20
509.831231
70
0
0
SEQEND
8
Layer 1
0
POLYLINE
8
Layer 1
62
7
70
0
10
0.000000
20
0.000000
66
1
0
VERTEX
8
Layer 1
10
158.028151
20
509.831231
70
0
0
VERTEX
8
Layer 1
10
158.147213
20
509.056003
70
0
0
SEQEND
8
Layer 1
0
POLYLINE
8
Layer 1
62
7
70
0
10
0.000000
20
0.000000
66
1
0
VERTEX
8
Layer 1
10
158.147213
20
509.056003
70
0
0
VERTEX
8
Layer 1
10
158.189546
20
508.272043
70
0
0
SEQEND
8
Layer 1
0
POLYLINE
8
Layer 1
62
7
70
0
10
0.000000
20
0.000000
66
1
0
VERTEX
8
Layer 1
10
158.189546
20
508.272043
70
0
0
VERTEX
8
Layer 1
10
158.147213
20
507.488084
70
0
0
SEQEND
8
Layer 1
0
POLYLINE
8
Layer 1
62
7
70
0
10
0.000000
20
0.000000
66
1
0
VERTEX
8
Layer 1
10
158.147213
20
507.488084
70
0
0
VERTEX
8
Layer 1
10
158.028151
20
506.712856
70
0
0
SEQEND
8
Layer 1
0
POLYLINE
8
Layer 1
62
7
70
0
10
0.000000
20
0.000000
66
1
0
VERTEX
8
Layer 1
10
158.028151
20
506.712856
70
0
0
VERTEX
8
Layer 1
10
157.819130
20
505.954561
70
0
0
SEQEND
8
Layer 1
0
POLYLINE
8
Layer 1
62
7
70
0
10
0.000000
20
0.000000
66
1
0
VERTEX
8
Layer 1
10
157.819130
20
505.954561
70
0
0
VERTEX
8
Layer 1
10
157.538672
20
505.221666
70
0
0
SEQEND
8
Layer 1
0
POLYLINE
8
Layer 1
62
7
70
0
10
0.000000
20
0.000000
66
1
0
VERTEX
8
Layer 1
10
157.538672
20
505.221666
70
0
0
VERTEX
8
Layer 1
10
157.189423
20
504.522108
70
0
0
SEQEND
8
Layer 1
0
POLYLINE
8
Layer 1
62
7
70
0
10
0.000000
20
0.000000
66
1
0
VERTEX
8
Layer 1
10
157.189423
20
504.522108
70
0
0
VERTEX
8
Layer 1
10
156.758152
20
503.863561
70
0
0
SEQEND
8
Layer 1
0
POLYLINE
8
Layer 1
62
7
70
0
10
0.000000
20
0.000000
66
1
0
VERTEX
8
Layer 1
10
156.758152
20
503.863561
70
0
0
VERTEX
8
Layer 1
10
156.258090
20
503.253433
70
0
0
SEQEND
8
Layer 1
0
POLYLINE
8
Layer 1
62
7
70
0
10
0.000000
20
0.000000
66
1
0
VERTEX
8
Layer 1
10
156.258090
20
503.253433
70
0
0
VERTEX
8
Layer 1
10
155.707758
20
502.698338
70
0
0
SEQEND
8
Layer 1
0
POLYLINE
8
Layer 1
62
7
70
0
10
0.000000
20
0.000000
66
1
0
VERTEX
8
Layer 1
10
155.707758
20
502.698338
70
0
0
VERTEX
8
Layer 1
10
155.099217
20
502.204361
70
0
0
SEQEND
8
Layer 1
0
POLYLINE
8
Layer 1
62
7
70
0
10
0.000000
20
0.000000
66
1
0
VERTEX
8
Layer 1
10
155.099217
20
502.204361
70
0
0
VERTEX
8
Layer 1
10
154.437759
20
501.776795
70
0
0
SEQEND
8
Layer 1
0
POLYLINE
8
Layer 1
62
7
70
0
10
0.000000
20
0.000000
66
1
0
VERTEX
8
Layer 1
10
154.437759
20
501.776795
70
0
0
VERTEX
8
Layer 1
10
153.739260
20
501.420402
70
0
0
SEQEND
8
Layer 1
0
POLYLINE
8
Layer 1
62
7
70
0
10
0.000000
20
0.000000
66
1
0
VERTEX
8
Layer 1
10
153.739260
20
501.420402
70
0
0
VERTEX
8
Layer 1
10
153.009011
20
501.139150
70
0
0
SEQEND
8
Layer 1
0
POLYLINE
8
Layer 1
62
7
70
0
10
0.000000
20
0.000000
66
1
0
VERTEX
8
Layer 1
10
153.009011
20
501.139150
70
0
0
VERTEX
8
Layer 1
10
152.249658
20
500.935950
70
0
0
SEQEND
8
Layer 1
0
POLYLINE
8
Layer 1
62
7
70
0
10
0.000000
20
0.000000
66
1
0
VERTEX
8
Layer 1
10
152.249658
20
500.935950
70
0
0
VERTEX
8
Layer 1
10
151.469138
20
500.813184
70
0
0
SEQEND
8
Layer 1
0
POLYLINE
8
Layer 1
62
7
70
0
10
0.000000
20
0.000000
66
1
0
VERTEX
8
Layer 1
10
151.469138
20
500.813184
70
0
0
VERTEX
8
Layer 1
10
150.688618
20
500.772174
70
0
0
SEQEND
8
Layer 1
0
POLYLINE
8
Layer 1
62
7
70
0
10
0.000000
20
0.000000
66
1
0
VERTEX
8
Layer 1
10
150.688618
20
500.772174
70
0
0
VERTEX
8
Layer 1
10
149.908098
20
500.813184
70
0
0
SEQEND
8
Layer 1
0
POLYLINE
8
Layer 1
62
7
70
0
10
0.000000
20
0.000000
66
1
0
VERTEX
8
Layer 1
10
149.908098
20
500.813184
70
0
0
VERTEX
8
Layer 1
10
149.127579
20
500.935950
70
0
0
SEQEND
8
Layer 1
0
POLYLINE
8
Layer 1
62
7
70
0
10
0.000000
20
0.000000
66
1
0
VERTEX
8
Layer 1
10
149.127579
20
500.935950
70
0
0
VERTEX
8
Layer 1
10
148.368225
20
501.139150
70
0
0
SEQEND
8
Layer 1
0
POLYLINE
8
Layer 1
62
7
70
0
10
0.000000
20
0.000000
66
1
0
VERTEX
8
Layer 1
10
148.368225
20
501.139150
70
0
0
VERTEX
8
Layer 1
10
147.637976
20
501.420402
70
0
0
SEQEND
8
Layer 1
0
POLYLINE
8
Layer 1
62
7
70
0
10
0.000000
20
0.000000
66
1
0
VERTEX
8
Layer 1
10
147.637976
20
501.420402
70
0
0
VERTEX
8
Layer 1
10
146.939477
20
501.776795
70
0
0
SEQEND
8
Layer 1
0
POLYLINE
8
Layer 1
62
7
70
0
10
0.000000
20
0.000000
66
1
0
VERTEX
8
Layer 1
10
146.939477
20
501.776795
70
0
0
VERTEX
8
Layer 1
10
146.278020
20
502.204361
70
0
0
SEQEND
8
Layer 1
0
POLYLINE
8
Layer 1
62
7
70
0
10
0.000000
20
0.000000
66
1
0
VERTEX
8
Layer 1
10
146.278020
20
502.204361
70
0
0
VERTEX
8
Layer 1
10
145.669479
20
502.698338
70
0
0
SEQEND
8
Layer 1
0
POLYLINE
8
Layer 1
62
7
70
0
10
0.000000
20
0.000000
66
1
0
VERTEX
8
Layer 1
10
145.669479
20
502.698338
70
0
0
VERTEX
8
Layer 1
10
145.119146
20
503.253433
70
0
0
SEQEND
8
Layer 1
0
POLYLINE
8
Layer 1
62
7
70
0
10
0.000000
20
0.000000
66
1
0
VERTEX
8
Layer 1
10
145.119146
20
503.253433
70
0
0
VERTEX
8
Layer 1
10
144.619084
20
503.863561
70
0
0
SEQEND
8
Layer 1
0
POLYLINE
8
Layer 1
62
7
70
0
10
0.000000
20
0.000000
66
1
0
VERTEX
8
Layer 1
10
144.619084
20
503.863561
70
0
0
VERTEX
8
Layer 1
10
144.187814
20
504.522108
70
0
0
SEQEND
8
Layer 1
0
POLYLINE
8
Layer 1
62
7
70
0
10
0.000000
20
0.000000
66
1
0
VERTEX
8
Layer 1
10
144.187814
20
504.522108
70
0
0
VERTEX
8
Layer 1
10
143.838564
20
505.221666
70
0
0
SEQEND
8
Layer 1
0
POLYLINE
8
Layer 1
62
7
70
0
10
0.000000
20
0.000000
66
1
0
VERTEX
8
Layer 1
10
143.838564
20
505.221666
70
0
0
VERTEX
8
Layer 1
10
143.558106
20
505.954561
70
0
0
SEQEND
8
Layer 1
0
POLYLINE
8
Layer 1
62
7
70
0
10
0.000000
20
0.000000
66
1
0
VERTEX
8
Layer 1
10
143.558106
20
505.954561
70
0
0
VERTEX
8
Layer 1
10
143.349086
20
506.712856
70
0
0
SEQEND
8
Layer 1
0
POLYLINE
8
Layer 1
62
7
70
0
10
0.000000
20
0.000000
66
1
0
VERTEX
8
Layer 1
10
143.349086
20
506.712856
70
0
0
VERTEX
8
Layer 1
10
143.227378
20
507.488084
70
0
0
SEQEND
8
Layer 1
0
POLYLINE
8
Layer 1
62
7
70
0
10
0.000000
20
0.000000
66
1
0
VERTEX
8
Layer 1
10
143.227378
20
507.488084
70
0
0
VERTEX
8
Layer 1
10
143.187690
20
508.272043
70
0
0
SEQEND
8
Layer 1
0
POLYLINE
8
Layer 1
62
7
70
0
10
0.000000
20
0.000000
66
1
0
VERTEX
8
Layer 1
10
143.187690
20
508.272043
70
0
0
VERTEX
8
Layer 1
10
143.227378
20
509.056003
70
0
0
SEQEND
8
Layer 1
0
POLYLINE
8
Layer 1
62
7
70
0
10
0.000000
20
0.000000
66
1
0
VERTEX
8
Layer 1
10
299.850836
20
465.097008
70
0
0
VERTEX
8
Layer 1
10
299.850836
20
465.107009
70
0
0
SEQEND
8
Layer 1
0
POLYLINE
8
Layer 1
62
7
70
0
10
0.000000
20
0.000000
66
1
0
VERTEX
8
Layer 1
10
299.850836
20
465.107009
70
0
0
VERTEX
8
Layer 1
10
299.842898
20
465.107009
70
0
0
SEQEND
8
Layer 1
0
POLYLINE
8
Layer 1
62
7
70
0
10
0.000000
20
0.000000
66
1
0
VERTEX
8
Layer 1
10
299.842898
20
465.107009
70
0
0
VERTEX
8
Layer 1
10
299.842898
20
465.097008
70
0
0
SEQEND
8
Layer 1
0
POLYLINE
8
Layer 1
62
7
70
0
10
0.000000
20
0.000000
66
1
0
VERTEX
8
Layer 1
10
299.842898
20
465.097008
70
0
0
VERTEX
8
Layer 1
10
299.850836
20
465.097008
70
0
0
SEQEND
8
Layer 1
0
POLYLINE
8
Layer 1
62
7
70
0
10
0.000000
20
0.000000
66
1
0
VERTEX
8
Layer 1
10
3.843313
20
449.097012
70
0
0
VERTEX
8
Layer 1
10
3.843313
20
441.096975
70
0
0
SEQEND
8
Layer 1
0
POLYLINE
8
Layer 1
62
7
70
0
10
0.000000
20
0.000000
66
1
0
VERTEX
8
Layer 1
10
3.843313
20
441.096975
70
0
0
VERTEX
8
Layer 1
10
-0.149245
20
441.096975
70
0
0
SEQEND
8
Layer 1
0
POLYLINE
8
Layer 1
62
7
70
0
10
0.000000
20
0.000000
66
1
0
VERTEX
8
Layer 1
10
-0.149245
20
441.096975
70
0
0
VERTEX
8
Layer 1
10
-0.149245
20
433.097043
70
0
0
SEQEND
8
Layer 1
0
POLYLINE
8
Layer 1
62
7
70
0
10
0.000000
20
0.000000
66
1
0
VERTEX
8
Layer 1
10
-0.149245
20
433.097043
70
0
0
VERTEX
8
Layer 1
10
3.843313
20
433.097043
70
0
0
SEQEND
8
Layer 1
0
POLYLINE
8
Layer 1
62
7
70
0
10
0.000000
20
0.000000
66
1
0
VERTEX
8
Layer 1
10
3.843313
20
433.097043
70
0
0
VERTEX
8
Layer 1
10
3.843313
20
425.097112
70
0
0
SEQEND
8
Layer 1
0
POLYLINE
8
Layer 1
62
7
70
0
10
0.000000
20
0.000000
66
1
0
VERTEX
8
Layer 1
10
3.843313
20
425.097112
70
0
0
VERTEX
8
Layer 1
10
-0.149245
20
425.097112
70
0
0
SEQEND
8
Layer 1
0
POLYLINE
8
Layer 1
62
7
70
0
10
0.000000
20
0.000000
66
1
0
VERTEX
8
Layer 1
10
-0.149245
20
425.097112
70
0
0
VERTEX
8
Layer 1
10
-0.149245
20
417.097180
70
0
0
SEQEND
8
Layer 1
0
POLYLINE
8
Layer 1
62
7
70
0
10
0.000000
20
0.000000
66
1
0
VERTEX
8
Layer 1
10
-0.149245
20
417.097180
70
0
0
VERTEX
8
Layer 1
10
3.843313
20
417.097180
70
0
0
SEQEND
8
Layer 1
0
POLYLINE
8
Layer 1
62
7
70
0
10
0.000000
20
0.000000
66
1
0
VERTEX
8
Layer 1
10
3.843313
20
417.097180
70
0
0
VERTEX
8
Layer 1
10
3.843313
20
409.096984
70
0
0
SEQEND
8
Layer 1
0
POLYLINE
8
Layer 1
62
7
70
0
10
0.000000
20
0.000000
66
1
0
VERTEX
8
Layer 1
10
3.843313
20
409.096984
70
0
0
VERTEX
8
Layer 1
10
-0.149245
20
409.096984
70
0
0
SEQEND
8
Layer 1
0
POLYLINE
8
Layer 1
62
7
70
0
10
0.000000
20
0.000000
66
1
0
VERTEX
8
Layer 1
10
-0.149245
20
409.096984
70
0
0
VERTEX
8
Layer 1
10
-0.149245
20
401.097052
70
0
0
SEQEND
8
Layer 1
0
POLYLINE
8
Layer 1
62
7
70
0
10
0.000000
20
0.000000
66
1
0
VERTEX
8
Layer 1
10
-0.149245
20
401.097052
70
0
0
VERTEX
8
Layer 1
10
3.843313
20
401.097052
70
0
0
SEQEND
8
Layer 1
0
POLYLINE
8
Layer 1
62
7
70
0
10
0.000000
20
0.000000
66
1
0
VERTEX
8
Layer 1
10
3.843313
20
401.097052
70
0
0
VERTEX
8
Layer 1
10
3.843313
20
393.087067
70
0
0
SEQEND
8
Layer 1
0
POLYLINE
8
Layer 1
62
7
70
0
10
0.000000
20
0.000000
66
1
0
VERTEX
8
Layer 1
10
3.843313
20
393.087067
70
0
0
VERTEX
8
Layer 1
10
45.562760
20
393.087067
70
0
0
SEQEND
8
Layer 1
0
POLYLINE
8
Layer 1
62
7
70
0
10
0.000000
20
0.000000
66
1
0
VERTEX
8
Layer 1
10
45.562760
20
393.087067
70
0
0
VERTEX
8
Layer 1
10
45.562760
20
389.097155
70
0
0
SEQEND
8
Layer 1
0
POLYLINE
8
Layer 1
62
7
70
0
10
0.000000
20
0.000000
66
1
0
VERTEX
8
Layer 1
10
45.562760
20
389.097155
70
0
0
VERTEX
8
Layer 1
10
87.282208
20
389.097155
70
0
0
SEQEND
8
Layer 1
0
POLYLINE
8
Layer 1
62
7
70
0
10
0.000000
20
0.000000
66
1
0
VERTEX
8
Layer 1
10
87.282208
20
389.097155
70
0
0
VERTEX
8
Layer 1
10
87.282208
20
393.087067
70
0
0
SEQEND
8
Layer 1
0
POLYLINE
8
Layer 1
62
7
70
0
10
0.000000
20
0.000000
66
1
0
VERTEX
8
Layer 1
10
87.282208
20
393.087067
70
0
0
VERTEX
8
Layer 1
10
128.991072
20
393.087067
70
0
0
SEQEND
8
Layer 1
0
POLYLINE
8
Layer 1
62
7
70
0
10
0.000000
20
0.000000
66
1
0
VERTEX
8
Layer 1
10
128.991072
20
393.087067
70
0
0
VERTEX
8
Layer 1
10
128.991072
20
389.097155
70
0
0
SEQEND
8
Layer 1
0
POLYLINE
8
Layer 1
62
7
70
0
10
0.000000
20
0.000000
66
1
0
VERTEX
8
Layer 1
10
128.991072
20
389.097155
70
0
0
VERTEX
8
Layer 1
10
170.710519
20
389.097155
70
0
0
SEQEND
8
Layer 1
0
POLYLINE
8
Layer 1
62
7
70
0
10
0.000000
20
0.000000
66
1
0
VERTEX
8
Layer 1
10
170.710519
20
389.097155
70
0
0
VERTEX
8
Layer 1
10
170.710519
20
393.087067
70
0
0
SEQEND
8
Layer 1
0
POLYLINE
8
Layer 1
62
7
70
0
10
0.000000
20
0.000000
66
1
0
VERTEX
8
Layer 1
10
170.710519
20
393.087067
70
0
0
VERTEX
8
Layer 1
10
212.422029
20
393.087067
70
0
0
SEQEND
8
Layer 1
0
POLYLINE
8
Layer 1
62
7
70
0
10
0.000000
20
0.000000
66
1
0
VERTEX
8
Layer 1
10
212.422029
20
393.087067
70
0
0
VERTEX
8
Layer 1
10
212.422029
20
389.097155
70
0
0
SEQEND
8
Layer 1
0
POLYLINE
8
Layer 1
62
7
70
0
10
0.000000
20
0.000000
66
1
0
VERTEX
8
Layer 1
10
212.422029
20
389.097155
70
0
0
VERTEX
8
Layer 1
10
254.141477
20
389.097155
70
0
0
SEQEND
8
Layer 1
0
POLYLINE
8
Layer 1
62
7
70
0
10
0.000000
20
0.000000
66
1
0
VERTEX
8
Layer 1
10
254.141477
20
389.097155
70
0
0
VERTEX
8
Layer 1
10
254.141477
20
393.087067
70
0
0
SEQEND
8
Layer 1
0
POLYLINE
8
Layer 1
62
7
70
0
10
0.000000
20
0.000000
66
1
0
VERTEX
8
Layer 1
10
254.141477
20
393.087067
70
0
0
VERTEX
8
Layer 1
10
295.842403
20
393.087067
70
0
0
SEQEND
8
Layer 1
0
POLYLINE
8
Layer 1
62
7
70
0
10
0.000000
20
0.000000
66
1
0
VERTEX
8
Layer 1
10
295.842403
20
393.087067
70
0
0
VERTEX
8
Layer 1
10
295.842403
20
393.107175
70
0
0
SEQEND
8
Layer 1
0
POLYLINE
8
Layer 1
62
7
70
0
10
0.000000
20
0.000000
66
1
0
VERTEX
8
Layer 1
10
295.842403
20
393.107175
70
0
0
VERTEX
8
Layer 1
10
295.860924
20
393.107175
70
0
0
SEQEND
8
Layer 1
0
POLYLINE
8
Layer 1
62
7
70
0
10
0.000000
20
0.000000
66
1
0
VERTEX
8
Layer 1
10
295.860924
20
393.107175
70
0
0
VERTEX
8
Layer 1
10
295.860924
20
401.097052
70
0
0
SEQEND
8
Layer 1
0
POLYLINE
8
Layer 1
62
7
70
0
10
0.000000
20
0.000000
66
1
0
VERTEX
8
Layer 1
10
295.860924
20
401.097052
70
0
0
VERTEX
8
Layer 1
10
299.850836
20
401.097052
70
0
0
SEQEND
8
Layer 1
0
POLYLINE
8
Layer 1
62
7
70
0
10
0.000000
20
0.000000
66
1
0
VERTEX
8
Layer 1
10
299.850836
20
401.097052
70
0
0
VERTEX
8
Layer 1
10
299.850836
20
409.096984
70
0
0
SEQEND
8
Layer 1
0
POLYLINE
8
Layer 1
62
7
70
0
10
0.000000
20
0.000000
66
1
0
VERTEX
8
Layer 1
10
299.850836
20
409.096984
70
0
0
VERTEX
8
Layer 1
10
295.860924
20
409.096984
70
0
0
SEQEND
8
Layer 1
0
POLYLINE
8
Layer 1
62
7
70
0
10
0.000000
20
0.000000
66
1
0
VERTEX
8
Layer 1
10
295.860924
20
409.096984
70
0
0
VERTEX
8
Layer 1
10
295.860924
20
417.097180
70
0
0
SEQEND
8
Layer 1
0
POLYLINE
8
Layer 1
62
7
70
0
10
0.000000
20
0.000000
66
1
0
VERTEX
8
Layer 1
10
295.860924
20
417.097180
70
0
0
VERTEX
8
Layer 1
10
299.850836
20
417.097180
70
0
0
SEQEND
8
Layer 1
0
POLYLINE
8
Layer 1
62
7
70
0
10
0.000000
20
0.000000
66
1
0
VERTEX
8
Layer 1
10
299.850836
20
417.097180
70
0
0
VERTEX
8
Layer 1
10
299.850836
20
425.097112
70
0
0
SEQEND
8
Layer 1
0
POLYLINE
8
Layer 1
62
7
70
0
10
0.000000
20
0.000000
66
1
0
VERTEX
8
Layer 1
10
299.850836
20
425.097112
70
0
0
VERTEX
8
Layer 1
10
295.860924
20
425.097112
70
0
0
SEQEND
8
Layer 1
0
POLYLINE
8
Layer 1
62
7
70
0
10
0.000000
20
0.000000
66
1
0
VERTEX
8
Layer 1
10
295.860924
20
425.097112
70
0
0
VERTEX
8
Layer 1
10
295.860924
20
433.097043
70
0
0
SEQEND
8
Layer 1
0
POLYLINE
8
Layer 1
62
7
70
0
10
0.000000
20
0.000000
66
1
0
VERTEX
8
Layer 1
10
295.860924
20
433.097043
70
0
0
VERTEX
8
Layer 1
10
299.850836
20
433.097043
70
0
0
SEQEND
8
Layer 1
0
POLYLINE
8
Layer 1
62
7
70
0
10
0.000000
20
0.000000
66
1
0
VERTEX
8
Layer 1
10
299.850836
20
433.097043
70
0
0
VERTEX
8
Layer 1
10
299.850836
20
441.096975
70
0
0
SEQEND
8
Layer 1
0
POLYLINE
8
Layer 1
62
7
70
0
10
0.000000
20
0.000000
66
1
0
VERTEX
8
Layer 1
10
299.850836
20
441.096975
70
0
0
VERTEX
8
Layer 1
10
295.860924
20
441.096975
70
0
0
SEQEND
8
Layer 1
0
POLYLINE
8
Layer 1
62
7
70
0
10
0.000000
20
0.000000
66
1
0
VERTEX
8
Layer 1
10
295.860924
20
441.096975
70
0
0
VERTEX
8
Layer 1
10
295.860924
20
449.097012
70
0
0
SEQEND
8
Layer 1
0
POLYLINE
8
Layer 1
62
7
70
0
10
0.000000
20
0.000000
66
1
0
VERTEX
8
Layer 1
10
295.860924
20
449.097012
70
0
0
VERTEX
8
Layer 1
10
299.850836
20
449.097012
70
0
0
SEQEND
8
Layer 1
0
POLYLINE
8
Layer 1
62
7
70
0
10
0.000000
20
0.000000
66
1
0
VERTEX
8
Layer 1
10
299.850836
20
449.097012
70
0
0
VERTEX
8
Layer 1
10
299.850836
20
457.097023
70
0
0
SEQEND
8
Layer 1
0
POLYLINE
8
Layer 1
62
7
70
0
10
0.000000
20
0.000000
66
1
0
VERTEX
8
Layer 1
10
299.850836
20
457.097023
70
0
0
VERTEX
8
Layer 1
10
295.860924
20
457.097023
70
0
0
SEQEND
8
Layer 1
0
POLYLINE
8
Layer 1
62
7
70
0
10
0.000000
20
0.000000
66
1
0
VERTEX
8
Layer 1
10
295.860924
20
457.097023
70
0
0
VERTEX
8
Layer 1
10
295.860924
20
465.006997
70
0
0
SEQEND
8
Layer 1
0
POLYLINE
8
Layer 1
62
7
70
0
10
0.000000
20
0.000000
66
1
0
VERTEX
8
Layer 1
10
295.860924
20
465.006997
70
0
0
VERTEX
8
Layer 1
10
295.842403
20
465.006997
70
0
0
SEQEND
8
Layer 1
0
POLYLINE
8
Layer 1
62
7
70
0
10
0.000000
20
0.000000
66
1
0
VERTEX
8
Layer 1
10
295.842403
20
465.006997
70
0
0
VERTEX
8
Layer 1
10
295.842403
20
465.107009
70
0
0
SEQEND
8
Layer 1
0
POLYLINE
8
Layer 1
62
7
70
0
10
0.000000
20
0.000000
66
1
0
VERTEX
8
Layer 1
10
295.842403
20
465.107009
70
0
0
VERTEX
8
Layer 1
10
254.141477
20
465.107009
70
0
0
SEQEND
8
Layer 1
0
POLYLINE
8
Layer 1
62
7
70
0
10
0.000000
20
0.000000
66
1
0
VERTEX
8
Layer 1
10
254.141477
20
465.107009
70
0
0
VERTEX
8
Layer 1
10
254.141477
20
469.097000
70
0
0
SEQEND
8
Layer 1
0
POLYLINE
8
Layer 1
62
7
70
0
10
0.000000
20
0.000000
66
1
0
VERTEX
8
Layer 1
10
254.141477
20
469.097000
70
0
0
VERTEX
8
Layer 1
10
212.422029
20
469.097000
70
0
0
SEQEND
8
Layer 1
0
POLYLINE
8
Layer 1
62
7
70
0
10
0.000000
20
0.000000
66
1
0
VERTEX
8
Layer 1
10
212.422029
20
469.097000
70
0
0
VERTEX
8
Layer 1
10
212.422029
20
465.107009
70
0
0
SEQEND
8
Layer 1
0
POLYLINE
8
Layer 1
62
7
70
0
10
0.000000
20
0.000000
66
1
0
VERTEX
8
Layer 1
10
212.422029
20
465.107009
70
0
0
VERTEX
8
Layer 1
10
170.710519
20
465.107009
70
0
0
SEQEND
8
Layer 1
0
POLYLINE
8
Layer 1
62
7
70
0
10
0.000000
20
0.000000
66
1
0
VERTEX
8
Layer 1
10
170.710519
20
465.107009
70
0
0
VERTEX
8
Layer 1
10
170.710519
20
469.097000
70
0
0
SEQEND
8
Layer 1
0
POLYLINE
8
Layer 1
62
7
70
0
10
0.000000
20
0.000000
66
1
0
VERTEX
8
Layer 1
10
170.710519
20
469.097000
70
0
0
VERTEX
8
Layer 1
10
128.991072
20
469.097000
70
0
0
SEQEND
8
Layer 1
0
POLYLINE
8
Layer 1
62
7
70
0
10
0.000000
20
0.000000
66
1
0
VERTEX
8
Layer 1
10
128.991072
20
469.097000
70
0
0
VERTEX
8
Layer 1
10
128.991072
20
465.107009
70
0
0
SEQEND
8
Layer 1
0
POLYLINE
8
Layer 1
62
7
70
0
10
0.000000
20
0.000000
66
1
0
VERTEX
8
Layer 1
10
128.991072
20
465.107009
70
0
0
VERTEX
8
Layer 1
10
87.282208
20
465.107009
70
0
0
SEQEND
8
Layer 1
0
POLYLINE
8
Layer 1
62
7
70
0
10
0.000000
20
0.000000
66
1
0
VERTEX
8
Layer 1
10
87.282208
20
465.107009
70
0
0
VERTEX
8
Layer 1
10
87.282208
20
469.097000
70
0
0
SEQEND
8
Layer 1
0
POLYLINE
8
Layer 1
62
7
70
0
10
0.000000
20
0.000000
66
1
0
VERTEX
8
Layer 1
10
87.282208
20
469.097000
70
0
0
VERTEX
8
Layer 1
10
45.562760
20
469.097000
70
0
0
SEQEND
8
Layer 1
0
POLYLINE
8
Layer 1
62
7
70
0
10
0.000000
20
0.000000
66
1
0
VERTEX
8
Layer 1
10
45.562760
20
469.097000
70
0
0
VERTEX
8
Layer 1
10
45.562760
20
465.107009
70
0
0
SEQEND
8
Layer 1
0
POLYLINE
8
Layer 1
62
7
70
0
10
0.000000
20
0.000000
66
1
0
VERTEX
8
Layer 1
10
45.562760
20
465.107009
70
0
0
VERTEX
8
Layer 1
10
3.843313
20
465.107009
70
0
0
SEQEND
8
Layer 1
0
POLYLINE
8
Layer 1
62
7
70
0
10
0.000000
20
0.000000
66
1
0
VERTEX
8
Layer 1
10
3.843313
20
465.107009
70
0
0
VERTEX
8
Layer 1
10
3.843313
20
457.097023
70
0
0
SEQEND
8
Layer 1
0
POLYLINE
8
Layer 1
62
7
70
0
10
0.000000
20
0.000000
66
1
0
VERTEX
8
Layer 1
10
3.843313
20
457.097023
70
0
0
VERTEX
8
Layer 1
10
-0.149245
20
457.097023
70
0
0
SEQEND
8
Layer 1
0
POLYLINE
8
Layer 1
62
7
70
0
10
0.000000
20
0.000000
66
1
0
VERTEX
8
Layer 1
10
-0.149245
20
457.097023
70
0
0
VERTEX
8
Layer 1
10
-0.149245
20
449.097012
70
0
0
SEQEND
8
Layer 1
0
POLYLINE
8
Layer 1
62
7
70
0
10
0.000000
20
0.000000
66
1
0
VERTEX
8
Layer 1
10
-0.149245
20
449.097012
70
0
0
VERTEX
8
Layer 1
10
3.843313
20
449.097012
70
0
0
SEQEND
8
Layer 1
0
POLYLINE
8
Layer 1
62
7
70
0
10
0.000000
20
0.000000
66
1
0
VERTEX
8
Layer 1
10
11.852240
20
457.097023
70
0
0
VERTEX
8
Layer 1
10
287.851997
20
457.097023
70
0
0
SEQEND
8
Layer 1
0
POLYLINE
8
Layer 1
62
7
70
0
10
0.000000
20
0.000000
66
1
0
VERTEX
8
Layer 1
10
287.851997
20
457.097023
70
0
0
VERTEX
8
Layer 1
10
287.851997
20
401.097052
70
0
0
SEQEND
8
Layer 1
0
POLYLINE
8
Layer 1
62
7
70
0
10
0.000000
20
0.000000
66
1
0
VERTEX
8
Layer 1
10
287.851997
20
401.097052
70
0
0
VERTEX
8
Layer 1
10
11.852240
20
401.097052
70
0
0
SEQEND
8
Layer 1
0
POLYLINE
8
Layer 1
62
7
70
0
10
0.000000
20
0.000000
66
1
0
VERTEX
8
Layer 1
10
11.852240
20
401.097052
70
0
0
VERTEX
8
Layer 1
10
11.852240
20
457.097023
70
0
0
SEQEND
8
Layer 1
0
POLYLINE
8
Layer 1
62
7
70
0
10
0.000000
20
0.000000
66
1
0
VERTEX
8
Layer 1
10
299.850836
20
393.087067
70
0
0
VERTEX
8
Layer 1
10
299.850836
20
393.097121
70
0
0
SEQEND
8
Layer 1
0
POLYLINE
8
Layer 1
62
7
70
0
10
0.000000
20
0.000000
66
1
0
VERTEX
8
Layer 1
10
299.850836
20
393.097121
70
0
0
VERTEX
8
Layer 1
10
299.842898
20
393.097121
70
0
0
SEQEND
8
Layer 1
0
POLYLINE
8
Layer 1
62
7
70
0
10
0.000000
20
0.000000
66
1
0
VERTEX
8
Layer 1
10
299.842898
20
393.097121
70
0
0
VERTEX
8
Layer 1
10
299.842898
20
393.087067
70
0
0
SEQEND
8
Layer 1
0
POLYLINE
8
Layer 1
62
7
70
0
10
0.000000
20
0.000000
66
1
0
VERTEX
8
Layer 1
10
299.842898
20
393.087067
70
0
0
VERTEX
8
Layer 1
10
299.850836
20
393.087067
70
0
0
SEQEND
8
Layer 1
0
POLYLINE
8
Layer 1
62
7
70
0
10
0.000000
20
0.000000
66
1
0
VERTEX
8
Layer 1
10
295.867927
20
216.483023
70
0
0
VERTEX
8
Layer 1
10
295.867927
20
210.483022
70
0
0
SEQEND
8
Layer 1
0
POLYLINE
8
Layer 1
62
7
70
0
10
0.000000
20
0.000000
66
1
0
VERTEX
8
Layer 1
10
295.867927
20
210.483022
70
0
0
VERTEX
8
Layer 1
10
299.868422
20
210.483022
70
0
0
SEQEND
8
Layer 1
0
POLYLINE
8
Layer 1
62
7
70
0
10
0.000000
20
0.000000
66
1
0
VERTEX
8
Layer 1
10
299.868422
20
210.483022
70
0
0
VERTEX
8
Layer 1
10
299.868422
20
204.483020
70
0
0
SEQEND
8
Layer 1
0
POLYLINE
8
Layer 1
62
7
70
0
10
0.000000
20
0.000000
66
1
0
VERTEX
8
Layer 1
10
299.868422
20
204.483020
70
0
0
VERTEX
8
Layer 1
10
295.867927
20
204.483020
70
0
0
SEQEND
8
Layer 1
0
POLYLINE
8
Layer 1
62
7
70
0
10
0.000000
20
0.000000
66
1
0
VERTEX
8
Layer 1
10
295.867927
20
204.483020
70
0
0
VERTEX
8
Layer 1
10
295.867927
20
198.482992
70
0
0
SEQEND
8
Layer 1
0
POLYLINE
8
Layer 1
62
7
70
0
10
0.000000
20
0.000000
66
1
0
VERTEX
8
Layer 1
10
295.867927
20
198.482992
70
0
0
VERTEX
8
Layer 1
10
299.868422
20
198.482992
70
0
0
SEQEND
8
Layer 1
0
POLYLINE
8
Layer 1
62
7
70
0
10
0.000000
20
0.000000
66
1
0
VERTEX
8
Layer 1
10
299.868422
20
198.482992
70
0
0
VERTEX
8
Layer 1
10
299.868422
20
192.483043
70
0
0
SEQEND
8
Layer 1
0
POLYLINE
8
Layer 1
62
7
70
0
10
0.000000
20
0.000000
66
1
0
VERTEX
8
Layer 1
10
299.868422
20
192.483043
70
0
0
VERTEX
8
Layer 1
10
295.867927
20
192.483043
70
0
0
SEQEND
8
Layer 1
0
POLYLINE
8
Layer 1
62
7
70
0
10
0.000000
20
0.000000
66
1
0
VERTEX
8
Layer 1
10
295.867927
20
192.483043
70
0
0
VERTEX
8
Layer 1
10
295.867927
20
186.483095
70
0
0
SEQEND
8
Layer 1
0
POLYLINE
8
Layer 1
62
7
70
0
10
0.000000
20
0.000000
66
1
0
VERTEX
8
Layer 1
10
295.867927
20
186.483095
70
0
0
VERTEX
8
Layer 1
10
299.868422
20
186.483095
70
0
0
SEQEND
8
Layer 1
0
POLYLINE
8
Layer 1
62
7
70
0
10
0.000000
20
0.000000
66
1
0
VERTEX
8
Layer 1
10
299.868422
20
186.483095
70
0
0
VERTEX
8
Layer 1
10
299.868422
20
180.483146
70
0
0
SEQEND
8
Layer 1
0
POLYLINE
8
Layer 1
62
7
70
0
10
0.000000
20
0.000000
66
1
0
VERTEX
8
Layer 1
10
299.868422
20
180.483146
70
0
0
VERTEX
8
Layer 1
10
295.867927
20
180.483146
70
0
0
SEQEND
8
Layer 1
0
POLYLINE
8
Layer 1
62
7
70
0
10
0.000000
20
0.000000
66
1
0
VERTEX
8
Layer 1
10
295.867927
20
180.483146
70
0
0
VERTEX
8
Layer 1
10
295.867927
20
174.483197
70
0
0
SEQEND
8
Layer 1
0
POLYLINE
8
Layer 1
62
7
70
0
10
0.000000
20
0.000000
66
1
0
VERTEX
8
Layer 1
10
295.867927
20
174.483197
70
0
0
VERTEX
8
Layer 1
10
299.868422
20
174.483197
70
0
0
SEQEND
8
Layer 1
0
POLYLINE
8
Layer 1
62
7
70
0
10
0.000000
20
0.000000
66
1
0
VERTEX
8
Layer 1
10
299.868422
20
174.483197
70
0
0
VERTEX
8
Layer 1
10
299.868422
20
168.482984
70
0
0
SEQEND
8
Layer 1
0
POLYLINE
8
Layer 1
62
7
70
0
10
0.000000
20
0.000000
66
1
0
VERTEX
8
Layer 1
10
299.868422
20
168.482984
70
0
0
VERTEX
8
Layer 1
10
295.867927
20
168.482984
70
0
0
SEQEND
8
Layer 1
0
POLYLINE
8
Layer 1
62
7
70
0
10
0.000000
20
0.000000
66
1
0
VERTEX
8
Layer 1
10
295.867927
20
168.482984
70
0
0
VERTEX
8
Layer 1
10
295.867927
20
162.483035
70
0
0
SEQEND
8
Layer 1
0
POLYLINE
8
Layer 1
62
7
70
0
10
0.000000
20
0.000000
66
1
0
VERTEX
8
Layer 1
10
295.867927
20
162.483035
70
0
0
VERTEX
8
Layer 1
10
299.868422
20
162.483035
70
0
0
SEQEND
8
Layer 1
0
POLYLINE
8
Layer 1
62
7
70
0
10
0.000000
20
0.000000
66
1
0
VERTEX
8
Layer 1
10
299.868422
20
162.483035
70
0
0
VERTEX
8
Layer 1
10
299.868422
20
156.483087
70
0
0
SEQEND
8
Layer 1
0
POLYLINE
8
Layer 1
62
7
70
0
10
0.000000
20
0.000000
66
1
0
VERTEX
8
Layer 1
10
299.868422
20
156.483087
70
0
0
VERTEX
8
Layer 1
10
271.536874
20
156.483087
70
0
0
SEQEND
8
Layer 1
0
POLYLINE
8
Layer 1
62
7
70
0
10
0.000000
20
0.000000
66
1
0
VERTEX
8
Layer 1
10
271.536874
20
156.483087
70
0
0
VERTEX
8
Layer 1
10
271.536874
20
152.483121
70
0
0
SEQEND
8
Layer 1
0
POLYLINE
8
Layer 1
62
7
70
0
10
0.000000
20
0.000000
66
1
0
VERTEX
8
Layer 1
10
271.536874
20
152.483121
70
0
0
VERTEX
8
Layer 1
10
247.200530
20
152.483121
70
0
0
SEQEND
8
Layer 1
0
POLYLINE
8
Layer 1
62
7
70
0
10
0.000000
20
0.000000
66
1
0
VERTEX
8
Layer 1
10
247.200530
20
152.483121
70
0
0
VERTEX
8
Layer 1
10
247.200530
20
156.483087
70
0
0
SEQEND
8
Layer 1
0
POLYLINE
8
Layer 1
62
7
70
0
10
0.000000
20
0.000000
66
1
0
VERTEX
8
Layer 1
10
247.200530
20
156.483087
70
0
0
VERTEX
8
Layer 1
10
222.869477
20
156.483087
70
0
0
SEQEND
8
Layer 1
0
POLYLINE
8
Layer 1
62
7
70
0
10
0.000000
20
0.000000
66
1
0
VERTEX
8
Layer 1
10
222.869477
20
156.483087
70
0
0
VERTEX
8
Layer 1
10
222.869477
20
152.483121
70
0
0
SEQEND
8
Layer 1
0
POLYLINE
8
Layer 1
62
7
70
0
10
0.000000
20
0.000000
66
1
0
VERTEX
8
Layer 1
10
222.869477
20
152.483121
70
0
0
VERTEX
8
Layer 1
10
198.535779
20
152.483121
70
0
0
SEQEND
8
Layer 1
0
POLYLINE
8
Layer 1
62
7
70
0
10
0.000000
20
0.000000
66
1
0
VERTEX
8
Layer 1
10
198.535779
20
152.483121
70
0
0
VERTEX
8
Layer 1
10
198.535779
20
156.483087
70
0
0
SEQEND
8
Layer 1
0
POLYLINE
8
Layer 1
62
7
70
0
10
0.000000
20
0.000000
66
1
0
VERTEX
8
Layer 1
10
198.535779
20
156.483087
70
0
0
VERTEX
8
Layer 1
10
174.202080
20
156.483087
70
0
0
SEQEND
8
Layer 1
0
POLYLINE
8
Layer 1
62
7
70
0
10
0.000000
20
0.000000
66
1
0
VERTEX
8
Layer 1
10
174.202080
20
156.483087
70
0
0
VERTEX
8
Layer 1
10
174.202080
20
152.483121
70
0
0
SEQEND
8
Layer 1
0
POLYLINE
8
Layer 1
62
7
70
0
10
0.000000
20
0.000000
66
1
0
VERTEX
8
Layer 1
10
174.202080
20
152.483121
70
0
0
VERTEX
8
Layer 1
10
149.868381
20
152.483121
70
0
0
SEQEND
8
Layer 1
0
POLYLINE
8
Layer 1
62
7
70
0
10
0.000000
20
0.000000
66
1
0
VERTEX
8
Layer 1
10
149.868381
20
152.483121
70
0
0
VERTEX
8
Layer 1
10
149.868381
20
156.483087
70
0
0
SEQEND
8
Layer 1
0
POLYLINE
8
Layer 1
62
7
70
0
10
0.000000
20
0.000000
66
1
0
VERTEX
8
Layer 1
10
149.868381
20
156.483087
70
0
0
VERTEX
8
Layer 1
10
125.534683
20
156.483087
70
0
0
SEQEND
8
Layer 1
0
POLYLINE
8
Layer 1
62
7
70
0
10
0.000000
20
0.000000
66
1
0
VERTEX
8
Layer 1
10
125.534683
20
156.483087
70
0
0
VERTEX
8
Layer 1
10
125.534683
20
152.483121
70
0
0
SEQEND
8
Layer 1
0
POLYLINE
8
Layer 1
62
7
70
0
10
0.000000
20
0.000000
66
1
0
VERTEX
8
Layer 1
10
125.534683
20
152.483121
70
0
0
VERTEX
8
Layer 1
10
101.200984
20
152.483121
70
0
0
SEQEND
8
Layer 1
0
POLYLINE
8
Layer 1
62
7
70
0
10
0.000000
20
0.000000
66
1
0
VERTEX
8
Layer 1
10
101.200984
20
152.483121
70
0
0
VERTEX
8
Layer 1
10
101.200984
20
156.483087
70
0
0
SEQEND
8
Layer 1
0
POLYLINE
8
Layer 1
62
7
70
0
10
0.000000
20
0.000000
66
1
0
VERTEX
8
Layer 1
10
101.200984
20
156.483087
70
0
0
VERTEX
8
Layer 1
10
76.869932
20
156.483087
70
0
0
SEQEND
8
Layer 1
0
POLYLINE
8
Layer 1
62
7
70
0
10
0.000000
20
0.000000
66
1
0
VERTEX
8
Layer 1
10
76.869932
20
156.483087
70
0
0
VERTEX
8
Layer 1
10
76.869932
20
152.483121
70
0
0
SEQEND
8
Layer 1
0
POLYLINE
8
Layer 1
62
7
70
0
10
0.000000
20
0.000000
66
1
0
VERTEX
8
Layer 1
10
76.869932
20
152.483121
70
0
0
VERTEX
8
Layer 1
10
52.538879
20
152.483121
70
0
0
SEQEND
8
Layer 1
0
POLYLINE
8
Layer 1
62
7
70
0
10
0.000000
20
0.000000
66
1
0
VERTEX
8
Layer 1
10
52.538879
20
152.483121
70
0
0
VERTEX
8
Layer 1
10
52.538879
20
156.483087
70
0
0
SEQEND
8
Layer 1
0
POLYLINE
8
Layer 1
62
7
70
0
10
0.000000
20
0.000000
66
1
0
VERTEX
8
Layer 1
10
52.538879
20
156.483087
70
0
0
VERTEX
8
Layer 1
10
28.199889
20
156.483087
70
0
0
SEQEND
8
Layer 1
0
POLYLINE
8
Layer 1
62
7
70
0
10
0.000000
20
0.000000
66
1
0
VERTEX
8
Layer 1
10
28.199889
20
156.483087
70
0
0
VERTEX
8
Layer 1
10
28.199889
20
152.483121
70
0
0
SEQEND
8
Layer 1
0
POLYLINE
8
Layer 1
62
7
70
0
10
0.000000
20
0.000000
66
1
0
VERTEX
8
Layer 1
10
28.199889
20
152.483121
70
0
0
VERTEX
8
Layer 1
10
3.868836
20
152.483121
70
0
0
SEQEND
8
Layer 1
0
POLYLINE
8
Layer 1
62
7
70
0
10
0.000000
20
0.000000
66
1
0
VERTEX
8
Layer 1
10
3.868836
20
152.483121
70
0
0
VERTEX
8
Layer 1
10
3.868836
20
156.483087
70
0
0
SEQEND
8
Layer 1
0
POLYLINE
8
Layer 1
62
7
70
0
10
0.000000
20
0.000000
66
1
0
VERTEX
8
Layer 1
10
3.868836
20
156.483087
70
0
0
VERTEX
8
Layer 1
10
-0.131659
20
156.483087
70
0
0
SEQEND
8
Layer 1
0
POLYLINE
8
Layer 1
62
7
70
0
10
0.000000
20
0.000000
66
1
0
VERTEX
8
Layer 1
10
-0.131659
20
156.483087
70
0
0
VERTEX
8
Layer 1
10
-0.131659
20
162.483035
70
0
0
SEQEND
8
Layer 1
0
POLYLINE
8
Layer 1
62
7
70
0
10
0.000000
20
0.000000
66
1
0
VERTEX
8
Layer 1
10
-0.131659
20
162.483035
70
0
0
VERTEX
8
Layer 1
10
3.868836
20
162.483035
70
0
0
SEQEND
8
Layer 1
0
POLYLINE
8
Layer 1
62
7
70
0
10
0.000000
20
0.000000
66
1
0
VERTEX
8
Layer 1
10
3.868836
20
162.483035
70
0
0
VERTEX
8
Layer 1
10
3.868836
20
168.482984
70
0
0
SEQEND
8
Layer 1
0
POLYLINE
8
Layer 1
62
7
70
0
10
0.000000
20
0.000000
66
1
0
VERTEX
8
Layer 1
10
3.868836
20
168.482984
70
0
0
VERTEX
8
Layer 1
10
-0.131659
20
168.482984
70
0
0
SEQEND
8
Layer 1
0
POLYLINE
8
Layer 1
62
7
70
0
10
0.000000
20
0.000000
66
1
0
VERTEX
8
Layer 1
10
-0.131659
20
168.482984
70
0
0
VERTEX
8
Layer 1
10
-0.131659
20
174.483197
70
0
0
SEQEND
8
Layer 1
0
POLYLINE
8
Layer 1
62
7
70
0
10
0.000000
20
0.000000
66
1
0
VERTEX
8
Layer 1
10
-0.131659
20
174.483197
70
0
0
VERTEX
8
Layer 1
10
3.868836
20
174.483197
70
0
0
SEQEND
8
Layer 1
0
POLYLINE
8
Layer 1
62
7
70
0
10
0.000000
20
0.000000
66
1
0
VERTEX
8
Layer 1
10
3.868836
20
174.483197
70
0
0
VERTEX
8
Layer 1
10
3.868836
20
180.483146
70
0
0
SEQEND
8
Layer 1
0
POLYLINE
8
Layer 1
62
7
70
0
10
0.000000
20
0.000000
66
1
0
VERTEX
8
Layer 1
10
3.868836
20
180.483146
70
0
0
VERTEX
8
Layer 1
10
-0.131659
20
180.483146
70
0
0
SEQEND
8
Layer 1
0
POLYLINE
8
Layer 1
62
7
70
0
10
0.000000
20
0.000000
66
1
0
VERTEX
8
Layer 1
10
-0.131659
20
180.483146
70
0
0
VERTEX
8
Layer 1
10
-0.131659
20
186.483095
70
0
0
SEQEND
8
Layer 1
0
POLYLINE
8
Layer 1
62
7
70
0
10
0.000000
20
0.000000
66
1
0
VERTEX
8
Layer 1
10
-0.131659
20
186.483095
70
0
0
VERTEX
8
Layer 1
10
3.868836
20
186.483095
70
0
0
SEQEND
8
Layer 1
0
POLYLINE
8
Layer 1
62
7
70
0
10
0.000000
20
0.000000
66
1
0
VERTEX
8
Layer 1
10
3.868836
20
186.483095
70
0
0
VERTEX
8
Layer 1
10
3.868836
20
192.483043
70
0
0
SEQEND
8
Layer 1
0
POLYLINE
8
Layer 1
62
7
70
0
10
0.000000
20
0.000000
66
1
0
VERTEX
8
Layer 1
10
3.868836
20
192.483043
70
0
0
VERTEX
8
Layer 1
10
-0.131659
20
192.483043
70
0
0
SEQEND
8
Layer 1
0
POLYLINE
8
Layer 1
62
7
70
0
10
0.000000
20
0.000000
66
1
0
VERTEX
8
Layer 1
10
-0.131659
20
192.483043
70
0
0
VERTEX
8
Layer 1
10
-0.131659
20
198.482992
70
0
0
SEQEND
8
Layer 1
0
POLYLINE
8
Layer 1
62
7
70
0
10
0.000000
20
0.000000
66
1
0
VERTEX
8
Layer 1
10
-0.131659
20
198.482992
70
0
0
VERTEX
8
Layer 1
10
3.868836
20
198.482992
70
0
0
SEQEND
8
Layer 1
0
POLYLINE
8
Layer 1
62
7
70
0
10
0.000000
20
0.000000
66
1
0
VERTEX
8
Layer 1
10
3.868836
20
198.482992
70
0
0
VERTEX
8
Layer 1
10
3.868836
20
204.483020
70
0
0
SEQEND
8
Layer 1
0
POLYLINE
8
Layer 1
62
7
70
0
10
0.000000
20
0.000000
66
1
0
VERTEX
8
Layer 1
10
3.868836
20
204.483020
70
0
0
VERTEX
8
Layer 1
10
-0.131659
20
204.483020
70
0
0
SEQEND
8
Layer 1
0
POLYLINE
8
Layer 1
62
7
70
0
10
0.000000
20
0.000000
66
1
0
VERTEX
8
Layer 1
10
-0.131659
20
204.483020
70
0
0
VERTEX
8
Layer 1
10
-0.131659
20
210.483022
70
0
0
SEQEND
8
Layer 1
0
POLYLINE
8
Layer 1
62
7
70
0
10
0.000000
20
0.000000
66
1
0
VERTEX
8
Layer 1
10
-0.131659
20
210.483022
70
0
0
VERTEX
8
Layer 1
10
3.868836
20
210.483022
70
0
0
SEQEND
8
Layer 1
0
POLYLINE
8
Layer 1
62
7
70
0
10
0.000000
20
0.000000
66
1
0
VERTEX
8
Layer 1
10
3.868836
20
210.483022
70
0
0
VERTEX
8
Layer 1
10
3.868836
20
216.483023
70
0
0
SEQEND
8
Layer 1
0
POLYLINE
8
Layer 1
62
7
70
0
10
0.000000
20
0.000000
66
1
0
VERTEX
8
Layer 1
10
3.868836
20
216.483023
70
0
0
VERTEX
8
Layer 1
10
-0.131659
20
216.483023
70
0
0
SEQEND
8
Layer 1
0
POLYLINE
8
Layer 1
62
7
70
0
10
0.000000
20
0.000000
66
1
0
VERTEX
8
Layer 1
10
-0.131659
20
216.483023
70
0
0
VERTEX
8
Layer 1
10
-0.131659
20
222.482998
70
0
0
SEQEND
8
Layer 1
0
POLYLINE
8
Layer 1
62
7
70
0
10
0.000000
20
0.000000
66
1
0
VERTEX
8
Layer 1
10
-0.131659
20
222.482998
70
0
0
VERTEX
8
Layer 1
10
3.868836
20
222.482998
70
0
0
SEQEND
8
Layer 1
0
POLYLINE
8
Layer 1
62
7
70
0
10
0.000000
20
0.000000
66
1
0
VERTEX
8
Layer 1
10
3.868836
20
222.482998
70
0
0
VERTEX
8
Layer 1
10
3.868836
20
232.482992
70
0
0
SEQEND
8
Layer 1
0
POLYLINE
8
Layer 1
62
7
70
0
10
0.000000
20
0.000000
66
1
0
VERTEX
8
Layer 1
10
3.868836
20
232.482992
70
0
0
VERTEX
8
Layer 1
10
28.199889
20
232.482992
70
0
0
SEQEND
8
Layer 1
0
POLYLINE
8
Layer 1
62
7
70
0
10
0.000000
20
0.000000
66
1
0
VERTEX
8
Layer 1
10
28.199889
20
232.482992
70
0
0
VERTEX
8
Layer 1
10
28.199889
20
228.483000
70
0
0
SEQEND
8
Layer 1
0
POLYLINE
8
Layer 1
62
7
70
0
10
0.000000
20
0.000000
66
1
0
VERTEX
8
Layer 1
10
28.199889
20
228.483000
70
0
0
VERTEX
8
Layer 1
10
52.538879
20
228.483000
70
0
0
SEQEND
8
Layer 1
0
POLYLINE
8
Layer 1
62
7
70
0
10
0.000000
20
0.000000
66
1
0
VERTEX
8
Layer 1
10
52.538879
20
228.483000
70
0
0
VERTEX
8
Layer 1
10
52.538879
20
232.482992
70
0
0
SEQEND
8
Layer 1
0
POLYLINE
8
Layer 1
62
7
70
0
10
0.000000
20
0.000000
66
1
0
VERTEX
8
Layer 1
10
52.538879
20
232.482992
70
0
0
VERTEX
8
Layer 1
10
76.869932
20
232.482992
70
0
0
SEQEND
8
Layer 1
0
POLYLINE
8
Layer 1
62
7
70
0
10
0.000000
20
0.000000
66
1
0
VERTEX
8
Layer 1
10
76.869932
20
232.482992
70
0
0
VERTEX
8
Layer 1
10
76.869932
20
228.483000
70
0
0
SEQEND
8
Layer 1
0
POLYLINE
8
Layer 1
62
7
70
0
10
0.000000
20
0.000000
66
1
0
VERTEX
8
Layer 1
10
76.869932
20
228.483000
70
0
0
VERTEX
8
Layer 1
10
101.200984
20
228.483000
70
0
0
SEQEND
8
Layer 1
0
POLYLINE
8
Layer 1
62
7
70
0
10
0.000000
20
0.000000
66
1
0
VERTEX
8
Layer 1
10
101.200984
20
228.483000
70
0
0
VERTEX
8
Layer 1
10
101.200984
20
232.482992
70
0
0
SEQEND
8
Layer 1
0
POLYLINE
8
Layer 1
62
7
70
0
10
0.000000
20
0.000000
66
1
0
VERTEX
8
Layer 1
10
101.200984
20
232.482992
70
0
0
VERTEX
8
Layer 1
10
125.534683
20
232.482992
70
0
0
SEQEND
8
Layer 1
0
POLYLINE
8
Layer 1
62
7
70
0
10
0.000000
20
0.000000
66
1
0
VERTEX
8
Layer 1
10
125.534683
20
232.482992
70
0
0
VERTEX
8
Layer 1
10
125.534683
20
228.483000
70
0
0
SEQEND
8
Layer 1
0
POLYLINE
8
Layer 1
62
7
70
0
10
0.000000
20
0.000000
66
1
0
VERTEX
8
Layer 1
10
125.534683
20
228.483000
70
0
0
VERTEX
8
Layer 1
10
149.868381
20
228.483000
70
0
0
SEQEND
8
Layer 1
0
POLYLINE
8
Layer 1
62
7
70
0
10
0.000000
20
0.000000
66
1
0
VERTEX
8
Layer 1
10
149.868381
20
228.483000
70
0
0
VERTEX
8
Layer 1
10
149.868381
20
232.482992
70
0
0
SEQEND
8
Layer 1
0
POLYLINE
8
Layer 1
62
7
70
0
10
0.000000
20
0.000000
66
1
0
VERTEX
8
Layer 1
10
149.868381
20
232.482992
70
0
0
VERTEX
8
Layer 1
10
174.202080
20
232.482992
70
0
0
SEQEND
8
Layer 1
0
POLYLINE
8
Layer 1
62
7
70
0
10
0.000000
20
0.000000
66
1
0
VERTEX
8
Layer 1
10
174.202080
20
232.482992
70
0
0
VERTEX
8
Layer 1
10
174.202080
20
228.483000
70
0
0
SEQEND
8
Layer 1
0
POLYLINE
8
Layer 1
62
7
70
0
10
0.000000
20
0.000000
66
1
0
VERTEX
8
Layer 1
10
174.202080
20
228.483000
70
0
0
VERTEX
8
Layer 1
10
198.535779
20
228.483000
70
0
0
SEQEND
8
Layer 1
0
POLYLINE
8
Layer 1
62
7
70
0
10
0.000000
20
0.000000
66
1
0
VERTEX
8
Layer 1
10
198.535779
20
228.483000
70
0
0
VERTEX
8
Layer 1
10
198.535779
20
232.482992
70
0
0
SEQEND
8
Layer 1
0
POLYLINE
8
Layer 1
62
7
70
0
10
0.000000
20
0.000000
66
1
0
VERTEX
8
Layer 1
10
198.535779
20
232.482992
70
0
0
VERTEX
8
Layer 1
10
222.869477
20
232.482992
70
0
0
SEQEND
8
Layer 1
0
POLYLINE
8
Layer 1
62
7
70
0
10
0.000000
20
0.000000
66
1
0
VERTEX
8
Layer 1
10
222.869477
20
232.482992
70
0
0
VERTEX
8
Layer 1
10
222.869477
20
228.483000
70
0
0
SEQEND
8
Layer 1
0
POLYLINE
8
Layer 1
62
7
70
0
10
0.000000
20
0.000000
66
1
0
VERTEX
8
Layer 1
10
222.869477
20
228.483000
70
0
0
VERTEX
8
Layer 1
10
247.200530
20
228.483000
70
0
0
SEQEND
8
Layer 1
0
POLYLINE
8
Layer 1
62
7
70
0
10
0.000000
20
0.000000
66
1
0
VERTEX
8
Layer 1
10
247.200530
20
228.483000
70
0
0
VERTEX
8
Layer 1
10
247.200530
20
232.482992
70
0
0
SEQEND
8
Layer 1
0
POLYLINE
8
Layer 1
62
7
70
0
10
0.000000
20
0.000000
66
1
0
VERTEX
8
Layer 1
10
247.200530
20
232.482992
70
0
0
VERTEX
8
Layer 1
10
271.536874
20
232.482992
70
0
0
SEQEND
8
Layer 1
0
POLYLINE
8
Layer 1
62
7
70
0
10
0.000000
20
0.000000
66
1
0
VERTEX
8
Layer 1
10
271.536874
20
232.482992
70
0
0
VERTEX
8
Layer 1
10
271.536874
20
228.483000
70
0
0
SEQEND
8
Layer 1
0
POLYLINE
8
Layer 1
62
7
70
0
10
0.000000
20
0.000000
66
1
0
VERTEX
8
Layer 1
10
271.536874
20
228.483000
70
0
0
VERTEX
8
Layer 1
10
295.867927
20
228.483000
70
0
0
SEQEND
8
Layer 1
0
POLYLINE
8
Layer 1
62
7
70
0
10
0.000000
20
0.000000
66
1
0
VERTEX
8
Layer 1
10
295.867927
20
228.483000
70
0
0
VERTEX
8
Layer 1
10
295.867927
20
222.482998
70
0
0
SEQEND
8
Layer 1
0
POLYLINE
8
Layer 1
62
7
70
0
10
0.000000
20
0.000000
66
1
0
VERTEX
8
Layer 1
10
295.867927
20
222.482998
70
0
0
VERTEX
8
Layer 1
10
299.868422
20
222.482998
70
0
0
SEQEND
8
Layer 1
0
POLYLINE
8
Layer 1
62
7
70
0
10
0.000000
20
0.000000
66
1
0
VERTEX
8
Layer 1
10
299.868422
20
222.482998
70
0
0
VERTEX
8
Layer 1
10
299.868422
20
216.483023
70
0
0
SEQEND
8
Layer 1
0
POLYLINE
8
Layer 1
62
7
70
0
10
0.000000
20
0.000000
66
1
0
VERTEX
8
Layer 1
10
299.868422
20
216.483023
70
0
0
VERTEX
8
Layer 1
10
295.867927
20
216.483023
70
0
0
SEQEND
8
Layer 1
0
POLYLINE
8
Layer 1
62
7
70
0
10
0.000000
20
0.000000
66
1
0
VERTEX
8
Layer 1
10
29.021455
20
553.033510
70
0
0
VERTEX
8
Layer 1
10
41.188199
20
553.033510
70
0
0
SEQEND
8
Layer 1
0
POLYLINE
8
Layer 1
62
7
70
0
10
0.000000
20
0.000000
66
1
0
VERTEX
8
Layer 1
10
41.188199
20
553.033510
70
0
0
VERTEX
8
Layer 1
10
41.188199
20
549.033015
70
0
0
SEQEND
8
Layer 1
0
POLYLINE
8
Layer 1
62
7
70
0
10
0.000000
20
0.000000
66
1
0
VERTEX
8
Layer 1
10
41.188199
20
549.033015
70
0
0
VERTEX
8
Layer 1
10
53.354783
20
549.033015
70
0
0
SEQEND
8
Layer 1
0
POLYLINE
8
Layer 1
62
7
70
0
10
0.000000
20
0.000000
66
1
0
VERTEX
8
Layer 1
10
53.354783
20
549.033015
70
0
0
VERTEX
8
Layer 1
10
53.354783
20
553.033510
70
0
0
SEQEND
8
Layer 1
0
POLYLINE
8
Layer 1
62
7
70
0
10
0.000000
20
0.000000
66
1
0
VERTEX
8
Layer 1
10
53.354783
20
553.033510
70
0
0
VERTEX
8
Layer 1
10
65.521368
20
553.033510
70
0
0
SEQEND
8
Layer 1
0
POLYLINE
8
Layer 1
62
7
70
0
10
0.000000
20
0.000000
66
1
0
VERTEX
8
Layer 1
10
65.521368
20
553.033510
70
0
0
VERTEX
8
Layer 1
10
65.521368
20
549.033015
70
0
0
SEQEND
8
Layer 1
0
POLYLINE
8
Layer 1
62
7
70
0
10
0.000000
20
0.000000
66
1
0
VERTEX
8
Layer 1
10
65.521368
20
549.033015
70
0
0
VERTEX
8
Layer 1
10
77.688217
20
549.033015
70
0
0
SEQEND
8
Layer 1
0
POLYLINE
8
Layer 1
62
7
70
0
10
0.000000
20
0.000000
66
1
0
VERTEX
8
Layer 1
10
77.688217
20
549.033015
70
0
0
VERTEX
8
Layer 1
10
77.688217
20
553.033510
70
0
0
SEQEND
8
Layer 1
0
POLYLINE
8
Layer 1
62
7
70
0
10
0.000000
20
0.000000
66
1
0
VERTEX
8
Layer 1
10
77.688217
20
553.033510
70
0
0
VERTEX
8
Layer 1
10
89.854802
20
553.033510
70
0
0
SEQEND
8
Layer 1
0
POLYLINE
8
Layer 1
62
7
70
0
10
0.000000
20
0.000000
66
1
0
VERTEX
8
Layer 1
10
89.854802
20
553.033510
70
0
0
VERTEX
8
Layer 1
10
89.854802
20
549.033015
70
0
0
SEQEND
8
Layer 1
0
POLYLINE
8
Layer 1
62
7
70
0
10
0.000000
20
0.000000
66
1
0
VERTEX
8
Layer 1
10
89.854802
20
549.033015
70
0
0
VERTEX
8
Layer 1
10
102.021387
20
549.033015
70
0
0
SEQEND
8
Layer 1
0
POLYLINE
8
Layer 1
62
7
70
0
10
0.000000
20
0.000000
66
1
0
VERTEX
8
Layer 1
10
102.021387
20
549.033015
70
0
0
VERTEX
8
Layer 1
10
102.021387
20
553.033510
70
0
0
SEQEND
8
Layer 1
0
POLYLINE
8
Layer 1
62
7
70
0
10
0.000000
20
0.000000
66
1
0
VERTEX
8
Layer 1
10
102.021387
20
553.033510
70
0
0
VERTEX
8
Layer 1
10
114.187971
20
553.033510
70
0
0
SEQEND
8
Layer 1
0
POLYLINE
8
Layer 1
62
7
70
0
10
0.000000
20
0.000000
66
1
0
VERTEX
8
Layer 1
10
114.187971
20
553.033510
70
0
0
VERTEX
8
Layer 1
10
114.187971
20
549.033015
70
0
0
SEQEND
8
Layer 1
0
POLYLINE
8
Layer 1
62
7
70
0
10
0.000000
20
0.000000
66
1
0
VERTEX
8
Layer 1
10
114.187971
20
549.033015
70
0
0
VERTEX
8
Layer 1
10
126.355085
20
549.033015
70
0
0
SEQEND
8
Layer 1
0
POLYLINE
8
Layer 1
62
7
70
0
10
0.000000
20
0.000000
66
1
0
VERTEX
8
Layer 1
10
126.355085
20
549.033015
70
0
0
VERTEX
8
Layer 1
10
126.355085
20
553.033510
70
0
0
SEQEND
8
Layer 1
0
POLYLINE
8
Layer 1
62
7
70
0
10
0.000000
20
0.000000
66
1
0
VERTEX
8
Layer 1
10
126.355085
20
553.033510
70
0
0
VERTEX
8
Layer 1
10
138.521141
20
553.033510
70
0
0
SEQEND
8
Layer 1
0
POLYLINE
8
Layer 1
62
7
70
0
10
0.000000
20
0.000000
66
1
0
VERTEX
8
Layer 1
10
138.521141
20
553.033510
70
0
0
VERTEX
8
Layer 1
10
138.521141
20
549.033015
70
0
0
SEQEND
8
Layer 1
0
POLYLINE
8
Layer 1
62
7
70
0
10
0.000000
20
0.000000
66
1
0
VERTEX
8
Layer 1
10
138.521141
20
549.033015
70
0
0
VERTEX
8
Layer 1
10
150.687990
20
549.033015
70
0
0
SEQEND
8
Layer 1
0
POLYLINE
8
Layer 1
62
7
70
0
10
0.000000
20
0.000000
66
1
0
VERTEX
8
Layer 1
10
150.687990
20
549.033015
70
0
0
VERTEX
8
Layer 1
10
150.687990
20
625.031836
70
0
0
SEQEND
8
Layer 1
0
POLYLINE
8
Layer 1
62
7
70
0
10
0.000000
20
0.000000
66
1
0
VERTEX
8
Layer 1
10
150.687990
20
625.031836
70
0
0
VERTEX
8
Layer 1
10
138.521141
20
625.031836
70
0
0
SEQEND
8
Layer 1
0
POLYLINE
8
Layer 1
62
7
70
0
10
0.000000
20
0.000000
66
1
0
VERTEX
8
Layer 1
10
138.521141
20
625.031836
70
0
0
VERTEX
8
Layer 1
10
138.521141
20
629.032331
70
0
0
SEQEND
8
Layer 1
0
POLYLINE
8
Layer 1
62
7
70
0
10
0.000000
20
0.000000
66
1
0
VERTEX
8
Layer 1
10
138.521141
20
629.032331
70
0
0
VERTEX
8
Layer 1
10
126.355085
20
629.032331
70
0
0
SEQEND
8
Layer 1
0
POLYLINE
8
Layer 1
62
7
70
0
10
0.000000
20
0.000000
66
1
0
VERTEX
8
Layer 1
10
126.355085
20
629.032331
70
0
0
VERTEX
8
Layer 1
10
126.355085
20
625.031836
70
0
0
SEQEND
8
Layer 1
0
POLYLINE
8
Layer 1
62
7
70
0
10
0.000000
20
0.000000
66
1
0
VERTEX
8
Layer 1
10
126.355085
20
625.031836
70
0
0
VERTEX
8
Layer 1
10
114.187971
20
625.031836
70
0
0
SEQEND
8
Layer 1
0
POLYLINE
8
Layer 1
62
7
70
0
10
0.000000
20
0.000000
66
1
0
VERTEX
8
Layer 1
10
114.187971
20
625.031836
70
0
0
VERTEX
8
Layer 1
10
114.187971
20
629.032331
70
0
0
SEQEND
8
Layer 1
0
POLYLINE
8
Layer 1
62
7
70
0
10
0.000000
20
0.000000
66
1
0
VERTEX
8
Layer 1
10
114.187971
20
629.032331
70
0
0
VERTEX
8
Layer 1
10
102.021387
20
629.032331
70
0
0
SEQEND
8
Layer 1
0
POLYLINE
8
Layer 1
62
7
70
0
10
0.000000
20
0.000000
66
1
0
VERTEX
8
Layer 1
10
102.021387
20
629.032331
70
0
0
VERTEX
8
Layer 1
10
102.021387
20
625.031836
70
0
0
SEQEND
8
Layer 1
0
POLYLINE
8
Layer 1
62
7
70
0
10
0.000000
20
0.000000
66
1
0
VERTEX
8
Layer 1
10
102.021387
20
625.031836
70
0
0
VERTEX
8
Layer 1
10
89.854802
20
625.031836
70
0
0
SEQEND
8
Layer 1
0
POLYLINE
8
Layer 1
62
7
70
0
10
0.000000
20
0.000000
66
1
0
VERTEX
8
Layer 1
10
89.854802
20
625.031836
70
0
0
VERTEX
8
Layer 1
10
89.854802
20
629.032331
70
0
0
SEQEND
8
Layer 1
0
POLYLINE
8
Layer 1
62
7
70
0
10
0.000000
20
0.000000
66
1
0
VERTEX
8
Layer 1
10
89.854802
20
629.032331
70
0
0
VERTEX
8
Layer 1
10
77.688217
20
629.032331
70
0
0
SEQEND
8
Layer 1
0
POLYLINE
8
Layer 1
62
7
70
0
10
0.000000
20
0.000000
66
1
0
VERTEX
8
Layer 1
10
77.688217
20
629.032331
70
0
0
VERTEX
8
Layer 1
10
77.688217
20
625.031836
70
0
0
SEQEND
8
Layer 1
0
POLYLINE
8
Layer 1
62
7
70
0
10
0.000000
20
0.000000
66
1
0
VERTEX
8
Layer 1
10
77.688217
20
625.031836
70
0
0
VERTEX
8
Layer 1
10
65.521368
20
625.031836
70
0
0
SEQEND
8
Layer 1
0
POLYLINE
8
Layer 1
62
7
70
0
10
0.000000
20
0.000000
66
1
0
VERTEX
8
Layer 1
10
65.521368
20
625.031836
70
0
0
VERTEX
8
Layer 1
10
65.521368
20
629.032331
70
0
0
SEQEND
8
Layer 1
0
POLYLINE
8
Layer 1
62
7
70
0
10
0.000000
20
0.000000
66
1
0
VERTEX
8
Layer 1
10
65.521368
20
629.032331
70
0
0
VERTEX
8
Layer 1
10
53.354783
20
629.032331
70
0
0
SEQEND
8
Layer 1
0
POLYLINE
8
Layer 1
62
7
70
0
10
0.000000
20
0.000000
66
1
0
VERTEX
8
Layer 1
10
53.354783
20
629.032331
70
0
0
VERTEX
8
Layer 1
10
53.354783
20
625.031836
70
0
0
SEQEND
8
Layer 1
0
POLYLINE
8
Layer 1
62
7
70
0
10
0.000000
20
0.000000
66
1
0
VERTEX
8
Layer 1
10
53.354783
20
625.031836
70
0
0
VERTEX
8
Layer 1
10
41.188199
20
625.031836
70
0
0
SEQEND
8
Layer 1
0
POLYLINE
8
Layer 1
62
7
70
0
10
0.000000
20
0.000000
66
1
0
VERTEX
8
Layer 1
10
41.188199
20
625.031836
70
0
0
VERTEX
8
Layer 1
10
41.188199
20
629.032331
70
0
0
SEQEND
8
Layer 1
0
POLYLINE
8
Layer 1
62
7
70
0
10
0.000000
20
0.000000
66
1
0
VERTEX
8
Layer 1
10
41.188199
20
629.032331
70
0
0
VERTEX
8
Layer 1
10
29.021455
20
629.032331
70
0
0
SEQEND
8
Layer 1
0
POLYLINE
8
Layer 1
62
7
70
0
10
0.000000
20
0.000000
66
1
0
VERTEX
8
Layer 1
10
29.021455
20
629.032331
70
0
0
VERTEX
8
Layer 1
10
29.021455
20
625.031836
70
0
0
SEQEND
8
Layer 1
0
POLYLINE
8
Layer 1
62
7
70
0
10
0.000000
20
0.000000
66
1
0
VERTEX
8
Layer 1
10
29.021455
20
625.031836
70
0
0
VERTEX
8
Layer 1
10
16.854871
20
625.031836
70
0
0
SEQEND
8
Layer 1
0
POLYLINE
8
Layer 1
62
7
70
0
10
0.000000
20
0.000000
66
1
0
VERTEX
8
Layer 1
10
16.854871
20
625.031836
70
0
0
VERTEX
8
Layer 1
10
16.854871
20
629.032331
70
0
0
SEQEND
8
Layer 1
0
POLYLINE
8
Layer 1
62
7
70
0
10
0.000000
20
0.000000
66
1
0
VERTEX
8
Layer 1
10
16.854871
20
629.032331
70
0
0
VERTEX
8
Layer 1
10
0.688188
20
629.032331
70
0
0
SEQEND
8
Layer 1
0
POLYLINE
8
Layer 1
62
7
70
0
10
0.000000
20
0.000000
66
1
0
VERTEX
8
Layer 1
10
0.688188
20
629.032331
70
0
0
VERTEX
8
Layer 1
10
0.688188
20
625.031836
70
0
0
SEQEND
8
Layer 1
0
POLYLINE
8
Layer 1
62
7
70
0
10
0.000000
20
0.000000
66
1
0
VERTEX
8
Layer 1
10
0.688188
20
625.031836
70
0
0
VERTEX
8
Layer 1
10
4.688180
20
625.031836
70
0
0
SEQEND
8
Layer 1
0
POLYLINE
8
Layer 1
62
7
70
0
10
0.000000
20
0.000000
66
1
0
VERTEX
8
Layer 1
10
4.688180
20
625.031836
70
0
0
VERTEX
8
Layer 1
10
4.688180
20
619.033739
70
0
0
SEQEND
8
Layer 1
0
POLYLINE
8
Layer 1
62
7
70
0
10
0.000000
20
0.000000
66
1
0
VERTEX
8
Layer 1
10
4.688180
20
619.033739
70
0
0
VERTEX
8
Layer 1
10
0.688188
20
619.033739
70
0
0
SEQEND
8
Layer 1
0
POLYLINE
8
Layer 1
62
7
70
0
10
0.000000
20
0.000000
66
1
0
VERTEX
8
Layer 1
10
0.688188
20
619.033739
70
0
0
VERTEX
8
Layer 1
10
0.688188
20
613.032997
70
0
0
SEQEND
8
Layer 1
0
POLYLINE
8
Layer 1
62
7
70
0
10
0.000000
20
0.000000
66
1
0
VERTEX
8
Layer 1
10
0.688188
20
613.032997
70
0
0
VERTEX
8
Layer 1
10
4.688180
20
613.032997
70
0
0
SEQEND
8
Layer 1
0
POLYLINE
8
Layer 1
62
7
70
0
10
0.000000
20
0.000000
66
1
0
VERTEX
8
Layer 1
10
4.688180
20
613.032997
70
0
0
VERTEX
8
Layer 1
10
4.688180
20
607.032254
70
0
0
SEQEND
8
Layer 1
0
POLYLINE
8
Layer 1
62
7
70
0
10
0.000000
20
0.000000
66
1
0
VERTEX
8
Layer 1
10
4.688180
20
607.032254
70
0
0
VERTEX
8
Layer 1
10
0.688188
20
607.032254
70
0
0
SEQEND
8
Layer 1
0
POLYLINE
8
Layer 1
62
7
70
0
10
0.000000
20
0.000000
66
1
0
VERTEX
8
Layer 1
10
0.688188
20
607.032254
70
0
0
VERTEX
8
Layer 1
10
0.688188
20
601.031512
70
0
0
SEQEND
8
Layer 1
0
POLYLINE
8
Layer 1
62
7
70
0
10
0.000000
20
0.000000
66
1
0
VERTEX
8
Layer 1
10
0.688188
20
601.031512
70
0
0
VERTEX
8
Layer 1
10
4.688180
20
601.031512
70
0
0
SEQEND
8
Layer 1
0
POLYLINE
8
Layer 1
62
7
70
0
10
0.000000
20
0.000000
66
1
0
VERTEX
8
Layer 1
10
4.688180
20
601.031512
70
0
0
VERTEX
8
Layer 1
10
4.688180
20
595.033415
70
0
0
SEQEND
8
Layer 1
0
POLYLINE
8
Layer 1
62
7
70
0
10
0.000000
20
0.000000
66
1
0
VERTEX
8
Layer 1
10
4.688180
20
595.033415
70
0
0
VERTEX
8
Layer 1
10
0.688188
20
595.033415
70
0
0
SEQEND
8
Layer 1
0
POLYLINE
8
Layer 1
62
7
70
0
10
0.000000
20
0.000000
66
1
0
VERTEX
8
Layer 1
10
0.688188
20
595.033415
70
0
0
VERTEX
8
Layer 1
10
0.688188
20
589.032673
70
0
0
SEQEND
8
Layer 1
0
POLYLINE
8
Layer 1
62
7
70
0
10
0.000000
20
0.000000
66
1
0
VERTEX
8
Layer 1
10
0.688188
20
589.032673
70
0
0
VERTEX
8
Layer 1
10
4.688180
20
589.032673
70
0
0
SEQEND
8
Layer 1
0
POLYLINE
8
Layer 1
62
7
70
0
10
0.000000
20
0.000000
66
1
0
VERTEX
8
Layer 1
10
4.688180
20
589.032673
70
0
0
VERTEX
8
Layer 1
10
4.688180
20
583.031930
70
0
0
SEQEND
8
Layer 1
0
POLYLINE
8
Layer 1
62
7
70
0
10
0.000000
20
0.000000
66
1
0
VERTEX
8
Layer 1
10
4.688180
20
583.031930
70
0
0
VERTEX
8
Layer 1
10
0.688188
20
583.031930
70
0
0
SEQEND
8
Layer 1
0
POLYLINE
8
Layer 1
62
7
70
0
10
0.000000
20
0.000000
66
1
0
VERTEX
8
Layer 1
10
0.688188
20
583.031930
70
0
0
VERTEX
8
Layer 1
10
0.688188
20
577.031188
70
0
0
SEQEND
8
Layer 1
0
POLYLINE
8
Layer 1
62
7
70
0
10
0.000000
20
0.000000
66
1
0
VERTEX
8
Layer 1
10
0.688188
20
577.031188
70
0
0
VERTEX
8
Layer 1
10
4.688180
20
577.031188
70
0
0
SEQEND
8
Layer 1
0
POLYLINE
8
Layer 1
62
7
70
0
10
0.000000
20
0.000000
66
1
0
VERTEX
8
Layer 1
10
4.688180
20
577.031188
70
0
0
VERTEX
8
Layer 1
10
4.688180
20
571.033091
70
0
0
SEQEND
8
Layer 1
0
POLYLINE
8
Layer 1
62
7
70
0
10
0.000000
20
0.000000
66
1
0
VERTEX
8
Layer 1
10
4.688180
20
571.033091
70
0
0
VERTEX
8
Layer 1
10
0.688188
20
571.033091
70
0
0
SEQEND
8
Layer 1
0
POLYLINE
8
Layer 1
62
7
70
0
10
0.000000
20
0.000000
66
1
0
VERTEX
8
Layer 1
10
0.688188
20
571.033091
70
0
0
VERTEX
8
Layer 1
10
0.688188
20
565.032349
70
0
0
SEQEND
8
Layer 1
0
POLYLINE
8
Layer 1
62
7
70
0
10
0.000000
20
0.000000
66
1
0
VERTEX
8
Layer 1
10
0.688188
20
565.032349
70
0
0
VERTEX
8
Layer 1
10
4.688180
20
565.032349
70
0
0
SEQEND
8
Layer 1
0
POLYLINE
8
Layer 1
62
7
70
0
10
0.000000
20
0.000000
66
1
0
VERTEX
8
Layer 1
10
4.688180
20
565.032349
70
0
0
VERTEX
8
Layer 1
10
4.688180
20
559.031607
70
0
0
SEQEND
8
Layer 1
0
POLYLINE
8
Layer 1
62
7
70
0
10
0.000000
20
0.000000
66
1
0
VERTEX
8
Layer 1
10
4.688180
20
559.031607
70
0
0
VERTEX
8
Layer 1
10
0.688188
20
559.031607
70
0
0
SEQEND
8
Layer 1
0
POLYLINE
8
Layer 1
62
7
70
0
10
0.000000
20
0.000000
66
1
0
VERTEX
8
Layer 1
10
0.688188
20
559.031607
70
0
0
VERTEX
8
Layer 1
10
0.688188
20
553.033510
70
0
0
SEQEND
8
Layer 1
0
POLYLINE
8
Layer 1
62
7
70
0
10
0.000000
20
0.000000
66
1
0
VERTEX
8
Layer 1
10
0.688188
20
553.033510
70
0
0
VERTEX
8
Layer 1
10
16.854871
20
553.033510
70
0
0
SEQEND
8
Layer 1
0
POLYLINE
8
Layer 1
62
7
70
0
10
0.000000
20
0.000000
66
1
0
VERTEX
8
Layer 1
10
16.854871
20
553.033510
70
0
0
VERTEX
8
Layer 1
10
16.854871
20
549.033015
70
0
0
SEQEND
8
Layer 1
0
POLYLINE
8
Layer 1
62
7
70
0
10
0.000000
20
0.000000
66
1
0
VERTEX
8
Layer 1
10
16.854871
20
549.033015
70
0
0
VERTEX
8
Layer 1
10
29.021455
20
549.033015
70
0
0
SEQEND
8
Layer 1
0
POLYLINE
8
Layer 1
62
7
70
0
10
0.000000
20
0.000000
66
1
0
VERTEX
8
Layer 1
10
29.021455
20
549.033015
70
0
0
VERTEX
8
Layer 1
10
29.021455
20
553.033510
70
0
0
SEQEND
8
Layer 1
0
POLYLINE
8
Layer 1
62
7
70
0
10
0.000000
20
0.000000
66
1
0
VERTEX
8
Layer 1
10
142.688058
20
609.032502
70
0
0
VERTEX
8
Layer 1
10
142.688058
20
617.033492
70
0
0
SEQEND
8
Layer 1
0
POLYLINE
8
Layer 1
62
7
70
0
10
0.000000
20
0.000000
66
1
0
VERTEX
8
Layer 1
10
142.688058
20
617.033492
70
0
0
VERTEX
8
Layer 1
10
146.688024
20
617.033492
70
0
0
SEQEND
8
Layer 1
0
POLYLINE
8
Layer 1
62
7
70
0
10
0.000000
20
0.000000
66
1
0
VERTEX
8
Layer 1
10
146.688024
20
617.033492
70
0
0
VERTEX
8
Layer 1
10
146.688024
20
609.032502
70
0
0
SEQEND
8
Layer 1
0
POLYLINE
8
Layer 1
62
7
70
0
10
0.000000
20
0.000000
66
1
0
VERTEX
8
Layer 1
10
146.688024
20
609.032502
70
0
0
VERTEX
8
Layer 1
10
142.688058
20
609.032502
70
0
0
SEQEND
8
Layer 1
0
POLYLINE
8
Layer 1
62
7
70
0
10
0.000000
20
0.000000
66
1
0
VERTEX
8
Layer 1
10
142.688058
20
593.033168
70
0
0
VERTEX
8
Layer 1
10
142.688058
20
601.031512
70
0
0
SEQEND
8
Layer 1
0
POLYLINE
8
Layer 1
62
7
70
0
10
0.000000
20
0.000000
66
1
0
VERTEX
8
Layer 1
10
142.688058
20
601.031512
70
0
0
VERTEX
8
Layer 1
10
146.688024
20
601.031512
70
0
0
SEQEND
8
Layer 1
0
POLYLINE
8
Layer 1
62
7
70
0
10
0.000000
20
0.000000
66
1
0
VERTEX
8
Layer 1
10
146.688024
20
601.031512
70
0
0
VERTEX
8
Layer 1
10
146.688024
20
593.033168
70
0
0
SEQEND
8
Layer 1
0
POLYLINE
8
Layer 1
62
7
70
0
10
0.000000
20
0.000000
66
1
0
VERTEX
8
Layer 1
10
146.688024
20
593.033168
70
0
0
VERTEX
8
Layer 1
10
142.688058
20
593.033168
70
0
0
SEQEND
8
Layer 1
0
POLYLINE
8
Layer 1
62
7
70
0
10
0.000000
20
0.000000
66
1
0
VERTEX
8
Layer 1
10
142.688058
20
577.031188
70
0
0
VERTEX
8
Layer 1
10
142.688058
20
585.032178
70
0
0
SEQEND
8
Layer 1
0
POLYLINE
8
Layer 1
62
7
70
0
10
0.000000
20
0.000000
66
1
0
VERTEX
8
Layer 1
10
142.688058
20
585.032178
70
0
0
VERTEX
8
Layer 1
10
146.688024
20
585.032178
70
0
0
SEQEND
8
Layer 1
0
POLYLINE
8
Layer 1
62
7
70
0
10
0.000000
20
0.000000
66
1
0
VERTEX
8
Layer 1
10
146.688024
20
585.032178
70
0
0
VERTEX
8
Layer 1
10
146.688024
20
577.031188
70
0
0
SEQEND
8
Layer 1
0
POLYLINE
8
Layer 1
62
7
70
0
10
0.000000
20
0.000000
66
1
0
VERTEX
8
Layer 1
10
146.688024
20
577.031188
70
0
0
VERTEX
8
Layer 1
10
142.688058
20
577.031188
70
0
0
SEQEND
8
Layer 1
0
POLYLINE
8
Layer 1
62
7
70
0
10
0.000000
20
0.000000
66
1
0
VERTEX
8
Layer 1
10
142.688058
20
561.031854
70
0
0
VERTEX
8
Layer 1
10
142.688058
20
569.032844
70
0
0
SEQEND
8
Layer 1
0
POLYLINE
8
Layer 1
62
7
70
0
10
0.000000
20
0.000000
66
1
0
VERTEX
8
Layer 1
10
142.688058
20
569.032844
70
0
0
VERTEX
8
Layer 1
10
146.688024
20
569.032844
70
0
0
SEQEND
8
Layer 1
0
POLYLINE
8
Layer 1
62
7
70
0
10
0.000000
20
0.000000
66
1
0
VERTEX
8
Layer 1
10
146.688024
20
569.032844
70
0
0
VERTEX
8
Layer 1
10
146.688024
20
561.031854
70
0
0
SEQEND
8
Layer 1
0
POLYLINE
8
Layer 1
62
7
70
0
10
0.000000
20
0.000000
66
1
0
VERTEX
8
Layer 1
10
146.688024
20
561.031854
70
0
0
VERTEX
8
Layer 1
10
142.688058
20
561.031854
70
0
0
SEQEND
8
Layer 1
0
POLYLINE
8
Layer 1
62
7
70
0
10
0.000000
20
0.000000
66
1
0
VERTEX
8
Layer 1
10
97.431930
20
559.595168
70
0
0
VERTEX
8
Layer 1
10
97.178724
20
559.637502
70
0
0
SEQEND
8
Layer 1
0
POLYLINE
8
Layer 1
62
7
70
0
10
0.000000
20
0.000000
66
1
0
VERTEX
8
Layer 1
10
97.178724
20
559.637502
70
0
0
VERTEX
8
Layer 1
10
96.931074
20
559.703647
70
0
0
SEQEND
8
Layer 1
0
POLYLINE
8
Layer 1
62
7
70
0
10
0.000000
20
0.000000
66
1
0
VERTEX
8
Layer 1
10
96.931074
20
559.703647
70
0
0
VERTEX
8
Layer 1
10
96.691627
20
559.793606
70
0
0
SEQEND
8
Layer 1
0
POLYLINE
8
Layer 1
62
7
70
0
10
0.000000
20
0.000000
66
1
0
VERTEX
8
Layer 1
10
96.691627
20
559.793606
70
0
0
VERTEX
8
Layer 1
10
96.463027
20
559.910022
70
0
0
SEQEND
8
Layer 1
0
POLYLINE
8
Layer 1
62
7
70
0
10
0.000000
20
0.000000
66
1
0
VERTEX
8
Layer 1
10
96.463027
20
559.910022
70
0
0
VERTEX
8
Layer 1
10
96.247921
20
560.050251
70
0
0
SEQEND
8
Layer 1
0
POLYLINE
8
Layer 1
62
7
70
0
10
0.000000
20
0.000000
66
1
0
VERTEX
8
Layer 1
10
96.247921
20
560.050251
70
0
0
VERTEX
8
Layer 1
10
96.048690
20
560.211647
70
0
0
SEQEND
8
Layer 1
0
POLYLINE
8
Layer 1
62
7
70
0
10
0.000000
20
0.000000
66
1
0
VERTEX
8
Layer 1
10
96.048690
20
560.211647
70
0
0
VERTEX
8
Layer 1
10
95.867451
20
560.394209
70
0
0
SEQEND
8
Layer 1
0
POLYLINE
8
Layer 1
62
7
70
0
10
0.000000
20
0.000000
66
1
0
VERTEX
8
Layer 1
10
95.867451
20
560.394209
70
0
0
VERTEX
8
Layer 1
10
95.706055
20
560.592646
70
0
0
SEQEND
8
Layer 1
0
POLYLINE
8
Layer 1
62
7
70
0
10
0.000000
20
0.000000
66
1
0
VERTEX
8
Layer 1
10
95.706055
20
560.592646
70
0
0
VERTEX
8
Layer 1
10
95.566355
20
560.806958
70
0
0
SEQEND
8
Layer 1
0
POLYLINE
8
Layer 1
62
7
70
0
10
0.000000
20
0.000000
66
1
0
VERTEX
8
Layer 1
10
95.566355
20
560.806958
70
0
0
VERTEX
8
Layer 1
10
95.449939
20
561.034500
70
0
0
SEQEND
8
Layer 1
0
POLYLINE
8
Layer 1
62
7
70
0
10
0.000000
20
0.000000
66
1
0
VERTEX
8
Layer 1
10
95.449939
20
561.034500
70
0
0
VERTEX
8
Layer 1
10
95.357864
20
561.275270
70
0
0
SEQEND
8
Layer 1
0
POLYLINE
8
Layer 1
62
7
70
0
10
0.000000
20
0.000000
66
1
0
VERTEX
8
Layer 1
10
95.357864
20
561.275270
70
0
0
VERTEX
8
Layer 1
10
95.291453
20
561.523978
70
0
0
SEQEND
8
Layer 1
0
POLYLINE
8
Layer 1
62
7
70
0
10
0.000000
20
0.000000
66
1
0
VERTEX
8
Layer 1
10
95.291453
20
561.523978
70
0
0
VERTEX
8
Layer 1
10
95.251501
20
561.775332
70
0
0
SEQEND
8
Layer 1
0
POLYLINE
8
Layer 1
62
7
70
0
10
0.000000
20
0.000000
66
1
0
VERTEX
8
Layer 1
10
95.251501
20
561.775332
70
0
0
VERTEX
8
Layer 1
10
95.238008
20
562.031978
70
0
0
SEQEND
8
Layer 1
0
POLYLINE
8
Layer 1
62
7
70
0
10
0.000000
20
0.000000
66
1
0
VERTEX
8
Layer 1
10
95.238008
20
562.031978
70
0
0
VERTEX
8
Layer 1
10
95.251501
20
562.288623
70
0
0
SEQEND
8
Layer 1
0
POLYLINE
8
Layer 1
62
7
70
0
10
0.000000
20
0.000000
66
1
0
VERTEX
8
Layer 1
10
95.251501
20
562.288623
70
0
0
VERTEX
8
Layer 1
10
95.291453
20
562.542623
70
0
0
SEQEND
8
Layer 1
0
POLYLINE
8
Layer 1
62
7
70
0
10
0.000000
20
0.000000
66
1
0
VERTEX
8
Layer 1
10
95.291453
20
562.542623
70
0
0
VERTEX
8
Layer 1
10
95.357864
20
562.788685
70
0
0
SEQEND
8
Layer 1
0
POLYLINE
8
Layer 1
62
7
70
0
10
0.000000
20
0.000000
66
1
0
VERTEX
8
Layer 1
10
95.357864
20
562.788685
70
0
0
VERTEX
8
Layer 1
10
95.449939
20
563.029456
70
0
0
SEQEND
8
Layer 1
0
POLYLINE
8
Layer 1
62
7
70
0
10
0.000000
20
0.000000
66
1
0
VERTEX
8
Layer 1
10
95.449939
20
563.029456
70
0
0
VERTEX
8
Layer 1
10
95.566355
20
563.256997
70
0
0
SEQEND
8
Layer 1
0
POLYLINE
8
Layer 1
62
7
70
0
10
0.000000
20
0.000000
66
1
0
VERTEX
8
Layer 1
10
95.566355
20
563.256997
70
0
0
VERTEX
8
Layer 1
10
95.706055
20
563.471309
70
0
0
SEQEND
8
Layer 1
0
POLYLINE
8
Layer 1
62
7
70
0
10
0.000000
20
0.000000
66
1
0
VERTEX
8
Layer 1
10
95.706055
20
563.471309
70
0
0
VERTEX
8
Layer 1
10
95.867451
20
563.672392
70
0
0
SEQEND
8
Layer 1
0
POLYLINE
8
Layer 1
62
7
70
0
10
0.000000
20
0.000000
66
1
0
VERTEX
8
Layer 1
10
95.867451
20
563.672392
70
0
0
VERTEX
8
Layer 1
10
96.048690
20
563.852309
70
0
0
SEQEND
8
Layer 1
0
POLYLINE
8
Layer 1
62
7
70
0
10
0.000000
20
0.000000
66
1
0
VERTEX
8
Layer 1
10
96.048690
20
563.852309
70
0
0
VERTEX
8
Layer 1
10
96.247921
20
564.013704
70
0
0
SEQEND
8
Layer 1
0
POLYLINE
8
Layer 1
62
7
70
0
10
0.000000
20
0.000000
66
1
0
VERTEX
8
Layer 1
10
96.247921
20
564.013704
70
0
0
VERTEX
8
Layer 1
10
96.463027
20
564.153933
70
0
0
SEQEND
8
Layer 1
0
POLYLINE
8
Layer 1
62
7
70
0
10
0.000000
20
0.000000
66
1
0
VERTEX
8
Layer 1
10
96.463027
20
564.153933
70
0
0
VERTEX
8
Layer 1
10
96.691627
20
564.270350
70
0
0
SEQEND
8
Layer 1
0
POLYLINE
8
Layer 1
62
7
70
0
10
0.000000
20
0.000000
66
1
0
VERTEX
8
Layer 1
10
96.691627
20
564.270350
70
0
0
VERTEX
8
Layer 1
10
96.931074
20
564.362954
70
0
0
SEQEND
8
Layer 1
0
POLYLINE
8
Layer 1
62
7
70
0
10
0.000000
20
0.000000
66
1
0
VERTEX
8
Layer 1
10
96.931074
20
564.362954
70
0
0
VERTEX
8
Layer 1
10
97.178724
20
564.429100
70
0
0
SEQEND
8
Layer 1
0
POLYLINE
8
Layer 1
62
7
70
0
10
0.000000
20
0.000000
66
1
0
VERTEX
8
Layer 1
10
97.178724
20
564.429100
70
0
0
VERTEX
8
Layer 1
10
97.431930
20
564.468787
70
0
0
SEQEND
8
Layer 1
0
POLYLINE
8
Layer 1
62
7
70
0
10
0.000000
20
0.000000
66
1
0
VERTEX
8
Layer 1
10
97.431930
20
564.468787
70
0
0
VERTEX
8
Layer 1
10
97.688046
20
564.482016
70
0
0
SEQEND
8
Layer 1
0
POLYLINE
8
Layer 1
62
7
70
0
10
0.000000
20
0.000000
66
1
0
VERTEX
8
Layer 1
10
97.688046
20
564.482016
70
0
0
VERTEX
8
Layer 1
10
97.944163
20
564.468787
70
0
0
SEQEND
8
Layer 1
0
POLYLINE
8
Layer 1
62
7
70
0
10
0.000000
20
0.000000
66
1
0
VERTEX
8
Layer 1
10
97.944163
20
564.468787
70
0
0
VERTEX
8
Layer 1
10
98.197368
20
564.429100
70
0
0
SEQEND
8
Layer 1
0
POLYLINE
8
Layer 1
62
7
70
0
10
0.000000
20
0.000000
66
1
0
VERTEX
8
Layer 1
10
98.197368
20
564.429100
70
0
0
VERTEX
8
Layer 1
10
98.445283
20
564.362954
70
0
0
SEQEND
8
Layer 1
0
POLYLINE
8
Layer 1
62
7
70
0
10
0.000000
20
0.000000
66
1
0
VERTEX
8
Layer 1
10
98.445283
20
564.362954
70
0
0
VERTEX
8
Layer 1
10
98.684466
20
564.270350
70
0
0
SEQEND
8
Layer 1
0
POLYLINE
8
Layer 1
62
7
70
0
10
0.000000
20
0.000000
66
1
0
VERTEX
8
Layer 1
10
98.684466
20
564.270350
70
0
0
VERTEX
8
Layer 1
10
98.913065
20
564.153933
70
0
0
SEQEND
8
Layer 1
0
POLYLINE
8
Layer 1
62
7
70
0
10
0.000000
20
0.000000
66
1
0
VERTEX
8
Layer 1
10
98.913065
20
564.153933
70
0
0
VERTEX
8
Layer 1
10
99.128171
20
564.013704
70
0
0
SEQEND
8
Layer 1
0
POLYLINE
8
Layer 1
62
7
70
0
10
0.000000
20
0.000000
66
1
0
VERTEX
8
Layer 1
10
99.128171
20
564.013704
70
0
0
VERTEX
8
Layer 1
10
99.327402
20
563.852309
70
0
0
SEQEND
8
Layer 1
0
POLYLINE
8
Layer 1
62
7
70
0
10
0.000000
20
0.000000
66
1
0
VERTEX
8
Layer 1
10
99.327402
20
563.852309
70
0
0
VERTEX
8
Layer 1
10
99.508642
20
563.672392
70
0
0
SEQEND
8
Layer 1
0
POLYLINE
8
Layer 1
62
7
70
0
10
0.000000
20
0.000000
66
1
0
VERTEX
8
Layer 1
10
99.508642
20
563.672392
70
0
0
VERTEX
8
Layer 1
10
99.670037
20
563.471309
70
0
0
SEQEND
8
Layer 1
0
POLYLINE
8
Layer 1
62
7
70
0
10
0.000000
20
0.000000
66
1
0
VERTEX
8
Layer 1
10
99.670037
20
563.471309
70
0
0
VERTEX
8
Layer 1
10
99.809737
20
563.256997
70
0
0
SEQEND
8
Layer 1
0
POLYLINE
8
Layer 1
62
7
70
0
10
0.000000
20
0.000000
66
1
0
VERTEX
8
Layer 1
10
99.809737
20
563.256997
70
0
0
VERTEX
8
Layer 1
10
99.926154
20
563.029456
70
0
0
SEQEND
8
Layer 1
0
POLYLINE
8
Layer 1
62
7
70
0
10
0.000000
20
0.000000
66
1
0
VERTEX
8
Layer 1
10
99.926154
20
563.029456
70
0
0
VERTEX
8
Layer 1
10
100.018229
20
562.788685
70
0
0
SEQEND
8
Layer 1
0
POLYLINE
8
Layer 1
62
7
70
0
10
0.000000
20
0.000000
66
1
0
VERTEX
8
Layer 1
10
100.018229
20
562.788685
70
0
0
VERTEX
8
Layer 1
10
100.084639
20
562.542623
70
0
0
SEQEND
8
Layer 1
0
POLYLINE
8
Layer 1
62
7
70
0
10
0.000000
20
0.000000
66
1
0
VERTEX
8
Layer 1
10
100.084639
20
562.542623
70
0
0
VERTEX
8
Layer 1
10
100.124591
20
562.288623
70
0
0
SEQEND
8
Layer 1
0
POLYLINE
8
Layer 1
62
7
70
0
10
0.000000
20
0.000000
66
1
0
VERTEX
8
Layer 1
10
100.124591
20
562.288623
70
0
0
VERTEX
8
Layer 1
10
100.138085
20
562.031978
70
0
0
SEQEND
8
Layer 1
0
POLYLINE
8
Layer 1
62
7
70
0
10
0.000000
20
0.000000
66
1
0
VERTEX
8
Layer 1
10
100.138085
20
562.031978
70
0
0
VERTEX
8
Layer 1
10
100.124591
20
561.775332
70
0
0
SEQEND
8
Layer 1
0
POLYLINE
8
Layer 1
62
7
70
0
10
0.000000
20
0.000000
66
1
0
VERTEX
8
Layer 1
10
100.124591
20
561.775332
70
0
0
VERTEX
8
Layer 1
10
100.084639
20
561.523978
70
0
0
SEQEND
8
Layer 1
0
POLYLINE
8
Layer 1
62
7
70
0
10
0.000000
20
0.000000
66
1
0
VERTEX
8
Layer 1
10
100.084639
20
561.523978
70
0
0
VERTEX
8
Layer 1
10
100.018229
20
561.275270
70
0
0
SEQEND
8
Layer 1
0
POLYLINE
8
Layer 1
62
7
70
0
10
0.000000
20
0.000000
66
1
0
VERTEX
8
Layer 1
10
100.018229
20
561.275270
70
0
0
VERTEX
8
Layer 1
10
99.926154
20
561.034500
70
0
0
SEQEND
8
Layer 1
0
POLYLINE
8
Layer 1
62
7
70
0
10
0.000000
20
0.000000
66
1
0
VERTEX
8
Layer 1
10
99.926154
20
561.034500
70
0
0
VERTEX
8
Layer 1
10
99.809737
20
560.806958
70
0
0
SEQEND
8
Layer 1
0
POLYLINE
8
Layer 1
62
7
70
0
10
0.000000
20
0.000000
66
1
0
VERTEX
8
Layer 1
10
99.809737
20
560.806958
70
0
0
VERTEX
8
Layer 1
10
99.670037
20
560.592646
70
0
0
SEQEND
8
Layer 1
0
POLYLINE
8
Layer 1
62
7
70
0
10
0.000000
20
0.000000
66
1
0
VERTEX
8
Layer 1
10
99.670037
20
560.592646
70
0
0
VERTEX
8
Layer 1
10
99.508642
20
560.394209
70
0
0
SEQEND
8
Layer 1
0
POLYLINE
8
Layer 1
62
7
70
0
10
0.000000
20
0.000000
66
1
0
VERTEX
8
Layer 1
10
99.508642
20
560.394209
70
0
0
VERTEX
8
Layer 1
10
99.327402
20
560.211647
70
0
0
SEQEND
8
Layer 1
0
POLYLINE
8
Layer 1
62
7
70
0
10
0.000000
20
0.000000
66
1
0
VERTEX
8
Layer 1
10
99.327402
20
560.211647
70
0
0
VERTEX
8
Layer 1
10
99.128171
20
560.050251
70
0
0
SEQEND
8
Layer 1
0
POLYLINE
8
Layer 1
62
7
70
0
10
0.000000
20
0.000000
66
1
0
VERTEX
8
Layer 1
10
99.128171
20
560.050251
70
0
0
VERTEX
8
Layer 1
10
98.913065
20
559.910022
70
0
0
SEQEND
8
Layer 1
0
POLYLINE
8
Layer 1
62
7
70
0
10
0.000000
20
0.000000
66
1
0
VERTEX
8
Layer 1
10
98.913065
20
559.910022
70
0
0
VERTEX
8
Layer 1
10
98.684466
20
559.793606
70
0
0
SEQEND
8
Layer 1
0
POLYLINE
8
Layer 1
62
7
70
0
10
0.000000
20
0.000000
66
1
0
VERTEX
8
Layer 1
10
98.684466
20
559.793606
70
0
0
VERTEX
8
Layer 1
10
98.445283
20
559.703647
70
0
0
SEQEND
8
Layer 1
0
POLYLINE
8
Layer 1
62
7
70
0
10
0.000000
20
0.000000
66
1
0
VERTEX
8
Layer 1
10
98.445283
20
559.703647
70
0
0
VERTEX
8
Layer 1
10
98.197368
20
559.637502
70
0
0
SEQEND
8
Layer 1
0
POLYLINE
8
Layer 1
62
7
70
0
10
0.000000
20
0.000000
66
1
0
VERTEX
8
Layer 1
10
98.197368
20
559.637502
70
0
0
VERTEX
8
Layer 1
10
97.944163
20
559.595168
70
0
0
SEQEND
8
Layer 1
0
POLYLINE
8
Layer 1
62
7
70
0
10
0.000000
20
0.000000
66
1
0
VERTEX
8
Layer 1
10
97.944163
20
559.595168
70
0
0
VERTEX
8
Layer 1
10
97.688046
20
559.581939
70
0
0
SEQEND
8
Layer 1
0
POLYLINE
8
Layer 1
62
7
70
0
10
0.000000
20
0.000000
66
1
0
VERTEX
8
Layer 1
10
97.688046
20
559.581939
70
0
0
VERTEX
8
Layer 1
10
97.431930
20
559.595168
70
0
0
SEQEND
8
Layer 1
0
POLYLINE
8
Layer 1
62
7
70
0
10
0.000000
20
0.000000
66
1
0
VERTEX
8
Layer 1
10
171.846691
20
551.972301
70
0
0
VERTEX
8
Layer 1
10
184.013275
20
551.972301
70
0
0
SEQEND
8
Layer 1
0
POLYLINE
8
Layer 1
62
7
70
0
10
0.000000
20
0.000000
66
1
0
VERTEX
8
Layer 1
10
184.013275
20
551.972301
70
0
0
VERTEX
8
Layer 1
10
184.013275
20
547.974452
70
0
0
SEQEND
8
Layer 1
0
POLYLINE
8
Layer 1
62
7
70
0
10
0.000000
20
0.000000
66
1
0
VERTEX
8
Layer 1
10
184.013275
20
547.974452
70
0
0
VERTEX
8
Layer 1
10
196.180019
20
547.974452
70
0
0
SEQEND
8
Layer 1
0
POLYLINE
8
Layer 1
62
7
70
0
10
0.000000
20
0.000000
66
1
0
VERTEX
8
Layer 1
10
196.180019
20
547.974452
70
0
0
VERTEX
8
Layer 1
10
196.180019
20
551.972301
70
0
0
SEQEND
8
Layer 1
0
POLYLINE
8
Layer 1
62
7
70
0
10
0.000000
20
0.000000
66
1
0
VERTEX
8
Layer 1
10
196.180019
20
551.972301
70
0
0
VERTEX
8
Layer 1
10
208.346603
20
551.972301
70
0
0
SEQEND
8
Layer 1
0
POLYLINE
8
Layer 1
62
7
70
0
10
0.000000
20
0.000000
66
1
0
VERTEX
8
Layer 1
10
208.346603
20
551.972301
70
0
0
VERTEX
8
Layer 1
10
208.346603
20
547.974452
70
0
0
SEQEND
8
Layer 1
0
POLYLINE
8
Layer 1
62
7
70
0
10
0.000000
20
0.000000
66
1
0
VERTEX
8
Layer 1
10
208.346603
20
547.974452
70
0
0
VERTEX
8
Layer 1
10
220.513188
20
547.974452
70
0
0
SEQEND
8
Layer 1
0
POLYLINE
8
Layer 1
62
7
70
0
10
0.000000
20
0.000000
66
1
0
VERTEX
8
Layer 1
10
220.513188
20
547.974452
70
0
0
VERTEX
8
Layer 1
10
220.513188
20
551.972301
70
0
0
SEQEND
8
Layer 1
0
POLYLINE
8
Layer 1
62
7
70
0
10
0.000000
20
0.000000
66
1
0
VERTEX
8
Layer 1
10
220.513188
20
551.972301
70
0
0
VERTEX
8
Layer 1
10
232.680037
20
551.972301
70
0
0
SEQEND
8
Layer 1
0
POLYLINE
8
Layer 1
62
7
70
0
10
0.000000
20
0.000000
66
1
0
VERTEX
8
Layer 1
10
232.680037
20
551.972301
70
0
0
VERTEX
8
Layer 1
10
232.680037
20
547.974452
70
0
0
SEQEND
8
Layer 1
0
POLYLINE
8
Layer 1
62
7
70
0
10
0.000000
20
0.000000
66
1
0
VERTEX
8
Layer 1
10
232.680037
20
547.974452
70
0
0
VERTEX
8
Layer 1
10
244.846622
20
547.974452
70
0
0
SEQEND
8
Layer 1
0
POLYLINE
8
Layer 1
62
7
70
0
10
0.000000
20
0.000000
66
1
0
VERTEX
8
Layer 1
10
244.846622
20
547.974452
70
0
0
VERTEX
8
Layer 1
10
244.846622
20
551.972301
70
0
0
SEQEND
8
Layer 1
0
POLYLINE
8
Layer 1
62
7
70
0
10
0.000000
20
0.000000
66
1
0
VERTEX
8
Layer 1
10
244.846622
20
551.972301
70
0
0
VERTEX
8
Layer 1
10
257.013207
20
551.972301
70
0
0
SEQEND
8
Layer 1
0
POLYLINE
8
Layer 1
62
7
70
0
10
0.000000
20
0.000000
66
1
0
VERTEX
8
Layer 1
10
257.013207
20
551.972301
70
0
0
VERTEX
8
Layer 1
10
257.013207
20
547.974452
70
0
0
SEQEND
8
Layer 1
0
POLYLINE
8
Layer 1
62
7
70
0
10
0.000000
20
0.000000
66
1
0
VERTEX
8
Layer 1
10
257.013207
20
547.974452
70
0
0
VERTEX
8
Layer 1
10
269.179791
20
547.974452
70
0
0
SEQEND
8
Layer 1
0
POLYLINE
8
Layer 1
62
7
70
0
10
0.000000
20
0.000000
66
1
0
VERTEX
8
Layer 1
10
269.179791
20
547.974452
70
0
0
VERTEX
8
Layer 1
10
269.179791
20
551.972301
70
0
0
SEQEND
8
Layer 1
0
POLYLINE
8
Layer 1
62
7
70
0
10
0.000000
20
0.000000
66
1
0
VERTEX
8
Layer 1
10
269.179791
20
551.972301
70
0
0
VERTEX
8
Layer 1
10
281.346905
20
551.972301
70
0
0
SEQEND
8
Layer 1
0
POLYLINE
8
Layer 1
62
7
70
0
10
0.000000
20
0.000000
66
1
0
VERTEX
8
Layer 1
10
281.346905
20
551.972301
70
0
0
VERTEX
8
Layer 1
10
281.346905
20
547.974452
70
0
0
SEQEND
8
Layer 1
0
POLYLINE
8
Layer 1
62
7
70
0
10
0.000000
20
0.000000
66
1
0
VERTEX
8
Layer 1
10
281.346905
20
547.974452
70
0
0
VERTEX
8
Layer 1
10
293.512961
20
547.974452
70
0
0
SEQEND
8
Layer 1
0
POLYLINE
8
Layer 1
62
7
70
0
10
0.000000
20
0.000000
66
1
0
VERTEX
8
Layer 1
10
293.512961
20
547.974452
70
0
0
VERTEX
8
Layer 1
10
293.512961
20
551.972301
70
0
0
SEQEND
8
Layer 1
0
POLYLINE
8
Layer 1
62
7
70
0
10
0.000000
20
0.000000
66
1
0
VERTEX
8
Layer 1
10
293.512961
20
551.972301
70
0
0
VERTEX
8
Layer 1
10
305.679810
20
551.972301
70
0
0
SEQEND
8
Layer 1
0
POLYLINE
8
Layer 1
62
7
70
0
10
0.000000
20
0.000000
66
1
0
VERTEX
8
Layer 1
10
305.679810
20
551.972301
70
0
0
VERTEX
8
Layer 1
10
305.679810
20
623.973273
70
0
0
SEQEND
8
Layer 1
0
POLYLINE
8
Layer 1
62
7
70
0
10
0.000000
20
0.000000
66
1
0
VERTEX
8
Layer 1
10
305.679810
20
623.973273
70
0
0
VERTEX
8
Layer 1
10
293.512961
20
623.973273
70
0
0
SEQEND
8
Layer 1
0
POLYLINE
8
Layer 1
62
7
70
0
10
0.000000
20
0.000000
66
1
0
VERTEX
8
Layer 1
10
293.512961
20
623.973273
70
0
0
VERTEX
8
Layer 1
10
293.512961
20
627.973767
70
0
0
SEQEND
8
Layer 1
0
POLYLINE
8
Layer 1
62
7
70
0
10
0.000000
20
0.000000
66
1
0
VERTEX
8
Layer 1
10
293.512961
20
627.973767
70
0
0
VERTEX
8
Layer 1
10
281.346905
20
627.973767
70
0
0
SEQEND
8
Layer 1
0
POLYLINE
8
Layer 1
62
7
70
0
10
0.000000
20
0.000000
66
1
0
VERTEX
8
Layer 1
10
281.346905
20
627.973767
70
0
0
VERTEX
8
Layer 1
10
281.346905
20
623.973273
70
0
0
SEQEND
8
Layer 1
0
POLYLINE
8
Layer 1
62
7
70
0
10
0.000000
20
0.000000
66
1
0
VERTEX
8
Layer 1
10
281.346905
20
623.973273
70
0
0
VERTEX
8
Layer 1
10
269.179791
20
623.973273
70
0
0
SEQEND
8
Layer 1
0
POLYLINE
8
Layer 1
62
7
70
0
10
0.000000
20
0.000000
66
1
0
VERTEX
8
Layer 1
10
269.179791
20
623.973273
70
0
0
VERTEX
8
Layer 1
10
269.179791
20
627.973767
70
0
0
SEQEND
8
Layer 1
0
POLYLINE
8
Layer 1
62
7
70
0
10
0.000000
20
0.000000
66
1
0
VERTEX
8
Layer 1
10
269.179791
20
627.973767
70
0
0
VERTEX
8
Layer 1
10
257.013207
20
627.973767
70
0
0
SEQEND
8
Layer 1
0
POLYLINE
8
Layer 1
62
7
70
0
10
0.000000
20
0.000000
66
1
0
VERTEX
8
Layer 1
10
257.013207
20
627.973767
70
0
0
VERTEX
8
Layer 1
10
257.013207
20
623.973273
70
0
0
SEQEND
8
Layer 1
0
POLYLINE
8
Layer 1
62
7
70
0
10
0.000000
20
0.000000
66
1
0
VERTEX
8
Layer 1
10
257.013207
20
623.973273
70
0
0
VERTEX
8
Layer 1
10
244.846622
20
623.973273
70
0
0
SEQEND
8
Layer 1
0
POLYLINE
8
Layer 1
62
7
70
0
10
0.000000
20
0.000000
66
1
0
VERTEX
8
Layer 1
10
244.846622
20
623.973273
70
0
0
VERTEX
8
Layer 1
10
244.846622
20
627.973767
70
0
0
SEQEND
8
Layer 1
0
POLYLINE
8
Layer 1
62
7
70
0
10
0.000000
20
0.000000
66
1
0
VERTEX
8
Layer 1
10
244.846622
20
627.973767
70
0
0
VERTEX
8
Layer 1
10
232.680037
20
627.973767
70
0
0
SEQEND
8
Layer 1
0
POLYLINE
8
Layer 1
62
7
70
0
10
0.000000
20
0.000000
66
1
0
VERTEX
8
Layer 1
10
232.680037
20
627.973767
70
0
0
VERTEX
8
Layer 1
10
232.680037
20
623.973273
70
0
0
SEQEND
8
Layer 1
0
POLYLINE
8
Layer 1
62
7
70
0
10
0.000000
20
0.000000
66
1
0
VERTEX
8
Layer 1
10
232.680037
20
623.973273
70
0
0
VERTEX
8
Layer 1
10
220.513188
20
623.973273
70
0
0
SEQEND
8
Layer 1
0
POLYLINE
8
Layer 1
62
7
70
0
10
0.000000
20
0.000000
66
1
0
VERTEX
8
Layer 1
10
220.513188
20
623.973273
70
0
0
VERTEX
8
Layer 1
10
220.513188
20
627.973767
70
0
0
SEQEND
8
Layer 1
0
POLYLINE
8
Layer 1
62
7
70
0
10
0.000000
20
0.000000
66
1
0
VERTEX
8
Layer 1
10
220.513188
20
627.973767
70
0
0
VERTEX
8
Layer 1
10
208.346603
20
627.973767
70
0
0
SEQEND
8
Layer 1
0
POLYLINE
8
Layer 1
62
7
70
0
10
0.000000
20
0.000000
66
1
0
VERTEX
8
Layer 1
10
208.346603
20
627.973767
70
0
0
VERTEX
8
Layer 1
10
208.346603
20
623.973273
70
0
0
SEQEND
8
Layer 1
0
POLYLINE
8
Layer 1
62
7
70
0
10
0.000000
20
0.000000
66
1
0
VERTEX
8
Layer 1
10
208.346603
20
623.973273
70
0
0
VERTEX
8
Layer 1
10
196.180019
20
623.973273
70
0
0
SEQEND
8
Layer 1
0
POLYLINE
8
Layer 1
62
7
70
0
10
0.000000
20
0.000000
66
1
0
VERTEX
8
Layer 1
10
196.180019
20
623.973273
70
0
0
VERTEX
8
Layer 1
10
196.180019
20
627.973767
70
0
0
SEQEND
8
Layer 1
0
POLYLINE
8
Layer 1
62
7
70
0
10
0.000000
20
0.000000
66
1
0
VERTEX
8
Layer 1
10
196.180019
20
627.973767
70
0
0
VERTEX
8
Layer 1
10
184.013275
20
627.973767
70
0
0
SEQEND
8
Layer 1
0
POLYLINE
8
Layer 1
62
7
70
0
10
0.000000
20
0.000000
66
1
0
VERTEX
8
Layer 1
10
184.013275
20
627.973767
70
0
0
VERTEX
8
Layer 1
10
184.013275
20
623.973273
70
0
0
SEQEND
8
Layer 1
0
POLYLINE
8
Layer 1
62
7
70
0
10
0.000000
20
0.000000
66
1
0
VERTEX
8
Layer 1
10
184.013275
20
623.973273
70
0
0
VERTEX
8
Layer 1
10
171.846691
20
623.973273
70
0
0
SEQEND
8
Layer 1
0
POLYLINE
8
Layer 1
62
7
70
0
10
0.000000
20
0.000000
66
1
0
VERTEX
8
Layer 1
10
171.846691
20
623.973273
70
0
0
VERTEX
8
Layer 1
10
171.846691
20
627.973767
70
0
0
SEQEND
8
Layer 1
0
POLYLINE
8
Layer 1
62
7
70
0
10
0.000000
20
0.000000
66
1
0
VERTEX
8
Layer 1
10
171.846691
20
627.973767
70
0
0
VERTEX
8
Layer 1
10
159.680000
20
627.973767
70
0
0
SEQEND
8
Layer 1
0
POLYLINE
8
Layer 1
62
7
70
0
10
0.000000
20
0.000000
66
1
0
VERTEX
8
Layer 1
10
159.680000
20
627.973767
70
0
0
VERTEX
8
Layer 1
10
159.680000
20
617.972530
70
0
0
SEQEND
8
Layer 1
0
POLYLINE
8
Layer 1
62
7
70
0
10
0.000000
20
0.000000
66
1
0
VERTEX
8
Layer 1
10
159.680000
20
617.972530
70
0
0
VERTEX
8
Layer 1
10
155.680008
20
617.972530
70
0
0
SEQEND
8
Layer 1
0
POLYLINE
8
Layer 1
62
7
70
0
10
0.000000
20
0.000000
66
1
0
VERTEX
8
Layer 1
10
155.680008
20
617.972530
70
0
0
VERTEX
8
Layer 1
10
155.680008
20
611.974433
70
0
0
SEQEND
8
Layer 1
0
POLYLINE
8
Layer 1
62
7
70
0
10
0.000000
20
0.000000
66
1
0
VERTEX
8
Layer 1
10
155.680008
20
611.974433
70
0
0
VERTEX
8
Layer 1
10
159.680000
20
611.974433
70
0
0
SEQEND
8
Layer 1
0
POLYLINE
8
Layer 1
62
7
70
0
10
0.000000
20
0.000000
66
1
0
VERTEX
8
Layer 1
10
159.680000
20
611.974433
70
0
0
VERTEX
8
Layer 1
10
159.680000
20
605.973691
70
0
0
SEQEND
8
Layer 1
0
POLYLINE
8
Layer 1
62
7
70
0
10
0.000000
20
0.000000
66
1
0
VERTEX
8
Layer 1
10
159.680000
20
605.973691
70
0
0
VERTEX
8
Layer 1
10
155.680008
20
605.973691
70
0
0
SEQEND
8
Layer 1
0
POLYLINE
8
Layer 1
62
7
70
0
10
0.000000
20
0.000000
66
1
0
VERTEX
8
Layer 1
10
155.680008
20
605.973691
70
0
0
VERTEX
8
Layer 1
10
155.680008
20
599.972949
70
0
0
SEQEND
8
Layer 1
0
POLYLINE
8
Layer 1
62
7
70
0
10
0.000000
20
0.000000
66
1
0
VERTEX
8
Layer 1
10
155.680008
20
599.972949
70
0
0
VERTEX
8
Layer 1
10
159.680000
20
599.972949
70
0
0
SEQEND
8
Layer 1
0
POLYLINE
8
Layer 1
62
7
70
0
10
0.000000
20
0.000000
66
1
0
VERTEX
8
Layer 1
10
159.680000
20
599.972949
70
0
0
VERTEX
8
Layer 1
10
159.680000
20
593.974852
70
0
0
SEQEND
8
Layer 1
0
POLYLINE
8
Layer 1
62
7
70
0
10
0.000000
20
0.000000
66
1
0
VERTEX
8
Layer 1
10
159.680000
20
593.974852
70
0
0
VERTEX
8
Layer 1
10
155.680008
20
593.974852
70
0
0
SEQEND
8
Layer 1
0
POLYLINE
8
Layer 1
62
7
70
0
10
0.000000
20
0.000000
66
1
0
VERTEX
8
Layer 1
10
155.680008
20
593.974852
70
0
0
VERTEX
8
Layer 1
10
155.680008
20
587.974110
70
0
0
SEQEND
8
Layer 1
0
POLYLINE
8
Layer 1
62
7
70
0
10
0.000000
20
0.000000
66
1
0
VERTEX
8
Layer 1
10
155.680008
20
587.974110
70
0
0
VERTEX
8
Layer 1
10
159.680000
20
587.974110
70
0
0
SEQEND
8
Layer 1
0
POLYLINE
8
Layer 1
62
7
70
0
10
0.000000
20
0.000000
66
1
0
VERTEX
8
Layer 1
10
159.680000
20
587.974110
70
0
0
VERTEX
8
Layer 1
10
159.680000
20
581.973367
70
0
0
SEQEND
8
Layer 1
0
POLYLINE
8
Layer 1
62
7
70
0
10
0.000000
20
0.000000
66
1
0
VERTEX
8
Layer 1
10
159.680000
20
581.973367
70
0
0
VERTEX
8
Layer 1
10
155.680008
20
581.973367
70
0
0
SEQEND
8
Layer 1
0
POLYLINE
8
Layer 1
62
7
70
0
10
0.000000
20
0.000000
66
1
0
VERTEX
8
Layer 1
10
155.680008
20
581.973367
70
0
0
VERTEX
8
Layer 1
10
155.680008
20
575.972625
70
0
0
SEQEND
8
Layer 1
0
POLYLINE
8
Layer 1
62
7
70
0
10
0.000000
20
0.000000
66
1
0
VERTEX
8
Layer 1
10
155.680008
20
575.972625
70
0
0
VERTEX
8
Layer 1
10
159.680000
20
575.972625
70
0
0
SEQEND
8
Layer 1
0
POLYLINE
8
Layer 1
62
7
70
0
10
0.000000
20
0.000000
66
1
0
VERTEX
8
Layer 1
10
159.680000
20
575.972625
70
0
0
VERTEX
8
Layer 1
10
159.680000
20
569.974528
70
0
0
SEQEND
8
Layer 1
0
POLYLINE
8
Layer 1
62
7
70
0
10
0.000000
20
0.000000
66
1
0
VERTEX
8
Layer 1
10
159.680000
20
569.974528
70
0
0
VERTEX
8
Layer 1
10
155.680008
20
569.974528
70
0
0
SEQEND
8
Layer 1
0
POLYLINE
8
Layer 1
62
7
70
0
10
0.000000
20
0.000000
66
1
0
VERTEX
8
Layer 1
10
155.680008
20
569.974528
70
0
0
VERTEX
8
Layer 1
10
155.680008
20
563.973786
70
0
0
SEQEND
8
Layer 1
0
POLYLINE
8
Layer 1
62
7
70
0
10
0.000000
20
0.000000
66
1
0
VERTEX
8
Layer 1
10
155.680008
20
563.973786
70
0
0
VERTEX
8
Layer 1
10
159.680000
20
563.973786
70
0
0
SEQEND
8
Layer 1
0
POLYLINE
8
Layer 1
62
7
70
0
10
0.000000
20
0.000000
66
1
0
VERTEX
8
Layer 1
10
159.680000
20
563.973786
70
0
0
VERTEX
8
Layer 1
10
159.680000
20
557.973043
70
0
0
SEQEND
8
Layer 1
0
POLYLINE
8
Layer 1
62
7
70
0
10
0.000000
20
0.000000
66
1
0
VERTEX
8
Layer 1
10
159.680000
20
557.973043
70
0
0
VERTEX
8
Layer 1
10
155.680008
20
557.973043
70
0
0
SEQEND
8
Layer 1
0
POLYLINE
8
Layer 1
62
7
70
0
10
0.000000
20
0.000000
66
1
0
VERTEX
8
Layer 1
10
155.680008
20
557.973043
70
0
0
VERTEX
8
Layer 1
10
155.680008
20
551.972301
70
0
0
SEQEND
8
Layer 1
0
POLYLINE
8
Layer 1
62
7
70
0
10
0.000000
20
0.000000
66
1
0
VERTEX
8
Layer 1
10
155.680008
20
551.972301
70
0
0
VERTEX
8
Layer 1
10
159.680000
20
551.972301
70
0
0
SEQEND
8
Layer 1
0
POLYLINE
8
Layer 1
62
7
70
0
10
0.000000
20
0.000000
66
1
0
VERTEX
8
Layer 1
10
159.680000
20
551.972301
70
0
0
VERTEX
8
Layer 1
10
159.680000
20
547.974452
70
0
0
SEQEND
8
Layer 1
0
POLYLINE
8
Layer 1
62
7
70
0
10
0.000000
20
0.000000
66
1
0
VERTEX
8
Layer 1
10
159.680000
20
547.974452
70
0
0
VERTEX
8
Layer 1
10
171.846691
20
547.974452
70
0
0
SEQEND
8
Layer 1
0
POLYLINE
8
Layer 1
62
7
70
0
10
0.000000
20
0.000000
66
1
0
VERTEX
8
Layer 1
10
171.846691
20
547.974452
70
0
0
VERTEX
8
Layer 1
10
171.846691
20
551.972301
70
0
0
SEQEND
8
Layer 1
0
POLYLINE
8
Layer 1
62
7
70
0
10
0.000000
20
0.000000
66
1
0
VERTEX
8
Layer 1
10
297.679878
20
607.973939
70
0
0
VERTEX
8
Layer 1
10
297.679878
20
615.972283
70
0
0
SEQEND
8
Layer 1
0
POLYLINE
8
Layer 1
62
7
70
0
10
0.000000
20
0.000000
66
1
0
VERTEX
8
Layer 1
10
297.679878
20
615.972283
70
0
0
VERTEX
8
Layer 1
10
301.679844
20
615.972283
70
0
0
SEQEND
8
Layer 1
0
POLYLINE
8
Layer 1
62
7
70
0
10
0.000000
20
0.000000
66
1
0
VERTEX
8
Layer 1
10
301.679844
20
615.972283
70
0
0
VERTEX
8
Layer 1
10
301.679844
20
607.973939
70
0
0
SEQEND
8
Layer 1
0
POLYLINE
8
Layer 1
62
7
70
0
10
0.000000
20
0.000000
66
1
0
VERTEX
8
Layer 1
10
301.679844
20
607.973939
70
0
0
VERTEX
8
Layer 1
10
297.679878
20
607.973939
70
0
0
SEQEND
8
Layer 1
0
POLYLINE
8
Layer 1
62
7
70
0
10
0.000000
20
0.000000
66
1
0
VERTEX
8
Layer 1
10
297.679878
20
591.974604
70
0
0
VERTEX
8
Layer 1
10
297.679878
20
599.972949
70
0
0
SEQEND
8
Layer 1
0
POLYLINE
8
Layer 1
62
7
70
0
10
0.000000
20
0.000000
66
1
0
VERTEX
8
Layer 1
10
297.679878
20
599.972949
70
0
0
VERTEX
8
Layer 1
10
301.679844
20
599.972949
70
0
0
SEQEND
8
Layer 1
0
POLYLINE
8
Layer 1
62
7
70
0
10
0.000000
20
0.000000
66
1
0
VERTEX
8
Layer 1
10
301.679844
20
599.972949
70
0
0
VERTEX
8
Layer 1
10
301.679844
20
591.974604
70
0
0
SEQEND
8
Layer 1
0
POLYLINE
8
Layer 1
62
7
70
0
10
0.000000
20
0.000000
66
1
0
VERTEX
8
Layer 1
10
301.679844
20
591.974604
70
0
0
VERTEX
8
Layer 1
10
297.679878
20
591.974604
70
0
0
SEQEND
8
Layer 1
0
POLYLINE
8
Layer 1
62
7
70
0
10
0.000000
20
0.000000
66
1
0
VERTEX
8
Layer 1
10
297.679878
20
575.972625
70
0
0
VERTEX
8
Layer 1
10
297.679878
20
583.973615
70
0
0
SEQEND
8
Layer 1
0
POLYLINE
8
Layer 1
62
7
70
0
10
0.000000
20
0.000000
66
1
0
VERTEX
8
Layer 1
10
297.679878
20
583.973615
70
0
0
VERTEX
8
Layer 1
10
301.679844
20
583.973615
70
0
0
SEQEND
8
Layer 1
0
POLYLINE
8
Layer 1
62
7
70
0
10
0.000000
20
0.000000
66
1
0
VERTEX
8
Layer 1
10
301.679844
20
583.973615
70
0
0
VERTEX
8
Layer 1
10
301.679844
20
575.972625
70
0
0
SEQEND
8
Layer 1
0
POLYLINE
8
Layer 1
62
7
70
0
10
0.000000
20
0.000000
66
1
0
VERTEX
8
Layer 1
10
301.679844
20
575.972625
70
0
0
VERTEX
8
Layer 1
10
297.679878
20
575.972625
70
0
0
SEQEND
8
Layer 1
0
POLYLINE
8
Layer 1
62
7
70
0
10
0.000000
20
0.000000
66
1
0
VERTEX
8
Layer 1
10
297.679878
20
559.973291
70
0
0
VERTEX
8
Layer 1
10
297.679878
20
567.974281
70
0
0
SEQEND
8
Layer 1
0
POLYLINE
8
Layer 1
62
7
70
0
10
0.000000
20
0.000000
66
1
0
VERTEX
8
Layer 1
10
297.679878
20
567.974281
70
0
0
VERTEX
8
Layer 1
10
301.679844
20
567.974281
70
0
0
SEQEND
8
Layer 1
0
POLYLINE
8
Layer 1
62
7
70
0
10
0.000000
20
0.000000
66
1
0
VERTEX
8
Layer 1
10
301.679844
20
567.974281
70
0
0
VERTEX
8
Layer 1
10
301.679844
20
559.973291
70
0
0
SEQEND
8
Layer 1
0
POLYLINE
8
Layer 1
62
7
70
0
10
0.000000
20
0.000000
66
1
0
VERTEX
8
Layer 1
10
301.679844
20
559.973291
70
0
0
VERTEX
8
Layer 1
10
297.679878
20
559.973291
70
0
0
SEQEND
8
Layer 1
0
POLYLINE
8
Layer 1
62
7
70
0
10
0.000000
20
0.000000
66
1
0
VERTEX
8
Layer 1
10
295.868016
20
146.131000
70
0
0
VERTEX
8
Layer 1
10
295.868016
20
133.964309
70
0
0
SEQEND
8
Layer 1
0
POLYLINE
8
Layer 1
62
7
70
0
10
0.000000
20
0.000000
66
1
0
VERTEX
8
Layer 1
10
295.868016
20
133.964309
70
0
0
VERTEX
8
Layer 1
10
299.868001
20
133.964309
70
0
0
SEQEND
8
Layer 1
0
POLYLINE
8
Layer 1
62
7
70
0
10
0.000000
20
0.000000
66
1
0
VERTEX
8
Layer 1
10
299.868001
20
133.964309
70
0
0
VERTEX
8
Layer 1
10
299.868001
20
121.797725
70
0
0
SEQEND
8
Layer 1
0
POLYLINE
8
Layer 1
62
7
70
0
10
0.000000
20
0.000000
66
1
0
VERTEX
8
Layer 1
10
299.868001
20
121.797725
70
0
0
VERTEX
8
Layer 1
10
295.868016
20
121.797725
70
0
0
SEQEND
8
Layer 1
0
POLYLINE
8
Layer 1
62
7
70
0
10
0.000000
20
0.000000
66
1
0
VERTEX
8
Layer 1
10
295.868016
20
121.797725
70
0
0
VERTEX
8
Layer 1
10
295.868016
20
109.630981
70
0
0
SEQEND
8
Layer 1
0
POLYLINE
8
Layer 1
62
7
70
0
10
0.000000
20
0.000000
66
1
0
VERTEX
8
Layer 1
10
295.868016
20
109.630981
70
0
0
VERTEX
8
Layer 1
10
299.868001
20
109.630981
70
0
0
SEQEND
8
Layer 1
0
POLYLINE
8
Layer 1
62
7
70
0
10
0.000000
20
0.000000
66
1
0
VERTEX
8
Layer 1
10
299.868001
20
109.630981
70
0
0
VERTEX
8
Layer 1
10
299.868001
20
97.464397
70
0
0
SEQEND
8
Layer 1
0
POLYLINE
8
Layer 1
62
7
70
0
10
0.000000
20
0.000000
66
1
0
VERTEX
8
Layer 1
10
299.868001
20
97.464397
70
0
0
VERTEX
8
Layer 1
10
295.868016
20
97.464397
70
0
0
SEQEND
8
Layer 1
0
POLYLINE
8
Layer 1
62
7
70
0
10
0.000000
20
0.000000
66
1
0
VERTEX
8
Layer 1
10
295.868016
20
97.464397
70
0
0
VERTEX
8
Layer 1
10
295.868016
20
85.297812
70
0
0
SEQEND
8
Layer 1
0
POLYLINE
8
Layer 1
62
7
70
0
10
0.000000
20
0.000000
66
1
0
VERTEX
8
Layer 1
10
295.868016
20
85.297812
70
0
0
VERTEX
8
Layer 1
10
299.868001
20
85.297812
70
0
0
SEQEND
8
Layer 1
0
POLYLINE
8
Layer 1
62
7
70
0
10
0.000000
20
0.000000
66
1
0
VERTEX
8
Layer 1
10
299.868001
20
85.297812
70
0
0
VERTEX
8
Layer 1
10
299.868001
20
73.130963
70
0
0
SEQEND
8
Layer 1
0
POLYLINE
8
Layer 1
62
7
70
0
10
0.000000
20
0.000000
66
1
0
VERTEX
8
Layer 1
10
299.868001
20
73.130963
70
0
0
VERTEX
8
Layer 1
10
295.868016
20
73.130963
70
0
0
SEQEND
8
Layer 1
0
POLYLINE
8
Layer 1
62
7
70
0
10
0.000000
20
0.000000
66
1
0
VERTEX
8
Layer 1
10
295.868016
20
73.130963
70
0
0
VERTEX
8
Layer 1
10
295.868016
20
60.964378
70
0
0
SEQEND
8
Layer 1
0
POLYLINE
8
Layer 1
62
7
70
0
10
0.000000
20
0.000000
66
1
0
VERTEX
8
Layer 1
10
295.868016
20
60.964378
70
0
0
VERTEX
8
Layer 1
10
299.868001
20
60.964378
70
0
0
SEQEND
8
Layer 1
0
POLYLINE
8
Layer 1
62
7
70
0
10
0.000000
20
0.000000
66
1
0
VERTEX
8
Layer 1
10
299.868001
20
60.964378
70
0
0
VERTEX
8
Layer 1
10
299.868001
20
48.797793
70
0
0
SEQEND
8
Layer 1
0
POLYLINE
8
Layer 1
62
7
70
0
10
0.000000
20
0.000000
66
1
0
VERTEX
8
Layer 1
10
299.868001
20
48.797793
70
0
0
VERTEX
8
Layer 1
10
295.868016
20
48.797793
70
0
0
SEQEND
8
Layer 1
0
POLYLINE
8
Layer 1
62
7
70
0
10
0.000000
20
0.000000
66
1
0
VERTEX
8
Layer 1
10
295.868016
20
48.797793
70
0
0
VERTEX
8
Layer 1
10
295.868016
20
36.631209
70
0
0
SEQEND
8
Layer 1
0
POLYLINE
8
Layer 1
62
7
70
0
10
0.000000
20
0.000000
66
1
0
VERTEX
8
Layer 1
10
295.868016
20
36.631209
70
0
0
VERTEX
8
Layer 1
10
299.868001
20
36.631209
70
0
0
SEQEND
8
Layer 1
0
POLYLINE
8
Layer 1
62
7
70
0
10
0.000000
20
0.000000
66
1
0
VERTEX
8
Layer 1
10
299.868001
20
36.631209
70
0
0
VERTEX
8
Layer 1
10
299.868001
20
24.464095
70
0
0
SEQEND
8
Layer 1
0
POLYLINE
8
Layer 1
62
7
70
0
10
0.000000
20
0.000000
66
1
0
VERTEX
8
Layer 1
10
299.868001
20
24.464095
70
0
0
VERTEX
8
Layer 1
10
295.868016
20
24.464095
70
0
0
SEQEND
8
Layer 1
0
POLYLINE
8
Layer 1
62
7
70
0
10
0.000000
20
0.000000
66
1
0
VERTEX
8
Layer 1
10
295.868016
20
24.464095
70
0
0
VERTEX
8
Layer 1
10
295.868016
20
12.298039
70
0
0
SEQEND
8
Layer 1
0
POLYLINE
8
Layer 1
62
7
70
0
10
0.000000
20
0.000000
66
1
0
VERTEX
8
Layer 1
10
295.868016
20
12.298039
70
0
0
VERTEX
8
Layer 1
10
299.868001
20
12.298039
70
0
0
SEQEND
8
Layer 1
0
POLYLINE
8
Layer 1
62
7
70
0
10
0.000000
20
0.000000
66
1
0
VERTEX
8
Layer 1
10
299.868001
20
12.298039
70
0
0
VERTEX
8
Layer 1
10
299.868001
20
0.131190
70
0
0
SEQEND
8
Layer 1
0
POLYLINE
8
Layer 1
62
7
70
0
10
0.000000
20
0.000000
66
1
0
VERTEX
8
Layer 1
10
299.868001
20
0.131190
70
0
0
VERTEX
8
Layer 1
10
-0.132204
20
0.131190
70
0
0
SEQEND
8
Layer 1
0
POLYLINE
8
Layer 1
62
7
70
0
10
0.000000
20
0.000000
66
1
0
VERTEX
8
Layer 1
10
-0.132204
20
0.131190
70
0
0
VERTEX
8
Layer 1
10
-0.132204
20
12.298039
70
0
0
SEQEND
8
Layer 1
0
POLYLINE
8
Layer 1
62
7
70
0
10
0.000000
20
0.000000
66
1
0
VERTEX
8
Layer 1
10
-0.132204
20
12.298039
70
0
0
VERTEX
8
Layer 1
10
3.868291
20
12.298039
70
0
0
SEQEND
8
Layer 1
0
POLYLINE
8
Layer 1
62
7
70
0
10
0.000000
20
0.000000
66
1
0
VERTEX
8
Layer 1
10
3.868291
20
12.298039
70
0
0
VERTEX
8
Layer 1
10
3.868291
20
24.464095
70
0
0
SEQEND
8
Layer 1
0
POLYLINE
8
Layer 1
62
7
70
0
10
0.000000
20
0.000000
66
1
0
VERTEX
8
Layer 1
10
3.868291
20
24.464095
70
0
0
VERTEX
8
Layer 1
10
-0.132204
20
24.464095
70
0
0
SEQEND
8
Layer 1
0
POLYLINE
8
Layer 1
62
7
70
0
10
0.000000
20
0.000000
66
1
0
VERTEX
8
Layer 1
10
-0.132204
20
24.464095
70
0
0
VERTEX
8
Layer 1
10
-0.132204
20
36.631209
70
0
0
SEQEND
8
Layer 1
0
POLYLINE
8
Layer 1
62
7
70
0
10
0.000000
20
0.000000
66
1
0
VERTEX
8
Layer 1
10
-0.132204
20
36.631209
70
0
0
VERTEX
8
Layer 1
10
3.868291
20
36.631209
70
0
0
SEQEND
8
Layer 1
0
POLYLINE
8
Layer 1
62
7
70
0
10
0.000000
20
0.000000
66
1
0
VERTEX
8
Layer 1
10
3.868291
20
36.631209
70
0
0
VERTEX
8
Layer 1
10
3.868291
20
48.797793
70
0
0
SEQEND
8
Layer 1
0
POLYLINE
8
Layer 1
62
7
70
0
10
0.000000
20
0.000000
66
1
0
VERTEX
8
Layer 1
10
3.868291
20
48.797793
70
0
0
VERTEX
8
Layer 1
10
-0.132204
20
48.797793
70
0
0
SEQEND
8
Layer 1
0
POLYLINE
8
Layer 1
62
7
70
0
10
0.000000
20
0.000000
66
1
0
VERTEX
8
Layer 1
10
-0.132204
20
48.797793
70
0
0
VERTEX
8
Layer 1
10
-0.132204
20
60.964378
70
0
0
SEQEND
8
Layer 1
0
POLYLINE
8
Layer 1
62
7
70
0
10
0.000000
20
0.000000
66
1
0
VERTEX
8
Layer 1
10
-0.132204
20
60.964378
70
0
0
VERTEX
8
Layer 1
10
3.868291
20
60.964378
70
0
0
SEQEND
8
Layer 1
0
POLYLINE
8
Layer 1
62
7
70
0
10
0.000000
20
0.000000
66
1
0
VERTEX
8
Layer 1
10
3.868291
20
60.964378
70
0
0
VERTEX
8
Layer 1
10
3.868291
20
73.130963
70
0
0
SEQEND
8
Layer 1
0
POLYLINE
8
Layer 1
62
7
70
0
10
0.000000
20
0.000000
66
1
0
VERTEX
8
Layer 1
10
3.868291
20
73.130963
70
0
0
VERTEX
8
Layer 1
10
-0.132204
20
73.130963
70
0
0
SEQEND
8
Layer 1
0
POLYLINE
8
Layer 1
62
7
70
0
10
0.000000
20
0.000000
66
1
0
VERTEX
8
Layer 1
10
-0.132204
20
73.130963
70
0
0
VERTEX
8
Layer 1
10
-0.132204
20
85.297812
70
0
0
SEQEND
8
Layer 1
0
POLYLINE
8
Layer 1
62
7
70
0
10
0.000000
20
0.000000
66
1
0
VERTEX
8
Layer 1
10
-0.132204
20
85.297812
70
0
0
VERTEX
8
Layer 1
10
3.868291
20
85.297812
70
0
0
SEQEND
8
Layer 1
0
POLYLINE
8
Layer 1
62
7
70
0
10
0.000000
20
0.000000
66
1
0
VERTEX
8
Layer 1
10
3.868291
20
85.297812
70
0
0
VERTEX
8
Layer 1
10
3.868291
20
97.464397
70
0
0
SEQEND
8
Layer 1
0
POLYLINE
8
Layer 1
62
7
70
0
10
0.000000
20
0.000000
66
1
0
VERTEX
8
Layer 1
10
3.868291
20
97.464397
70
0
0
VERTEX
8
Layer 1
10
-0.132204
20
97.464397
70
0
0
SEQEND
8
Layer 1
0
POLYLINE
8
Layer 1
62
7
70
0
10
0.000000
20
0.000000
66
1
0
VERTEX
8
Layer 1
10
-0.132204
20
97.464397
70
0
0
VERTEX
8
Layer 1
10
-0.132204
20
109.630981
70
0
0
SEQEND
8
Layer 1
0
POLYLINE
8
Layer 1
62
7
70
0
10
0.000000
20
0.000000
66
1
0
VERTEX
8
Layer 1
10
-0.132204
20
109.630981
70
0
0
VERTEX
8
Layer 1
10
3.868291
20
109.630981
70
0
0
SEQEND
8
Layer 1
0
POLYLINE
8
Layer 1
62
7
70
0
10
0.000000
20
0.000000
66
1
0
VERTEX
8
Layer 1
10
3.868291
20
109.630981
70
0
0
VERTEX
8
Layer 1
10
3.868291
20
121.797725
70
0
0
SEQEND
8
Layer 1
0
POLYLINE
8
Layer 1
62
7
70
0
10
0.000000
20
0.000000
66
1
0
VERTEX
8
Layer 1
10
3.868291
20
121.797725
70
0
0
VERTEX
8
Layer 1
10
-0.132204
20
121.797725
70
0
0
SEQEND
8
Layer 1
0
POLYLINE
8
Layer 1
62
7
70
0
10
0.000000
20
0.000000
66
1
0
VERTEX
8
Layer 1
10
-0.132204
20
121.797725
70
0
0
VERTEX
8
Layer 1
10
-0.132204
20
133.964309
70
0
0
SEQEND
8
Layer 1
0
POLYLINE
8
Layer 1
62
7
70
0
10
0.000000
20
0.000000
66
1
0
VERTEX
8
Layer 1
10
-0.132204
20
133.964309
70
0
0
VERTEX
8
Layer 1
10
3.868291
20
133.964309
70
0
0
SEQEND
8
Layer 1
0
POLYLINE
8
Layer 1
62
7
70
0
10
0.000000
20
0.000000
66
1
0
VERTEX
8
Layer 1
10
3.868291
20
133.964309
70
0
0
VERTEX
8
Layer 1
10
3.868291
20
146.131000
70
0
0
SEQEND
8
Layer 1
0
POLYLINE
8
Layer 1
62
7
70
0
10
0.000000
20
0.000000
66
1
0
VERTEX
8
Layer 1
10
3.868291
20
146.131000
70
0
0
VERTEX
8
Layer 1
10
28.201989
20
146.131000
70
0
0
SEQEND
8
Layer 1
0
POLYLINE
8
Layer 1
62
7
70
0
10
0.000000
20
0.000000
66
1
0
VERTEX
8
Layer 1
10
28.201989
20
146.131000
70
0
0
VERTEX
8
Layer 1
10
28.201989
20
150.130992
70
0
0
SEQEND
8
Layer 1
0
POLYLINE
8
Layer 1
62
7
70
0
10
0.000000
20
0.000000
66
1
0
VERTEX
8
Layer 1
10
28.201989
20
150.130992
70
0
0
VERTEX
8
Layer 1
10
52.535423
20
150.130992
70
0
0
SEQEND
8
Layer 1
0
POLYLINE
8
Layer 1
62
7
70
0
10
0.000000
20
0.000000
66
1
0
VERTEX
8
Layer 1
10
52.535423
20
150.130992
70
0
0
VERTEX
8
Layer 1
10
52.535423
20
146.131000
70
0
0
SEQEND
8
Layer 1
0
POLYLINE
8
Layer 1
62
7
70
0
10
0.000000
20
0.000000
66
1
0
VERTEX
8
Layer 1
10
52.535423
20
146.131000
70
0
0
VERTEX
8
Layer 1
10
76.868328
20
146.131000
70
0
0
SEQEND
8
Layer 1
0
POLYLINE
8
Layer 1
62
7
70
0
10
0.000000
20
0.000000
66
1
0
VERTEX
8
Layer 1
10
76.868328
20
146.131000
70
0
0
VERTEX
8
Layer 1
10
76.868328
20
150.130992
70
0
0
SEQEND
8
Layer 1
0
POLYLINE
8
Layer 1
62
7
70
0
10
0.000000
20
0.000000
66
1
0
VERTEX
8
Layer 1
10
76.868328
20
150.130992
70
0
0
VERTEX
8
Layer 1
10
101.201233
20
150.130992
70
0
0
SEQEND
8
Layer 1
0
POLYLINE
8
Layer 1
62
7
70
0
10
0.000000
20
0.000000
66
1
0
VERTEX
8
Layer 1
10
101.201233
20
150.130992
70
0
0
VERTEX
8
Layer 1
10
101.201233
20
146.131000
70
0
0
SEQEND
8
Layer 1
0
POLYLINE
8
Layer 1
62
7
70
0
10
0.000000
20
0.000000
66
1
0
VERTEX
8
Layer 1
10
101.201233
20
146.131000
70
0
0
VERTEX
8
Layer 1
10
125.535196
20
146.131000
70
0
0
SEQEND
8
Layer 1
0
POLYLINE
8
Layer 1
62
7
70
0
10
0.000000
20
0.000000
66
1
0
VERTEX
8
Layer 1
10
125.535196
20
146.131000
70
0
0
VERTEX
8
Layer 1
10
125.535196
20
150.130992
70
0
0
SEQEND
8
Layer 1
0
POLYLINE
8
Layer 1
62
7
70
0
10
0.000000
20
0.000000
66
1
0
VERTEX
8
Layer 1
10
125.535196
20
150.130992
70
0
0
VERTEX
8
Layer 1
10
149.868101
20
150.130992
70
0
0
SEQEND
8
Layer 1
0
POLYLINE
8
Layer 1
62
7
70
0
10
0.000000
20
0.000000
66
1
0
VERTEX
8
Layer 1
10
149.868101
20
150.130992
70
0
0
VERTEX
8
Layer 1
10
149.868101
20
146.131000
70
0
0
SEQEND
8
Layer 1
0
POLYLINE
8
Layer 1
62
7
70
0
10
0.000000
20
0.000000
66
1
0
VERTEX
8
Layer 1
10
149.868101
20
146.131000
70
0
0
VERTEX
8
Layer 1
10
174.201270
20
146.131000
70
0
0
SEQEND
8
Layer 1
0
POLYLINE
8
Layer 1
62
7
70
0
10
0.000000
20
0.000000
66
1
0
VERTEX
8
Layer 1
10
174.201270
20
146.131000
70
0
0
VERTEX
8
Layer 1
10
174.201270
20
150.130992
70
0
0
SEQEND
8
Layer 1
0
POLYLINE
8
Layer 1
62
7
70
0
10
0.000000
20
0.000000
66
1
0
VERTEX
8
Layer 1
10
174.201270
20
150.130992
70
0
0
VERTEX
8
Layer 1
10
198.535233
20
150.130992
70
0
0
SEQEND
8
Layer 1
0
POLYLINE
8
Layer 1
62
7
70
0
10
0.000000
20
0.000000
66
1
0
VERTEX
8
Layer 1
10
198.535233
20
150.130992
70
0
0
VERTEX
8
Layer 1
10
198.535233
20
146.131000
70
0
0
SEQEND
8
Layer 1
0
POLYLINE
8
Layer 1
62
7
70
0
10
0.000000
20
0.000000
66
1
0
VERTEX
8
Layer 1
10
198.535233
20
146.131000
70
0
0
VERTEX
8
Layer 1
10
222.868138
20
146.131000
70
0
0
SEQEND
8
Layer 1
0
POLYLINE
8
Layer 1
62
7
70
0
10
0.000000
20
0.000000
66
1
0
VERTEX
8
Layer 1
10
222.868138
20
146.131000
70
0
0
VERTEX
8
Layer 1
10
222.868138
20
150.130992
70
0
0
SEQEND
8
Layer 1
0
POLYLINE
8
Layer 1
62
7
70
0
10
0.000000
20
0.000000
66
1
0
VERTEX
8
Layer 1
10
222.868138
20
150.130992
70
0
0
VERTEX
8
Layer 1
10
247.201043
20
150.130992
70
0
0
SEQEND
8
Layer 1
0
POLYLINE
8
Layer 1
62
7
70
0
10
0.000000
20
0.000000
66
1
0
VERTEX
8
Layer 1
10
247.201043
20
150.130992
70
0
0
VERTEX
8
Layer 1
10
247.201043
20
146.131000
70
0
0
SEQEND
8
Layer 1
0
POLYLINE
8
Layer 1
62
7
70
0
10
0.000000
20
0.000000
66
1
0
VERTEX
8
Layer 1
10
247.201043
20
146.131000
70
0
0
VERTEX
8
Layer 1
10
271.535006
20
146.131000
70
0
0
SEQEND
8
Layer 1
0
POLYLINE
8
Layer 1
62
7
70
0
10
0.000000
20
0.000000
66
1
0
VERTEX
8
Layer 1
10
271.535006
20
146.131000
70
0
0
VERTEX
8
Layer 1
10
271.535006
20
150.130992
70
0
0
SEQEND
8
Layer 1
0
POLYLINE
8
Layer 1
62
7
70
0
10
0.000000
20
0.000000
66
1
0
VERTEX
8
Layer 1
10
271.535006
20
150.130992
70
0
0
VERTEX
8
Layer 1
10
299.868001
20
150.130992
70
0
0
SEQEND
8
Layer 1
0
POLYLINE
8
Layer 1
62
7
70
0
10
0.000000
20
0.000000
66
1
0
VERTEX
8
Layer 1
10
299.868001
20
150.130992
70
0
0
VERTEX
8
Layer 1
10
299.868001
20
146.131000
70
0
0
SEQEND
8
Layer 1
0
POLYLINE
8
Layer 1
62
7
70
0
10
0.000000
20
0.000000
66
1
0
VERTEX
8
Layer 1
10
299.868001
20
146.131000
70
0
0
VERTEX
8
Layer 1
10
295.868016
20
146.131000
70
0
0
SEQEND
8
Layer 1
0
POLYLINE
8
Layer 1
62
7
70
0
10
0.000000
20
0.000000
66
1
0
VERTEX
8
Layer 1
10
26.304929
20
24.387101
70
0
0
VERTEX
8
Layer 1
10
26.265242
20
24.640043
70
0
0
SEQEND
8
Layer 1
0
POLYLINE
8
Layer 1
62
7
70
0
10
0.000000
20
0.000000
66
1
0
VERTEX
8
Layer 1
10
26.265242
20
24.640043
70
0
0
VERTEX
8
Layer 1
10
26.199096
20
24.888221
70
0
0
SEQEND
8
Layer 1
0
POLYLINE
8
Layer 1
62
7
70
0
10
0.000000
20
0.000000
66
1
0
VERTEX
8
Layer 1
10
26.199096
20
24.888221
70
0
0
VERTEX
8
Layer 1
10
26.106492
20
25.128198
70
0
0
SEQEND
8
Layer 1
0
POLYLINE
8
Layer 1
62
7
70
0
10
0.000000
20
0.000000
66
1
0
VERTEX
8
Layer 1
10
26.106492
20
25.128198
70
0
0
VERTEX
8
Layer 1
10
25.990075
20
25.356269
70
0
0
SEQEND
8
Layer 1
0
POLYLINE
8
Layer 1
62
7
70
0
10
0.000000
20
0.000000
66
1
0
VERTEX
8
Layer 1
10
25.990075
20
25.356269
70
0
0
VERTEX
8
Layer 1
10
25.849846
20
25.571110
70
0
0
SEQEND
8
Layer 1
0
POLYLINE
8
Layer 1
62
7
70
0
10
0.000000
20
0.000000
66
1
0
VERTEX
8
Layer 1
10
25.849846
20
25.571110
70
0
0
VERTEX
8
Layer 1
10
25.688451
20
25.770077
70
0
0
SEQEND
8
Layer 1
0
POLYLINE
8
Layer 1
62
7
70
0
10
0.000000
20
0.000000
66
1
0
VERTEX
8
Layer 1
10
25.688451
20
25.770077
70
0
0
VERTEX
8
Layer 1
10
25.508534
20
25.952110
70
0
0
SEQEND
8
Layer 1
0
POLYLINE
8
Layer 1
62
7
70
0
10
0.000000
20
0.000000
66
1
0
VERTEX
8
Layer 1
10
25.508534
20
25.952110
70
0
0
VERTEX
8
Layer 1
10
25.307451
20
26.113241
70
0
0
SEQEND
8
Layer 1
0
POLYLINE
8
Layer 1
62
7
70
0
10
0.000000
20
0.000000
66
1
0
VERTEX
8
Layer 1
10
25.307451
20
26.113241
70
0
0
VERTEX
8
Layer 1
10
25.093139
20
26.253205
70
0
0
SEQEND
8
Layer 1
0
POLYLINE
8
Layer 1
62
7
70
0
10
0.000000
20
0.000000
66
1
0
VERTEX
8
Layer 1
10
25.093139
20
26.253205
70
0
0
VERTEX
8
Layer 1
10
24.865598
20
26.369093
70
0
0
SEQEND
8
Layer 1
0
POLYLINE
8
Layer 1
62
7
70
0
10
0.000000
20
0.000000
66
1
0
VERTEX
8
Layer 1
10
24.865598
20
26.369093
70
0
0
VERTEX
8
Layer 1
10
24.624827
20
26.461167
70
0
0
SEQEND
8
Layer 1
0
POLYLINE
8
Layer 1
62
7
70
0
10
0.000000
20
0.000000
66
1
0
VERTEX
8
Layer 1
10
24.624827
20
26.461167
70
0
0
VERTEX
8
Layer 1
10
24.376119
20
26.527049
70
0
0
SEQEND
8
Layer 1
0
POLYLINE
8
Layer 1
62
7
70
0
10
0.000000
20
0.000000
66
1
0
VERTEX
8
Layer 1
10
24.376119
20
26.527049
70
0
0
VERTEX
8
Layer 1
10
24.124765
20
26.568059
70
0
0
SEQEND
8
Layer 1
0
POLYLINE
8
Layer 1
62
7
70
0
10
0.000000
20
0.000000
66
1
0
VERTEX
8
Layer 1
10
24.124765
20
26.568059
70
0
0
VERTEX
8
Layer 1
10
23.868120
20
26.581024
70
0
0
SEQEND
8
Layer 1
0
POLYLINE
8
Layer 1
62
7
70
0
10
0.000000
20
0.000000
66
1
0
VERTEX
8
Layer 1
10
23.868120
20
26.581024
70
0
0
VERTEX
8
Layer 1
10
23.611474
20
26.568059
70
0
0
SEQEND
8
Layer 1
0
POLYLINE
8
Layer 1
62
7
70
0
10
0.000000
20
0.000000
66
1
0
VERTEX
8
Layer 1
10
23.611474
20
26.568059
70
0
0
VERTEX
8
Layer 1
10
23.360120
20
26.527049
70
0
0
SEQEND
8
Layer 1
0
POLYLINE
8
Layer 1
62
7
70
0
10
0.000000
20
0.000000
66
1
0
VERTEX
8
Layer 1
10
23.360120
20
26.527049
70
0
0
VERTEX
8
Layer 1
10
23.111412
20
26.461167
70
0
0
SEQEND
8
Layer 1
0
POLYLINE
8
Layer 1
62
7
70
0
10
0.000000
20
0.000000
66
1
0
VERTEX
8
Layer 1
10
23.111412
20
26.461167
70
0
0
VERTEX
8
Layer 1
10
22.870642
20
26.369093
70
0
0
SEQEND
8
Layer 1
0
POLYLINE
8
Layer 1
62
7
70
0
10
0.000000
20
0.000000
66
1
0
VERTEX
8
Layer 1
10
22.870642
20
26.369093
70
0
0
VERTEX
8
Layer 1
10
22.643101
20
26.253205
70
0
0
SEQEND
8
Layer 1
0
POLYLINE
8
Layer 1
62
7
70
0
10
0.000000
20
0.000000
66
1
0
VERTEX
8
Layer 1
10
22.643101
20
26.253205
70
0
0
VERTEX
8
Layer 1
10
22.428788
20
26.113241
70
0
0
SEQEND
8
Layer 1
0
POLYLINE
8
Layer 1
62
7
70
0
10
0.000000
20
0.000000
66
1
0
VERTEX
8
Layer 1
10
22.428788
20
26.113241
70
0
0
VERTEX
8
Layer 1
10
22.230351
20
25.952110
70
0
0
SEQEND
8
Layer 1
0
POLYLINE
8
Layer 1
62
7
70
0
10
0.000000
20
0.000000
66
1
0
VERTEX
8
Layer 1
10
22.230351
20
25.952110
70
0
0
VERTEX
8
Layer 1
10
22.047789
20
25.770077
70
0
0
SEQEND
8
Layer 1
0
POLYLINE
8
Layer 1
62
7
70
0
10
0.000000
20
0.000000
66
1
0
VERTEX
8
Layer 1
10
22.047789
20
25.770077
70
0
0
VERTEX
8
Layer 1
10
21.886393
20
25.571110
70
0
0
SEQEND
8
Layer 1
0
POLYLINE
8
Layer 1
62
7
70
0
10
0.000000
20
0.000000
66
1
0
VERTEX
8
Layer 1
10
21.886393
20
25.571110
70
0
0
VERTEX
8
Layer 1
10
21.746164
20
25.356269
70
0
0
SEQEND
8
Layer 1
0
POLYLINE
8
Layer 1
62
7
70
0
10
0.000000
20
0.000000
66
1
0
VERTEX
8
Layer 1
10
21.746164
20
25.356269
70
0
0
VERTEX
8
Layer 1
10
21.629748
20
25.128198
70
0
0
SEQEND
8
Layer 1
0
POLYLINE
8
Layer 1
62
7
70
0
10
0.000000
20
0.000000
66
1
0
VERTEX
8
Layer 1
10
21.629748
20
25.128198
70
0
0
VERTEX
8
Layer 1
10
21.537144
20
24.888221
70
0
0
SEQEND
8
Layer 1
0
POLYLINE
8
Layer 1
62
7
70
0
10
0.000000
20
0.000000
66
1
0
VERTEX
8
Layer 1
10
21.537144
20
24.888221
70
0
0
VERTEX
8
Layer 1
10
21.473644
20
24.640043
70
0
0
SEQEND
8
Layer 1
0
POLYLINE
8
Layer 1
62
7
70
0
10
0.000000
20
0.000000
66
1
0
VERTEX
8
Layer 1
10
21.473644
20
24.640043
70
0
0
VERTEX
8
Layer 1
10
21.431310
20
24.387101
70
0
0
SEQEND
8
Layer 1
0
POLYLINE
8
Layer 1
62
7
70
0
10
0.000000
20
0.000000
66
1
0
VERTEX
8
Layer 1
10
21.431310
20
24.387101
70
0
0
VERTEX
8
Layer 1
10
21.418081
20
24.131250
70
0
0
SEQEND
8
Layer 1
0
POLYLINE
8
Layer 1
62
7
70
0
10
0.000000
20
0.000000
66
1
0
VERTEX
8
Layer 1
10
21.418081
20
24.131250
70
0
0
VERTEX
8
Layer 1
10
21.431310
20
23.875133
70
0
0
SEQEND
8
Layer 1
0
POLYLINE
8
Layer 1
62
7
70
0
10
0.000000
20
0.000000
66
1
0
VERTEX
8
Layer 1
10
21.431310
20
23.875133
70
0
0
VERTEX
8
Layer 1
10
21.473644
20
23.622192
70
0
0
SEQEND
8
Layer 1
0
POLYLINE
8
Layer 1
62
7
70
0
10
0.000000
20
0.000000
66
1
0
VERTEX
8
Layer 1
10
21.473644
20
23.622192
70
0
0
VERTEX
8
Layer 1
10
21.537144
20
23.374278
70
0
0
SEQEND
8
Layer 1
0
POLYLINE
8
Layer 1
62
7
70
0
10
0.000000
20
0.000000
66
1
0
VERTEX
8
Layer 1
10
21.537144
20
23.374278
70
0
0
VERTEX
8
Layer 1
10
21.629748
20
23.134036
70
0
0
SEQEND
8
Layer 1
0
POLYLINE
8
Layer 1
62
7
70
0
10
0.000000
20
0.000000
66
1
0
VERTEX
8
Layer 1
10
21.629748
20
23.134036
70
0
0
VERTEX
8
Layer 1
10
21.746164
20
22.906230
70
0
0
SEQEND
8
Layer 1
0
POLYLINE
8
Layer 1
62
7
70
0
10
0.000000
20
0.000000
66
1
0
VERTEX
8
Layer 1
10
21.746164
20
22.906230
70
0
0
VERTEX
8
Layer 1
10
21.886393
20
22.691124
70
0
0
SEQEND
8
Layer 1
0
POLYLINE
8
Layer 1
62
7
70
0
10
0.000000
20
0.000000
66
1
0
VERTEX
8
Layer 1
10
21.886393
20
22.691124
70
0
0
VERTEX
8
Layer 1
10
22.047789
20
22.492158
70
0
0
SEQEND
8
Layer 1
0
POLYLINE
8
Layer 1
62
7
70
0
10
0.000000
20
0.000000
66
1
0
VERTEX
8
Layer 1
10
22.047789
20
22.492158
70
0
0
VERTEX
8
Layer 1
10
22.230351
20
22.310125
70
0
0
SEQEND
8
Layer 1
0
POLYLINE
8
Layer 1
62
7
70
0
10
0.000000
20
0.000000
66
1
0
VERTEX
8
Layer 1
10
22.230351
20
22.310125
70
0
0
VERTEX
8
Layer 1
10
22.428788
20
22.149258
70
0
0
SEQEND
8
Layer 1
0
POLYLINE
8
Layer 1
62
7
70
0
10
0.000000
20
0.000000
66
1
0
VERTEX
8
Layer 1
10
22.428788
20
22.149258
70
0
0
VERTEX
8
Layer 1
10
22.643101
20
22.009029
70
0
0
SEQEND
8
Layer 1
0
POLYLINE
8
Layer 1
62
7
70
0
10
0.000000
20
0.000000
66
1
0
VERTEX
8
Layer 1
10
22.643101
20
22.009029
70
0
0
VERTEX
8
Layer 1
10
22.870642
20
21.893142
70
0
0
SEQEND
8
Layer 1
0
POLYLINE
8
Layer 1
62
7
70
0
10
0.000000
20
0.000000
66
1
0
VERTEX
8
Layer 1
10
22.870642
20
21.893142
70
0
0
VERTEX
8
Layer 1
10
23.111412
20
21.801067
70
0
0
SEQEND
8
Layer 1
0
POLYLINE
8
Layer 1
62
7
70
0
10
0.000000
20
0.000000
66
1
0
VERTEX
8
Layer 1
10
23.111412
20
21.801067
70
0
0
VERTEX
8
Layer 1
10
23.360120
20
21.735186
70
0
0
SEQEND
8
Layer 1
0
POLYLINE
8
Layer 1
62
7
70
0
10
0.000000
20
0.000000
66
1
0
VERTEX
8
Layer 1
10
23.360120
20
21.735186
70
0
0
VERTEX
8
Layer 1
10
23.611474
20
21.694176
70
0
0
SEQEND
8
Layer 1
0
POLYLINE
8
Layer 1
62
7
70
0
10
0.000000
20
0.000000
66
1
0
VERTEX
8
Layer 1
10
23.611474
20
21.694176
70
0
0
VERTEX
8
Layer 1
10
23.868120
20
21.681211
70
0
0
SEQEND
8
Layer 1
0
POLYLINE
8
Layer 1
62
7
70
0
10
0.000000
20
0.000000
66
1
0
VERTEX
8
Layer 1
10
23.868120
20
21.681211
70
0
0
VERTEX
8
Layer 1
10
24.124765
20
21.694176
70
0
0
SEQEND
8
Layer 1
0
POLYLINE
8
Layer 1
62
7
70
0
10
0.000000
20
0.000000
66
1
0
VERTEX
8
Layer 1
10
24.124765
20
21.694176
70
0
0
VERTEX
8
Layer 1
10
24.376119
20
21.735186
70
0
0
SEQEND
8
Layer 1
0
POLYLINE
8
Layer 1
62
7
70
0
10
0.000000
20
0.000000
66
1
0
VERTEX
8
Layer 1
10
24.376119
20
21.735186
70
0
0
VERTEX
8
Layer 1
10
24.624827
20
21.801067
70
0
0
SEQEND
8
Layer 1
0
POLYLINE
8
Layer 1
62
7
70
0
10
0.000000
20
0.000000
66
1
0
VERTEX
8
Layer 1
10
24.624827
20
21.801067
70
0
0
VERTEX
8
Layer 1
10
24.865598
20
21.893142
70
0
0
SEQEND
8
Layer 1
0
POLYLINE
8
Layer 1
62
7
70
0
10
0.000000
20
0.000000
66
1
0
VERTEX
8
Layer 1
10
24.865598
20
21.893142
70
0
0
VERTEX
8
Layer 1
10
25.093139
20
22.009029
70
0
0
SEQEND
8
Layer 1
0
POLYLINE
8
Layer 1
62
7
70
0
10
0.000000
20
0.000000
66
1
0
VERTEX
8
Layer 1
10
25.093139
20
22.009029
70
0
0
VERTEX
8
Layer 1
10
25.307451
20
22.149258
70
0
0
SEQEND
8
Layer 1
0
POLYLINE
8
Layer 1
62
7
70
0
10
0.000000
20
0.000000
66
1
0
VERTEX
8
Layer 1
10
25.307451
20
22.149258
70
0
0
VERTEX
8
Layer 1
10
25.508534
20
22.310125
70
0
0
SEQEND
8
Layer 1
0
POLYLINE
8
Layer 1
62
7
70
0
10
0.000000
20
0.000000
66
1
0
VERTEX
8
Layer 1
10
25.508534
20
22.310125
70
0
0
VERTEX
8
Layer 1
10
25.688451
20
22.492158
70
0
0
SEQEND
8
Layer 1
0
POLYLINE
8
Layer 1
62
7
70
0
10
0.000000
20
0.000000
66
1
0
VERTEX
8
Layer 1
10
25.688451
20
22.492158
70
0
0
VERTEX
8
Layer 1
10
25.849846
20
22.691124
70
0
0
SEQEND
8
Layer 1
0
POLYLINE
8
Layer 1
62
7
70
0
10
0.000000
20
0.000000
66
1
0
VERTEX
8
Layer 1
10
25.849846
20
22.691124
70
0
0
VERTEX
8
Layer 1
10
25.990075
20
22.906230
70
0
0
SEQEND
8
Layer 1
0
POLYLINE
8
Layer 1
62
7
70
0
10
0.000000
20
0.000000
66
1
0
VERTEX
8
Layer 1
10
25.990075
20
22.906230
70
0
0
VERTEX
8
Layer 1
10
26.106492
20
23.134036
70
0
0
SEQEND
8
Layer 1
0
POLYLINE
8
Layer 1
62
7
70
0
10
0.000000
20
0.000000
66
1
0
VERTEX
8
Layer 1
10
26.106492
20
23.134036
70
0
0
VERTEX
8
Layer 1
10
26.199096
20
23.374278
70
0
0
SEQEND
8
Layer 1
0
POLYLINE
8
Layer 1
62
7
70
0
10
0.000000
20
0.000000
66
1
0
VERTEX
8
Layer 1
10
26.199096
20
23.374278
70
0
0
VERTEX
8
Layer 1
10
26.265242
20
23.622192
70
0
0
SEQEND
8
Layer 1
0
POLYLINE
8
Layer 1
62
7
70
0
10
0.000000
20
0.000000
66
1
0
VERTEX
8
Layer 1
10
26.265242
20
23.622192
70
0
0
VERTEX
8
Layer 1
10
26.304929
20
23.875133
70
0
0
SEQEND
8
Layer 1
0
POLYLINE
8
Layer 1
62
7
70
0
10
0.000000
20
0.000000
66
1
0
VERTEX
8
Layer 1
10
26.304929
20
23.875133
70
0
0
VERTEX
8
Layer 1
10
26.318158
20
24.131250
70
0
0
SEQEND
8
Layer 1
0
POLYLINE
8
Layer 1
62
7
70
0
10
0.000000
20
0.000000
66
1
0
VERTEX
8
Layer 1
10
26.318158
20
24.131250
70
0
0
VERTEX
8
Layer 1
10
26.304929
20
24.387101
70
0
0
SEQEND
8
Layer 1
0
POLYLINE
8
Layer 1
62
7
70
0
10
0.000000
20
0.000000
66
1
0
VERTEX
8
Layer 1
10
87.297396
20
8.131122
70
0
0
VERTEX
8
Layer 1
10
45.583240
20
8.131122
70
0
0
SEQEND
8
Layer 1
0
POLYLINE
8
Layer 1
62
7
70
0
10
0.000000
20
0.000000
66
1
0
VERTEX
8
Layer 1
10
45.583240
20
8.131122
70
0
0
VERTEX
8
Layer 1
10
45.583240
20
4.131156
70
0
0
SEQEND
8
Layer 1
0
POLYLINE
8
Layer 1
62
7
70
0
10
0.000000
20
0.000000
66
1
0
VERTEX
8
Layer 1
10
45.583240
20
4.131156
70
0
0
VERTEX
8
Layer 1
10
87.297396
20
4.131156
70
0
0
SEQEND
8
Layer 1
0
POLYLINE
8
Layer 1
62
7
70
0
10
0.000000
20
0.000000
66
1
0
VERTEX
8
Layer 1
10
87.297396
20
4.131156
70
0
0
VERTEX
8
Layer 1
10
87.297396
20
8.131122
70
0
0
SEQEND
8
Layer 1
0
POLYLINE
8
Layer 1
62
7
70
0
10
0.000000
20
0.000000
66
1
0
VERTEX
8
Layer 1
10
94.294294
20
77.542091
70
0
0
VERTEX
8
Layer 1
10
94.073367
20
78.937766
70
0
0
SEQEND
8
Layer 1
0
POLYLINE
8
Layer 1
62
7
70
0
10
0.000000
20
0.000000
66
1
0
VERTEX
8
Layer 1
10
94.073367
20
78.937766
70
0
0
VERTEX
8
Layer 1
10
93.707184
20
80.302750
70
0
0
SEQEND
8
Layer 1
0
POLYLINE
8
Layer 1
62
7
70
0
10
0.000000
20
0.000000
66
1
0
VERTEX
8
Layer 1
10
93.707184
20
80.302750
70
0
0
VERTEX
8
Layer 1
10
93.201301
20
81.621960
70
0
0
SEQEND
8
Layer 1
0
POLYLINE
8
Layer 1
62
7
70
0
10
0.000000
20
0.000000
66
1
0
VERTEX
8
Layer 1
10
93.201301
20
81.621960
70
0
0
VERTEX
8
Layer 1
10
92.559158
20
82.881111
70
0
0
SEQEND
8
Layer 1
0
POLYLINE
8
Layer 1
62
7
70
0
10
0.000000
20
0.000000
66
1
0
VERTEX
8
Layer 1
10
92.559158
20
82.881111
70
0
0
VERTEX
8
Layer 1
10
91.790280
20
84.066178
70
0
0
SEQEND
8
Layer 1
0
POLYLINE
8
Layer 1
62
7
70
0
10
0.000000
20
0.000000
66
1
0
VERTEX
8
Layer 1
10
91.790280
20
84.066178
70
0
0
VERTEX
8
Layer 1
10
90.900223
20
85.164462
70
0
0
SEQEND
8
Layer 1
0
POLYLINE
8
Layer 1
62
7
70
0
10
0.000000
20
0.000000
66
1
0
VERTEX
8
Layer 1
10
90.900223
20
85.164462
70
0
0
VERTEX
8
Layer 1
10
89.901157
20
86.163528
70
0
0
SEQEND
8
Layer 1
0
POLYLINE
8
Layer 1
62
7
70
0
10
0.000000
20
0.000000
66
1
0
VERTEX
8
Layer 1
10
89.901157
20
86.163528
70
0
0
VERTEX
8
Layer 1
10
88.803138
20
87.052791
70
0
0
SEQEND
8
Layer 1
0
POLYLINE
8
Layer 1
62
7
70
0
10
0.000000
20
0.000000
66
1
0
VERTEX
8
Layer 1
10
88.803138
20
87.052791
70
0
0
VERTEX
8
Layer 1
10
87.618335
20
87.822463
70
0
0
SEQEND
8
Layer 1
0
POLYLINE
8
Layer 1
62
7
70
0
10
0.000000
20
0.000000
66
1
0
VERTEX
8
Layer 1
10
87.618335
20
87.822463
70
0
0
VERTEX
8
Layer 1
10
86.359185
20
88.464077
70
0
0
SEQEND
8
Layer 1
0
POLYLINE
8
Layer 1
62
7
70
0
10
0.000000
20
0.000000
66
1
0
VERTEX
8
Layer 1
10
86.359185
20
88.464077
70
0
0
VERTEX
8
Layer 1
10
85.040239
20
88.970489
70
0
0
SEQEND
8
Layer 1
0
POLYLINE
8
Layer 1
62
7
70
0
10
0.000000
20
0.000000
66
1
0
VERTEX
8
Layer 1
10
85.040239
20
88.970489
70
0
0
VERTEX
8
Layer 1
10
83.675255
20
89.336142
70
0
0
SEQEND
8
Layer 1
0
POLYLINE
8
Layer 1
62
7
70
0
10
0.000000
20
0.000000
66
1
0
VERTEX
8
Layer 1
10
83.675255
20
89.336142
70
0
0
VERTEX
8
Layer 1
10
82.279315
20
89.557069
70
0
0
SEQEND
8
Layer 1
0
POLYLINE
8
Layer 1
62
7
70
0
10
0.000000
20
0.000000
66
1
0
VERTEX
8
Layer 1
10
82.279315
20
89.557069
70
0
0
VERTEX
8
Layer 1
10
80.868294
20
89.631152
70
0
0
SEQEND
8
Layer 1
0
POLYLINE
8
Layer 1
62
7
70
0
10
0.000000
20
0.000000
66
1
0
VERTEX
8
Layer 1
10
80.868294
20
89.631152
70
0
0
VERTEX
8
Layer 1
10
79.457273
20
89.557069
70
0
0
SEQEND
8
Layer 1
0
POLYLINE
8
Layer 1
62
7
70
0
10
0.000000
20
0.000000
66
1
0
VERTEX
8
Layer 1
10
79.457273
20
89.557069
70
0
0
VERTEX
8
Layer 1
10
78.061333
20
89.336142
70
0
0
SEQEND
8
Layer 1
0
POLYLINE
8
Layer 1
62
7
70
0
10
0.000000
20
0.000000
66
1
0
VERTEX
8
Layer 1
10
78.061333
20
89.336142
70
0
0
VERTEX
8
Layer 1
10
76.696349
20
88.970489
70
0
0
SEQEND
8
Layer 1
0
POLYLINE
8
Layer 1
62
7
70
0
10
0.000000
20
0.000000
66
1
0
VERTEX
8
Layer 1
10
76.696349
20
88.970489
70
0
0
VERTEX
8
Layer 1
10
75.377403
20
88.464077
70
0
0
SEQEND
8
Layer 1
0
POLYLINE
8
Layer 1
62
7
70
0
10
0.000000
20
0.000000
66
1
0
VERTEX
8
Layer 1
10
75.377403
20
88.464077
70
0
0
VERTEX
8
Layer 1
10
74.118252
20
87.822463
70
0
0
SEQEND
8
Layer 1
0
POLYLINE
8
Layer 1
62
7
70
0
10
0.000000
20
0.000000
66
1
0
VERTEX
8
Layer 1
10
74.118252
20
87.822463
70
0
0
VERTEX
8
Layer 1
10
72.933185
20
87.052791
70
0
0
SEQEND
8
Layer 1
0
POLYLINE
8
Layer 1
62
7
70
0
10
0.000000
20
0.000000
66
1
0
VERTEX
8
Layer 1
10
72.933185
20
87.052791
70
0
0
VERTEX
8
Layer 1
10
71.835166
20
86.163528
70
0
0
SEQEND
8
Layer 1
0
POLYLINE
8
Layer 1
62
7
70
0
10
0.000000
20
0.000000
66
1
0
VERTEX
8
Layer 1
10
71.835166
20
86.163528
70
0
0
VERTEX
8
Layer 1
10
70.836365
20
85.164462
70
0
0
SEQEND
8
Layer 1
0
POLYLINE
8
Layer 1
62
7
70
0
10
0.000000
20
0.000000
66
1
0
VERTEX
8
Layer 1
10
70.836365
20
85.164462
70
0
0
VERTEX
8
Layer 1
10
69.946308
20
84.066178
70
0
0
SEQEND
8
Layer 1
0
POLYLINE
8
Layer 1
62
7
70
0
10
0.000000
20
0.000000
66
1
0
VERTEX
8
Layer 1
10
69.946308
20
84.066178
70
0
0
VERTEX
8
Layer 1
10
69.177165
20
82.881111
70
0
0
SEQEND
8
Layer 1
0
POLYLINE
8
Layer 1
62
7
70
0
10
0.000000
20
0.000000
66
1
0
VERTEX
8
Layer 1
10
69.177165
20
82.881111
70
0
0
VERTEX
8
Layer 1
10
68.535286
20
81.621960
70
0
0
SEQEND
8
Layer 1
0
POLYLINE
8
Layer 1
62
7
70
0
10
0.000000
20
0.000000
66
1
0
VERTEX
8
Layer 1
10
68.535286
20
81.621960
70
0
0
VERTEX
8
Layer 1
10
68.029404
20
80.302750
70
0
0
SEQEND
8
Layer 1
0
POLYLINE
8
Layer 1
62
7
70
0
10
0.000000
20
0.000000
66
1
0
VERTEX
8
Layer 1
10
68.029404
20
80.302750
70
0
0
VERTEX
8
Layer 1
10
67.663221
20
78.937766
70
0
0
SEQEND
8
Layer 1
0
POLYLINE
8
Layer 1
62
7
70
0
10
0.000000
20
0.000000
66
1
0
VERTEX
8
Layer 1
10
67.663221
20
78.937766
70
0
0
VERTEX
8
Layer 1
10
67.442294
20
77.542091
70
0
0
SEQEND
8
Layer 1
0
POLYLINE
8
Layer 1
62
7
70
0
10
0.000000
20
0.000000
66
1
0
VERTEX
8
Layer 1
10
67.442294
20
77.542091
70
0
0
VERTEX
8
Layer 1
10
67.368211
20
76.131069
70
0
0
SEQEND
8
Layer 1
0
POLYLINE
8
Layer 1
62
7
70
0
10
0.000000
20
0.000000
66
1
0
VERTEX
8
Layer 1
10
67.368211
20
76.131069
70
0
0
VERTEX
8
Layer 1
10
67.442294
20
74.720048
70
0
0
SEQEND
8
Layer 1
0
POLYLINE
8
Layer 1
62
7
70
0
10
0.000000
20
0.000000
66
1
0
VERTEX
8
Layer 1
10
67.442294
20
74.720048
70
0
0
VERTEX
8
Layer 1
10
67.663221
20
73.324373
70
0
0
SEQEND
8
Layer 1
0
POLYLINE
8
Layer 1
62
7
70
0
10
0.000000
20
0.000000
66
1
0
VERTEX
8
Layer 1
10
67.663221
20
73.324373
70
0
0
VERTEX
8
Layer 1
10
68.029404
20
71.959389
70
0
0
SEQEND
8
Layer 1
0
POLYLINE
8
Layer 1
62
7
70
0
10
0.000000
20
0.000000
66
1
0
VERTEX
8
Layer 1
10
68.029404
20
71.959389
70
0
0
VERTEX
8
Layer 1
10
68.535286
20
70.640178
70
0
0
SEQEND
8
Layer 1
0
POLYLINE
8
Layer 1
62
7
70
0
10
0.000000
20
0.000000
66
1
0
VERTEX
8
Layer 1
10
68.535286
20
70.640178
70
0
0
VERTEX
8
Layer 1
10
69.177165
20
69.381028
70
0
0
SEQEND
8
Layer 1
0
POLYLINE
8
Layer 1
62
7
70
0
10
0.000000
20
0.000000
66
1
0
VERTEX
8
Layer 1
10
69.177165
20
69.381028
70
0
0
VERTEX
8
Layer 1
10
69.946308
20
68.195961
70
0
0
SEQEND
8
Layer 1
0
POLYLINE
8
Layer 1
62
7
70
0
10
0.000000
20
0.000000
66
1
0
VERTEX
8
Layer 1
10
69.946308
20
68.195961
70
0
0
VERTEX
8
Layer 1
10
70.836365
20
67.097677
70
0
0
SEQEND
8
Layer 1
0
POLYLINE
8
Layer 1
62
7
70
0
10
0.000000
20
0.000000
66
1
0
VERTEX
8
Layer 1
10
70.836365
20
67.097677
70
0
0
VERTEX
8
Layer 1
10
71.835166
20
66.098611
70
0
0
SEQEND
8
Layer 1
0
POLYLINE
8
Layer 1
62
7
70
0
10
0.000000
20
0.000000
66
1
0
VERTEX
8
Layer 1
10
71.835166
20
66.098611
70
0
0
VERTEX
8
Layer 1
10
72.933185
20
65.209348
70
0
0
SEQEND
8
Layer 1
0
POLYLINE
8
Layer 1
62
7
70
0
10
0.000000
20
0.000000
66
1
0
VERTEX
8
Layer 1
10
72.933185
20
65.209348
70
0
0
VERTEX
8
Layer 1
10
74.118252
20
64.439676
70
0
0
SEQEND
8
Layer 1
0
POLYLINE
8
Layer 1
62
7
70
0
10
0.000000
20
0.000000
66
1
0
VERTEX
8
Layer 1
10
74.118252
20
64.439676
70
0
0
VERTEX
8
Layer 1
10
75.377403
20
63.798327
70
0
0
SEQEND
8
Layer 1
0
POLYLINE
8
Layer 1
62
7
70
0
10
0.000000
20
0.000000
66
1
0
VERTEX
8
Layer 1
10
75.377403
20
63.798327
70
0
0
VERTEX
8
Layer 1
10
76.696349
20
63.291915
70
0
0
SEQEND
8
Layer 1
0
POLYLINE
8
Layer 1
62
7
70
0
10
0.000000
20
0.000000
66
1
0
VERTEX
8
Layer 1
10
76.696349
20
63.291915
70
0
0
VERTEX
8
Layer 1
10
78.061333
20
62.925996
70
0
0
SEQEND
8
Layer 1
0
POLYLINE
8
Layer 1
62
7
70
0
10
0.000000
20
0.000000
66
1
0
VERTEX
8
Layer 1
10
78.061333
20
62.925996
70
0
0
VERTEX
8
Layer 1
10
79.457273
20
62.705070
70
0
0
SEQEND
8
Layer 1
0
POLYLINE
8
Layer 1
62
7
70
0
10
0.000000
20
0.000000
66
1
0
VERTEX
8
Layer 1
10
79.457273
20
62.705070
70
0
0
VERTEX
8
Layer 1
10
80.868294
20
62.630986
70
0
0
SEQEND
8
Layer 1
0
POLYLINE
8
Layer 1
62
7
70
0
10
0.000000
20
0.000000
66
1
0
VERTEX
8
Layer 1
10
80.868294
20
62.630986
70
0
0
VERTEX
8
Layer 1
10
82.279315
20
62.705070
70
0
0
SEQEND
8
Layer 1
0
POLYLINE
8
Layer 1
62
7
70
0
10
0.000000
20
0.000000
66
1
0
VERTEX
8
Layer 1
10
82.279315
20
62.705070
70
0
0
VERTEX
8
Layer 1
10
83.675255
20
62.925996
70
0
0
SEQEND
8
Layer 1
0
POLYLINE
8
Layer 1
62
7
70
0
10
0.000000
20
0.000000
66
1
0
VERTEX
8
Layer 1
10
83.675255
20
62.925996
70
0
0
VERTEX
8
Layer 1
10
85.040239
20
63.291915
70
0
0
SEQEND
8
Layer 1
0
POLYLINE
8
Layer 1
62
7
70
0
10
0.000000
20
0.000000
66
1
0
VERTEX
8
Layer 1
10
85.040239
20
63.291915
70
0
0
VERTEX
8
Layer 1
10
86.359185
20
63.798327
70
0
0
SEQEND
8
Layer 1
0
POLYLINE
8
Layer 1
62
7
70
0
10
0.000000
20
0.000000
66
1
0
VERTEX
8
Layer 1
10
86.359185
20
63.798327
70
0
0
VERTEX
8
Layer 1
10
87.618335
20
64.439676
70
0
0
SEQEND
8
Layer 1
0
POLYLINE
8
Layer 1
62
7
70
0
10
0.000000
20
0.000000
66
1
0
VERTEX
8
Layer 1
10
87.618335
20
64.439676
70
0
0
VERTEX
8
Layer 1
10
88.803138
20
65.209348
70
0
0
SEQEND
8
Layer 1
0
POLYLINE
8
Layer 1
62
7
70
0
10
0.000000
20
0.000000
66
1
0
VERTEX
8
Layer 1
10
88.803138
20
65.209348
70
0
0
VERTEX
8
Layer 1
10
89.901157
20
66.098611
70
0
0
SEQEND
8
Layer 1
0
POLYLINE
8
Layer 1
62
7
70
0
10
0.000000
20
0.000000
66
1
0
VERTEX
8
Layer 1
10
89.901157
20
66.098611
70
0
0
VERTEX
8
Layer 1
10
90.900223
20
67.097677
70
0
0
SEQEND
8
Layer 1
0
POLYLINE
8
Layer 1
62
7
70
0
10
0.000000
20
0.000000
66
1
0
VERTEX
8
Layer 1
10
90.900223
20
67.097677
70
0
0
VERTEX
8
Layer 1
10
91.790280
20
68.195961
70
0
0
SEQEND
8
Layer 1
0
POLYLINE
8
Layer 1
62
7
70
0
10
0.000000
20
0.000000
66
1
0
VERTEX
8
Layer 1
10
91.790280
20
68.195961
70
0
0
VERTEX
8
Layer 1
10
92.559158
20
69.381028
70
0
0
SEQEND
8
Layer 1
0
POLYLINE
8
Layer 1
62
7
70
0
10
0.000000
20
0.000000
66
1
0
VERTEX
8
Layer 1
10
92.559158
20
69.381028
70
0
0
VERTEX
8
Layer 1
10
93.201301
20
70.640178
70
0
0
SEQEND
8
Layer 1
0
POLYLINE
8
Layer 1
62
7
70
0
10
0.000000
20
0.000000
66
1
0
VERTEX
8
Layer 1
10
93.201301
20
70.640178
70
0
0
VERTEX
8
Layer 1
10
93.707184
20
71.959389
70
0
0
SEQEND
8
Layer 1
0
POLYLINE
8
Layer 1
62
7
70
0
10
0.000000
20
0.000000
66
1
0
VERTEX
8
Layer 1
10
93.707184
20
71.959389
70
0
0
VERTEX
8
Layer 1
10
94.073367
20
73.324373
70
0
0
SEQEND
8
Layer 1
0
POLYLINE
8
Layer 1
62
7
70
0
10
0.000000
20
0.000000
66
1
0
VERTEX
8
Layer 1
10
94.073367
20
73.324373
70
0
0
VERTEX
8
Layer 1
10
94.294294
20
74.720048
70
0
0
SEQEND
8
Layer 1
0
POLYLINE
8
Layer 1
62
7
70
0
10
0.000000
20
0.000000
66
1
0
VERTEX
8
Layer 1
10
94.294294
20
74.720048
70
0
0
VERTEX
8
Layer 1
10
94.368377
20
76.131069
70
0
0
SEQEND
8
Layer 1
0
POLYLINE
8
Layer 1
62
7
70
0
10
0.000000
20
0.000000
66
1
0
VERTEX
8
Layer 1
10
94.368377
20
76.131069
70
0
0
VERTEX
8
Layer 1
10
94.294294
20
77.542091
70
0
0
SEQEND
8
Layer 1
0
POLYLINE
8
Layer 1
62
7
70
0
10
0.000000
20
0.000000
66
1
0
VERTEX
8
Layer 1
10
170.725179
20
8.131122
70
0
0
VERTEX
8
Layer 1
10
129.011287
20
8.131122
70
0
0
SEQEND
8
Layer 1
0
POLYLINE
8
Layer 1
62
7
70
0
10
0.000000
20
0.000000
66
1
0
VERTEX
8
Layer 1
10
129.011287
20
8.131122
70
0
0
VERTEX
8
Layer 1
10
129.011287
20
4.131156
70
0
0
SEQEND
8
Layer 1
0
POLYLINE
8
Layer 1
62
7
70
0
10
0.000000
20
0.000000
66
1
0
VERTEX
8
Layer 1
10
129.011287
20
4.131156
70
0
0
VERTEX
8
Layer 1
10
170.725179
20
4.131156
70
0
0
SEQEND
8
Layer 1
0
POLYLINE
8
Layer 1
62
7
70
0
10
0.000000
20
0.000000
66
1
0
VERTEX
8
Layer 1
10
170.725179
20
4.131156
70
0
0
VERTEX
8
Layer 1
10
170.725179
20
8.131122
70
0
0
SEQEND
8
Layer 1
0
POLYLINE
8
Layer 1
62
7
70
0
10
0.000000
20
0.000000
66
1
0
VERTEX
8
Layer 1
10
234.294155
20
77.542091
70
0
0
VERTEX
8
Layer 1
10
234.072963
20
78.937766
70
0
0
SEQEND
8
Layer 1
0
POLYLINE
8
Layer 1
62
7
70
0
10
0.000000
20
0.000000
66
1
0
VERTEX
8
Layer 1
10
234.072963
20
78.937766
70
0
0
VERTEX
8
Layer 1
10
233.707045
20
80.302750
70
0
0
SEQEND
8
Layer 1
0
POLYLINE
8
Layer 1
62
7
70
0
10
0.000000
20
0.000000
66
1
0
VERTEX
8
Layer 1
10
233.707045
20
80.302750
70
0
0
VERTEX
8
Layer 1
10
233.201162
20
81.621960
70
0
0
SEQEND
8
Layer 1
0
POLYLINE
8
Layer 1
62
7
70
0
10
0.000000
20
0.000000
66
1
0
VERTEX
8
Layer 1
10
233.201162
20
81.621960
70
0
0
VERTEX
8
Layer 1
10
232.559019
20
82.881111
70
0
0
SEQEND
8
Layer 1
0
POLYLINE
8
Layer 1
62
7
70
0
10
0.000000
20
0.000000
66
1
0
VERTEX
8
Layer 1
10
232.559019
20
82.881111
70
0
0
VERTEX
8
Layer 1
10
231.790141
20
84.066178
70
0
0
SEQEND
8
Layer 1
0
POLYLINE
8
Layer 1
62
7
70
0
10
0.000000
20
0.000000
66
1
0
VERTEX
8
Layer 1
10
231.790141
20
84.066178
70
0
0
VERTEX
8
Layer 1
10
230.900084
20
85.164462
70
0
0
SEQEND
8
Layer 1
0
POLYLINE
8
Layer 1
62
7
70
0
10
0.000000
20
0.000000
66
1
0
VERTEX
8
Layer 1
10
230.900084
20
85.164462
70
0
0
VERTEX
8
Layer 1
10
229.901019
20
86.163528
70
0
0
SEQEND
8
Layer 1
0
POLYLINE
8
Layer 1
62
7
70
0
10
0.000000
20
0.000000
66
1
0
VERTEX
8
Layer 1
10
229.901019
20
86.163528
70
0
0
VERTEX
8
Layer 1
10
228.802999
20
87.052791
70
0
0
SEQEND
8
Layer 1
0
POLYLINE
8
Layer 1
62
7
70
0
10
0.000000
20
0.000000
66
1
0
VERTEX
8
Layer 1
10
228.802999
20
87.052791
70
0
0
VERTEX
8
Layer 1
10
227.618196
20
87.822463
70
0
0
SEQEND
8
Layer 1
0
POLYLINE
8
Layer 1
62
7
70
0
10
0.000000
20
0.000000
66
1
0
VERTEX
8
Layer 1
10
227.618196
20
87.822463
70
0
0
VERTEX
8
Layer 1
10
226.359046
20
88.464077
70
0
0
SEQEND
8
Layer 1
0
POLYLINE
8
Layer 1
62
7
70
0
10
0.000000
20
0.000000
66
1
0
VERTEX
8
Layer 1
10
226.359046
20
88.464077
70
0
0
VERTEX
8
Layer 1
10
225.040100
20
88.970489
70
0
0
SEQEND
8
Layer 1
0
POLYLINE
8
Layer 1
62
7
70
0
10
0.000000
20
0.000000
66
1
0
VERTEX
8
Layer 1
10
225.040100
20
88.970489
70
0
0
VERTEX
8
Layer 1
10
223.675116
20
89.336142
70
0
0
SEQEND
8
Layer 1
0
POLYLINE
8
Layer 1
62
7
70
0
10
0.000000
20
0.000000
66
1
0
VERTEX
8
Layer 1
10
223.675116
20
89.336142
70
0
0
VERTEX
8
Layer 1
10
222.279176
20
89.557069
70
0
0
SEQEND
8
Layer 1
0
POLYLINE
8
Layer 1
62
7
70
0
10
0.000000
20
0.000000
66
1
0
VERTEX
8
Layer 1
10
222.279176
20
89.557069
70
0
0
VERTEX
8
Layer 1
10
220.868155
20
89.631152
70
0
0
SEQEND
8
Layer 1
0
POLYLINE
8
Layer 1
62
7
70
0
10
0.000000
20
0.000000
66
1
0
VERTEX
8
Layer 1
10
220.868155
20
89.631152
70
0
0
VERTEX
8
Layer 1
10
219.457134
20
89.557069
70
0
0
SEQEND
8
Layer 1
0
POLYLINE
8
Layer 1
62
7
70
0
10
0.000000
20
0.000000
66
1
0
VERTEX
8
Layer 1
10
219.457134
20
89.557069
70
0
0
VERTEX
8
Layer 1
10
218.061194
20
89.336142
70
0
0
SEQEND
8
Layer 1
0
POLYLINE
8
Layer 1
62
7
70
0
10
0.000000
20
0.000000
66
1
0
VERTEX
8
Layer 1
10
218.061194
20
89.336142
70
0
0
VERTEX
8
Layer 1
10
216.696210
20
88.970489
70
0
0
SEQEND
8
Layer 1
0
POLYLINE
8
Layer 1
62
7
70
0
10
0.000000
20
0.000000
66
1
0
VERTEX
8
Layer 1
10
216.696210
20
88.970489
70
0
0
VERTEX
8
Layer 1
10
215.376999
20
88.464077
70
0
0
SEQEND
8
Layer 1
0
POLYLINE
8
Layer 1
62
7
70
0
10
0.000000
20
0.000000
66
1
0
VERTEX
8
Layer 1
10
215.376999
20
88.464077
70
0
0
VERTEX
8
Layer 1
10
214.118113
20
87.822463
70
0
0
SEQEND
8
Layer 1
0
POLYLINE
8
Layer 1
62
7
70
0
10
0.000000
20
0.000000
66
1
0
VERTEX
8
Layer 1
10
214.118113
20
87.822463
70
0
0
VERTEX
8
Layer 1
10
212.933046
20
87.052791
70
0
0
SEQEND
8
Layer 1
0
POLYLINE
8
Layer 1
62
7
70
0
10
0.000000
20
0.000000
66
1
0
VERTEX
8
Layer 1
10
212.933046
20
87.052791
70
0
0
VERTEX
8
Layer 1
10
211.835027
20
86.163528
70
0
0
SEQEND
8
Layer 1
0
POLYLINE
8
Layer 1
62
7
70
0
10
0.000000
20
0.000000
66
1
0
VERTEX
8
Layer 1
10
211.835027
20
86.163528
70
0
0
VERTEX
8
Layer 1
10
210.836226
20
85.164462
70
0
0
SEQEND
8
Layer 1
0
POLYLINE
8
Layer 1
62
7
70
0
10
0.000000
20
0.000000
66
1
0
VERTEX
8
Layer 1
10
210.836226
20
85.164462
70
0
0
VERTEX
8
Layer 1
10
209.946169
20
84.066178
70
0
0
SEQEND
8
Layer 1
0
POLYLINE
8
Layer 1
62
7
70
0
10
0.000000
20
0.000000
66
1
0
VERTEX
8
Layer 1
10
209.946169
20
84.066178
70
0
0
VERTEX
8
Layer 1
10
209.177026
20
82.881111
70
0
0
SEQEND
8
Layer 1
0
POLYLINE
8
Layer 1
62
7
70
0
10
0.000000
20
0.000000
66
1
0
VERTEX
8
Layer 1
10
209.177026
20
82.881111
70
0
0
VERTEX
8
Layer 1
10
208.535148
20
81.621960
70
0
0
SEQEND
8
Layer 1
0
POLYLINE
8
Layer 1
62
7
70
0
10
0.000000
20
0.000000
66
1
0
VERTEX
8
Layer 1
10
208.535148
20
81.621960
70
0
0
VERTEX
8
Layer 1
10
208.029000
20
80.302750
70
0
0
SEQEND
8
Layer 1
0
POLYLINE
8
Layer 1
62
7
70
0
10
0.000000
20
0.000000
66
1
0
VERTEX
8
Layer 1
10
208.029000
20
80.302750
70
0
0
VERTEX
8
Layer 1
10
207.663082
20
78.937766
70
0
0
SEQEND
8
Layer 1
0
POLYLINE
8
Layer 1
62
7
70
0
10
0.000000
20
0.000000
66
1
0
VERTEX
8
Layer 1
10
207.663082
20
78.937766
70
0
0
VERTEX
8
Layer 1
10
207.442155
20
77.542091
70
0
0
SEQEND
8
Layer 1
0
POLYLINE
8
Layer 1
62
7
70
0
10
0.000000
20
0.000000
66
1
0
VERTEX
8
Layer 1
10
207.442155
20
77.542091
70
0
0
VERTEX
8
Layer 1
10
207.368072
20
76.131069
70
0
0
SEQEND
8
Layer 1
0
POLYLINE
8
Layer 1
62
7
70
0
10
0.000000
20
0.000000
66
1
0
VERTEX
8
Layer 1
10
207.368072
20
76.131069
70
0
0
VERTEX
8
Layer 1
10
207.442155
20
74.720048
70
0
0
SEQEND
8
Layer 1
0
POLYLINE
8
Layer 1
62
7
70
0
10
0.000000
20
0.000000
66
1
0
VERTEX
8
Layer 1
10
207.442155
20
74.720048
70
0
0
VERTEX
8
Layer 1
10
207.663082
20
73.324373
70
0
0
SEQEND
8
Layer 1
0
POLYLINE
8
Layer 1
62
7
70
0
10
0.000000
20
0.000000
66
1
0
VERTEX
8
Layer 1
10
207.663082
20
73.324373
70
0
0
VERTEX
8
Layer 1
10
208.029000
20
71.959389
70
0
0
SEQEND
8
Layer 1
0
POLYLINE
8
Layer 1
62
7
70
0
10
0.000000
20
0.000000
66
1
0
VERTEX
8
Layer 1
10
208.029000
20
71.959389
70
0
0
VERTEX
8
Layer 1
10
208.535148
20
70.640178
70
0
0
SEQEND
8
Layer 1
0
POLYLINE
8
Layer 1
62
7
70
0
10
0.000000
20
0.000000
66
1
0
VERTEX
8
Layer 1
10
208.535148
20
70.640178
70
0
0
VERTEX
8
Layer 1
10
209.177026
20
69.381028
70
0
0
SEQEND
8
Layer 1
0
POLYLINE
8
Layer 1
62
7
70
0
10
0.000000
20
0.000000
66
1
0
VERTEX
8
Layer 1
10
209.177026
20
69.381028
70
0
0
VERTEX
8
Layer 1
10
209.946169
20
68.195961
70
0
0
SEQEND
8
Layer 1
0
POLYLINE
8
Layer 1
62
7
70
0
10
0.000000
20
0.000000
66
1
0
VERTEX
8
Layer 1
10
209.946169
20
68.195961
70
0
0
VERTEX
8
Layer 1
10
210.836226
20
67.097677
70
0
0
SEQEND
8
Layer 1
0
POLYLINE
8
Layer 1
62
7
70
0
10
0.000000
20
0.000000
66
1
0
VERTEX
8
Layer 1
10
210.836226
20
67.097677
70
0
0
VERTEX
8
Layer 1
10
211.835027
20
66.098611
70
0
0
SEQEND
8
Layer 1
0
POLYLINE
8
Layer 1
62
7
70
0
10
0.000000
20
0.000000
66
1
0
VERTEX
8
Layer 1
10
211.835027
20
66.098611
70
0
0
VERTEX
8
Layer 1
10
212.933046
20
65.209348
70
0
0
SEQEND
8
Layer 1
0
POLYLINE
8
Layer 1
62
7
70
0
10
0.000000
20
0.000000
66
1
0
VERTEX
8
Layer 1
10
212.933046
20
65.209348
70
0
0
VERTEX
8
Layer 1
10
214.118113
20
64.439676
70
0
0
SEQEND
8
Layer 1
0
POLYLINE
8
Layer 1
62
7
70
0
10
0.000000
20
0.000000
66
1
0
VERTEX
8
Layer 1
10
214.118113
20
64.439676
70
0
0
VERTEX
8
Layer 1
10
215.376999
20
63.798327
70
0
0
SEQEND
8
Layer 1
0
POLYLINE
8
Layer 1
62
7
70
0
10
0.000000
20
0.000000
66
1
0
VERTEX
8
Layer 1
10
215.376999
20
63.798327
70
0
0
VERTEX
8
Layer 1
10
216.696210
20
63.291915
70
0
0
SEQEND
8
Layer 1
0
POLYLINE
8
Layer 1
62
7
70
0
10
0.000000
20
0.000000
66
1
0
VERTEX
8
Layer 1
10
216.696210
20
63.291915
70
0
0
VERTEX
8
Layer 1
10
218.061194
20
62.925996
70
0
0
SEQEND
8
Layer 1
0
POLYLINE
8
Layer 1
62
7
70
0
10
0.000000
20
0.000000
66
1
0
VERTEX
8
Layer 1
10
218.061194
20
62.925996
70
0
0
VERTEX
8
Layer 1
10
219.457134
20
62.705070
70
0
0
SEQEND
8
Layer 1
0
POLYLINE
8
Layer 1
62
7
70
0
10
0.000000
20
0.000000
66
1
0
VERTEX
8
Layer 1
10
219.457134
20
62.705070
70
0
0
VERTEX
8
Layer 1
10
220.868155
20
62.630986
70
0
0
SEQEND
8
Layer 1
0
POLYLINE
8
Layer 1
62
7
70
0
10
0.000000
20
0.000000
66
1
0
VERTEX
8
Layer 1
10
220.868155
20
62.630986
70
0
0
VERTEX
8
Layer 1
10
222.279176
20
62.705070
70
0
0
SEQEND
8
Layer 1
0
POLYLINE
8
Layer 1
62
7
70
0
10
0.000000
20
0.000000
66
1
0
VERTEX
8
Layer 1
10
222.279176
20
62.705070
70
0
0
VERTEX
8
Layer 1
10
223.675116
20
62.925996
70
0
0
SEQEND
8
Layer 1
0
POLYLINE
8
Layer 1
62
7
70
0
10
0.000000
20
0.000000
66
1
0
VERTEX
8
Layer 1
10
223.675116
20
62.925996
70
0
0
VERTEX
8
Layer 1
10
225.040100
20
63.291915
70
0
0
SEQEND
8
Layer 1
0
POLYLINE
8
Layer 1
62
7
70
0
10
0.000000
20
0.000000
66
1
0
VERTEX
8
Layer 1
10
225.040100
20
63.291915
70
0
0
VERTEX
8
Layer 1
10
226.359046
20
63.798327
70
0
0
SEQEND
8
Layer 1
0
POLYLINE
8
Layer 1
62
7
70
0
10
0.000000
20
0.000000
66
1
0
VERTEX
8
Layer 1
10
226.359046
20
63.798327
70
0
0
VERTEX
8
Layer 1
10
227.618196
20
64.439676
70
0
0
SEQEND
8
Layer 1
0
POLYLINE
8
Layer 1
62
7
70
0
10
0.000000
20
0.000000
66
1
0
VERTEX
8
Layer 1
10
227.618196
20
64.439676
70
0
0
VERTEX
8
Layer 1
10
228.802999
20
65.209348
70
0
0
SEQEND
8
Layer 1
0
POLYLINE
8
Layer 1
62
7
70
0
10
0.000000
20
0.000000
66
1
0
VERTEX
8
Layer 1
10
228.802999
20
65.209348
70
0
0
VERTEX
8
Layer 1
10
229.901019
20
66.098611
70
0
0
SEQEND
8
Layer 1
0
POLYLINE
8
Layer 1
62
7
70
0
10
0.000000
20
0.000000
66
1
0
VERTEX
8
Layer 1
10
229.901019
20
66.098611
70
0
0
VERTEX
8
Layer 1
10
230.900084
20
67.097677
70
0
0
SEQEND
8
Layer 1
0
POLYLINE
8
Layer 1
62
7
70
0
10
0.000000
20
0.000000
66
1
0
VERTEX
8
Layer 1
10
230.900084
20
67.097677
70
0
0
VERTEX
8
Layer 1
10
231.790141
20
68.195961
70
0
0
SEQEND
8
Layer 1
0
POLYLINE
8
Layer 1
62
7
70
0
10
0.000000
20
0.000000
66
1
0
VERTEX
8
Layer 1
10
231.790141
20
68.195961
70
0
0
VERTEX
8
Layer 1
10
232.559019
20
69.381028
70
0
0
SEQEND
8
Layer 1
0
POLYLINE
8
Layer 1
62
7
70
0
10
0.000000
20
0.000000
66
1
0
VERTEX
8
Layer 1
10
232.559019
20
69.381028
70
0
0
VERTEX
8
Layer 1
10
233.201162
20
70.640178
70
0
0
SEQEND
8
Layer 1
0
POLYLINE
8
Layer 1
62
7
70
0
10
0.000000
20
0.000000
66
1
0
VERTEX
8
Layer 1
10
233.201162
20
70.640178
70
0
0
VERTEX
8
Layer 1
10
233.707045
20
71.959389
70
0
0
SEQEND
8
Layer 1
0
POLYLINE
8
Layer 1
62
7
70
0
10
0.000000
20
0.000000
66
1
0
VERTEX
8
Layer 1
10
233.707045
20
71.959389
70
0
0
VERTEX
8
Layer 1
10
234.072963
20
73.324373
70
0
0
SEQEND
8
Layer 1
0
POLYLINE
8
Layer 1
62
7
70
0
10
0.000000
20
0.000000
66
1
0
VERTEX
8
Layer 1
10
234.072963
20
73.324373
70
0
0
VERTEX
8
Layer 1
10
234.294155
20
74.720048
70
0
0
SEQEND
8
Layer 1
0
POLYLINE
8
Layer 1
62
7
70
0
10
0.000000
20
0.000000
66
1
0
VERTEX
8
Layer 1
10
234.294155
20
74.720048
70
0
0
VERTEX
8
Layer 1
10
234.367973
20
76.131069
70
0
0
SEQEND
8
Layer 1
0
POLYLINE
8
Layer 1
62
7
70
0
10
0.000000
20
0.000000
66
1
0
VERTEX
8
Layer 1
10
234.367973
20
76.131069
70
0
0
VERTEX
8
Layer 1
10
234.294155
20
77.542091
70
0
0
SEQEND
8
Layer 1
0
POLYLINE
8
Layer 1
62
7
70
0
10
0.000000
20
0.000000
66
1
0
VERTEX
8
Layer 1
10
254.154019
20
8.131122
70
0
0
VERTEX
8
Layer 1
10
212.439070
20
8.131122
70
0
0
SEQEND
8
Layer 1
0
POLYLINE
8
Layer 1
62
7
70
0
10
0.000000
20
0.000000
66
1
0
VERTEX
8
Layer 1
10
212.439070
20
8.131122
70
0
0
VERTEX
8
Layer 1
10
212.439070
20
4.131156
70
0
0
SEQEND
8
Layer 1
0
POLYLINE
8
Layer 1
62
7
70
0
10
0.000000
20
0.000000
66
1
0
VERTEX
8
Layer 1
10
212.439070
20
4.131156
70
0
0
VERTEX
8
Layer 1
10
254.154019
20
4.131156
70
0
0
SEQEND
8
Layer 1
0
POLYLINE
8
Layer 1
62
7
70
0
10
0.000000
20
0.000000
66
1
0
VERTEX
8
Layer 1
10
254.154019
20
4.131156
70
0
0
VERTEX
8
Layer 1
10
254.154019
20
8.131122
70
0
0
SEQEND
8
Layer 1
0
POLYLINE
8
Layer 1
62
7
70
0
10
0.000000
20
0.000000
66
1
0
VERTEX
8
Layer 1
10
295.968169
20
239.391000
70
0
0
VERTEX
8
Layer 1
10
295.968169
20
251.557691
70
0
0
SEQEND
8
Layer 1
0
POLYLINE
8
Layer 1
62
7
70
0
10
0.000000
20
0.000000
66
1
0
VERTEX
8
Layer 1
10
295.968169
20
251.557691
70
0
0
VERTEX
8
Layer 1
10
299.968664
20
251.557691
70
0
0
SEQEND
8
Layer 1
0
POLYLINE
8
Layer 1
62
7
70
0
10
0.000000
20
0.000000
66
1
0
VERTEX
8
Layer 1
10
299.968664
20
251.557691
70
0
0
VERTEX
8
Layer 1
10
299.968664
20
263.724275
70
0
0
SEQEND
8
Layer 1
0
POLYLINE
8
Layer 1
62
7
70
0
10
0.000000
20
0.000000
66
1
0
VERTEX
8
Layer 1
10
299.968664
20
263.724275
70
0
0
VERTEX
8
Layer 1
10
295.968169
20
263.724275
70
0
0
SEQEND
8
Layer 1
0
POLYLINE
8
Layer 1
62
7
70
0
10
0.000000
20
0.000000
66
1
0
VERTEX
8
Layer 1
10
295.968169
20
263.724275
70
0
0
VERTEX
8
Layer 1
10
295.968169
20
275.891019
70
0
0
SEQEND
8
Layer 1
0
POLYLINE
8
Layer 1
62
7
70
0
10
0.000000
20
0.000000
66
1
0
VERTEX
8
Layer 1
10
295.968169
20
275.891019
70
0
0
VERTEX
8
Layer 1
10
299.968664
20
275.891019
70
0
0
SEQEND
8
Layer 1
0
POLYLINE
8
Layer 1
62
7
70
0
10
0.000000
20
0.000000
66
1
0
VERTEX
8
Layer 1
10
299.968664
20
275.891019
70
0
0
VERTEX
8
Layer 1
10
299.968664
20
288.057603
70
0
0
SEQEND
8
Layer 1
0
POLYLINE
8
Layer 1
62
7
70
0
10
0.000000
20
0.000000
66
1
0
VERTEX
8
Layer 1
10
299.968664
20
288.057603
70
0
0
VERTEX
8
Layer 1
10
295.968169
20
288.057603
70
0
0
SEQEND
8
Layer 1
0
POLYLINE
8
Layer 1
62
7
70
0
10
0.000000
20
0.000000
66
1
0
VERTEX
8
Layer 1
10
295.968169
20
288.057603
70
0
0
VERTEX
8
Layer 1
10
295.968169
20
300.224188
70
0
0
SEQEND
8
Layer 1
0
POLYLINE
8
Layer 1
62
7
70
0
10
0.000000
20
0.000000
66
1
0
VERTEX
8
Layer 1
10
295.968169
20
300.224188
70
0
0
VERTEX
8
Layer 1
10
299.968664
20
300.224188
70
0
0
SEQEND
8
Layer 1
0
POLYLINE
8
Layer 1
62
7
70
0
10
0.000000
20
0.000000
66
1
0
VERTEX
8
Layer 1
10
299.968664
20
300.224188
70
0
0
VERTEX
8
Layer 1
10
299.968664
20
312.391037
70
0
0
SEQEND
8
Layer 1
0
POLYLINE
8
Layer 1
62
7
70
0
10
0.000000
20
0.000000
66
1
0
VERTEX
8
Layer 1
10
299.968664
20
312.391037
70
0
0
VERTEX
8
Layer 1
10
295.968169
20
312.391037
70
0
0
SEQEND
8
Layer 1
0
POLYLINE
8
Layer 1
62
7
70
0
10
0.000000
20
0.000000
66
1
0
VERTEX
8
Layer 1
10
295.968169
20
312.391037
70
0
0
VERTEX
8
Layer 1
10
295.968169
20
324.557622
70
0
0
SEQEND
8
Layer 1
0
POLYLINE
8
Layer 1
62
7
70
0
10
0.000000
20
0.000000
66
1
0
VERTEX
8
Layer 1
10
295.968169
20
324.557622
70
0
0
VERTEX
8
Layer 1
10
299.968664
20
324.557622
70
0
0
SEQEND
8
Layer 1
0
POLYLINE
8
Layer 1
62
7
70
0
10
0.000000
20
0.000000
66
1
0
VERTEX
8
Layer 1
10
299.968664
20
324.557622
70
0
0
VERTEX
8
Layer 1
10
299.968664
20
336.724207
70
0
0
SEQEND
8
Layer 1
0
POLYLINE
8
Layer 1
62
7
70
0
10
0.000000
20
0.000000
66
1
0
VERTEX
8
Layer 1
10
299.968664
20
336.724207
70
0
0
VERTEX
8
Layer 1
10
295.968169
20
336.724207
70
0
0
SEQEND
8
Layer 1
0
POLYLINE
8
Layer 1
62
7
70
0
10
0.000000
20
0.000000
66
1
0
VERTEX
8
Layer 1
10
295.968169
20
336.724207
70
0
0
VERTEX
8
Layer 1
10
295.968169
20
348.890791
70
0
0
SEQEND
8
Layer 1
0
POLYLINE
8
Layer 1
62
7
70
0
10
0.000000
20
0.000000
66
1
0
VERTEX
8
Layer 1
10
295.968169
20
348.890791
70
0
0
VERTEX
8
Layer 1
10
299.968664
20
348.890791
70
0
0
SEQEND
8
Layer 1
0
POLYLINE
8
Layer 1
62
7
70
0
10
0.000000
20
0.000000
66
1
0
VERTEX
8
Layer 1
10
299.968664
20
348.890791
70
0
0
VERTEX
8
Layer 1
10
299.968664
20
361.057905
70
0
0
SEQEND
8
Layer 1
0
POLYLINE
8
Layer 1
62
7
70
0
10
0.000000
20
0.000000
66
1
0
VERTEX
8
Layer 1
10
299.968664
20
361.057905
70
0
0
VERTEX
8
Layer 1
10
295.968169
20
361.057905
70
0
0
SEQEND
8
Layer 1
0
POLYLINE
8
Layer 1
62
7
70
0
10
0.000000
20
0.000000
66
1
0
VERTEX
8
Layer 1
10
295.968169
20
361.057905
70
0
0
VERTEX
8
Layer 1
10
295.968169
20
373.223961
70
0
0
SEQEND
8
Layer 1
0
POLYLINE
8
Layer 1
62
7
70
0
10
0.000000
20
0.000000
66
1
0
VERTEX
8
Layer 1
10
295.968169
20
373.223961
70
0
0
VERTEX
8
Layer 1
10
299.968664
20
373.223961
70
0
0
SEQEND
8
Layer 1
0
POLYLINE
8
Layer 1
62
7
70
0
10
0.000000
20
0.000000
66
1
0
VERTEX
8
Layer 1
10
299.968664
20
373.223961
70
0
0
VERTEX
8
Layer 1
10
299.968664
20
385.390810
70
0
0
SEQEND
8
Layer 1
0
POLYLINE
8
Layer 1
62
7
70
0
10
0.000000
20
0.000000
66
1
0
VERTEX
8
Layer 1
10
299.968664
20
385.390810
70
0
0
VERTEX
8
Layer 1
10
3.968444
20
385.390810
70
0
0
SEQEND
8
Layer 1
0
POLYLINE
8
Layer 1
62
7
70
0
10
0.000000
20
0.000000
66
1
0
VERTEX
8
Layer 1
10
3.968444
20
385.390810
70
0
0
VERTEX
8
Layer 1
10
3.968444
20
373.223961
70
0
0
SEQEND
8
Layer 1
0
POLYLINE
8
Layer 1
62
7
70
0
10
0.000000
20
0.000000
66
1
0
VERTEX
8
Layer 1
10
3.968444
20
373.223961
70
0
0
VERTEX
8
Layer 1
10
-0.031541
20
373.223961
70
0
0
SEQEND
8
Layer 1
0
POLYLINE
8
Layer 1
62
7
70
0
10
0.000000
20
0.000000
66
1
0
VERTEX
8
Layer 1
10
-0.031541
20
373.223961
70
0
0
VERTEX
8
Layer 1
10
-0.031541
20
361.057905
70
0
0
SEQEND
8
Layer 1
0
POLYLINE
8
Layer 1
62
7
70
0
10
0.000000
20
0.000000
66
1
0
VERTEX
8
Layer 1
10
-0.031541
20
361.057905
70
0
0
VERTEX
8
Layer 1
10
3.968444
20
361.057905
70
0
0
SEQEND
8
Layer 1
0
POLYLINE
8
Layer 1
62
7
70
0
10
0.000000
20
0.000000
66
1
0
VERTEX
8
Layer 1
10
3.968444
20
361.057905
70
0
0
VERTEX
8
Layer 1
10
3.968444
20
348.890791
70
0
0
SEQEND
8
Layer 1
0
POLYLINE
8
Layer 1
62
7
70
0
10
0.000000
20
0.000000
66
1
0
VERTEX
8
Layer 1
10
3.968444
20
348.890791
70
0
0
VERTEX
8
Layer 1
10
-0.031541
20
348.890791
70
0
0
SEQEND
8
Layer 1
0
POLYLINE
8
Layer 1
62
7
70
0
10
0.000000
20
0.000000
66
1
0
VERTEX
8
Layer 1
10
-0.031541
20
348.890791
70
0
0
VERTEX
8
Layer 1
10
-0.031541
20
336.724207
70
0
0
SEQEND
8
Layer 1
0
POLYLINE
8
Layer 1
62
7
70
0
10
0.000000
20
0.000000
66
1
0
VERTEX
8
Layer 1
10
-0.031541
20
336.724207
70
0
0
VERTEX
8
Layer 1
10
3.968444
20
336.724207
70
0
0
SEQEND
8
Layer 1
0
POLYLINE
8
Layer 1
62
7
70
0
10
0.000000
20
0.000000
66
1
0
VERTEX
8
Layer 1
10
3.968444
20
336.724207
70
0
0
VERTEX
8
Layer 1
10
3.968444
20
324.557622
70
0
0
SEQEND
8
Layer 1
0
POLYLINE
8
Layer 1
62
7
70
0
10
0.000000
20
0.000000
66
1
0
VERTEX
8
Layer 1
10
3.968444
20
324.557622
70
0
0
VERTEX
8
Layer 1
10
-0.031541
20
324.557622
70
0
0
SEQEND
8
Layer 1
0
POLYLINE
8
Layer 1
62
7
70
0
10
0.000000
20
0.000000
66
1
0
VERTEX
8
Layer 1
10
-0.031541
20
324.557622
70
0
0
VERTEX
8
Layer 1
10
-0.031541
20
312.391037
70
0
0
SEQEND
8
Layer 1
0
POLYLINE
8
Layer 1
62
7
70
0
10
0.000000
20
0.000000
66
1
0
VERTEX
8
Layer 1
10
-0.031541
20
312.391037
70
0
0
VERTEX
8
Layer 1
10
3.968444
20
312.391037
70
0
0
SEQEND
8
Layer 1
0
POLYLINE
8
Layer 1
62
7
70
0
10
0.000000
20
0.000000
66
1
0
VERTEX
8
Layer 1
10
3.968444
20
312.391037
70
0
0
VERTEX
8
Layer 1
10
3.968444
20
300.224188
70
0
0
SEQEND
8
Layer 1
0
POLYLINE
8
Layer 1
62
7
70
0
10
0.000000
20
0.000000
66
1
0
VERTEX
8
Layer 1
10
3.968444
20
300.224188
70
0
0
VERTEX
8
Layer 1
10
-0.031541
20
300.224188
70
0
0
SEQEND
8
Layer 1
0
POLYLINE
8
Layer 1
62
7
70
0
10
0.000000
20
0.000000
66
1
0
VERTEX
8
Layer 1
10
-0.031541
20
300.224188
70
0
0
VERTEX
8
Layer 1
10
-0.031541
20
288.057603
70
0
0
SEQEND
8
Layer 1
0
POLYLINE
8
Layer 1
62
7
70
0
10
0.000000
20
0.000000
66
1
0
VERTEX
8
Layer 1
10
-0.031541
20
288.057603
70
0
0
VERTEX
8
Layer 1
10
3.968444
20
288.057603
70
0
0
SEQEND
8
Layer 1
0
POLYLINE
8
Layer 1
62
7
70
0
10
0.000000
20
0.000000
66
1
0
VERTEX
8
Layer 1
10
3.968444
20
288.057603
70
0
0
VERTEX
8
Layer 1
10
3.968444
20
275.891019
70
0
0
SEQEND
8
Layer 1
0
POLYLINE
8
Layer 1
62
7
70
0
10
0.000000
20
0.000000
66
1
0
VERTEX
8
Layer 1
10
3.968444
20
275.891019
70
0
0
VERTEX
8
Layer 1
10
-0.031541
20
275.891019
70
0
0
SEQEND
8
Layer 1
0
POLYLINE
8
Layer 1
62
7
70
0
10
0.000000
20
0.000000
66
1
0
VERTEX
8
Layer 1
10
-0.031541
20
275.891019
70
0
0
VERTEX
8
Layer 1
10
-0.031541
20
263.724275
70
0
0
SEQEND
8
Layer 1
0
POLYLINE
8
Layer 1
62
7
70
0
10
0.000000
20
0.000000
66
1
0
VERTEX
8
Layer 1
10
-0.031541
20
263.724275
70
0
0
VERTEX
8
Layer 1
10
3.968444
20
263.724275
70
0
0
SEQEND
8
Layer 1
0
POLYLINE
8
Layer 1
62
7
70
0
10
0.000000
20
0.000000
66
1
0
VERTEX
8
Layer 1
10
3.968444
20
263.724275
70
0
0
VERTEX
8
Layer 1
10
3.968444
20
251.557691
70
0
0
SEQEND
8
Layer 1
0
POLYLINE
8
Layer 1
62
7
70
0
10
0.000000
20
0.000000
66
1
0
VERTEX
8
Layer 1
10
3.968444
20
251.557691
70
0
0
VERTEX
8
Layer 1
10
-0.031541
20
251.557691
70
0
0
SEQEND
8
Layer 1
0
POLYLINE
8
Layer 1
62
7
70
0
10
0.000000
20
0.000000
66
1
0
VERTEX
8
Layer 1
10
-0.031541
20
251.557691
70
0
0
VERTEX
8
Layer 1
10
-0.031541
20
235.391008
70
0
0
SEQEND
8
Layer 1
0
POLYLINE
8
Layer 1
62
7
70
0
10
0.000000
20
0.000000
66
1
0
VERTEX
8
Layer 1
10
-0.031541
20
235.391008
70
0
0
VERTEX
8
Layer 1
10
3.968444
20
235.391008
70
0
0
SEQEND
8
Layer 1
0
POLYLINE
8
Layer 1
62
7
70
0
10
0.000000
20
0.000000
66
1
0
VERTEX
8
Layer 1
10
3.968444
20
235.391008
70
0
0
VERTEX
8
Layer 1
10
3.968444
20
239.391000
70
0
0
SEQEND
8
Layer 1
0
POLYLINE
8
Layer 1
62
7
70
0
10
0.000000
20
0.000000
66
1
0
VERTEX
8
Layer 1
10
3.968444
20
239.391000
70
0
0
VERTEX
8
Layer 1
10
28.301454
20
239.391000
70
0
0
SEQEND
8
Layer 1
0
POLYLINE
8
Layer 1
62
7
70
0
10
0.000000
20
0.000000
66
1
0
VERTEX
8
Layer 1
10
28.301454
20
239.391000
70
0
0
VERTEX
8
Layer 1
10
28.301454
20
235.391008
70
0
0
SEQEND
8
Layer 1
0
POLYLINE
8
Layer 1
62
7
70
0
10
0.000000
20
0.000000
66
1
0
VERTEX
8
Layer 1
10
28.301454
20
235.391008
70
0
0
VERTEX
8
Layer 1
10
52.635417
20
235.391008
70
0
0
SEQEND
8
Layer 1
0
POLYLINE
8
Layer 1
62
7
70
0
10
0.000000
20
0.000000
66
1
0
VERTEX
8
Layer 1
10
52.635417
20
235.391008
70
0
0
VERTEX
8
Layer 1
10
52.635417
20
239.391000
70
0
0
SEQEND
8
Layer 1
0
POLYLINE
8
Layer 1
62
7
70
0
10
0.000000
20
0.000000
66
1
0
VERTEX
8
Layer 1
10
52.635417
20
239.391000
70
0
0
VERTEX
8
Layer 1
10
76.968322
20
239.391000
70
0
0
SEQEND
8
Layer 1
0
POLYLINE
8
Layer 1
62
7
70
0
10
0.000000
20
0.000000
66
1
0
VERTEX
8
Layer 1
10
76.968322
20
239.391000
70
0
0
VERTEX
8
Layer 1
10
76.968322
20
235.391008
70
0
0
SEQEND
8
Layer 1
0
POLYLINE
8
Layer 1
62
7
70
0
10
0.000000
20
0.000000
66
1
0
VERTEX
8
Layer 1
10
76.968322
20
235.391008
70
0
0
VERTEX
8
Layer 1
10
101.301227
20
235.391008
70
0
0
SEQEND
8
Layer 1
0
POLYLINE
8
Layer 1
62
7
70
0
10
0.000000
20
0.000000
66
1
0
VERTEX
8
Layer 1
10
101.301227
20
235.391008
70
0
0
VERTEX
8
Layer 1
10
101.301227
20
239.391000
70
0
0
SEQEND
8
Layer 1
0
POLYLINE
8
Layer 1
62
7
70
0
10
0.000000
20
0.000000
66
1
0
VERTEX
8
Layer 1
10
101.301227
20
239.391000
70
0
0
VERTEX
8
Layer 1
10
125.635190
20
239.391000
70
0
0
SEQEND
8
Layer 1
0
POLYLINE
8
Layer 1
62
7
70
0
10
0.000000
20
0.000000
66
1
0
VERTEX
8
Layer 1
10
125.635190
20
239.391000
70
0
0
VERTEX
8
Layer 1
10
125.635190
20
235.391008
70
0
0
SEQEND
8
Layer 1
0
POLYLINE
8
Layer 1
62
7
70
0
10
0.000000
20
0.000000
66
1
0
VERTEX
8
Layer 1
10
125.635190
20
235.391008
70
0
0
VERTEX
8
Layer 1
10
149.968359
20
235.391008
70
0
0
SEQEND
8
Layer 1
0
POLYLINE
8
Layer 1
62
7
70
0
10
0.000000
20
0.000000
66
1
0
VERTEX
8
Layer 1
10
149.968359
20
235.391008
70
0
0
VERTEX
8
Layer 1
10
149.968359
20
239.391000
70
0
0
SEQEND
8
Layer 1
0
POLYLINE
8
Layer 1
62
7
70
0
10
0.000000
20
0.000000
66
1
0
VERTEX
8
Layer 1
10
149.968359
20
239.391000
70
0
0
VERTEX
8
Layer 1
10
174.301264
20
239.391000
70
0
0
SEQEND
8
Layer 1
0
POLYLINE
8
Layer 1
62
7
70
0
10
0.000000
20
0.000000
66
1
0
VERTEX
8
Layer 1
10
174.301264
20
239.391000
70
0
0
VERTEX
8
Layer 1
10
174.301264
20
235.391008
70
0
0
SEQEND
8
Layer 1
0
POLYLINE
8
Layer 1
62
7
70
0
10
0.000000
20
0.000000
66
1
0
VERTEX
8
Layer 1
10
174.301264
20
235.391008
70
0
0
VERTEX
8
Layer 1
10
198.634963
20
235.391008
70
0
0
SEQEND
8
Layer 1
0
POLYLINE
8
Layer 1
62
7
70
0
10
0.000000
20
0.000000
66
1
0
VERTEX
8
Layer 1
10
198.634963
20
235.391008
70
0
0
VERTEX
8
Layer 1
10
198.634963
20
239.391000
70
0
0
SEQEND
8
Layer 1
0
POLYLINE
8
Layer 1
62
7
70
0
10
0.000000
20
0.000000
66
1
0
VERTEX
8
Layer 1
10
198.634963
20
239.391000
70
0
0
VERTEX
8
Layer 1
10
222.968132
20
239.391000
70
0
0
SEQEND
8
Layer 1
0
POLYLINE
8
Layer 1
62
7
70
0
10
0.000000
20
0.000000
66
1
0
VERTEX
8
Layer 1
10
222.968132
20
239.391000
70
0
0
VERTEX
8
Layer 1
10
222.968132
20
235.391008
70
0
0
SEQEND
8
Layer 1
0
POLYLINE
8
Layer 1
62
7
70
0
10
0.000000
20
0.000000
66
1
0
VERTEX
8
Layer 1
10
222.968132
20
235.391008
70
0
0
VERTEX
8
Layer 1
10
247.301566
20
235.391008
70
0
0
SEQEND
8
Layer 1
0
POLYLINE
8
Layer 1
62
7
70
0
10
0.000000
20
0.000000
66
1
0
VERTEX
8
Layer 1
10
247.301566
20
235.391008
70
0
0
VERTEX
8
Layer 1
10
247.301566
20
239.391000
70
0
0
SEQEND
8
Layer 1
0
POLYLINE
8
Layer 1
62
7
70
0
10
0.000000
20
0.000000
66
1
0
VERTEX
8
Layer 1
10
247.301566
20
239.391000
70
0
0
VERTEX
8
Layer 1
10
271.634471
20
239.391000
70
0
0
SEQEND
8
Layer 1
0
POLYLINE
8
Layer 1
62
7
70
0
10
0.000000
20
0.000000
66
1
0
VERTEX
8
Layer 1
10
271.634471
20
239.391000
70
0
0
VERTEX
8
Layer 1
10
271.634471
20
235.391008
70
0
0
SEQEND
8
Layer 1
0
POLYLINE
8
Layer 1
62
7
70
0
10
0.000000
20
0.000000
66
1
0
VERTEX
8
Layer 1
10
271.634471
20
235.391008
70
0
0
VERTEX
8
Layer 1
10
299.968664
20
235.391008
70
0
0
SEQEND
8
Layer 1
0
POLYLINE
8
Layer 1
62
7
70
0
10
0.000000
20
0.000000
66
1
0
VERTEX
8
Layer 1
10
299.968664
20
235.391008
70
0
0
VERTEX
8
Layer 1
10
299.968664
20
239.391000
70
0
0
SEQEND
8
Layer 1
0
POLYLINE
8
Layer 1
62
7
70
0
10
0.000000
20
0.000000
66
1
0
VERTEX
8
Layer 1
10
299.968664
20
239.391000
70
0
0
VERTEX
8
Layer 1
10
295.968169
20
239.391000
70
0
0
SEQEND
8
Layer 1
0
POLYLINE
8
Layer 1
62
7
70
0
10
0.000000
20
0.000000
66
1
0
VERTEX
8
Layer 1
10
87.397390
20
377.390878
70
0
0
VERTEX
8
Layer 1
10
45.683499
20
377.390878
70
0
0
SEQEND
8
Layer 1
0
POLYLINE
8
Layer 1
62
7
70
0
10
0.000000
20
0.000000
66
1
0
VERTEX
8
Layer 1
10
45.683499
20
377.390878
70
0
0
VERTEX
8
Layer 1
10
45.683499
20
381.390844
70
0
0
SEQEND
8
Layer 1
0
POLYLINE
8
Layer 1
62
7
70
0
10
0.000000
20
0.000000
66
1
0
VERTEX
8
Layer 1
10
45.683499
20
381.390844
70
0
0
VERTEX
8
Layer 1
10
87.397390
20
381.390844
70
0
0
SEQEND
8
Layer 1
0
POLYLINE
8
Layer 1
62
7
70
0
10
0.000000
20
0.000000
66
1
0
VERTEX
8
Layer 1
10
87.397390
20
381.390844
70
0
0
VERTEX
8
Layer 1
10
87.397390
20
377.390878
70
0
0
SEQEND
8
Layer 1
0
POLYLINE
8
Layer 1
62
7
70
0
10
0.000000
20
0.000000
66
1
0
VERTEX
8
Layer 1
10
170.825173
20
377.390878
70
0
0
VERTEX
8
Layer 1
10
129.111281
20
377.390878
70
0
0
SEQEND
8
Layer 1
0
POLYLINE
8
Layer 1
62
7
70
0
10
0.000000
20
0.000000
66
1
0
VERTEX
8
Layer 1
10
129.111281
20
377.390878
70
0
0
VERTEX
8
Layer 1
10
129.111281
20
381.390844
70
0
0
SEQEND
8
Layer 1
0
POLYLINE
8
Layer 1
62
7
70
0
10
0.000000
20
0.000000
66
1
0
VERTEX
8
Layer 1
10
129.111281
20
381.390844
70
0
0
VERTEX
8
Layer 1
10
170.825173
20
381.390844
70
0
0
SEQEND
8
Layer 1
0
POLYLINE
8
Layer 1
62
7
70
0
10
0.000000
20
0.000000
66
1
0
VERTEX
8
Layer 1
10
170.825173
20
381.390844
70
0
0
VERTEX
8
Layer 1
10
170.825173
20
377.390878
70
0
0
SEQEND
8
Layer 1
0
POLYLINE
8
Layer 1
62
7
70
0
10
0.000000
20
0.000000
66
1
0
VERTEX
8
Layer 1
10
254.253749
20
377.390878
70
0
0
VERTEX
8
Layer 1
10
212.539593
20
377.390878
70
0
0
SEQEND
8
Layer 1
0
POLYLINE
8
Layer 1
62
7
70
0
10
0.000000
20
0.000000
66
1
0
VERTEX
8
Layer 1
10
212.539593
20
377.390878
70
0
0
VERTEX
8
Layer 1
10
212.539593
20
381.390844
70
0
0
SEQEND
8
Layer 1
0
POLYLINE
8
Layer 1
62
7
70
0
10
0.000000
20
0.000000
66
1
0
VERTEX
8
Layer 1
10
212.539593
20
381.390844
70
0
0
VERTEX
8
Layer 1
10
254.253749
20
381.390844
70
0
0
SEQEND
8
Layer 1
0
POLYLINE
8
Layer 1
62
7
70
0
10
0.000000
20
0.000000
66
1
0
VERTEX
8
Layer 1
10
254.253749
20
381.390844
70
0
0
VERTEX
8
Layer 1
10
254.253749
20
377.390878
70
0
0
SEQEND
8
Layer 1
 0 
ENDSEC
 0 
EOF